<svg width="124" height="200" viewBox="0 0 124 200" fill="none" xmlns="http://www.w3.org/2000/svg">
<path d="M56.2692 20.0314C60.5267 17.6634 64.8556 17.4069 69.3124 18.1047C70.5678 18.3052 71.6779 18.8856 72.689 19.6374C73.3582 20.1314 74.0079 20.6476 74.5137 21.0405C76.5919 21.0035 78.494 20.9456 80.395 20.9475C82.8253 20.9526 85.1872 21.4021 87.4891 22.2C89.1421 22.7713 90.7989 23.3245 92.4704 23.8056C93.3753 24.066 93.9381 24.6396 94.1836 25.4602C94.4945 26.4933 94.6861 27.5584 94.8518 28.622C95.1816 30.7751 95.7536 32.8462 96.8143 34.7693C98.3613 37.5849 100.584 39.3587 103.89 39.5806C105.714 39.7057 107.528 39.8929 109.352 40.0519C109.518 40.0671 109.689 40.0382 109.849 40.0635C112.985 40.442 116.12 40.7867 119.246 41.2273C124.462 41.9603 128.245 44.9439 131.133 49.1387C133.028 51.8865 134.358 54.9394 135.649 58.0108C136.914 61.0128 137.785 64.1373 138.665 67.2596C140.427 73.5201 141.907 79.8394 143.131 86.2188C144.363 92.5961 145.184 99.0322 145.333 105.538C145.372 107.112 145.302 108.699 145.213 110.274C144.955 114.75 143.189 118.623 140.502 122.147C138.988 124.13 137.521 126.159 136.172 128.251C135.094 129.92 134.041 131.651 133.295 133.479C131.648 137.542 131.083 141.827 131.412 146.205C131.494 147.274 131.803 148.333 132.09 149.372C132.579 151.133 133.126 152.887 133.686 154.629C134.034 155.704 134.011 156.733 133.598 157.798C132.575 160.373 131.279 162.757 129.403 164.82C126.77 167.715 124.033 170.511 120.959 172.937C118.073 175.21 114.889 177.035 111.56 178.575C107.781 180.312 104.003 182.049 100.134 183.579C94.4016 185.849 88.5437 187.81 82.4637 188.911C78.8703 189.558 75.2144 189.941 71.5426 189.851C65.0422 189.701 58.5786 189.243 52.2988 187.372C49.0836 186.409 46.0462 185.092 43.416 182.942C41.7881 181.606 40.4159 180.047 39.3691 178.24C38.9228 177.464 38.6242 176.573 38.4216 175.69C37.582 171.952 36.8319 168.198 36.0023 164.466C34.8886 159.514 33.6853 154.578 32.5955 149.62C31.6464 145.315 30.8267 140.984 29.8777 136.678C29.2874 133.998 28.5758 131.343 27.9198 128.672C26.48 122.853 25.0503 117.04 23.6105 111.222C23.3686 110.255 23.0769 109.294 22.835 108.327C22.6271 107.488 22.2965 106.827 21.4407 106.4C20.4076 105.884 19.9863 104.821 19.703 103.763C18.805 100.475 17.8969 97.1817 17.0863 93.8705C16.5311 91.6074 16.1131 89.316 15.6475 87.0374C14.666 82.2295 13.7142 77.405 12.6929 72.6077C11.9645 69.1893 11.1168 65.8029 10.3724 62.3887C9.3486 57.6773 8.18538 52.9862 7.78666 48.1585C7.7571 47.8255 7.71743 47.4867 7.74197 47.1648C7.9966 44.1392 8.77905 41.2705 10.3323 38.6384C11.5341 36.6033 13.207 35.1494 15.562 34.7144C17.3238 34.3872 18.5491 33.3941 19.6819 32.119C20.6187 31.0669 21.5958 30.038 22.6096 29.0505C26.508 25.2787 31.1678 24.1579 36.4173 25.2058C36.7419 25.2723 37.0634 25.3907 37.3917 25.4391C38.3485 25.5747 39.202 25.3886 39.9006 24.656C40.3598 24.175 40.8312 23.7078 41.3105 23.2385C44.1342 20.5131 47.5689 19.2093 51.4173 18.877C53.1204 18.7445 54.7229 19.1589 56.2692 20.0314ZM14.6498 75.3305C14.1909 76.0671 14.5545 76.7878 14.7181 77.494C16.4138 84.8719 18.1195 92.2557 19.839 99.6272C20.1983 101.159 20.6291 102.671 21.5049 104.286C21.5187 103.796 21.5746 103.56 21.5309 103.333C21.0626 101.14 20.6082 98.9353 20.0923 96.7554C19.5529 94.488 18.9022 92.2505 18.357 89.9932C17.2545 85.4648 16.1996 80.9236 15.1071 76.4011C15.0128 76.0173 14.7652 75.666 14.5893 75.2956C14.971 74.3666 14.5055 73.5197 14.2992 72.6546C13.94 71.123 13.5012 69.6127 13.0943 68.094C12.8769 67.2829 12.6596 66.4718 12.4423 65.6607C12.5658 67.4259 13.0212 69.0936 13.4628 70.7736C13.8518 72.2887 14.2508 73.8096 14.6498 75.3305ZM51.5369 106.824C51.1268 107.138 51.2816 107.557 51.3044 107.96C51.4028 109.536 51.559 111.105 51.5375 112.679C51.5203 113.791 50.944 114.312 49.9045 114.599C48.849 114.891 47.8895 114.713 47.1647 113.885C46.5641 113.202 45.9767 112.473 45.5362 111.687C44.1173 109.127 42.9734 106.417 42.5473 103.523C42.1003 100.455 41.1942 97.5187 40.4292 94.5362C40.0871 93.1961 39.8436 91.7784 39.0648 90.5893C37.9728 90.4899 36.9533 90.1836 35.8039 90.4745C36.0726 91.6042 36.2805 92.5712 36.5384 93.5333C38.031 99.1674 39.6884 104.749 41.314 110.339C44.1771 120.165 46.7084 130.089 49.3669 139.979C49.5821 140.782 49.7915 141.595 49.9171 142.414C49.9774 142.798 49.8708 143.227 49.7615 143.614C49.6485 144.02 48.9795 144.131 48.7245 143.816C48.5716 143.627 48.3927 143.436 48.307 143.212C47.8581 142.045 47.3455 140.895 47.0179 139.705C45.8734 135.529 44.7866 131.345 43.6897 127.156C42.6802 123.293 41.7502 119.409 40.6771 115.563C38.7013 108.508 36.5924 101.496 34.6325 94.436C33.2702 89.5426 31.9715 84.6322 30.834 79.687C29.7177 74.8214 28.8363 69.9099 27.8574 65.016C27.8115 64.7812 27.755 64.5065 27.8253 64.2917C27.8918 64.0949 28.1074 63.8496 28.2982 63.7985C28.4991 63.7532 28.8561 63.845 28.9565 63.9971C29.2131 64.4141 29.4306 64.8757 29.5484 65.347C30.8423 70.6849 32.1123 76.0292 33.3803 81.3655C33.9388 83.7044 34.5292 86.0349 35.3859 88.5325C36.4128 88.3256 37.399 89.1437 38.5002 88.4821C37.8936 85.9004 37.3365 83.4077 36.7057 80.9262C36.3786 79.6417 35.8425 78.4046 35.5393 77.1138C34.9519 74.6036 34.3284 72.086 33.9621 69.5421C33.6574 67.4505 33.0017 65.5126 32.274 63.5599C31.4499 61.3432 30.1471 59.6298 27.9129 58.7029C26.0831 57.9489 25.0404 56.5068 24.5376 54.6302C24.3245 53.835 24.0717 53.0505 23.8135 52.1822C19.7099 51.5942 15.6265 51.8446 11.5644 51.22C11.5293 51.63 11.4416 51.8751 11.4991 52.0898C12.2804 55.3236 13.0797 58.5611 13.8848 61.7885C13.9578 62.0928 14.1581 62.363 14.3898 62.8463C14.7409 61.9937 14.9808 61.2988 15.3014 60.6504C15.9542 59.3334 17.2126 58.8769 18.5102 58.5037C19.6749 58.1746 20.6304 58.5918 21.4724 59.3804C21.7363 59.6335 21.8384 59.8874 21.554 60.1938C21.4659 60.1833 21.3822 60.1887 21.3058 60.158C21.0766 60.066 20.8453 59.966 20.6219 59.864C19.2652 59.2218 18.2759 59.4102 17.3381 60.5223C16.6804 61.3121 16.3167 62.2448 16.2659 63.2641C16.2291 63.9217 16.2702 64.5839 16.2816 65.2627C15.8788 65.4132 15.5215 65.5431 15.0413 65.7229C15.1139 66.121 15.1446 66.5219 15.249 66.9115C15.714 68.6789 16.1871 70.4442 16.6781 72.2132C19.2966 81.5086 21.4576 90.9095 23.4618 100.361C24.7833 106.629 26.4192 112.83 27.886 119.067C29.3608 125.303 30.8515 131.534 32.2605 137.778C33.8182 144.673 35.2805 151.594 36.8144 158.495C37.6227 162.148 38.4809 165.796 39.331 169.446C39.4408 169.919 39.6482 170.375 39.8121 170.86C42.6962 172.081 45.5357 173.263 48.5411 173.984C51.6166 174.711 54.7015 175.41 57.8023 175.977C60.8308 176.529 63.8993 176.721 66.9851 176.755C70.1647 176.789 73.2971 176.393 76.4092 175.857C79.4217 175.331 82.3978 174.542 85.6921 173.796C85.3304 174.259 85.2004 174.601 84.9645 174.707C84.1971 175.023 83.4073 175.32 82.6036 175.501C79.683 176.148 76.7348 176.69 73.8169 177.379C70.0519 178.277 66.2563 178.424 62.4199 178.165C61.0925 178.078 59.771 177.98 58.4435 177.893C52.9202 177.54 47.5647 176.478 42.4618 174.292C41.788 174.003 41.1163 173.723 40.338 173.395C40.2828 173.793 40.1516 174.067 40.2361 174.223C40.4848 174.642 40.7462 175.109 41.1342 175.38C43.6679 177.139 46.2852 178.764 49.1078 180.011C53.4855 181.94 58.1055 182.961 62.8626 183.348C63.6904 183.416 64.523 183.406 65.3471 183.492C65.6553 183.528 65.954 183.721 66.24 183.866C66.2984 183.893 66.3484 184.016 66.3315 184.08C66.2919 184.219 66.2375 184.429 66.1363 184.465C65.8347 184.58 65.4933 184.705 65.1815 184.687C63.4441 184.564 61.681 184.568 59.9836 184.213C56.8897 183.576 53.8385 182.749 50.7858 181.947C47.4583 181.075 44.3846 179.623 41.5558 177.654L41.4461 177.658L41.6109 177.605C41.4761 178.374 41.9751 178.837 42.4307 179.328C45.1349 182.2 48.5127 183.929 52.2012 185.131C57.8775 186.976 63.7585 187.582 69.6676 187.72C77.3029 187.907 84.7604 186.668 92.0342 184.361C98.3029 182.374 104.381 179.868 110.335 177.088C113.053 175.814 115.686 174.41 118.175 172.728C122.626 169.712 126.387 165.969 129.768 161.824C130.032 161.506 130.32 161.182 130.493 160.811C130.642 160.507 131.011 160.102 130.525 159.848C128.911 161.108 127.412 162.447 125.751 163.531C122.541 165.61 119.245 167.558 115.957 169.505C115.28 169.908 114.562 170.407 113.477 170.144C113.799 169.819 113.98 169.54 114.239 169.394C118.536 166.981 122.422 163.989 126.125 160.763C127.881 159.236 129.583 157.638 131.209 155.975C132.212 154.948 131.789 154.004 130.238 153.559C129.101 154.503 127.915 155.417 126.801 156.415C122.869 159.931 118.463 162.731 113.795 165.158C108.911 167.702 103.853 169.816 98.6527 171.593C97.9419 171.835 97.2268 172.06 96.492 172.181C96.263 172.216 95.9741 171.902 95.712 171.75C95.8814 171.492 95.9912 171.139 96.2323 170.989C96.5762 170.777 97.0062 170.696 97.4038 170.59C99.4257 170.057 101.364 169.307 103.229 168.381C105.614 167.197 107.984 165.991 110.354 164.785C117.006 161.4 122.884 156.936 128.243 151.775C128.771 151.267 129.261 150.71 129.832 150.105C129.609 149.177 129.462 148.278 129.172 147.419C128.473 145.288 127.697 143.186 126.982 141.059C125.194 135.692 123.415 130.322 121.659 124.946C120.164 120.353 118.701 115.75 117.239 111.156C115.551 105.839 113.84 100.536 112.199 95.2059C110.361 89.2382 108.603 83.2492 106.781 77.2772C105.931 74.4878 105.028 71.7214 104.125 68.9549C103.982 68.516 103.711 68.1112 103.462 67.6242C101.024 69.4364 98.6985 71.1589 96.3594 72.8936C96.4425 73.2037 96.5038 73.5282 96.6129 73.8398C97.5505 76.5119 98.5654 79.1547 99.4235 81.848C101.402 88.1189 103.301 94.4111 105.24 100.693C105.362 101.086 105.527 101.477 105.665 101.866C106.608 104.528 107.607 107.175 108.481 109.864C110.078 114.771 111.525 119.727 113.167 124.614C114.224 127.765 115.462 130.859 116.744 133.925C117.316 135.297 118.164 136.553 118.986 137.807C119.433 138.489 119.987 139.158 120.868 139.203C121.518 139.148 121.87 138.108 122.748 138.87C122.347 139.634 121.943 140.415 121.578 141.118C120.088 141.603 119.003 141.178 118.077 140.173C116.606 138.564 115.337 136.816 114.46 134.818C113.657 132.996 112.967 131.119 112.193 129.281C110.223 124.601 108.587 119.798 107.123 114.941C105.296 108.885 103.532 102.812 101.735 96.7399C101.214 94.9874 100.675 93.2312 100.147 91.4808C98.8502 87.1833 97.5438 82.8801 96.2553 78.5805C95.8704 77.303 95.5253 76.0148 95.1266 74.7495C94.4809 72.6896 93.8092 70.6281 93.1396 68.5746C92.8383 67.6411 92.7927 66.7073 92.9326 65.7665C93.5774 65.7556 93.8323 66.0708 93.9908 66.4715C94.4398 67.6381 94.8649 68.8111 95.3218 69.9756C95.4867 70.4002 95.6993 70.812 95.9396 71.3271C97.2726 70.3222 98.4758 69.4373 99.6525 68.5169C100.815 67.6088 102.188 66.9427 103.111 65.6811C103.016 65.2294 102.951 64.8291 102.845 64.4315C100.529 56.2653 98.3458 48.0548 95.6741 39.9924C95.2388 38.6858 94.5054 37.8255 93.3005 37.3046C92.6145 37.0026 91.8862 36.7972 91.2023 36.5032C90.963 36.4054 90.535 36.3667 90.6808 35.8929C91.9206 35.3988 92.9994 36.4989 94.3583 36.3223C93.9384 34.1508 93.4259 32.1745 92.4309 30.2422C92.0939 30.5115 91.8195 30.6958 91.5896 30.9194C88.8109 33.59 85.7029 35.795 82.315 37.6232C76.3664 40.8364 70.162 43.4449 63.7391 45.5238C61.3638 46.2967 58.9949 47.0933 56.6239 47.8821C56.2327 48.0124 55.7688 48.0941 55.4918 48.3644C54.3758 49.4475 53.3266 50.5894 52.2552 51.7117L52.3336 51.6225C51.5347 51.8536 50.7295 52.0609 49.9391 52.3238C47.7229 53.054 45.5332 53.8197 43.492 54.9803C41.9313 55.8672 41.0356 57.1043 40.6033 58.8309C40.3674 59.7634 40.4003 60.6495 40.5191 61.5381C41.1021 66.1631 42.0196 70.7325 43.0427 75.2822C43.8589 78.9327 45.1507 82.4815 45.6309 86.2135C45.7117 86.8652 45.9521 87.5081 46.2021 88.1229C46.3106 88.4007 46.6121 88.6352 47.0247 88.2349C46.9862 87.964 46.927 87.6475 46.8837 87.3267C46.8349 86.9221 46.7278 86.4906 46.8032 86.104C46.8585 85.8334 47.1662 85.4868 47.4228 85.4266C47.6635 85.3706 48.0423 85.5759 48.2414 85.7782C48.4628 86.0002 48.5905 86.3495 48.6837 86.6654C49.8493 90.6655 51.0525 94.6471 52.1306 98.6706C53.1001 102.289 53.8866 105.956 54.8402 109.578C58.2239 122.461 61.6417 135.343 65.0435 148.23C65.2587 149.033 65.4023 149.855 65.5019 150.672C65.5549 151.093 65.3618 151.485 64.8465 151.598C64.794 151.561 64.6937 151.537 64.6788 151.481C64.3436 150.548 64.0381 149.599 63.6732 148.682C61.4924 143.088 59.9232 137.295 58.2788 131.54C56.0907 123.851 54.1968 116.083 52.1518 108.355C52.0047 107.807 51.7088 107.306 51.4822 106.779C51.5298 106.638 51.5954 106.501 51.6249 106.357C51.6323 106.321 51.5473 106.259 51.5006 106.211C51.5004 106.433 51.5176 106.625 51.5369 106.824ZM88.2758 26.4721C88.3351 25.9619 87.8273 25.2117 87.3943 24.9953C85.62 24.0986 83.9846 22.7982 81.9618 22.5646C79.7529 22.3042 77.5008 21.8509 75.3155 22.7603C74.556 23.0746 73.8399 22.883 73.176 22.4728C72.7562 22.2103 72.3126 21.9541 71.9299 21.6391C69.5169 19.6948 66.6882 19.1573 63.7172 19.2971C62.0692 19.3807 60.3772 19.4591 58.836 20.1959C58.323 20.4442 57.751 20.6315 57.6532 21.3481C57.5586 22.0126 57.0268 22.0955 56.5308 21.9301C55.9043 21.7229 55.31 21.4135 54.704 21.1241C53.1478 20.3735 51.5356 20.2089 49.8487 20.5927C47.8734 21.0453 46.0097 21.7237 44.4443 23.038C43.2333 24.0528 42.1056 25.1561 40.9535 26.2318C40.1691 26.9619 39.3989 27.7137 38.6854 28.3907C37.0367 27.8353 35.5407 27.3413 34.0505 26.8372C31.494 25.9796 29.163 26.536 26.8865 27.8363C24.0938 29.4369 22.1347 31.922 19.631 34.3145C20.7637 34.3434 21.5613 34.3938 22.3577 34.3764C23.3578 34.3556 24.3546 34.259 25.3489 34.2483C25.6623 34.241 25.9822 34.3854 26.2878 34.508C26.3462 34.535 26.3699 34.8781 26.3106 34.911C26.0377 35.0694 25.7415 35.268 25.4483 35.287C23.4593 35.4023 21.4608 35.5457 19.4659 35.5434C17.9302 35.5372 16.5053 35.9446 15.066 36.3303C14.3106 36.5327 13.7008 36.9603 13.2194 37.5495C11.1285 40.1466 9.121 44.7413 11.9527 49.1388C13.3121 49.8228 14.8239 49.8353 16.3024 49.8823C18.3743 49.9493 20.4577 49.8683 22.5339 49.9512C25.1255 50.0494 25.6482 49.9008 25.9101 53.0096C26.0991 55.3367 27.29 57.046 29.469 58.0218C31.6401 58.9997 32.9991 60.6043 33.6022 62.9824C34.9752 68.3928 36.521 73.7484 37.9338 79.1482C39.9763 86.9616 41.9392 94.7964 43.9817 102.61C44.4601 104.459 45.0281 106.292 45.6735 108.097C46.2896 109.824 47.1358 111.455 48.4265 112.805C48.7557 113.143 49.12 113.548 49.8025 113.169C49.8228 112.831 49.9236 112.412 49.8552 112.03C49.586 110.389 49.3385 108.734 48.9421 107.127C48.1001 103.731 47.149 100.372 46.2674 96.986C45.0351 92.2282 43.7393 87.4874 42.6523 82.6992C41.4321 77.3501 40.1541 72.0079 39.254 66.5816C38.8603 64.1899 38.6941 61.7885 38.9012 59.3807C39.0832 57.261 40.0209 55.5439 41.969 54.5446C43.6696 53.6713 45.3575 52.7503 47.1416 52.0933C52.3038 50.2072 51.7274 50.2509 54.5249 46.9189C54.5758 46.8542 54.6367 46.7952 54.6854 46.7225C55.1601 45.9817 55.8751 45.6282 56.7057 45.3886C61.5864 43.9785 66.3707 42.3045 71.121 40.5033C76.1967 38.5808 81.0268 36.1871 85.613 33.2964C87.1501 32.322 88.5375 31.1065 89.9355 29.9308C91.1937 28.8692 91.8108 27.451 91.9467 25.7953C90.6243 25.8855 90.584 25.8622 90.3087 26.2342C88.5113 28.7187 85.9764 30.3269 83.5333 32.0553C83.1465 32.3294 82.7678 32.7292 82.0564 32.4596C82.4046 31.4373 83.4219 31.1307 84.1227 30.5338C84.8787 29.888 85.6813 29.2895 86.4596 28.6633C87.2341 28.0552 88.1561 27.4247 88.2758 26.4721ZM130.3 75.927C130.234 75.9361 130.17 75.9532 130.112 75.9601C130.038 75.554 129.985 75.1336 129.894 74.7317C128.619 69.2098 127.217 63.722 124.029 58.9172C120.869 54.1558 116.848 50.7249 110.76 50.396C106.85 50.1822 103.826 52.859 103.863 56.8122C103.877 58.1379 103.943 59.4668 104.026 60.7913C104.054 61.2781 104.162 61.7775 104.314 62.2482C106.375 68.8292 108.455 75.4139 110.509 81.997C111.032 83.6636 111.438 85.3701 111.953 87.0388C113.733 92.7579 115.542 98.4606 117.33 104.178C118.028 106.402 118.655 108.646 119.367 110.859C119.649 111.721 119.913 112.673 120.481 113.33C121.337 114.328 122.415 115.139 123.455 115.968C124.797 117.032 126.231 116.946 127.643 116.107C128.43 115.641 129.208 115.142 129.903 114.556C131.726 113.027 133.182 111.239 133.482 108.764C133.665 107.283 133.921 105.791 133.932 104.306C133.969 99.6422 133.636 94.9931 132.907 90.3985C132.149 85.5649 131.183 80.7526 130.3 75.927ZM129.157 139.539C129.426 138.572 129.634 138.107 129.674 137.619C129.935 134.362 131.297 131.526 133.007 128.843C134.616 126.324 136.229 123.787 138.08 121.441C140.982 117.766 142.498 113.661 142.654 109.025C142.685 108.028 142.732 107.027 142.695 106.031C142.482 100.37 141.843 94.7372 140.828 89.171C139.235 80.3935 137.136 71.7344 134.481 63.2244C133.037 58.5999 130.949 54.2419 128.234 50.2139C125.336 45.9194 121.405 43.2398 116.146 42.7312C115.402 42.6579 114.659 42.5246 113.912 42.5032C109.656 42.3651 105.478 41.6267 101.29 41.0102C100.181 40.8471 99.0993 40.4979 97.8061 40.1882C97.9914 40.88 98.1034 41.3614 98.2471 41.8342C99.3074 45.1552 100.376 48.474 101.46 51.7886C101.521 51.9852 101.731 52.1334 101.904 52.3342C102.452 51.9915 102.958 51.7194 103.418 51.3662C106.39 49.0697 109.72 48.6463 113.344 49.1924C116.422 49.6458 118.98 51.1424 121.478 52.7997C123.02 53.8181 124.348 55.0818 125.319 56.671C127.491 60.2308 129.347 63.9438 130.543 67.9613C131.783 72.112 132.584 76.3718 133.535 80.5912C134.881 86.5373 135.739 92.5375 136.139 98.6093C136.36 102.01 136.479 105.413 135.899 108.815C135.486 111.219 134.498 113.256 132.698 114.872C131.716 115.757 130.7 116.703 129.531 117.272C127.165 118.426 124.68 119.142 122.234 117.326C122.126 117.244 121.926 117.29 121.705 117.263C121.707 117.493 121.661 117.735 121.725 117.94C123.011 121.976 124.313 126.008 125.623 130.037C125.662 130.155 125.838 130.236 125.957 130.331C126.1 130.259 126.331 130.231 126.377 130.117C127.802 126.88 129.972 124.133 132.06 121.333C132.374 120.916 132.476 120.181 133.264 120.26C133.71 120.302 133.607 120.935 132.973 121.974C132.754 122.331 132.479 122.643 132.28 123.012C131.115 125.123 129.912 127.218 128.828 129.375C127.916 131.187 127.584 133.16 127.66 135.193C127.714 136.602 128.046 137.936 129.157 139.539ZM50.5346 102.797C50.6062 102.778 50.6836 102.749 50.7551 102.729C49.6375 98.4949 48.5279 94.2582 47.4023 90.0258C47.3831 89.9542 47.304 89.8816 47.2356 89.8488C47.1953 89.8256 47.1221 89.8707 46.9233 89.924C46.9254 90.2814 46.8802 90.6855 46.9486 91.0678C47.0688 91.8026 47.2049 92.5332 47.4205 93.2424C48.2212 95.8489 49.0435 98.441 49.876 101.039C50.0697 101.635 50.3091 102.21 50.5346 102.797ZM50.9771 104.289L51.0616 104.446L51.0566 104.268L50.9771 104.289Z" fill="#4A4A4A"/>
<path d="M52.2493 51.7218C53.4762 51.5295 54.6982 51.2873 55.9341 51.1606C56.6298 51.085 56.9909 51.5422 57.019 52.3785C56.7381 52.5389 56.4 52.7403 56.0555 52.9178C54.7147 53.5754 53.2713 54.0729 52.0553 54.9101C49.4713 56.6849 48.3845 59.1494 49.3258 62.2806C49.9902 64.506 50.6727 66.735 51.3769 68.9497C52.3888 72.1217 53.476 75.2565 54.1719 78.5217C54.6188 80.6349 55.2825 82.6984 55.8667 84.7834C55.9051 84.9265 56.0685 85.0276 56.1684 85.1457C60.2464 84.8115 68.9278 82.7325 71.9652 81.3135C71.9345 80.9127 71.9583 80.429 71.8607 79.9694C70.928 75.566 69.4667 71.3212 67.9896 67.0807C67.2217 64.8831 66.3924 62.7104 65.4995 60.5548C64.0285 57.0371 61.9149 54.0154 58.6273 51.956C58.7549 51.3508 59.2428 51.3905 59.5834 51.4527C61.1915 51.7292 62.5563 52.497 63.6607 53.6925C65.4262 55.6058 66.7927 57.7794 67.8768 60.1394C70.4868 65.8406 72.1018 71.8679 73.526 77.9465C74.3607 81.5069 75.1636 85.0758 75.9606 88.6548C76.4447 90.8432 76.8096 93.0636 77.3732 95.2307C78.7759 100.625 80.2502 105.999 81.7085 111.379C81.9237 112.182 82.2344 112.959 82.4872 113.744C82.5883 114.058 82.6815 114.373 82.7089 114.698C82.7524 115.147 82.2583 115.689 81.7566 115.661C81.4809 115.65 81.0983 115.462 80.9607 115.235C80.7041 114.818 80.564 114.327 80.4102 113.849C78.1876 106.603 76.2454 99.2914 74.6929 91.8751C74.0998 89.0256 73.3614 86.2064 72.6729 83.3824C72.6346 83.2393 72.4907 83.1159 72.3048 82.8674C72.0678 82.9053 71.7523 82.9047 71.4624 82.9994C67.5753 84.237 63.6919 85.4565 59.6535 86.1295C58.6101 86.3068 57.5349 86.4926 56.509 87.1169C56.6356 87.8756 56.7617 88.6003 56.8797 89.3272C56.9198 89.5722 57.0283 89.8499 56.958 90.0647C56.8687 90.3358 56.6532 90.5811 56.4328 90.7765C56.3915 90.8131 55.9781 90.5745 55.9154 90.4038C55.5701 89.4651 55.2566 88.5178 54.9749 87.5621C53.9761 84.2161 53.025 80.8574 52.0023 77.5178C50.4723 72.5074 48.8866 67.5119 47.452 62.4759C46.3209 58.5092 47.9368 54.616 50.991 52.6556C51.4631 52.3501 51.888 51.9635 52.3415 51.6204L52.2493 51.7218Z" fill="#4A4A4A"/>
<path d="M105.622 124.224C104.427 124.441 104.124 124.361 103.849 123.778C103.745 123.55 103.665 123.316 103.594 123.08C101.809 117.277 99.8964 111.508 98.2705 105.662C96.2467 98.3639 94.4693 90.9994 92.5568 83.671C91.9272 81.2574 91.2418 78.8587 90.5724 76.4557C90.4893 76.1456 90.3129 75.869 90.1321 75.4487C89.0917 75.9235 88.1489 76.3806 87.1731 76.7785C86.0982 77.2199 85.0069 77.6316 83.9091 78.0195C82.9046 78.3739 81.8895 78.6885 80.7992 79.0403C81.4269 81.5738 82.1021 83.9667 82.9025 86.3176C83.4948 88.0509 84.0711 89.7885 84.6237 91.5324C85.5478 94.4723 86.4538 97.4084 87.3382 100.359C87.7444 101.716 88.095 103.088 88.4376 104.462C89.1654 107.369 89.8853 110.279 90.5792 113.186C90.811 114.147 91.1744 115.089 91.0652 116.082C90.539 116.376 90.1697 116.143 90.0133 115.75C89.4393 114.276 88.8495 112.806 88.4108 111.296C87.1679 106.975 86.0523 102.621 84.7697 98.3114C83.0382 92.4857 81.1498 86.7105 79.4205 80.8927C78.7853 78.7447 78.4024 76.5206 77.9082 74.3264C77.8757 74.1732 77.8686 73.9876 77.922 73.8369C77.9637 73.7064 78.0807 73.5387 78.1978 73.4988C78.3229 73.4567 78.5711 73.4925 78.6386 73.5852C78.8797 73.9127 79.1251 74.256 79.2592 74.6291C79.6024 75.5599 79.8819 76.5077 80.1725 77.4014C82.7628 77.3039 87.1673 75.4846 89.6266 73.5302C89.5801 73.2614 89.5585 72.9263 89.4674 72.6183C88.6254 69.5712 87.8767 66.4906 86.8937 63.4899C85.3656 58.8369 84.0677 54.0881 81.8151 49.689C80.9003 47.8972 79.8181 46.244 78.0817 45.107C78.3338 44.4258 78.8765 44.6383 79.2977 44.7471C80.3045 45.0057 81.027 45.6984 81.685 46.4682C83.2701 48.3445 84.2458 50.5547 85.1283 52.7983C87.0336 57.6826 88.5239 62.7036 89.9845 67.7412C93.5509 79.97 96.7278 92.3033 99.9624 104.63C101.208 109.375 102.82 114.023 104.247 118.711C104.661 120.066 105.067 121.423 105.432 122.783C105.576 123.256 105.564 123.753 105.622 124.224Z" fill="#4A4A4A"/>
<path d="M57.765 96.9564C58.4639 96.4794 59.0175 96.51 59.3714 97.1311C59.6945 97.7008 59.9487 98.3315 60.1351 98.9634C61.0382 102.079 61.9413 105.195 62.7728 108.33C64.1141 113.4 65.5848 118.443 66.6436 123.571C67.9781 130.015 69.8215 136.322 71.4183 142.695C72.2661 146.082 73.2649 149.428 74.5717 152.682C75.3014 154.515 76.5138 155.955 77.8253 157.35C78.421 157.983 79.1865 158.264 80.0747 158.239C82.7372 158.156 85.1011 157.182 87.2857 155.761C88.6941 154.847 89.4678 153.472 89.5915 151.803C89.7089 150.237 89.6943 148.656 89.7237 147.08C89.7336 146.481 89.788 145.921 90.5858 145.622C91.3164 146.44 91.4885 147.527 91.5634 148.539C91.6594 149.851 91.6223 151.207 91.3984 152.503C91.0409 154.636 89.4862 155.99 87.7746 157.045C85.2804 158.583 82.607 159.674 79.5968 159.859C77.7854 159.969 76.2996 159.481 75.2325 158.011C74.5478 157.078 73.8626 156.111 73.3697 155.067C71.7498 151.598 70.4373 148.003 69.5022 144.291C68.4819 140.26 67.5968 136.194 66.6003 132.157C65.306 126.913 64.282 121.596 62.7947 116.395C61.6045 112.24 60.6587 108.01 59.5719 103.827C59.1148 102.058 58.5464 100.318 58.0633 98.5469C57.9126 98.0163 57.8552 97.4521 57.765 96.9564Z" fill="#4A4A4A"/>
<path d="M44.0314 146.403C43.8064 146.199 43.4721 146.033 43.37 145.779C43.0694 145.007 42.8304 144.21 42.6231 143.405C40.8139 136.398 38.9808 129.398 37.2352 122.375C35.8322 116.725 34.5246 111.05 33.1852 105.383C32.2498 101.415 31.3404 97.4488 30.3891 93.485C30.1381 92.4528 30.0239 91.3584 29.4633 90.4433C27.8478 90.2029 26.2906 89.9895 24.7503 89.7118C24.2836 89.6238 23.8008 89.4123 23.4128 89.1413C23.1925 88.9872 22.9757 88.5595 23.0396 88.3208C23.0823 88.1304 23.5598 87.9087 23.8138 87.9344C24.5521 88.0178 25.2804 88.2232 26.0177 88.3666C26.9093 88.5453 27.7978 88.776 28.8814 88.4942C28.9021 88.0625 29.0118 87.5814 28.9206 87.1456C28.5217 85.2752 28.1069 83.4091 27.6264 81.5521C26.3269 76.4799 24.9936 71.4083 23.6703 66.3425C23.4247 65.3941 23.161 64.442 22.85 63.2811C23.2829 63.4974 23.6574 63.559 23.8009 63.7763C24.2067 64.4005 24.6031 65.0528 24.8426 65.7556C25.5306 67.719 26.2265 69.6802 26.7635 71.684C27.8181 75.6201 28.7933 79.5775 29.7446 83.5413C31.6818 91.6301 33.5873 99.7273 35.5087 107.82C36.3939 111.538 37.2813 115.263 38.2143 118.967C38.884 121.626 39.6253 124.265 40.3689 127.041C40.8382 127.043 41.3855 127.049 41.9688 127.064C42.795 127.984 42.8373 129.192 43.0757 130.304C43.8287 133.878 44.5282 137.474 45.2654 141.052C45.4462 141.95 45.7145 142.824 45.9113 143.717C45.9699 144 45.9152 144.304 45.8955 145.153C44.5821 142.573 44.3592 140.247 43.7329 138.037C43.1237 135.89 42.5681 133.721 41.8777 131.145C41.6419 131.728 41.4815 131.924 41.514 132.077C42.4501 136.207 43.4202 140.336 44.3563 144.466C44.4886 145.087 44.7476 145.768 44.0314 146.403Z" fill="#4A4A4A"/>
<path d="M91.3885 119.992C91.953 119.713 92.2746 119.959 92.4432 120.366C92.8633 121.361 93.2516 122.365 93.6023 123.387C95.4222 128.653 97.0433 133.971 98.5573 139.335C99.1394 141.412 99.9658 143.415 100.729 145.435C101.245 146.788 102.101 147.854 103.459 148.53C105.968 149.784 108.637 148.677 109.316 145.93C109.555 144.979 109.61 143.942 109.519 142.969C109.411 141.736 109.117 140.511 108.811 139.306C107.942 135.84 107.025 132.387 106.156 128.921C105.979 128.227 105.603 127.493 106.238 126.811C107.049 126.688 107.51 127.135 107.77 127.79C108.262 129.022 108.804 130.249 109.131 131.533C109.921 134.671 110.673 137.827 111.286 141.004C111.521 142.202 111.397 143.488 111.31 144.722C111.259 145.452 111.031 146.194 110.755 146.882C109.739 149.387 108.237 150.429 105.554 150.244C102.749 150.05 100.457 148.874 99.1578 146.188C98.0654 143.924 97.3959 141.521 96.7922 139.109C95.5939 134.351 94.358 129.611 92.7006 124.984C92.1122 123.361 91.5094 121.715 91.3885 119.992Z" fill="#4A4A4A"/>
<path d="M84.6278 106.974C85.3596 109.164 86.1311 111.344 86.8072 113.549C88.3005 118.391 89.8038 123.238 91.1936 128.107C92.1 131.298 92.8097 134.551 93.6286 137.767C93.977 139.131 94.3255 140.495 94.7535 141.837C95.9596 145.639 97.2193 149.418 98.4414 153.215C99.0524 155.114 99.8378 156.932 100.895 158.618C100.673 159.095 100.324 158.873 100.054 158.758C99.3401 158.446 98.8241 157.92 98.5284 157.198C97.712 155.201 96.7307 153.256 96.1269 151.194C94.4215 145.369 92.883 139.5 91.2751 133.659C89.4072 126.847 87.5394 120.035 85.6715 113.223C85.2118 111.539 84.7442 109.858 84.3084 108.168C84.2062 107.786 84.2333 107.378 84.1946 106.98C84.3325 106.985 84.4762 106.981 84.6278 106.974Z" fill="#4A4A4A"/>
<path d="M50.0931 147.778C50.5725 147.309 50.9871 147.266 51.2887 147.629C51.5495 147.934 51.6841 148.341 51.8442 148.715C52.786 150.926 53.5576 153.234 54.7151 155.327C55.6255 156.975 56.9476 158.41 58.2135 159.827C58.7386 160.419 59.5578 160.805 60.308 161.124C61.9093 161.819 63.4715 161.384 64.5188 160.012C64.7591 159.701 64.9018 159.279 64.983 158.882C65.1032 158.313 65.0893 157.72 65.2116 157.159C65.2522 156.961 65.6002 156.637 65.6586 156.664C65.9244 156.798 66.2953 157.005 66.3412 157.24C66.8694 159.911 66.5309 160.683 64.4343 162.114C62.7187 163.282 60.8047 163.581 58.7562 162.647C55.7212 161.245 53.7436 158.826 52.3216 155.968C51.4392 154.202 51.0243 152.208 50.3995 150.321C50.1153 149.451 50.1062 148.559 50.0931 147.778Z" fill="#4A4A4A"/>
<path d="M77.3485 67.0531C77.143 68.1309 78.1558 68.9845 77.6179 70.1258C77.3303 70.0068 76.9225 69.9797 76.7812 69.7704C76.3695 69.1563 75.997 68.4976 75.7438 67.807C74.3456 63.9885 72.9633 60.1657 71.6208 56.3323C71.2138 55.163 70.8957 53.9442 70.6477 52.7323C70.1698 50.4399 70.5305 48.2553 71.8496 46.3081C72.3017 45.6415 72.941 45.0696 73.5916 44.5714C73.8676 44.3611 74.3656 44.4067 74.7649 44.4019C75.0805 44.4026 75.3446 44.9114 75.1789 45.1518C75.0365 45.3519 74.8861 45.5541 74.7114 45.7288C73.2378 47.1633 72.7172 48.9733 72.7741 50.9353C72.8156 52.3304 72.9536 53.7678 73.3454 55.1032C74.3688 58.6045 75.5492 62.0552 76.7329 65.7096C77.3379 65.2321 77.7569 64.8556 78.2253 64.5682C78.3853 64.4657 78.7751 64.489 78.8771 64.6151C78.9992 64.7529 79.0198 65.1479 78.9124 65.2875C78.4549 65.8703 77.9327 66.4023 77.3485 67.0531Z" fill="#4A4A4A"/>
<path d="M71.207 156.729C69.9391 155.782 69.6903 154.885 69.4046 154.041C68.8336 152.387 68.2626 150.734 67.8189 149.046C65.715 140.908 63.6351 132.764 61.5789 124.613C59.908 117.995 58.2711 111.377 56.624 104.753C56.4375 103.994 56.0654 103.241 56.3254 102.43C57.0549 102.354 57.1149 102.832 57.2129 103.198C58.1372 106.743 59.1251 110.271 59.928 113.84C62.046 123.175 64.4502 132.434 66.96 141.674C67.8287 144.884 68.7235 148.096 69.6558 151.289C70.0306 152.561 70.5486 153.794 70.9632 155.055C71.0851 155.415 71.0819 155.816 71.207 156.729Z" fill="#4A4A4A"/>
<path d="M121.962 131.197C121.23 131.172 121.074 130.557 120.888 130.053C120.03 127.709 119.158 125.378 118.393 123C116.924 118.408 115.503 113.803 114.105 109.192C113.215 106.252 112.41 103.28 111.552 100.331C111.018 98.4968 110.428 96.6776 109.878 94.8477C109.766 94.4602 109.699 94.052 109.53 93.262C110.075 93.7381 110.482 93.919 110.584 94.2068C111.068 95.5346 111.45 96.898 111.894 98.2365C113.477 102.968 115.13 107.673 116.658 112.42C118.01 116.609 119.23 120.842 120.528 125.053C120.993 126.565 121.527 128.05 122.006 129.549C122.183 130.081 122.444 130.642 121.962 131.197Z" fill="#4A4A4A"/>
<path d="M121.928 135.937C121.74 135.936 121.446 136.015 121.334 135.917C120.622 135.23 119.85 134.576 119.285 133.772C117.784 131.669 116.628 129.388 115.76 126.945C113.579 120.745 111.835 114.428 110.206 108.064C109.313 104.604 108.303 101.184 107.371 97.7354C107.226 97.1947 107.192 96.6242 107.053 95.7239C107.573 96.1045 107.938 96.2282 108.016 96.4545C108.418 97.5401 108.776 98.6543 109.084 99.7733C110.458 104.74 111.75 109.721 113.179 114.673C114.332 118.66 115.544 122.639 116.909 126.56C117.946 129.538 119.292 132.399 121.414 134.813C121.633 135.061 121.804 135.348 121.99 135.63C122.009 135.668 121.959 135.766 121.928 135.937Z" fill="#4A4A4A"/>
<path d="M92.1888 60.4774C91.5985 60.8827 91.1329 60.8626 90.8305 60.3385C90.4973 59.763 90.2156 59.1567 89.9895 58.5354C88.5524 54.5399 87.022 50.5778 86.1293 46.4193C85.8499 45.1221 85.6659 43.7992 85.5917 42.4726C85.5294 41.3813 85.7105 40.276 86.7272 39.5859C86.9365 39.4446 87.2872 39.5126 87.6201 39.4831C87.1181 43.1119 87.0721 43.2264 88.1297 46.9828C88.8284 49.4631 89.7158 51.8844 90.5099 54.3392C91.0491 56.0015 91.5803 57.666 92.0877 59.3368C92.1878 59.7106 92.1549 60.1285 92.1888 60.4774Z" fill="#4A4A4A"/>
<path d="M37.9477 137.312C36.7924 133.445 35.4476 128.999 34.5719 124.426C34.4513 123.786 34.468 123.116 34.463 122.461C34.4613 122.36 34.6541 122.189 34.7696 122.175C34.9011 122.156 35.1044 122.247 35.1761 122.356C35.3131 122.549 35.411 122.787 35.4727 123.018C36.3635 126.469 37.2384 129.925 38.1292 133.377C38.3151 134.102 38.4931 134.83 38.7644 135.525C40.6426 140.339 41.6959 145.384 42.9639 150.371C43.0279 150.609 43.0759 150.852 43.1181 151.105C43.2025 151.611 42.9713 152.116 42.6595 152.097C42.1838 152.071 41.8971 151.764 41.7842 151.343C41.4332 150.065 41.096 148.775 40.7847 147.486C40.0056 144.26 39.3855 140.992 37.9477 137.312Z" fill="#4A4A4A"/>
<path d="M89.3768 142.255C88.9167 142.447 88.6307 142.302 88.5131 141.958C88.0187 140.463 87.5482 138.961 87.0935 137.455C85.7433 132.925 84.3989 128.385 83.0704 123.84C82.8627 123.129 82.6927 122.399 82.6144 121.661C82.5929 121.454 82.9531 121.144 83.2064 121.008C83.349 120.936 83.7325 121.063 83.8351 121.223C84.0997 121.638 84.3309 122.088 84.4566 122.557C85.9872 128.078 87.502 133.604 89.0146 139.122C89.2937 140.164 89.515 141.212 89.3768 142.255Z" fill="#4A4A4A"/>
<path d="M43.1203 167.621C47.6646 168.773 52.134 168.913 56.5997 169.072C58.9994 169.153 61.4021 169.183 63.8018 169.264C64.4472 169.287 65.1593 169.241 65.5696 170.009C65.3677 170.114 65.1653 170.313 64.9617 170.317C58.7574 170.317 52.5407 170.654 46.3598 169.787C45.377 169.65 44.4068 169.432 43.4542 169.185C42.9926 169.053 42.8939 168.525 43.1203 167.621Z" fill="#4A4A4A"/>
<path d="M26.7913 93.6396C27.4845 93.3004 27.9174 93.5168 28.1593 94.006C28.4469 94.6022 28.6831 95.2292 28.8536 95.8654C29.4757 98.1872 30.074 100.516 30.6405 102.852C31.5608 106.637 32.4493 110.43 33.3379 114.223C33.4413 114.673 33.4413 115.15 33.5036 115.764C33.121 115.577 32.8266 115.528 32.7321 115.366C32.5264 115.012 32.3939 114.613 32.2874 114.215C31.0962 109.642 29.9288 105.063 28.7297 100.492C28.3094 98.8918 27.8096 97.3127 27.3474 95.715C27.144 95.0195 26.9724 94.3155 26.7913 93.6396Z" fill="#4A4A4A"/>
<path d="M120.712 151.978C120.409 152.63 120.302 153.119 120.006 153.446C119.623 153.864 119.109 154.172 118.636 154.503C115.639 156.584 112.497 158.407 109.194 159.948C108.156 160.431 107.016 160.693 105.913 161.031C105.826 161.055 105.619 160.889 105.569 160.766C105.517 160.635 105.531 160.401 105.618 160.309C105.848 160.086 106.108 159.88 106.393 159.735C110.883 157.441 115.265 154.963 119.524 152.254C119.787 152.09 120.141 152.106 120.712 151.978Z" fill="#4A4A4A"/>
<path d="M36.5809 151.74C36.5532 151.637 36.5026 151.48 36.4658 151.311C36.3932 150.912 36.2506 150.507 36.6586 150.185C36.9701 149.948 37.5299 150.224 37.7624 150.869C38.5178 152.925 39.5716 154.791 41.1373 156.34C41.4866 156.69 41.8402 157.055 42.2404 157.34C43.0047 157.902 43.828 157.699 44.3249 156.85C44.5366 156.495 44.6374 156.075 44.8814 155.746C44.9947 155.596 45.3547 155.508 45.5472 155.559C45.7477 155.608 46.0015 155.855 46.0368 156.05C46.2764 157.358 45.6578 158.453 44.4593 158.782C42.8414 159.233 41.3214 159.095 40.1282 157.727C38.5952 155.981 37.2969 154.062 36.5809 151.74Z" fill="#4A4A4A"/>
<path d="M91.0123 39.5796C91.4428 39.0551 91.8923 39.3012 92.1418 39.5326C92.6833 40.0267 93.1999 40.5872 93.5798 41.2098C95.2465 43.8995 96.2549 46.8679 97.1722 49.8777C97.242 50.1062 97.2826 50.3851 97.2123 50.6C97.15 50.8127 96.9748 51.0812 96.784 51.1323C96.6032 51.1893 96.2499 51.0794 96.1495 50.9273C95.9243 50.5957 95.7997 50.1944 95.6396 49.8197C94.6281 47.3805 93.9855 44.7914 92.6984 42.4687C92.1627 41.4872 91.5734 40.5287 91.0123 39.5796Z" fill="#4A4A4A"/>
<path d="M43.7504 58.7122C44.0606 59.5837 44.3695 60.2594 44.5411 60.9634C45.898 66.5998 47.5612 72.1711 48.4007 77.912C47.693 78.1016 47.5228 77.7211 47.42 77.3054C47.0261 75.6127 46.6777 73.8993 46.26 72.2129C45.3003 68.3451 44.3088 64.4859 43.3492 60.6181C43.2287 60.1049 42.8717 59.5358 43.7504 58.7122Z" fill="#4A4A4A"/>
<path d="M106.314 90.1013C105.485 90.3489 105.37 89.7917 105.223 89.3369C104.407 86.8026 103.592 84.2683 102.808 81.7254C102.075 79.3395 101.358 76.9493 100.665 74.5527C100.512 74.0141 100.46 73.4399 100.339 72.765C100.73 72.8563 101.007 72.8416 101.153 72.9729C101.322 73.1239 101.388 73.4043 101.458 73.6328C102.945 78.4842 104.433 83.3356 105.904 88.1912C106.088 88.8151 106.179 89.4726 106.314 90.1013Z" fill="#4A4A4A"/>
<path d="M80.1233 131.099C79.7092 131.176 79.3727 131.351 79.1276 131.263C78.5048 131.038 77.8989 130.749 77.3358 130.397C74.442 128.598 71.5657 126.77 68.6915 124.949C68.4251 124.782 68.219 124.522 68.0263 124.343C68.1198 123.611 68.4674 123.381 69.0796 123.566C69.1539 123.589 69.2404 123.626 69.303 123.669C72.6937 125.922 76.0902 128.165 79.475 130.429C79.673 130.563 79.8164 130.78 80.1233 131.099Z" fill="#4A4A4A"/>
<path d="M54.7962 165.967C54.069 165.829 53.7101 165.857 53.4877 165.695C52.8954 165.266 52.2569 164.824 51.8219 164.25C49.7404 161.475 48.6591 158.33 48.4238 154.43C48.933 155.027 49.2807 155.275 49.394 155.602C49.7425 156.617 50.0715 157.654 50.2769 158.706C50.7966 161.346 52.1519 163.445 54.2013 165.146C54.3171 165.26 54.3936 165.419 54.7962 165.967Z" fill="#4A4A4A"/>
<path d="M80.6646 95.6187C80.464 95.0929 80.2396 94.5735 80.0709 94.0391C79.4374 91.993 78.8119 89.9447 78.2181 87.8879C78.0126 87.1845 77.8924 86.4497 77.7982 85.7164C77.7758 85.569 78.0479 85.2489 78.1837 85.2467C78.3714 85.2475 78.694 85.4338 78.7388 85.6008C79.5936 88.6955 80.4187 91.8068 81.2258 94.9143C81.2748 95.0972 81.1251 95.3334 81.0707 95.544C80.9312 95.5643 80.7939 95.5925 80.6646 95.6187Z" fill="#4A4A4A"/>
<path d="M69.4017 47.16C69.3496 47.5063 69.3781 47.7714 69.2611 47.9391C68.5125 49.026 67.8383 50.1357 67.4023 51.403C67.1075 52.2747 66.4219 52.3561 65.6512 51.77C64.9352 51.2289 64.1859 50.7223 63.4699 50.1812C63.0957 49.8979 62.7548 49.5802 62.4348 49.308C62.6711 48.7589 63.0239 48.8348 63.2998 48.9739C64.1758 49.4125 65.0227 49.9015 65.9598 50.4089C67.0551 49.2802 67.3009 47.2712 69.4017 47.16Z" fill="#4A4A4A"/>
<path d="M101.137 63.5937C100.812 63.4933 100.453 63.4874 100.284 63.3025C100.017 63.0075 99.8109 62.6196 99.7007 62.24C99.1412 60.4382 98.6034 58.6221 98.0917 56.8076C98.0363 56.6008 98.1399 56.3515 98.1741 56.1293C98.3777 56.1258 98.6083 56.064 98.6715 56.1408C99.6317 57.3069 101.085 61.6476 101.137 63.5937Z" fill="#4A4A4A"/>
<path d="M37.05 140.927C36.2998 141.085 35.9435 140.678 35.7902 140.233C35.2181 138.512 34.7017 136.775 34.2308 135.018C34.1754 134.811 34.4591 134.343 34.6579 134.29C34.8964 134.226 35.2456 134.447 35.5099 134.607C35.6309 134.677 35.6783 134.885 35.7267 135.034C36.1922 136.708 36.6556 138.374 37.0892 140.056C37.158 140.344 37.0634 140.659 37.05 140.927Z" fill="#4A4A4A"/>
<path d="M113.272 151.44C114.313 149.312 114.463 148.888 114.289 146.711C114.167 145.141 113.843 143.583 113.605 142.027C113.534 141.569 113.454 141.113 113.385 140.663C113.958 140.544 114.169 140.888 114.228 141.17C114.723 143.526 115.507 145.847 115.3 148.289C115.221 149.265 114.843 150.21 114.588 151.165C114.515 151.371 114.471 151.366 113.272 151.44Z" fill="#4A4A4A"/>
<path d="M82.4555 167.411C82.1126 167.562 81.7932 167.801 81.4348 167.863C78.9679 168.294 76.5449 169.08 73.7238 169.111C73.9985 168.705 74.0857 168.426 74.231 168.396C76.5519 167.833 78.867 167.281 81.2028 166.775C81.5649 166.695 81.9872 166.871 82.3775 166.929C82.4042 167.092 82.4288 167.247 82.4555 167.411Z" fill="#4A4A4A"/>
<path d="M25.3175 58.1455C25.0324 58.2901 24.8274 58.4473 24.7727 58.4023C24.4431 58.1583 24.1034 57.9083 23.8644 57.5889C22.6062 55.9147 20.8893 55.5821 18.961 55.8602C18.3216 55.9548 17.6945 56.191 17.0822 56.3551C16.878 55.8473 17.0803 55.6482 17.3972 55.4951C18.649 54.887 19.9821 54.8366 21.3075 55.0439C23.1273 55.3149 24.6517 56.074 25.3175 58.1455Z" fill="#4A4A4A"/>
<path d="M96.5672 163.715C96.3612 163.932 96.1871 164.268 95.9327 164.336C94.1955 164.819 92.4477 165.262 90.7015 165.678C90.5323 165.715 90.1858 165.535 90.1273 165.38C90.0709 165.234 90.246 164.837 90.3891 164.799C92.3489 164.257 94.2906 163.583 96.5672 163.715Z" fill="#4A4A4A"/>
<path d="M76.0001 164.121C75.8527 164.143 75.6646 164.236 75.5717 164.176C73.831 163.023 72.4245 161.559 71.508 159.665C71.4315 159.507 71.5472 159.143 71.6892 159.037C71.8253 158.941 72.2252 158.97 72.3293 159.104C73.5847 160.609 74.8046 162.14 76.0266 163.679C76.0978 163.753 76.0095 163.965 76.0001 164.121Z" fill="#4A4A4A"/>
<path d="M96.3502 180.017C95.486 180.163 95.2444 180.279 95.0439 180.231C93.0446 179.735 91.1009 179.097 89.2519 178.271C89.2253 177.758 89.5182 177.484 89.8248 177.547C91.9363 177.952 93.9316 178.688 96.3502 180.017Z" fill="#4A4A4A"/>
<path d="M53.5757 145.763C53.8368 145.02 54.295 145.076 54.6473 145.246C56.133 145.956 57.5916 146.724 59.0561 147.482C59.1065 147.511 59.1046 147.631 59.1259 147.71C57.9381 148.208 56.8834 147.834 53.5757 145.763Z" fill="#4A4A4A"/>
<path d="M49.314 82.1159C50.6156 84.5882 51.0007 85.9935 50.9189 87.6602C50.0825 87.0832 50.0825 87.0833 49.7345 86.1026C48.946 83.8594 48.9026 83.5387 49.314 82.1159Z" fill="#4A4A4A"/>
<path d="M84.916 66.8919C84.9851 67.0864 85.0483 67.1632 85.0314 67.2274C84.7901 68.5534 83.6498 68.7823 82.6426 69.0947C81.8141 69.3423 80.9866 69.1805 80.3521 68.4983C79.9576 68.0756 79.8267 67.6504 80.3931 67.2515C81.1712 67.4521 81.9687 67.852 82.7285 67.7933C83.4762 67.7208 84.1904 67.2056 84.916 66.8919Z" fill="#4A4A4A"/>
<path d="M83.5984 44.4809C81.821 44.1135 81.0537 42.7765 79.8075 42.2922C79.9457 41.7268 80.2256 41.6262 80.5577 41.7844C81.2162 42.1108 81.8594 42.4754 82.5083 42.8299C83.3357 42.5144 83.1224 41.1142 84.2769 41.1287C84.3507 41.2453 84.5068 41.3825 84.4804 41.4748C84.2206 42.4137 83.9349 43.351 83.5984 44.4809Z" fill="#4A4A4A"/>
<path d="M70.6227 122.582C71.0174 122.306 71.1858 122.107 71.2701 122.136C73.4803 122.941 75.2913 124.356 77.0874 125.716C76.9115 126.3 76.6003 126.315 76.3015 126.123C74.4675 125.003 72.6409 123.848 70.6227 122.582Z" fill="#4A4A4A"/>
<path d="M59.987 67.0176C59.8287 68.5259 58.8487 68.9078 57.9718 69.1342C56.7769 69.4459 55.7254 69.0202 54.9874 67.7606C55.3181 67.5953 55.5702 67.3914 55.847 67.3428C56.0601 67.3113 56.3296 67.4265 56.5196 67.5631C57.4633 68.2222 58.3414 68.1915 59.1825 67.3865C59.2964 67.2708 59.4756 67.2398 59.987 67.0176Z" fill="#4A4A4A"/>
<path d="M93.2355 97.3043C92.1047 97.9823 92.0946 97.9765 88.1991 96.5743C88.6378 96.3034 88.9651 95.9345 89.2965 95.9309C90.7436 95.8926 92.0127 96.4303 93.2355 97.3043Z" fill="#4A4A4A"/>
<path d="M57.1133 142.744C55.4103 142.527 54.0106 141.82 52.2102 140.444C52.4195 140.303 52.6387 140.04 52.7931 140.075C54.5038 140.512 55.9292 141.442 57.1133 142.744Z" fill="#4A4A4A"/>
<path d="M79.488 52.7414C79.7138 53.107 79.957 53.3146 79.9338 53.4828C79.6852 55.3221 78.1135 56.2631 76.3655 55.6235C76.2047 55.5643 76.0999 55.2686 76.0604 55.0576C76.0449 54.968 76.2393 54.771 76.3644 54.729C76.5849 54.6613 76.85 54.6329 77.0722 54.6671C78.1617 54.8525 78.7831 54.4047 79.0189 53.3444C79.0527 53.216 79.2005 53.0997 79.488 52.7414Z" fill="#4A4A4A"/>
<path d="M91.2572 180.793C90.9867 181.215 90.5789 181.188 90.1641 181.103C88.5829 180.769 87.2809 180.171 86.4331 179.393C86.6445 179.26 86.8622 179.022 87.052 179.031C88.2437 179.121 90.1526 179.947 91.2572 180.793Z" fill="#4A4A4A"/>
<path d="M75.243 120.773C75.2022 120.843 75.1636 120.922 75.1107 120.979C75.0577 121.036 74.9766 121.083 74.9109 121.092C74.7534 121.109 74.5604 121.152 74.4315 121.084C73.2201 120.411 72.0282 119.717 70.5785 118.886C71.1377 118.651 71.429 118.403 71.6714 118.449C72.8388 118.639 74.2144 119.574 75.243 120.773Z" fill="#4A4A4A"/>
<path d="M45.0625 165.2C45.6533 163.874 46.2191 162.615 46.775 161.349C47.3533 161.186 47.507 161.537 47.5107 161.996C47.5054 163.344 46.7769 164.315 45.8245 165.149C45.6867 165.271 45.3658 165.187 45.0625 165.2Z" fill="#4A4A4A"/>
<path d="M98.5967 178.477C98.5972 178.861 98.3807 179.166 98.0306 179.132C96.7027 179.01 95.4386 178.65 94.3585 177.832C94.2714 177.761 94.3914 177.414 94.4349 177.036C95.9113 177.552 97.3034 178.04 98.6933 178.52L98.5967 178.477Z" fill="#4A4A4A"/>
<path d="M100.434 137.434C100.79 136.376 101.312 136.321 101.795 136.405C102.714 136.559 103.75 136.512 104.488 137.516C103.036 138.365 101.856 137.428 100.434 137.434Z" fill="#4A4A4A"/>
<path d="M63.6884 79.9092C64.1567 79.9712 64.7206 80.1354 65.2652 80.1003C65.8097 80.0652 66.3371 79.8387 66.8063 79.713C67.1775 80.176 66.98 80.4249 66.7119 80.6331C65.762 81.382 64.7338 81.3933 63.6943 80.8536C63.3558 80.6716 63.3283 80.3466 63.6884 79.9092Z" fill="#4A4A4A"/>
<path d="M18.9743 64.848C19.3152 64.3391 19.5477 64.0297 19.7297 63.6911C19.9138 63.3605 20.0454 62.9929 20.2189 62.6225C21.1583 63.2657 21.3804 63.6494 21.1223 64.2128C20.741 65.048 20.0538 65.1554 18.9743 64.848Z" fill="#4A4A4A"/>
<path d="M95.6583 53.4198C94.968 54.8832 94.1449 55.2145 93.075 54.5296C92.962 54.4576 92.8668 54.2615 92.8645 54.1258C92.8723 53.9958 92.9835 53.8382 93.0937 53.7405C93.2118 53.6407 93.3804 53.5699 93.532 53.5634C94.224 53.5058 94.9144 53.4743 95.6583 53.4198Z" fill="#4A4A4A"/>
<path d="M20.2503 74.5713C20.4076 74.4269 20.5108 74.2714 20.6539 74.233C21.3494 74.0296 22.0593 73.848 22.7431 73.6647C23.1869 74.5259 22.6741 74.9019 22.1541 75.0924C21.4533 75.3398 20.6904 75.4505 20.2503 74.5713Z" fill="#4A4A4A"/>
<path d="M62.3309 75.5427C62.6725 76.4995 61.9887 76.6827 61.5164 76.8604C60.6948 77.1658 59.8275 77.3641 58.9773 76.322C59.6984 76.214 60.2386 76.163 60.7677 76.0383C61.2968 75.9136 61.7987 75.7194 62.3309 75.5427Z" fill="#4A4A4A"/>
<path d="M112.24 135.882C113.544 136.836 113.427 138.18 113.349 139.514C112.477 138.452 112.331 137.178 112.24 135.882Z" fill="#4A4A4A"/>
<path d="M68.1879 113.178C68.7128 113.037 69.0567 112.826 69.2837 112.91C69.8928 113.147 70.4638 113.497 71.0305 113.831C71.1414 113.895 71.1687 114.092 71.2367 114.219C71.0226 114.31 70.7943 114.508 70.5981 114.475C69.7627 114.315 69.0839 113.849 68.1879 113.178Z" fill="#4A4A4A"/>
<path d="M98.6955 178.528C98.3978 177.448 98.6968 176.942 99.5238 177.198C100.044 177.357 100.53 177.644 101.317 178.004C100.782 178.267 100.54 178.477 100.288 178.493C99.728 178.532 99.16 178.48 98.5947 178.47C98.5968 178.477 98.6955 178.528 98.6955 178.528Z" fill="#4A4A4A"/>
<path d="M91.8005 93.666C90.664 94.0046 89.6715 93.7678 88.69 92.8717C90.0366 92.204 90.9077 92.9422 91.8005 93.666Z" fill="#4A4A4A"/>
<path d="M28.0125 62.1281C27.6261 62.3083 27.4089 62.4518 27.3643 62.4126C26.8387 61.9142 26.3465 61.3813 25.8894 60.9158C26.1849 60.2059 26.5827 60.2272 26.9039 60.5672C27.2905 60.992 27.5828 61.5103 28.0125 62.1281Z" fill="#4A4A4A"/>
<path d="M101.538 134.906C101.953 134.735 102.305 134.462 102.614 134.498C103.054 134.551 103.478 134.829 103.898 135.032C103.939 135.055 103.969 135.2 103.932 135.253C103.846 135.378 103.73 135.58 103.628 135.582C102.935 135.571 102.175 135.724 101.538 134.906Z" fill="#4A4A4A"/>
<path d="M89.6128 89.0961C88.411 89.8272 87.7102 89.1201 86.8991 88.8602C87.1083 88.2416 87.5346 88.1785 87.916 88.2979C88.4401 88.4728 88.9183 88.7623 89.6128 89.0961Z" fill="#4A4A4A"/>
<path d="M60.2887 64.7721C61.0306 64.3603 61.7132 63.9814 62.4392 63.5738C62.8398 64.242 62.3867 64.4912 62.0317 64.7568C61.4812 65.1514 60.9077 65.3648 60.2887 64.7721Z" fill="#4A4A4A"/>
<path d="M55.1587 137.771C53.9052 138.277 52.9982 138.137 52.5472 137.439C52.5041 137.374 52.6173 137.097 52.7048 137.073C53.6213 136.836 54.3657 137.165 55.1587 137.771Z" fill="#4A4A4A"/>
<path d="M68.1898 78.8649C68.4773 78.5067 68.6807 78.2476 68.8861 77.9965C69.1053 77.7333 69.3416 77.5336 69.7251 77.6609C70.0344 77.7656 70.112 78.3414 69.8352 78.7394C69.4529 79.285 68.9892 79.4945 68.1898 78.8649Z" fill="#4A4A4A"/>
<path d="M59.5607 79.8987C58.6495 80.2196 58.3078 80.439 57.9525 80.4489C57.4874 80.4627 56.9576 80.4257 56.7878 79.8235C56.7707 79.7599 56.7791 79.6639 56.8161 79.6114C57.1607 79.0844 57.6323 79.2222 58.0981 79.3702C58.3893 79.4711 58.6748 79.5821 59.5607 79.8987Z" fill="#4A4A4A"/>
<path d="M80.4589 59.2908C80.1492 59.7573 80.0493 59.9886 79.884 60.1351C79.447 60.5079 78.9584 60.7837 78.3509 60.5204C78.3026 60.4992 78.2431 60.4044 78.2521 60.3423C78.2952 59.5808 78.9904 59.599 79.4557 59.3636C79.6337 59.2647 79.9043 59.3201 80.4589 59.2908Z" fill="#4A4A4A"/>
<path d="M80.975 64.2064C81.8289 63.4492 82.5703 63.4806 83.3456 63.5115C83.2633 64.3177 82.7284 64.4525 82.2756 64.48C81.8546 64.4991 81.4099 64.3029 80.975 64.2064Z" fill="#4A4A4A"/>
<path d="M52.2289 60.7102C53.0002 60.5035 53.6284 60.3352 54.2566 60.1668C54.5226 60.4279 54.639 60.7036 54.2941 60.9749C53.7384 61.4136 53.1118 61.556 52.4391 61.3356C52.3547 61.3071 52.3385 61.0558 52.2289 60.7102Z" fill="#4A4A4A"/>
<path d="M22.71 78.3442C23.4495 78.1461 24.1254 77.965 24.8172 77.7796C25.1648 78.5046 24.5801 78.6443 24.1996 78.8144C23.6526 79.0632 23.1191 79.0443 22.71 78.3442Z" fill="#4A4A4A"/>
<path d="M96.8858 61.8181C96.5102 62.5153 95.91 62.5653 95.2474 62.3508C95.1349 62.3128 95.0541 62.1384 94.9861 62.0118C94.9653 61.9662 95.0071 61.8357 95.0563 61.7969C95.6322 61.3699 96.1535 61.3751 96.8858 61.8181Z" fill="#4A4A4A"/>
<path d="M57.1826 61.5134C58.272 61.2215 58.8604 61.0639 59.5284 60.8849C58.9984 62.024 58.7662 62.1118 57.1826 61.5134Z" fill="#4A4A4A"/>
<path d="M84.7456 74.2073C84.0302 75.0042 83.4304 74.9603 82.7689 74.3365C83.4393 73.5943 84.036 73.6901 84.7456 74.2073Z" fill="#4A4A4A"/>
<path d="M24.7725 82.6067C24.2475 83.4463 23.7642 83.3286 23.2958 83.1388C23.1812 83.0928 23.0478 82.8814 23.0577 82.7594C23.0618 82.6475 23.2605 82.4665 23.3703 82.4626C23.7738 82.4738 24.1764 82.5449 24.7725 82.6067Z" fill="#4A4A4A"/>
<path d="M94.7813 65.0326C95.5282 64.3211 95.8358 63.9745 96.211 63.7205C96.3254 63.6387 96.6178 63.8076 96.8284 63.8619C96.7624 64.0927 96.7644 64.4501 96.6277 64.5123C96.2254 64.6968 95.7673 64.7684 94.7813 65.0326Z" fill="#4A4A4A"/>
<path d="M22.5554 69.752C21.6143 70.7882 21.0394 70.6781 20.2939 70.2813C20.8727 69.6745 21.4892 69.8758 22.5554 69.752Z" fill="#4A4A4A"/>
<path d="M90.5219 46.623C91.6192 46.329 92.1519 46.1863 92.7165 46.035C92.5789 47.1116 92.5174 47.1366 90.5219 46.623Z" fill="#4A4A4A"/>
<path d="M78.1273 49.6031C77.8466 49.4141 77.5123 49.248 77.5313 49.1918C77.6126 48.9228 77.7353 48.6173 77.9462 48.45C78.1628 48.2726 78.6914 48.5912 78.6196 48.832C78.526 49.0872 78.32 49.3043 78.1273 49.6031Z" fill="#4A4A4A"/>
<path d="M64.7387 67.7985C64.8489 67.7008 64.9457 67.5215 65.0693 67.5054C65.3503 67.4727 65.6367 67.5238 65.9204 67.533C65.867 67.6837 65.8561 67.8656 65.764 67.967C65.4891 68.2452 65.1745 68.1846 64.8816 67.9818C64.8211 67.9469 64.7839 67.8716 64.7387 67.7985Z" fill="#4A4A4A"/>
<path d="M66.7427 71.7783C67.2663 72.8738 67.2764 72.8796 65.8674 73.2827C66.2013 72.716 66.4516 72.2824 66.7427 71.7783Z" fill="#4A4A4A"/>
<path d="M82.4194 54.8707C82.707 54.9897 82.9001 55.0743 83.0911 55.1509C82.9254 55.3914 82.8002 55.7829 82.5776 55.8425C82.3629 55.9 82.0608 55.6316 81.795 55.4982C81.9973 55.2991 82.1975 55.0921 82.4194 54.8707Z" fill="#4A4A4A"/>
<path d="M52.1141 132.706C52.2105 133.098 52.0146 133.321 51.6572 133.323C51.4615 133.324 51.263 133.156 50.9531 133.017C51.2658 132.848 51.4512 132.713 51.658 132.658C51.7932 132.622 51.956 132.689 52.1141 132.706Z" fill="#4A4A4A"/>
<path d="M49.3065 127.126C49.3823 127.123 49.464 127.109 49.5361 127.124C49.9424 127.177 50.2557 127.519 50.0549 127.692C49.8954 127.829 49.6383 127.855 49.4236 127.913C49.36 127.93 49.2591 127.872 49.2124 127.824C49.1227 127.712 48.9804 127.563 48.9945 127.457C49.0204 127.33 49.1984 127.232 49.3065 127.126Z" fill="#4A4A4A"/>
<path d="M26.1286 85.8229C25.9817 86.706 25.4824 86.4648 24.7256 86.3438C25.0784 86.0702 25.2076 85.9163 25.3667 85.8737C25.5792 85.8082 25.8174 85.8382 26.1286 85.8229Z" fill="#4A4A4A"/>
<path d="M94.1077 57.7473C93.9932 57.8291 93.8126 58.0138 93.7802 57.9884C93.6247 57.8852 93.5121 57.7194 93.3878 57.5737C93.5188 57.5216 93.6745 57.4031 93.787 57.4412C93.9053 57.4691 93.9999 57.6313 94.1077 57.7473Z" fill="#4A4A4A"/>
<path d="M55.1262 73.8769C55.4761 73.7831 55.6976 73.6556 55.8859 73.6904C56.0482 73.7236 56.1619 73.9573 56.3021 74.0987C56.1054 74.1599 55.8998 74.2832 55.7079 74.2665C55.5419 74.2513 55.391 74.0701 55.1262 73.8769Z" fill="#4A4A4A"/>
<path d="M98.5138 66.2397C99.301 66.0288 99.7145 65.918 100.438 65.7241C99.9406 66.5392 99.524 66.702 98.5138 66.2397Z" fill="#4A4A4A"/>
<path d="M57.0967 55.6899C57.4704 55.5898 57.8521 55.4875 58.2815 55.3725C57.9048 56.1296 57.9048 56.1296 57.0967 55.6899Z" fill="#4A4A4A"/>
<path d="M52.7519 56.9053C53 56.8133 53.2438 56.7053 53.5004 56.6451C53.5799 56.6238 53.6861 56.7658 53.789 56.832C53.7361 56.8888 53.7017 56.9832 53.6461 56.9981C53.3736 57.0626 53.1026 57.1011 52.8259 57.1497C52.7966 57.0723 52.7732 56.9849 52.7519 56.9053Z" fill="#4A4A4A"/>
<path d="M19.9749 61.2987C19.7131 61.4029 19.4635 61.5209 19.191 61.5854C19.1115 61.6067 18.9851 61.4531 18.8938 61.3668C18.8837 61.361 18.9689 61.2018 19.0325 61.1847C19.3209 61.116 19.6098 61.0811 19.8945 61.0304C19.9281 61.1237 19.9515 61.2112 19.9749 61.2987Z" fill="#4A4A4A"/>
<path d="M19.7156 67.0101C19.9978 67.0453 20.22 67.0795 20.4422 67.1137C20.3491 67.275 20.2873 67.5217 20.1463 67.568C19.9518 67.6371 19.703 67.5674 19.4771 67.5513C19.5501 67.3783 19.6252 67.2133 19.7156 67.0101Z" fill="#4A4A4A"/>
<path d="M101.783 132.829C101.683 132.933 101.59 133.094 101.47 133.126C101.351 133.158 101.201 133.044 101.061 132.997C101.169 132.891 101.262 132.73 101.381 132.698C101.493 132.668 101.64 132.774 101.783 132.829Z" fill="#4A4A4A"/>
<path d="M25.9623 80.2082C25.9772 80.2639 25.9921 80.3195 26.007 80.3752C25.8077 80.3945 25.6083 80.4139 25.4068 80.4253C25.4476 80.3547 25.4856 80.2422 25.5413 80.2273C25.6786 80.199 25.8265 80.2105 25.9623 80.2082Z" fill="#4A4A4A"/>
<path d="M35.7419 54.6196C35.7098 55.6764 34.9486 55.889 34.3163 56.1692C33.6246 56.4823 32.8945 56.5246 32.174 56.1892C32.027 56.1178 31.8858 56.0363 31.7505 55.9448C30.9974 55.4562 30.6205 54.6538 31.0152 54.3776C31.6214 53.968 32.0933 54.3614 32.5349 54.7374C33.2441 55.3485 33.9702 55.4182 34.774 54.8875C35.023 54.7355 35.3682 54.7197 35.7419 54.6196Z" fill="#4A4A4A"/>
<path d="M36.2328 42.1388C36.4836 42.0886 36.6537 41.9919 36.7921 42.0315C37.0971 42.1202 37.4266 42.2365 37.6792 42.416C38.3787 42.9274 39.0135 42.9107 39.6953 42.3701C39.7938 42.2925 40.0942 42.4592 40.2968 42.5157C40.2085 42.7269 40.1813 43.0069 40.0335 43.1232C38.6295 44.1812 37.0851 44.0155 36.1826 42.7147C36.0987 42.5923 36.2219 42.3207 36.2328 42.1388Z" fill="#4A4A4A"/>
<path d="M64.9616 36.4095C64.3543 38.0552 63.129 38.6988 61.9246 38.0841C61.6285 37.9333 61.4487 37.4531 61.3188 37.0958C61.2683 36.9389 61.4392 36.6545 61.5901 36.4862C61.6627 36.4071 61.9321 36.3946 62.0451 36.4665C62.398 36.6703 62.716 36.9345 63.0211 37.1511C63.654 36.9048 64.2413 36.6792 64.9616 36.4095Z" fill="#4A4A4A"/>
<path d="M50.0162 45.8686C50.1071 46.0487 50.3449 46.3003 50.2952 46.433C49.7258 47.8384 48.4461 48.5648 47.0023 48.3295C46.7801 48.2953 46.5636 48.1232 46.3852 47.9665C46.2859 47.8823 46.2204 47.6697 46.2564 47.5493C46.2901 47.4209 46.4903 47.2139 46.5646 47.2366C47.9671 47.6363 48.8496 46.7948 49.7321 45.9532C49.7792 45.9065 49.873 45.9069 50.0162 45.8686Z" fill="#4A4A4A"/>
<path d="M49.6182 40.3758C50.2671 40.2531 50.9071 40.1924 51.5072 40.0146C52.0516 39.8516 52.5555 39.5376 53.0893 39.335C53.1826 39.3015 53.4086 39.4454 53.4644 39.5583C53.5203 39.6712 53.494 39.8913 53.4178 39.9884C52.4503 41.117 51.2511 41.4127 49.8707 40.9047C49.7684 40.8725 49.7426 40.6493 49.6182 40.3758Z" fill="#4A4A4A"/>
<path d="M15.4844 42.0903C16.4549 42.2138 17.0989 42.3907 17.7294 42.3581C18.266 42.3251 18.7885 42.0487 19.5433 41.8124C18.906 43.2189 17.9423 43.5027 16.8096 43.4738C16.344 43.4537 16.0838 43.1825 15.4844 42.0903Z" fill="#4A4A4A"/>
<path d="M80.1062 29.5391C80.4066 28.8791 80.6869 28.2074 81.0356 27.5685C81.1149 27.4194 81.4516 27.3718 81.6653 27.3742C81.7671 27.3725 81.9366 27.5913 81.9547 27.7228C82.092 28.5213 81.8722 29.2279 81.2275 29.716C80.8667 29.9916 80.4424 29.9349 80.1062 29.5391Z" fill="#4A4A4A"/>
<path d="M43.1392 42.0864C43.9454 41.8193 44.6679 41.5575 45.4154 41.3572C45.5108 41.3316 45.8464 41.6934 45.8147 41.8297C45.7236 42.3485 45.3353 42.6485 44.8386 42.7987C44.177 43.0015 43.9961 42.9307 43.1392 42.0864Z" fill="#4A4A4A"/>
<path d="M56.8019 36.2693C57.2048 35.7693 57.5209 35.3267 57.8995 34.9269C58.131 34.6774 58.483 34.5916 58.7257 34.893C58.842 35.0408 58.8413 35.3564 58.7646 35.5474C58.5442 36.0922 58.1172 36.4708 57.5212 36.5368C57.3261 36.572 57.1075 36.392 56.8019 36.2693Z" fill="#4A4A4A"/>
<path d="M38.9327 37.8697C40.0563 37.3556 40.9064 36.9659 41.826 36.5491C41.1512 38.102 40.7315 38.3167 38.9327 37.8697Z" fill="#4A4A4A"/>
<path d="M66.6445 36.2654C67.9396 35.5008 68.8639 35.4832 69.744 35.3326C69.1089 36.3977 68.2054 36.4608 66.6445 36.2654Z" fill="#4A4A4A"/>
<path d="M37.0552 49.5971C36.4879 51.0105 36.0214 51.178 34.4919 50.5907C34.5538 50.4719 34.5843 50.2677 34.6718 50.2443C35.4389 50.0217 36.2123 49.8229 37.0552 49.5971Z" fill="#4A4A4A"/>
<path d="M42.335 51.1398C41.9109 52.1654 41.4203 52.561 40.7681 52.6079C40.3572 52.6328 39.9322 52.4143 39.162 52.2116C40.3414 51.8104 41.1476 51.5432 42.335 51.1398Z" fill="#4A4A4A"/>
<path d="M86.8005 26.0238C86.211 26.5908 85.9844 26.8902 85.6876 27.0549C85.5393 27.1373 85.1468 27.072 85.0528 26.9438C84.7909 26.5708 85.1354 26.3932 85.4232 26.2905C85.7131 26.1958 86.0223 26.1726 86.8005 26.0238Z" fill="#4A4A4A"/>
<path d="M74.4034 33.0019C74.1979 34.0796 73.5336 34.2406 72.5213 34.2476C73.0641 33.6334 73.4188 33.1123 74.4034 33.0019Z" fill="#4A4A4A"/>
<path d="M44.2505 37.5187C44.4645 37.7767 44.6429 37.9335 44.746 38.1274C44.9091 38.4502 44.5543 38.8435 44.0532 38.85C43.8915 38.8507 43.5809 38.5504 43.6021 38.5021C43.7014 38.2369 43.8995 38.0219 44.2505 37.5187Z" fill="#4A4A4A"/>
<path d="M30.4137 47.5842C30.1317 47.6768 29.845 47.8473 29.5555 47.8482C29.3699 47.8553 29.1803 47.6249 28.9946 47.5042C29.1317 47.3481 29.2417 47.1226 29.4204 47.0577C29.8471 46.9008 30.212 46.9905 30.4137 47.5842Z" fill="#4A4A4A"/>
<path d="M54.6355 32.1283C55.0796 31.4639 55.6874 31.5056 56.343 31.6623C55.719 32.196 55.719 32.196 54.6355 32.1283Z" fill="#4A4A4A"/>
<path d="M69.1459 28.7431C69.1412 28.821 69.1546 28.9027 69.1398 28.9748C69.0454 29.4177 68.7519 29.6583 68.3261 29.6275C68.1861 29.6139 67.9221 29.2329 67.9585 29.1465C68.1421 28.7819 68.4802 28.5806 68.921 28.667C69.0011 28.6796 69.0695 28.7124 69.1459 28.7431Z" fill="#4A4A4A"/>
<path d="M29.6678 41.588C29.4207 42.4468 28.8799 42.5917 28.1262 42.4187C28.4489 41.7782 28.8557 41.388 29.6678 41.588Z" fill="#4A4A4A"/>
<path d="M30.702 40.74C30.7528 40.6753 30.7813 40.5909 30.8465 40.5479C31.2825 40.2351 31.9392 40.3318 32.0876 40.7267C32.1105 40.7803 32.1079 40.8662 32.0767 40.9086C31.8454 41.2859 31.1868 41.309 30.8252 40.9456C30.7626 40.9028 30.7392 40.8153 30.702 40.74Z" fill="#4A4A4A"/>
<path d="M58.2228 40.0135C58.2037 40.0697 58.199 40.1476 58.1577 40.1843C57.8446 40.4472 57.5113 40.5706 57.1413 40.3032C57.0989 40.272 57.077 40.1585 57.0939 40.0943C57.1709 39.8095 57.7435 39.6561 58.0937 39.8179C58.1462 39.855 58.1797 39.9483 58.2228 40.0135Z" fill="#4A4A4A"/>
<path d="M80.2271 25.6971C80.0683 25.8675 79.8808 26.1222 79.6403 26.306C79.5555 26.3713 79.3052 26.3276 79.198 26.2455C79.121 26.1809 79.1069 25.9376 79.1673 25.8447C79.2916 25.6409 79.4542 25.4525 79.6497 25.3234C79.7525 25.2617 79.9515 25.3363 80.1 25.3817C80.144 25.3869 80.1558 25.4946 80.2271 25.6971Z" fill="#4A4A4A"/>
<path d="M24.5568 44.1421C24.4045 44.1147 24.2523 44.0873 24.1001 44.0599C24.2357 43.9298 24.3527 43.7621 24.5133 43.6935C24.6044 43.6521 24.7764 43.7849 24.9112 43.8426C24.801 43.9403 24.6829 44.0401 24.5568 44.1421Z" fill="#4A4A4A"/>
<path d="M47.4377 35.0368C47.558 34.9449 47.6596 34.8155 47.7911 34.7973C47.8727 34.7839 47.9848 34.9158 48.0819 34.992C47.9675 35.0738 47.8658 35.2034 47.7365 35.2295C47.6527 35.2349 47.5406 35.103 47.4377 35.0368Z" fill="#4A4A4A"/>
<path d="M115.161 44.2394C113.386 44.7406 111.693 44.0522 110.005 44.2064C108.292 44.367 106.577 44.4857 104.768 44.6379C104.865 44.3647 104.909 43.9866 105.014 43.9668C108.257 43.3791 111.508 42.8831 114.782 43.7786C114.902 43.8145 114.97 44.001 115.161 44.2394Z" fill="#4A4A4A"/>
</svg>
