<svg width="77" height="120" viewBox="0 0 77 120" fill="none" xmlns="http://www.w3.org/2000/svg">
<path d="M51.429 54.8554C48.4627 56.36 45.7199 57.7522 42.671 59.3098C44.0217 59.9593 45.0742 60.3685 46.0195 60.9439C46.9084 61.4738 47.758 62.1184 48.5121 62.8321C49.5691 63.8297 50.6568 64.8388 51.4755 66.0166C52.9105 68.0629 54.2579 70.1849 55.4369 72.3839C57.0047 75.3213 58.3765 78.3534 59.9191 81.5363C59.3361 81.8641 58.8613 82.2391 58.3257 82.3925C57.3324 82.6688 56.3168 82.8077 54.997 83.0602C57.0456 85.7471 58.0577 88.5824 58.7574 91.5249C59.1192 93.039 59.3031 94.6092 59.4336 96.163C59.5286 97.2495 58.6859 97.8997 57.5906 97.7085C56.6747 97.5422 55.772 97.2934 54.9709 97.1C54.1611 97.5774 54.3819 98.2602 54.3637 98.8437C54.3098 100.94 53.9716 102.993 53.3862 105.007C52.3969 108.396 51.7095 109.464 48.8669 111.706C49.2742 113.642 49.7054 115.664 50.1716 117.874C49.6668 118.039 49.1628 118.417 48.7687 118.312C47.3379 117.943 45.9603 117.591 44.5852 118.424C41.0211 118.889 37.5021 118.951 34.1518 117.369C33.9581 117.279 33.7774 117.174 33.5804 117.121C33.4964 117.094 33.3767 117.143 33.1729 117.165C32.589 117.758 31.9451 118.409 31.1698 119.207C30.5259 118.901 29.7927 118.722 29.2753 118.292C27.0847 116.474 24.6275 115.119 22.1233 113.807C21.202 113.317 20.2921 112.797 19.4342 112.212C18.6794 111.697 17.993 111.064 17.1225 110.363C16.7114 110.989 16.3651 111.6 15.9462 112.153C14.8552 113.574 13.8061 113.606 12.6468 112.273C12.2346 111.795 11.8305 111.323 11.4458 110.827C8.62295 107.171 5.41568 103.91 1.74296 101.111C-0.944633 99.0524 -3.35997 96.7879 -4.70629 93.3776C-5.29891 93.6844 -5.88148 93.8796 -6.33685 94.2304C-7.23955 94.9386 -8.06814 95.7198 -9.27176 96.0261C-9.51356 95.8313 -9.84604 95.6831 -9.96806 95.4386C-10.1463 95.0824 -10.237 94.6505 -10.2518 94.2399C-10.3815 90.0288 -11.4347 85.9908 -12.4459 81.9335C-12.9069 80.1136 -13.2822 78.2696 -13.5993 76.4194C-14.501 71.0549 -13.8901 65.7924 -12.2193 60.666C-11.7098 59.1095 -10.8481 57.6108 -9.88025 56.2773C-8.11338 53.8198 -6.21106 51.4582 -3.77699 49.5914C-3.36214 49.2744 -2.99697 48.8375 -2.53084 48.6548C-0.127424 47.7335 1.25773 45.8324 2.48257 43.5364C2.23426 42.8713 1.9799 42.0816 1.64786 41.3224C-2.61451 31.6826 -6.87687 22.0427 -11.1603 12.4125C-12.7726 8.78802 -14.4059 5.17317 -16.0247 1.55674C-16.1514 1.2686 -16.3348 1.00128 -16.4033 0.706868C-16.5836 -0.00978978 -16.6846 -0.742343 -16.0796 -1.34484C-15.2087 -2.21152 -14.1329 -2.47462 -13.2325 -2.04164C-12.3562 -1.62814 -11.6988 -0.992308 -11.2508 -0.113112C-8.35847 5.48603 -3.93413 9.72772 0.953871 13.5588C2.27259 14.5945 3.68558 15.4801 5.31817 15.9447C6.09977 16.1623 6.78419 15.956 7.22299 15.2463C7.59844 14.6317 7.83999 13.9359 8.12185 13.2725C9.25064 10.6998 10.3085 8.08317 11.5373 5.5512C13.4401 1.6217 16.5894 -0.984648 20.5683 -2.72344C23.4708 -4.00034 26.5168 -4.69647 29.6279 -5.06103C31.8157 -5.31877 34.0085 -5.12068 36.1399 -4.46697C38.4312 -3.76424 40.7305 -3.05501 43.0169 -2.32966C43.306 -2.24303 43.7468 -2.11385 43.8059 -1.90675C44.1241 -0.866354 44.9923 -0.9378 45.7822 -0.779978C48.9773 -0.159877 52.0059 0.963974 54.9724 2.2638C56.4944 2.93163 56.7828 3.69553 56.194 5.26791C55.8808 6.11869 55.4675 6.92872 55.0392 7.87287C56.2881 8.53331 57.4114 9.0527 58.4469 9.71405C59.4114 10.3315 60.3481 11.0329 61.1618 11.8212C62.8132 13.4173 64.3771 15.089 65.9685 16.7431C66.1087 16.8825 66.2858 17.0917 66.29 17.2679C66.2598 19.0377 67.774 19.6328 68.7583 20.6382C69.7763 21.6842 70.7424 22.7947 71.5968 23.9613C73.2621 26.2331 74.8383 28.5659 76.4356 30.8892C77.1353 31.9179 76.8742 32.638 75.6865 33.0235C74.8111 33.3018 73.8251 33.305 73.1647 34.0754C74.5868 36.55 76.4575 41.6851 76.683 43.8469C73.8187 45.3406 71.0805 47.2548 67.9056 48.3256C67.4153 48.4888 66.7765 48.5723 66.4909 48.9269C64.6194 51.2337 61.7065 51.7977 59.3304 53.2461C57.0257 54.6058 54.6406 54.8775 51.429 54.8554ZM15.1061 38.3417C15.4205 38.5949 15.7353 38.7156 16.0131 38.2882C16.3989 38.9312 17.0896 38.7832 17.6677 38.9565C19.7588 39.5777 21.8419 40.1925 23.9003 40.9203C24.4815 41.1227 24.9353 41.7142 25.5398 42.2011C25.1272 42.3339 24.9069 42.4754 24.7406 42.4344C23.9444 42.2184 23.1288 42.0265 22.3718 41.6959C20.3543 40.8017 18.2272 40.3242 16.0508 40.0728C14.5012 39.9011 12.9304 39.8053 11.438 40.4372C11.213 40.535 11.0505 40.8028 10.671 41.1749C11.2685 41.324 11.6286 41.4545 12.0034 41.5172C16.9049 42.2626 21.3724 44.2399 25.7504 46.4109C27.2285 47.1497 28.6122 48.1047 29.9927 49.0307C30.3814 49.2906 30.7613 49.7429 30.2455 50.2843C29.2237 50.3649 28.4546 49.7853 27.6739 49.3026C24.8285 47.5554 21.7795 46.2424 18.6475 45.1149C18.2036 44.9567 17.6862 45.005 17.203 44.9614C16.9657 44.8765 16.7284 44.7917 16.491 44.7068C16.536 44.783 16.5808 44.9254 16.6325 44.9271C16.8168 44.9294 17.0109 44.8864 17.2001 44.866C17.7059 45.393 18.2311 45.8959 18.7029 46.4486C21.7507 50.0068 25.4143 52.6522 29.8215 54.2753C30.0056 54.3438 30.09 54.7175 30.302 55.1142C27.9048 55.6153 26.2957 53.9337 24.1816 53.4401C24.4505 55.1851 25.4092 56.5687 25.8306 58.1574C26.9189 58.4892 27.9316 58.7334 28.892 59.1084C31.3199 60.054 33.7818 60.017 36.2806 59.5712C39.6819 58.9619 42.9712 57.9967 45.9755 56.2304C46.5845 55.8704 47.4091 55.8036 47.6737 54.9802C47.7384 54.9658 47.8031 54.9515 47.8678 54.9372C47.8062 54.9806 47.7447 55.024 47.675 55.061C47.3672 54.7997 47.0951 54.461 46.7434 54.2707C43.5776 52.6243 40.8535 50.3635 38.3629 47.8789C36.0609 45.5726 33.442 43.7422 30.6185 42.1988C28.2565 40.9074 25.8033 39.7952 23.3437 38.691C22.314 38.2205 21.208 37.8611 20.0901 37.665C18.6879 37.426 17.2095 37.2319 16.0176 38.3981C15.72 38.4375 15.4225 38.477 15.1104 38.5179L14.9732 38.4738L15.1061 38.3417ZM72.4061 44.3223C71.8285 44.0165 71.4539 44.366 71.089 44.7365C69.6221 44.9902 68.2098 45.3411 67.2937 46.6764C66.3946 46.3242 65.7659 46.7747 65.1851 47.3967L65.0027 47.3427L65.1627 47.3255C65.9611 47.3573 66.7515 47.3826 67.2713 46.6052C68.8546 46.8174 70.0565 46.0844 71.1204 45.0276C71.7811 45.1478 72.1122 44.7368 72.366 44.2236C73.097 44.5865 73.258 43.8257 73.6711 43.5604C74.2438 43.4104 74.81 43.2684 75.5331 43.0801C74.4508 40.0022 73.6414 36.9978 71.0935 34.7328C70.3461 34.9016 69.5697 35.0736 68.7431 35.2583C68.9198 35.6 68.9838 35.7844 69.1029 35.9336C70.6659 37.8704 72.263 39.7814 73.8065 41.7424C74.2926 42.3599 74.3985 43.0699 73.6836 43.6768C73.2643 43.8839 72.8384 44.0991 72.4061 44.3223ZM51.1472 49.7111C51.0567 49.6914 50.9632 49.6426 50.8758 49.652C50.8322 49.6567 50.7963 49.7342 50.7493 49.776C50.8756 49.7183 51.0099 49.667 51.1362 49.6092C51.775 50.4826 52.8494 50.1387 53.6579 50.5374C53.9532 50.6823 54.1916 50.9142 54.5899 51.1952C53.1396 51.8078 51.9284 51.4966 50.7183 51.3325C49.7181 51.2047 48.71 51.0704 47.7164 50.9345C47.5981 50.9988 47.2325 50.6112 47.3472 51.1288C47.4607 51.0209 47.5757 50.9276 47.6893 50.8196C47.9646 51.1212 48.1977 51.5083 48.5349 51.7002C51.1887 53.2398 53.9965 53.6808 56.8824 52.5235C58.6045 51.8374 60.253 50.9459 61.9142 50.1045C62.319 49.8989 62.9465 49.7798 62.807 48.9631C61.6898 48.5681 60.5419 48.1618 59.5248 47.8076C57.9332 49.0906 57.9267 49.0986 56.6335 49.1201C54.7842 49.1721 52.9101 48.925 51.1472 49.7111ZM34.4857 110.355C33.626 111.736 33.8228 113.29 33.5982 114.69C37.1131 117.322 41.3325 118.09 44.0158 116.623C43.0792 115.377 42.0325 114.202 41.2417 112.873C40.0186 110.812 38.3584 109.408 35.8504 108.743C36.0186 109.211 36.0786 109.631 36.3088 109.923C36.7465 110.502 37.2928 110.995 37.771 111.54C38.0641 111.869 38.176 112.225 37.6508 112.679C36.6124 111.922 35.5417 111.139 34.4711 110.357C34.5134 110.271 34.5638 110.192 34.6061 110.107C34.4977 110.126 34.3894 110.145 34.281 110.164C34.3536 110.222 34.4196 110.289 34.4857 110.355ZM4.46089 25.7532C4.30484 26.0129 4.03731 26.2625 4.01538 26.5373C3.68233 31.3723 4.9071 35.8409 7.34846 39.987C7.5831 40.3887 8.09313 40.6135 8.68958 41.0939C10.6 38.2603 13.6034 37.2376 16.5399 35.9349C16.3607 35.3653 16.3433 34.7931 16.052 34.4123C14.4588 32.3315 12.4941 30.6293 10.0772 28.8286C10.2066 29.7569 10.2483 30.3486 10.3837 30.9229C10.7982 32.6522 11.2758 34.3526 11.6676 36.077C11.7823 36.5946 11.6318 37.1113 10.7255 36.9661C9.91969 34.3367 9.1076 31.6492 8.27289 28.9567C7.95942 27.96 7.667 26.9536 7.26286 26.0034C7.08643 25.5955 6.63641 25.3128 6.31266 24.9722C6.32545 26.4577 6.68639 27.7585 7.04575 29.0447C7.29809 29.9524 7.59902 30.8327 7.79315 31.7466C7.87913 32.1348 7.7887 32.5936 7.08412 32.5443C6.18317 31.287 5.95565 29.7216 5.42388 28.2699C5.10348 27.4138 5.16997 26.3908 4.36396 25.7416C4.43896 25.5495 4.82784 25.2647 4.21349 25.3014C4.30506 25.4682 4.387 25.6139 4.46089 25.7532ZM25.8545 34.1882C25.7851 34.1588 25.7076 34.123 25.6333 34.1163C25.5961 34.1129 25.5426 34.1629 25.5005 34.1821C25.6153 34.155 25.7367 34.1199 25.8435 34.0863C26.4695 34.4311 27.0742 34.8517 27.7295 35.1271C28.8788 35.6143 30.0882 35.9772 31.2439 36.4563C32.2996 36.8946 33.3404 37.4008 34.3343 37.9489C34.7651 38.1895 35.1564 38.6111 34.5206 39.2685C30.6395 37.8831 26.8705 35.8306 21.8633 35.7443C23.6871 36.5489 24.9381 37.0251 26.1145 37.6271C30.1985 39.734 34.3133 41.7861 37.8269 44.8156C38.6053 45.4826 39.4402 45.7165 40.4289 45.3966C41.382 45.0878 42.3928 44.9053 43.2362 44.0563C41.6611 41.8705 40.1536 39.7658 38.6316 37.6626C38.2069 37.068 37.7546 36.491 37.3104 35.9206C35.3018 33.3325 32.4421 32.4775 29.3771 32.1084C28.9521 32.0585 28.3116 32.1937 28.4739 32.9491C29.4232 33.7669 30.9421 33.4488 31.7224 34.5425C31.3724 35.2573 30.8234 35.0809 30.3486 34.9775C28.8577 34.667 27.4459 33.9284 25.8545 34.1882ZM20.4553 99.8241C19.7326 100.358 19.7899 101.096 20.0348 101.798C20.3503 102.677 20.8082 103.511 21.1593 104.378C21.3485 104.836 21.4389 105.334 21.7152 106.328C20.6432 105.464 19.9904 104.938 19.2327 104.328C18.9961 105.001 18.8053 105.486 18.6598 105.98C18.0316 108.211 18.6339 109.84 20.5518 111.039C20.9937 111.315 21.4975 111.482 21.9524 111.742C24.0319 112.939 26.1163 114.113 28.1699 115.341C29.1378 115.922 30.0423 116.597 31.147 117.354C32.3568 113.757 32.9032 110.356 31.753 106.785C31.2237 106.518 30.6703 106.232 30.1184 105.96C29.4649 105.633 28.7999 105.337 28.1708 104.963C27.6287 104.646 27.1306 104.258 26.6405 103.876C26.0698 103.43 25.5674 102.866 24.9593 102.482C24.5173 102.206 24.4121 101.297 23.4894 101.683C24.4294 104.806 26.6923 107.227 27.9795 110.43C26.489 109.987 25.8115 109.096 25.2491 108.111C23.9669 105.842 22.7332 103.546 21.4509 101.277C21.152 100.758 20.7365 100.316 20.3679 99.8336C20.5368 99.624 20.7703 99.4001 20.2352 99.4209C20.3091 99.5602 20.3829 99.6994 20.4553 99.8241ZM45.1639 85.1867L44.9297 85.131L45.1545 85.0994C45.9605 85.7487 46.747 86.4221 47.5725 87.0472C49.138 88.255 50.7359 89.4226 52.2883 90.6465C52.6188 90.9127 52.8015 91.3788 53.4593 92.3606C49.1232 89.7582 45.8795 86.7732 41.1516 84.8387C42.5388 86.1687 43.4299 86.9929 44.274 87.8588C44.6123 88.1978 44.96 88.6241 44.3372 89.2653C43.4667 88.5641 42.6042 87.8694 41.6854 87.1292C41.5761 87.4134 41.4852 87.5262 41.5157 87.6039C41.9523 88.9922 42.4099 90.3709 42.845 91.7447C43.5104 93.8223 44.9369 95.0378 47.1493 95.1454C48.8139 95.2238 50.4812 94.9853 52.1409 95.0862C53.8749 95.1939 55.5984 95.5456 57.4968 95.8122C57.578 93.7645 56.9244 92.0021 56.3613 90.2593C55.8206 88.5878 54.9886 87.0139 54.2278 85.4176C54.0576 85.0679 53.6884 84.7838 53.3725 84.516C52.4651 83.7452 51.5888 83.8101 50.5175 84.6616C51.1831 85.2376 51.7328 85.6937 52.2564 86.182C52.5674 86.4724 52.7893 86.8238 52.4031 87.2703C51.3043 87.1825 50.6348 86.2977 49.7751 85.7647C48.312 84.8918 46.845 84.1886 45.1639 85.1867ZM44.6877 14.6851C44.3765 14.461 44.1246 14.3777 44.1761 14.9242C44.3541 14.8683 44.5176 14.8138 44.6955 14.7579C45.3591 14.9735 46.0096 15.2714 46.6913 15.382C48.0096 15.5933 49.3477 15.6479 50.6644 15.8447C50.9859 15.8911 51.2709 16.2137 51.7467 16.5305C51.1868 16.7306 50.9049 16.9156 50.6107 16.9178C49.8994 16.9429 49.1738 16.9033 48.4627 16.8621C46.231 16.7124 43.9962 16.5335 41.7629 16.3692C41.7062 16.3901 41.6561 16.4028 41.5994 16.4237C41.653 16.3737 41.6984 16.3173 41.7519 16.2674C43.6078 18.5996 46.0215 19.8927 49.0037 19.9027C51.1761 19.9116 53.3713 19.8592 55.5238 19.5464C58.0902 19.1816 60.6172 18.5193 63.1552 17.9588C63.6226 17.857 64.055 17.6337 64.6068 17.4271C61.4759 13.576 58.1959 10.3226 53.1282 9.4699C52.3477 10.3563 50.9489 10.5585 50.3142 11.8414C51.7903 12.6982 53.7484 12.0162 54.852 13.5829C53.9546 14.1359 53.1459 13.8035 52.3332 13.707C50.8936 13.5308 49.4475 13.3627 47.9945 13.3352C46.7322 13.3019 45.5206 13.6017 44.6877 14.6851ZM43.174 33.7064C43.1095 33.6545 43.058 33.5864 42.9886 33.5571C42.9499 33.5392 42.8737 33.5842 42.8171 33.605C42.9351 33.607 43.0531 33.609 43.171 33.611C45.9276 34.8746 48.8082 35.7862 51.8499 35.8708C53.2899 35.9144 54.7727 35.74 56.1929 35.4619C58.2551 35.0631 62.1908 33.1964 64.7775 31.5855C64.1226 30.2207 63.4856 28.8172 62.7645 27.4521C60.5286 23.2323 57.0048 21.3374 52.2533 21.6431C51.529 21.6844 50.8 21.6819 49.7137 21.7106C50.8538 23.0011 52.1624 23.1913 53.1737 23.8332C54.2318 24.4995 55.6862 24.6078 56.2974 25.9773C55.4017 26.5449 54.7927 25.948 54.1192 25.7777C53.8398 25.7121 53.5277 25.753 53.1818 25.7535C52.8205 26.499 52.4851 27.2124 52.0895 28.0499C53.3948 28.2774 54.5321 28.4493 55.6467 28.6826C56.7159 28.906 57.9075 28.8292 58.771 29.671C58.6945 29.8485 58.6745 30.0052 58.6244 30.018C55.9102 30.5827 53.3306 29.1161 50.5653 29.4802C49.715 29.9913 48.821 30.5072 47.9479 31.0797C47.6595 31.2727 47.4661 31.5953 47.0508 32.0449C48.4919 32.2356 49.6344 32.3186 50.7539 32.5293C51.8055 32.7252 53.0461 32.4885 53.883 33.5613C52.9315 34.3631 51.9952 34.0076 51.0886 33.9286C48.9039 33.737 46.7356 33.4921 44.5509 33.3005C44.0693 33.2714 43.4912 33.0981 43.174 33.7064ZM20.6091 88.6781C20.1017 89.5719 20.5464 90.4883 20.5126 91.4046C20.4612 92.7719 21.0397 93.7695 22.1101 94.6185C23.3579 95.6103 24.6517 96.3469 26.2492 96.69C28.9853 97.286 31.6926 97.8188 34.6123 97.6588C34.6369 97.0673 34.6754 96.6731 34.6606 96.2625C34.5451 93.1392 34.3697 90.0077 34.3058 86.8863C34.181 80.7388 32.8962 74.8928 30.1378 69.375C29.1262 67.364 28.2183 65.2904 26.8812 63.4691C26.6398 63.6202 26.5055 63.6715 26.4972 63.7313C26.1744 65.9963 25.8742 68.2664 25.6141 70.1566C26.9309 73.2241 28.1419 75.9938 29.2883 78.7778C29.6459 79.6373 29.8852 80.5611 30.0794 81.475C30.1716 81.9214 30.3297 82.5006 29.3809 82.9856C28.0856 79.7759 27.2549 76.3691 25.163 73.0759C24.4749 75.3657 24.1711 77.2606 24.1185 78.9593C25.12 80.6033 26.0075 82.0093 26.827 83.4668C26.9716 83.7162 26.8248 84.1295 26.7945 84.9424C25.6787 83.6714 24.8912 82.7846 23.9428 81.7017C23.2305 83.9719 24.1082 86.38 22.339 88.0648C23.3497 90.3409 25.4216 91.8769 26.7374 94.2526C26.1363 94.2069 25.7707 94.2978 25.5999 94.1469C24.955 93.6275 24.3427 93.0678 23.7904 92.4501C22.6792 91.2228 21.615 89.9536 20.5233 88.7021C20.5155 88.6293 20.5076 88.5565 20.4852 88.4853C20.5287 88.5469 20.5656 88.6165 20.6091 88.6781ZM4.51821 46.7178C3.68425 47.6541 4.11706 48.7337 4.31589 49.6913C5.03845 53.0509 5.78363 56.4155 6.71977 59.708C7.74213 63.3224 9.22567 66.7767 10.8841 70.146C11.2325 70.8519 11.7183 71.5357 11.516 72.5953C10.2731 72.0594 9.83989 71.1123 9.38067 70.1975C5.99601 63.4442 3.39452 56.4447 2.53574 48.882C2.45871 48.2352 2.53056 47.5355 2.1383 46.9006C1.15164 47.581 1.22464 48.4638 1.3254 49.2626C1.5332 50.9185 1.78467 52.5696 2.15099 54.1937C2.56186 56.0265 3.14424 57.8113 3.59071 59.6328C3.72147 60.1634 4.07815 60.8096 3.3297 61.3098C3.12193 61.0892 2.85907 60.9041 2.74354 60.6515C2.405 59.9004 2.08595 59.1251 1.8316 58.3354C1.27184 56.5555 0.762232 54.7629 0.230011 52.9653C0.200449 52.6225 0.324937 53.0949 0.338368 52.9463C0.0916515 53.2525 -0.297232 53.5373 -0.369537 53.8911C-0.576613 54.9071 -0.722353 55.9459 -0.772704 56.9819C-1.10078 63.7081 1.77742 69.1763 6.27475 73.8223C10.7383 78.4278 16.2393 81.6629 21.9763 84.902C22.0918 84.1976 22.1856 83.7017 22.2438 83.217C22.7004 79.5978 23.1345 75.9738 23.6202 72.3515C23.8689 70.4919 24.2889 68.6506 24.5456 66.7975C25.0995 62.6452 24.4436 58.6748 22.5326 54.9426C21.9642 53.8335 21.3326 52.7533 20.6864 51.6746C19.1288 49.1042 16.9854 47.1783 14.2775 45.8875C14.0838 45.7979 13.7892 45.9327 13.2944 45.986C15.5774 49.1407 17.3044 52.326 18.7057 55.7008C21.2936 61.9584 21.7857 63.6573 21.5155 66.1375C21.2496 65.9232 20.9186 65.7896 20.8273 65.5565C20.5163 64.7877 20.2684 63.99 20.0206 63.1923C18.7542 59.0889 17.0799 55.162 15.0252 51.3937C13.7689 49.0926 12.2453 46.9749 10.3764 45.1373C9.0183 43.8041 7.42131 43.3283 5.38125 43.8646C5.85951 45.3662 6.25403 46.7738 6.74728 48.1413C8.76351 53.7391 11.0274 59.244 13.7332 64.5467C14.4317 65.9068 15.2677 67.2448 15.3405 69.1507C14.0028 68.4851 13.6056 67.3944 13.098 66.4406C10.289 61.068 7.86687 55.5287 5.79601 49.8337C5.41001 48.7785 4.88811 47.76 4.4309 46.7272C4.45866 46.6433 4.49291 46.5513 4.49806 46.4624C4.49335 46.4187 4.42889 46.3668 4.39508 46.3263C4.42374 46.4557 4.46694 46.5835 4.51821 46.7178ZM-0.645022 28.5777C-0.912584 27.8704 -1.06776 27.3866 -1.27956 26.9236C-2.99956 23.1193 -4.65641 19.2862 -6.46058 15.5204C-7.6291 13.0774 -8.99353 10.7291 -10.2608 8.3261C-10.6302 7.62981 -11.3668 7.00988 -10.9289 6.08679C-10.7075 5.61393 -9.90932 6.19041 -8.99606 7.63044C-7.58596 9.85608 -5.89221 11.8451 -3.74912 13.3587C-1.78985 14.7376 0.260325 16.0036 2.34475 17.1777C3.74832 17.976 4.95598 18.8691 5.68163 20.344C6.26444 21.5179 7.2368 22.2081 8.39857 22.8117C10.7237 24.0334 13.1956 24.8418 15.6806 25.6341C16.7398 25.969 17.9275 26.0619 19.0486 27.244C15.24 27.3524 12.2235 25.5206 8.52936 24.7776C10.929 27.3751 13.2745 29.2645 15.8911 30.8007C17.9818 32.033 20.2539 32.6936 22.7612 32.6002C25.6193 32.4837 27.9659 31.171 30.2258 29.6689C32.9117 27.8853 35.5334 25.9836 38.1663 24.1174C38.2894 24.0306 38.3145 23.7849 38.4025 23.5767C36.3301 21.6948 34.2967 19.7645 32.1693 17.9179C30.6753 16.6214 29.1716 15.3038 27.5054 14.254C22.9553 11.3729 18.1186 11.0253 13.1365 13.0857C12.277 13.4432 11.4415 13.8866 10.6124 14.3218C10.4732 14.3957 10.4205 14.659 10.2432 14.9946C11.0257 14.9471 11.7113 14.888 12.4 14.858C16.3961 14.7146 20.3092 15.2353 24.1427 16.3828C24.9952 16.6443 25.8673 16.8816 26.4174 18.162C25.206 17.9171 24.2818 17.8106 23.4131 17.5361C19.8866 16.4364 16.2493 16.0848 12.5878 16.1921C11.0392 16.2338 9.38041 16.3462 7.98514 16.9234C6.35033 17.6001 4.97051 17.4322 3.47582 16.8129C2.01986 16.2116 0.67428 15.4732 -0.579962 14.4895C-4.55225 11.3695 -7.96192 7.73252 -10.783 3.54632C-11.1336 3.02467 -11.4762 2.50951 -11.8803 2.03779C-12.3263 1.51905 -12.6205 1.5213 -14.0749 1.89141C-14.0063 2.18582 -13.9864 2.50755 -13.8693 2.77464C-10.4504 10.3928 -7.0039 17.9933 -3.59952 25.613C-3.0156 26.9339 -2.12314 27.8389 -0.645022 28.5777ZM4.41636 78.0268C1.79947 83.7998 2.01235 82.4961 3.57005 87.4587C4.12331 89.2467 4.89016 90.9675 5.52917 92.7315C5.6541 93.0713 5.77211 93.5518 5.03776 93.7045C3.0975 91.4771 2.69377 88.4806 1.36941 85.7525C0.213726 86.7088 -0.533375 87.7682 -0.908368 88.7287C-0.96789 90.0895 0.031559 90.8946 -0.227458 91.9751C-1.40801 92.1538 -1.2802 90.6752 -2.23867 90.6607C-2.92465 90.8524 -3.30614 91.3424 -3.0612 92.0448C-2.7137 93.0158 -2.27239 93.9693 -1.78407 94.881C-0.873259 96.5715 0.577334 97.8065 2.08166 98.9252C6.54785 102.257 10.4465 106.128 13.7483 110.609C14.025 110.991 14.2688 111.546 15.1715 111.317C15.5855 110.308 16.1194 109.183 16.5081 108.008C18.0859 103.112 18.9724 98.0848 18.7408 92.9278C18.6508 90.8617 18.1938 88.8058 17.8628 86.7583C17.5034 84.5152 16.1296 83.0365 14.1529 82.0422C13.7091 81.8177 13.269 81.4897 12.6757 81.9952C13.0328 83.4657 13.4157 84.9702 13.7565 86.494C14.4698 89.7001 14.4618 89.6936 13.669 91.3542C13.3858 90.5014 13.1245 89.8523 12.957 89.1858C12.3538 86.8659 11.8655 84.5189 11.1911 82.2214C10.344 79.3462 9.38869 78.4039 5.99318 76.8117C6.13336 78.3865 6.61206 79.7556 6.9824 81.1437C7.35587 82.5609 7.84265 83.9364 8.19351 85.3487C8.53161 86.7108 9.4892 87.9474 9.07796 89.5963C8.73608 89.3608 8.39867 89.2352 8.26366 89.0068C6.29137 85.7303 5.81597 81.9318 4.41636 78.0268ZM30.2957 61.8205C32.8758 63.6331 35.2322 65.1458 37.4279 66.8746C39.5898 68.5629 42.4223 69.3693 44.245 71.9406C43.6951 72.0293 43.3454 72.1995 43.1437 72.1034C41.9367 71.49 40.7216 70.8701 39.5894 70.1308C36.9685 68.4184 34.3981 66.6269 31.7837 64.9063C31.2208 64.5327 30.7058 63.8521 29.7523 64.2934C30.703 66.6274 31.7511 68.8405 33.7628 70.5008C35.855 72.226 37.8613 74.0415 39.8952 75.8393C40.3174 76.206 40.9242 76.5087 40.6689 77.4195C40.1531 77.4824 39.7076 77.3096 39.2705 77.0107C38.8481 76.7102 38.411 76.4114 37.995 76.1028C37.4984 75.7294 36.9938 75.3495 36.4956 74.9615C36.0861 74.6449 35.7075 74.2735 35.2656 73.9972C34.8946 73.7648 34.6315 73.1675 33.843 73.569C34.381 75.5573 34.9191 77.5456 35.4029 79.3043C41.3233 83.7676 49.9907 84.6226 57.393 80.9767C56.4349 78.9158 55.4057 76.8773 54.5172 74.7795C53.4508 72.2592 51.9697 69.9897 50.4336 67.7556C48.5484 65.0143 45.9898 63.0596 42.9634 61.7515C41.1412 60.9615 39.24 60.5995 36.8265 61.1539C38.2488 62.1269 39.3374 62.8708 40.4275 63.6293C42.7029 65.2097 42.7029 65.2097 43.4398 66.7203C41.9903 66.1109 40.8742 65.3846 39.7386 64.6825C38.3192 63.8049 36.8753 62.9741 35.4299 62.1287C33.9184 61.2168 32.3196 61.2713 30.2957 61.8205ZM-1.42475 73.5476C-1.87054 72.4841 -2.22116 71.9625 -2.30334 71.4045C-3.2803 64.863 -2.78318 58.3393 -1.69344 51.5089C-2.30374 52.2666 -2.79496 52.6949 -3.05376 53.2307C-5.38455 58.038 -7.26488 62.9956 -8.11352 68.3058C-8.27537 69.3317 -8.54221 70.3394 -8.78645 71.3521C-8.87331 71.7074 -8.91047 72.1825 -9.63094 72.054C-9.91106 70.7518 -9.81122 69.4235 -9.61759 68.0777C-8.99998 63.6978 -7.57503 59.5695 -5.83842 55.5328C-5.52723 54.8 -5.07074 54.1178 -5.36316 53.1114C-7.49788 55.3655 -9.16109 57.7603 -10.0951 60.5697C-11.8684 65.9058 -12.4605 71.343 -11.4172 76.9278C-10.4139 82.3477 -8.84118 87.6547 -8.25559 93.2962C-6.21017 92.6048 -5.13755 90.8772 -3.92187 89.3846C0.0188949 84.5583 1.77898 78.8261 2.79284 72.9313C1.55693 70.8194 0.409455 68.8452 -0.746074 66.8645C-0.799138 66.7819 -0.889351 66.6959 -0.981369 66.6617C-1.07339 66.6274 -1.18019 66.661 -1.31273 66.6606C-1.72218 68.7362 -0.617249 70.8623 -1.42475 73.5476ZM12.5105 11.784C14.2935 11.2533 15.4387 11.0196 16.3378 9.93638C19.4668 6.18396 23.4954 3.60804 27.8473 1.50519C28.3508 1.25957 28.949 1.20986 29.5864 1.04552C29.4196 2.09398 28.7173 2.33893 28.0953 2.71508C25.9702 4.03338 23.8194 5.31765 21.7796 6.74453C20.451 7.66787 19.0885 8.61695 18.0342 10.1732C19.579 10.3012 20.9873 10.1864 22.2435 10.5737C24.467 11.2616 26.3423 10.699 28.1083 9.4635C29.4708 8.51441 30.8544 7.5557 32.0415 6.41206C34.6766 3.88319 37.1796 1.22132 40.3878 -0.63321C40.519 -0.713588 40.5748 -0.947775 40.6529 -1.11077C38.4124 -2.50352 34.0311 -3.68041 31.1876 -3.5655C27.72 -3.43489 24.3733 -2.72845 21.1442 -1.40901C15.539 0.880369 12.2289 5.13811 10.5143 10.8139C11.3476 10.0764 12.0584 9.22698 12.7692 8.37754C15.0624 5.61314 17.7967 3.39009 21.0026 1.78609C21.5191 1.52436 22.1399 1.47956 23.1429 1.22431C21.5312 3.6871 18.9272 4.18106 17.3244 5.90683C15.7377 7.64558 13.6675 8.99477 12.5105 11.784ZM40.8315 7.79123C40.8307 8.05632 40.877 8.21327 40.83 8.25513C38.1476 10.4137 34.5448 9.90375 31.373 11.482C32.7491 12.2981 34.113 12.3867 35.3921 12.7126C42.8971 14.5983 48.8488 11.6312 54.1011 6.61217C54.7757 5.97274 55.3376 5.17613 55.12 4.04393C52.1508 2.58246 48.9941 1.56809 45.7363 0.844331C43.3911 0.324067 41.1858 0.488004 39.2118 2.04765C38.6494 2.49835 37.9437 2.78046 37.3475 3.19064C36.9846 3.44319 36.465 3.67582 36.6251 4.13702C38.5588 3.98026 40.4327 3.81522 42.3033 3.68733C42.7269 3.65643 43.1225 3.77575 43.1216 4.51928C42.2402 4.67311 41.3281 4.81553 40.4142 5.00966C38.8808 5.3294 37.3057 5.53586 35.846 6.06113C34.1225 6.66634 32.5466 7.61634 31.4558 9.44888C34.8115 9.44075 37.6781 7.76286 40.8315 7.79123ZM31.776 30.5987C37.7438 32.9738 48.5642 31.4034 51.1693 26.272C51.0697 26.0988 51.0025 25.8852 50.8574 25.7683C47.72 23.3607 44.6719 20.8257 41.3998 18.6019C39.0017 16.9758 36.3665 15.6771 33.762 14.3898C32.6114 13.8218 31.3299 13.268 29.7154 13.6553C31.949 15.6671 34.0587 17.4862 36.0679 19.397C37.51 20.758 38.9425 22.0979 40.7271 23.0172C41.9518 23.6581 41.892 24.6068 40.6465 25.3445C39.5744 25.9826 38.4379 26.5025 37.3561 27.1196C35.5746 28.1432 33.7032 29.0146 31.776 30.5987ZM40.5998 98.9866C38.5521 96.9916 38.213 93.9807 36.1089 91.4618C36.1325 95.5077 35.9655 99.0147 38.1469 102.114C38.4429 102.539 38.4797 103.153 38.7307 103.98C38.1418 103.638 37.8075 103.542 37.6434 103.317C37.085 102.574 36.5591 101.792 36.0623 101.006C34.7825 98.9654 33.4506 98.4906 30.9057 99.1917C31.3047 100.709 33.4197 100.938 33.7764 103.019C32.1123 102.33 31.0503 101.355 30.0126 100.399C28.5913 99.095 26.9972 98.2362 25.0763 97.9647C24.59 97.8919 24.0963 97.6138 23.8191 98.3209C28.4101 103.494 34.0812 106.6 40.9734 107.581C41.1301 107.122 41.2846 106.848 41.305 106.558C41.5219 104.062 41.8131 101.572 41.8974 99.075C42.0896 93.3423 40.3855 88.182 36.9062 83.625C36.6825 83.3253 36.3082 83.1301 35.8488 82.76C35.8602 83.6862 35.9014 84.4105 35.8537 85.1296C35.7344 86.9606 36.2577 88.5383 37.2028 90.1368C38.479 92.2812 39.4637 94.5895 40.518 96.8608C40.8118 97.4695 41.2524 98.1434 40.5998 98.9866ZM40.9497 47.2248C41.6773 47.6249 41.9982 47.8701 42.3663 48.0071C44.3907 48.7606 46.4574 48.4718 48.5384 48.2476C51.1207 47.9621 53.7109 47.7493 56.2883 47.4864C56.6521 47.4473 56.9922 47.256 57.3401 47.1376C54.8785 40.3438 51.4004 37.3693 44.9517 36.6801C45.8681 37.1923 46.5055 37.5064 47.1055 37.8834C47.4378 38.0979 47.7924 38.3836 47.4087 39.0579C44.7879 38.7808 42.641 36.9584 39.8598 36.2864C40.8141 38.5169 41.8879 40.2856 44.2275 41.0273C45.6064 41.4603 46.9281 42.1129 48.2401 42.7445C48.8533 43.0391 49.3624 43.5289 49.9607 43.9577C49.724 44.1524 49.6542 44.2557 49.5604 44.2731C48.022 44.6155 46.8903 43.2652 45.4258 43.2684C44.436 45.3551 44.436 45.3551 40.9497 47.2248ZM55.6887 37.3416C56.1678 38.0997 56.9257 38.1653 57.5763 38.397C58.6548 38.774 59.7382 39.1284 60.8232 39.4973C61.1977 39.6263 61.6339 39.7118 61.3695 40.469C60.7247 40.428 60.002 40.4838 59.3381 40.3345C58.3286 40.1194 57.3471 39.754 56.3508 39.4565C55.9406 39.3387 55.5609 39.2987 55.3832 39.7668C56.069 41.0768 56.8423 42.311 57.3906 43.6432C58.048 45.2359 59.2095 45.9057 60.8085 45.785C62.3493 45.6706 63.9515 45.579 65.4094 45.1054C67.7638 44.3439 70.0109 43.2701 72.4226 42.289C70.9521 39.7754 69.2731 37.7186 67.0853 36.0626C66.1227 35.3271 65.0342 35.0616 63.8933 34.9931C62.9155 34.9365 61.8975 34.8474 60.7082 35.6969C61.9121 36.2812 62.8858 36.5738 63.8237 36.9438C64.8471 37.3562 65.9255 37.7332 66.4665 38.86C65.7167 39.2794 65.1668 38.8896 64.5952 38.7083C62.8191 38.1414 61.0528 37.5294 59.2653 36.9932C58.0252 36.6189 56.8276 36.5712 55.6887 37.3416ZM62.5743 23.91C62.7852 25.1165 63.3013 25.9442 64.3341 26.4439C65.1798 26.846 66.0189 27.2562 66.8271 27.7212C67.2192 27.9439 67.3909 28.3082 66.9387 28.6881C66.325 29.0045 65.6135 28.139 64.8547 28.8169C65.3596 29.609 65.9814 30.256 66.1647 31.0018C66.3273 31.6909 66.0159 32.49 65.8885 33.3576C69.0648 33.803 71.8562 32.862 74.5502 31.5634C74.5111 31.1996 74.5507 30.9524 74.4542 30.8082C72.8504 28.493 71.2807 26.1521 69.5959 23.9045C68.8557 22.9095 67.9552 21.9981 66.9945 21.2109C64.4992 19.1611 62.8829 19.1217 59.7154 20.8762C61.4503 21.6756 63.1969 22.3782 64.8313 23.2694C66.5739 24.2079 68.2221 25.2964 69.8769 26.3769C70.2963 26.6482 70.5499 27.1582 70.0404 27.7578C67.6363 26.4857 65.3969 24.7616 62.5743 23.91ZM46.0292 96.5689C46.5666 97.7992 46.9486 98.6119 47.2739 99.4454C47.6104 100.315 47.9404 101.192 48.1702 102.094C48.2564 102.416 48.3014 102.971 47.5498 102.964C46.7156 102.052 46.4693 100.791 45.8813 99.7058C45.2645 98.5577 44.8939 97.2359 43.5783 96.2294C43.5443 98.1689 43.5097 99.8288 43.4781 101.518C46.245 103.56 47.7561 106.519 49.4366 109.547C50.9089 108.181 51.2604 106.524 51.7101 104.959C52.4854 102.248 52.7177 99.4847 52.3333 96.5303C51.2129 96.5847 50.2251 96.6396 49.1937 96.6992C49.4283 97.5793 49.6023 98.2377 49.845 99.1243C49.3007 98.9916 48.9338 99.0016 48.7759 98.8346C48.2977 98.2899 47.9395 97.6292 47.4418 97.1087C47.2389 96.8656 46.7945 96.8398 46.0292 96.5689ZM2.0224 29.9023C2.39131 26.9036 2.77745 24.0649 3.07314 21.2065C3.2052 19.9042 2.36248 19.119 1.33504 18.4642C-0.426308 17.351 -2.15027 16.175 -3.90513 15.0538C-4.27612 14.8214 -4.52307 14.237 -5.13339 14.5162C-4.44399 16.6797 0.734554 27.8549 2.0224 29.9023ZM41.5227 110.083C43.9754 113.72 45.3114 114.916 47.8734 115.876C47.9273 112.823 47.279 109.47 46.0306 107.242C45.3542 106.019 44.785 104.63 43.263 103.963C42.7669 105.37 42.8755 106.721 42.8857 108.044C42.8969 109.037 42.3488 109.552 41.5227 110.083ZM-13.2593 0.169471C-13.178 0.0355818 -13.1032 -0.0902432 -13.022 -0.224133C-13.3282 -0.47085 -13.6086 -0.749799 -13.9392 -0.949723C-14.3409 -1.19353 -14.9461 -1.00322 -14.8905 -0.692689C-14.8413 -0.440369 -14.6436 -0.108337 -14.4273 -0.013864C-14.0641 0.145758 -13.647 0.122908 -13.2593 0.169471ZM9.1316 13.4214C9.66489 12.9738 9.8852 12.8323 10.0556 12.6373C10.114 12.5647 10.0193 12.3688 10.0036 12.2233C9.91786 12.2473 9.79338 12.2533 9.74793 12.3097C9.59682 12.5468 9.46988 12.8034 9.1316 13.4214ZM43.8412 36.2108C43.6995 36.0568 43.6254 35.9838 43.5578 35.9028C43.5479 35.948 43.5251 36.0093 43.5493 36.0288C43.6072 36.0888 43.6766 36.1181 43.8412 36.2108Z" fill="#4A4A4A"/>
</svg>
