<svg width="23" height="20" viewBox="0 0 23 20" fill="none" xmlns="http://www.w3.org/2000/svg">
<path fill-rule="evenodd" clip-rule="evenodd" d="M17.1076 16.2044C17.1076 16.1778 17.6513 15.5903 18.3159 14.8989C20.5652 12.5589 21.6003 11.4556 21.7136 11.2772C22.1031 10.6643 22.2116 10.2002 22.0927 9.65568C21.9804 9.14095 21.8309 8.93945 20.5786 7.61425C18.5404 5.45739 17.0422 3.89177 15.7034 2.51949C14.3671 1.14988 14.3307 1.11574 14.0688 0.988908C13.3816 0.656114 12.761 0.665837 12.0264 1.02092C11.9062 1.07895 11.7164 1.23356 11.499 1.45041C11.2156 1.73298 11.1353 1.8403 11.0152 2.097C10.8329 2.48648 10.7902 2.69883 10.7933 3.1997C10.796 3.62965 10.9158 4.08162 11.1022 4.36542C11.1656 4.46189 11.4446 4.79336 11.7221 5.10203C11.9997 5.41066 12.4806 5.94712 12.7908 6.29412C14.151 7.81543 14.1173 7.77464 14.0701 7.84415C14.0409 7.88707 12.0329 7.90903 8.11155 7.90935C3.91385 7.90974 2.09182 7.93119 1.83463 7.98322C1.37404 8.0764 0.910117 8.29182 0.684842 8.5171C0.508078 8.69386 0.242301 9.17771 0.127419 9.53198C0.0925364 9.63953 0.0625333 9.93786 0.060757 10.1949C0.0559773 10.8956 0.281317 11.4852 0.721371 11.9234C0.96328 12.1642 1.50652 12.4408 1.86964 12.5079C2.16362 12.5622 2.94253 12.5727 3.39153 12.5283C3.56894 12.5107 4.07782 12.496 4.5224 12.4955C4.96697 12.495 5.47566 12.4805 5.65281 12.4632C5.82996 12.446 6.33865 12.4314 6.78322 12.4309C7.2278 12.4305 7.73648 12.4159 7.91363 12.3986C8.09079 12.3814 8.59947 12.3668 9.04405 12.3663C9.48862 12.3659 9.99731 12.3513 10.1745 12.334C10.3516 12.3168 10.8603 12.3022 11.3049 12.3017C11.7494 12.3013 12.2582 12.2867 12.4354 12.2693C13.0013 12.214 14.0244 12.2352 14.0707 12.3032C14.1172 12.3716 14.1475 12.3349 12.7908 13.8523C12.4806 14.1993 11.9997 14.7358 11.7221 15.0444C11.1209 15.713 11.017 15.8639 10.8914 16.2509C10.7919 16.5574 10.7617 17.2052 10.831 17.5448C10.9123 17.9431 11.1323 18.3303 11.4667 18.6637C11.6554 18.8519 11.8466 19.0053 11.9618 19.0609C12.5511 19.3458 13.2151 19.4142 13.7335 19.2436C14.3139 19.0526 14.2716 19.087 15.748 17.6115C16.4958 16.8642 17.1076 16.2311 17.1076 16.2044Z" fill="white"/>
</svg>
