<svg width="37" height="30" viewBox="0 0 37 30" fill="none" xmlns="http://www.w3.org/2000/svg">
<path fill-rule="evenodd" clip-rule="evenodd" d="M3.48833 0.0742768C3.42473 0.115043 3.28547 0.237463 3.17889 0.346294C3.07227 0.455126 2.89015 0.625853 2.77417 0.725652C2.65814 0.82545 2.46785 1.0069 2.35125 1.12888C2.23465 1.25086 2.04385 1.43231 1.92725 1.53211C1.81065 1.63191 1.6372 1.79521 1.5418 1.89501C1.4464 1.99481 1.27295 2.15808 1.15635 2.2578C1.03975 2.35751 0.883646 2.50272 0.809446 2.5805C0.735247 2.65828 0.57914 2.80349 0.462541 2.9032C0.245532 3.08881 0.13221 3.2151 0.0495304 3.36345C0.0131053 3.42885 0.00242833 6.33532 0.00134907 16.496L0 29.5445L0.0876514 29.6806C0.135833 29.7554 0.233814 29.8579 0.305354 29.9083L0.435405 30H12.9016C22.262 30 25.3887 29.9884 25.4519 29.9534C25.5657 29.8903 26.0822 29.4508 26.2492 29.2749C26.3234 29.1968 26.4795 29.0512 26.5961 28.9516C26.7127 28.852 26.8688 28.7068 26.943 28.629C27.0172 28.5512 27.1733 28.4061 27.2899 28.3064C27.4065 28.2068 27.5626 28.0616 27.6368 27.9839C27.711 27.9061 27.8669 27.7609 27.9832 27.6612C28.2276 27.4516 28.4667 27.2075 28.5908 27.0409L28.6775 26.9246V24.9119C28.6775 22.7796 28.6778 22.7835 28.4965 22.6118C28.4562 22.5736 28.3499 22.5154 28.2602 22.4823C28.0637 22.4098 27.9474 22.4448 27.7588 22.6335C27.5138 22.8785 27.5212 22.8144 27.5212 24.7011V26.4224L27.2023 26.7495C27.0268 26.9294 26.7884 27.1582 26.6723 27.2579C26.5562 27.3576 26.4005 27.5028 26.3263 27.5806C26.2521 27.6584 26.096 27.8035 25.9794 27.9032C25.8628 28.0028 25.7436 28.108 25.7145 28.1369C25.6854 28.1658 25.6334 28.1838 25.5989 28.1768C25.5419 28.1654 25.5343 27.9231 25.5168 25.5438C25.5025 23.5971 25.4855 22.9015 25.4508 22.8381C25.4252 22.7913 25.3422 22.6961 25.2664 22.6265C25.1497 22.5192 25.0981 22.5 24.9277 22.5001C24.7963 22.5002 24.6839 22.5275 24.6033 22.579C24.3498 22.7406 24.3605 22.6005 24.3605 25.7814C24.3605 28.3478 24.3539 28.6705 24.2999 28.727C24.2451 28.7843 23.1442 28.7903 12.7584 28.7903C2.3726 28.7903 1.27172 28.7843 1.21691 28.727C1.16213 28.6696 1.15635 27.5195 1.15635 16.6705V4.67729L1.23822 4.59164C1.31273 4.5137 1.3463 4.50849 1.61404 4.53362C1.77569 4.54882 1.96002 4.5572 2.02362 4.55228C2.08722 4.54741 2.67264 4.54442 3.32451 4.54571C3.97639 4.547 4.57915 4.54708 4.66395 4.54591C4.95246 4.54184 6.20514 4.5437 6.35994 4.54845C6.44473 4.55103 6.54881 4.55317 6.59121 4.55317C6.63361 4.55317 6.73768 4.55103 6.82248 4.54845C7.19328 4.53708 8.54405 4.54349 8.80755 4.55785C8.87115 4.56132 8.9492 4.56519 8.981 4.56644C9.0128 4.56773 9.10222 4.55519 9.17974 4.53862C9.29537 4.51386 9.33519 4.52362 9.40137 4.59285L9.48209 4.67729L9.48224 9.80836C9.48236 14.8263 9.48405 14.9423 9.55763 15.0685C9.65642 15.2381 9.82043 15.3225 10.0509 15.3225C10.2256 15.3225 10.3233 15.269 11.524 14.516C12.2313 14.0725 12.8423 13.7096 12.8817 13.7096C12.9743 13.7096 13.3094 13.8874 13.722 14.1556C13.9022 14.2727 14.3879 14.5829 14.8013 14.845C15.5093 15.2938 15.5648 15.3215 15.7572 15.322C16.0037 15.3226 16.1666 15.2417 16.2676 15.0685C16.3411 14.9423 16.3428 14.8263 16.343 9.80836L16.3431 4.67729L16.4248 4.59184C16.4998 4.51333 16.5336 4.50849 16.8391 4.53233C17.0221 4.5466 17.2022 4.55854 17.2393 4.55886C17.5412 4.56152 17.6496 4.55962 17.75 4.55003C17.8598 4.53954 19.06 4.53837 19.3882 4.54845C19.473 4.55103 19.577 4.55317 19.6194 4.55317C19.6618 4.55317 19.7659 4.55103 19.8507 4.54845C20.041 4.54261 21.339 4.54216 21.5371 4.54789C21.6166 4.55019 22.0979 4.54958 22.6067 4.5466C23.1155 4.54358 23.6098 4.54261 23.7052 4.54438C23.8006 4.5462 23.953 4.54737 24.0438 4.547C24.1488 4.54656 24.2366 4.57249 24.2847 4.61805C24.3587 4.68813 24.3605 4.75809 24.3605 7.62912C24.3605 10.873 24.3496 10.7268 24.6033 10.8886C24.8724 11.0603 25.231 10.9559 25.4292 10.6482L25.5168 10.5122V7.35823V4.2043L25.6036 4.08801C25.6513 4.02406 26.0688 3.57599 26.5315 3.09232C27.074 2.52522 27.3958 2.21747 27.4373 2.22586C27.497 2.23788 27.5034 2.53381 27.5212 6.14963C27.5357 9.10731 27.5518 10.0811 27.5872 10.1456C27.6128 10.1924 27.6958 10.2877 27.7716 10.3573C27.8884 10.4645 27.9399 10.4837 28.1103 10.4836C28.2417 10.4835 28.3541 10.4562 28.4347 10.4047C28.694 10.2394 28.6775 10.5889 28.6775 5.24519V0.405892L28.5562 0.261294C28.4894 0.181737 28.3862 0.0904064 28.3268 0.0582692C28.2332 0.00762372 26.5833 -0.00015887 15.9114 2.42076e-06C4.03278 0.000123389 3.59992 0.00274418 3.48833 0.0742768ZM26.5498 1.29824C26.5654 1.38283 24.7842 3.25482 24.6579 3.28667C24.6109 3.29849 19.4905 3.30321 13.2793 3.29716C2.87215 3.287 1.98519 3.28099 1.97401 3.22038C1.96067 3.1478 2.21572 2.86143 2.54397 2.5805C2.66057 2.4807 2.83403 2.31739 2.92943 2.2176C3.02482 2.1178 3.19828 1.95453 3.31488 1.85481C3.43147 1.75509 3.58758 1.60957 3.66178 1.53142C3.73598 1.45328 3.84676 1.34884 3.90797 1.29936L4.01925 1.2094L15.2782 1.21953C25.8389 1.22904 26.538 1.23392 26.5498 1.29824ZM12.8933 4.54745C13.0814 4.54495 13.1946 4.54567 13.3173 4.55007C13.3809 4.55233 13.7348 4.54402 14.1038 4.5316C14.8211 4.50745 15.0802 4.54434 15.1499 4.68067C15.1733 4.72636 15.1834 6.38145 15.1773 9.14074L15.1675 13.5281L15.0858 13.5403C15.0409 13.5471 14.9021 13.4865 14.7774 13.4059C14.3842 13.1514 13.3234 12.4964 13.1743 12.4158C12.881 12.2574 12.8205 12.2818 11.5884 13.057C10.9478 13.46 10.7716 13.5542 10.7211 13.5208C10.663 13.4825 10.6569 13.1141 10.6479 9.11618C10.6411 6.0762 10.6506 4.72886 10.6793 4.67269C10.702 4.62837 10.7564 4.57821 10.8003 4.56128C10.844 4.5443 11.3069 4.53458 11.8288 4.5397C12.3507 4.54478 12.8297 4.54825 12.8933 4.54745ZM22.2967 12.2524C22.2322 12.2936 22.1324 12.3856 22.075 12.457C21.8742 12.7067 21.9617 13.1757 22.2369 13.3245C22.3394 13.38 22.9153 13.387 27.3702 13.387H32.388L32.5537 13.2137C32.7275 13.0319 32.7867 12.8852 32.7493 12.7294C32.7102 12.5664 32.554 12.3629 32.396 12.2693L32.2429 12.1787L27.3285 12.1781C22.609 12.1776 22.4093 12.1806 22.2967 12.2524ZM34.0708 12.4303C33.7754 12.6385 33.68 12.9894 33.8487 13.247C34.0632 13.5745 34.4224 13.6506 34.6719 13.4214C34.8431 13.2641 34.9218 13.1097 34.9218 12.9313C34.9218 12.6565 34.6117 12.3386 34.3437 12.3386C34.259 12.3386 34.148 12.3759 34.0708 12.4303ZM22.1487 16.2511C21.9819 16.4043 21.8799 16.6904 21.9362 16.8467C21.9844 16.9804 22.1851 17.2047 22.3253 17.2816C22.414 17.3302 23.4724 17.3386 29.4561 17.338L36.4829 17.3373L36.6359 17.2466C36.7939 17.153 36.9502 16.9496 36.9893 16.7866C37.0267 16.6307 36.9675 16.4841 36.7937 16.3023L36.6279 16.129H29.4548H22.2817L22.1487 16.2511ZM22.209 20.0818C22.1262 20.1346 22.048 20.2391 21.9871 20.3782C21.8971 20.584 21.8956 20.6005 21.9521 20.7683C21.9847 20.8647 22.0411 20.9781 22.0776 21.0202C22.2476 21.2167 22.0871 21.2096 26.3509 21.2096H30.3495L30.471 21.1225C30.784 20.8981 30.8567 20.5225 30.6376 20.2614C30.4024 19.9811 30.7135 19.9999 26.3186 20.0001C22.3901 20.0002 22.3352 20.0013 22.209 20.0818ZM3.15769 22.1078C2.77613 22.3768 2.75366 22.7786 3.10226 23.0988L3.24048 23.2258H6.58053H9.92058L10.0421 23.1387C10.4302 22.8605 10.4222 22.388 10.0247 22.1078L9.89467 22.0161H6.59121H3.28774L3.15769 22.1078ZM3.35342 25.2084C3.30042 25.2313 3.20055 25.2752 3.13152 25.3059C2.76091 25.4709 2.75998 26.1141 3.13009 26.315C3.25108 26.3807 3.91329 26.406 5.51194 26.406C7.1106 26.406 7.77281 26.3807 7.8938 26.315C8.14214 26.1802 8.24992 25.7996 8.11628 25.5293C8.04139 25.3778 7.98118 25.3312 7.74147 25.2396C7.54793 25.1656 7.42409 25.1614 5.49321 25.164C4.18075 25.1657 3.41532 25.1816 3.35342 25.2084ZM9.57772 25.2578C9.51373 25.2869 9.40557 25.3773 9.33739 25.4586C9.11984 25.7178 9.12381 25.9054 9.35238 26.1701C9.61198 26.4707 9.96721 26.4779 10.2109 26.1876C10.3152 26.0632 10.3301 26.016 10.3301 25.8081C10.3301 25.6089 10.3133 25.5498 10.2259 25.4411C10.0489 25.2211 9.80787 25.1529 9.57772 25.2578Z" fill="black"/>
</svg>
