<svg width="20" height="17" viewBox="0 0 20 17" fill="none" xmlns="http://www.w3.org/2000/svg">
<path fill-rule="evenodd" clip-rule="evenodd" d="M19.95 5.05933C19.616 5.42708 19.2375 5.75025 18.8367 6.02885C16.9776 7.28811 15.1072 8.55852 13.2926 9.8735C12.3574 10.5644 11.1996 11.4114 9.98615 11.4114H9.97501H9.96388C8.7504 11.4114 7.59259 10.5644 6.65743 9.8735C4.84278 8.54737 2.97246 7.28811 1.12442 6.02885C0.712501 5.75025 0.333985 5.42708 0 5.05933V13.9076C0 14.8883 0.801564 15.6906 1.78125 15.6906H18.1688C19.1485 15.6906 19.95 14.8883 19.95 13.9076V5.05933Z" fill="#FDCF55"/>
<path fill-rule="evenodd" clip-rule="evenodd" d="M19.95 1.78303C19.95 0.802362 19.1373 0 18.1688 0H1.78125C0.59004 0 0 0.936089 0 2.02819C0 3.04229 1.12442 4.30155 1.91485 4.83646C3.64043 6.04 5.38829 7.24355 7.11388 8.45823C7.83751 8.95971 9.06212 9.98495 9.96388 9.98495H9.97501H9.98615C10.8879 9.98495 12.1125 8.95971 12.8361 8.45823C14.5617 7.24355 16.3096 6.04 18.0463 4.83646C19.026 4.15668 19.95 3.03115 19.95 1.78303Z" fill="#FDCF55"/>
</svg>
