<svg width="128" height="135" viewBox="0 0 128 135" fill="none" xmlns="http://www.w3.org/2000/svg">
<path fill-rule="evenodd" clip-rule="evenodd" d="M40.0151 0.11981C39.8359 0.179554 39.4253 0.302603 39.1027 0.39334C36.3917 1.15603 33.7767 3.79928 32.9848 6.57731C32.8918 6.90373 32.7638 7.3429 32.7004 7.55313C32.4324 8.44309 32.5907 10.8253 32.999 12.0505C33.5808 13.7959 34.018 14.4914 35.3894 15.8535C36.529 16.9853 37.4253 17.5543 38.8711 18.0635C39.8474 18.4073 40.1137 18.4437 41.6707 18.4453C42.7308 18.4463 43.6605 18.376 44.0922 18.2623C44.9014 18.0491 46.4461 17.2888 47.2149 16.7251C47.5064 16.5116 47.8411 16.3368 47.9588 16.3368C48.2458 16.3368 53.1815 19.3166 53.4843 19.6729C53.6534 19.8717 53.7005 20.0708 53.6458 20.3543C52.9991 23.7027 53.2315 27.2254 54.2596 29.6572C54.3668 29.9111 54.5933 30.4442 54.7624 30.842C55.9408 33.6098 59.542 37.2715 62.2417 38.4466C62.599 38.6021 63.1468 38.8364 63.4594 38.9675C64.1556 39.2597 64.4551 39.6756 64.3292 40.1754C64.279 40.3746 64.1815 41.2796 64.1127 42.1863C64.0437 43.093 63.9336 44.4877 63.8678 45.2856C63.8019 46.0835 63.6852 47.5673 63.6081 48.5828C63.5311 49.5983 63.4143 51.082 63.3485 51.8799C63.2826 52.6778 63.1708 54.0725 63.0998 54.9792C62.9543 56.8363 62.7906 57.9603 62.6437 58.1096C62.5892 58.165 61.4788 58.2509 60.1761 58.3003C57.3261 58.4088 56.5809 58.4976 54.6141 58.9645C53.2607 59.2858 49.6945 60.5649 48.5957 61.1232C47.8045 61.5253 47.3137 61.7006 47.1185 61.651C46.9399 61.6057 46.6089 61.2294 46.2688 60.6848C45.9625 60.1943 44.8503 58.4577 43.7973 56.8256C42.7442 55.1935 41.2183 52.8196 40.4062 51.5502C39.5941 50.2808 38.0692 47.9069 37.0173 46.2748C35.9655 44.6427 34.3328 42.1055 33.3889 40.6367C32.4451 39.1679 30.9189 36.7939 29.9974 35.3613C29.0758 33.9286 27.931 32.1389 27.4533 31.3841C26.4163 29.7459 26.4162 29.753 27.495 28.4746C27.8138 28.0968 28.3515 27.3118 28.6897 26.7303C29.2208 25.8173 29.4573 25.2031 30.123 23.0103C30.1868 22.8 30.239 21.7199 30.239 20.6099C30.239 18.2667 30.1803 17.9672 29.2298 15.4703C28.3725 13.2184 25.2396 10.0485 23.0139 9.18112C20.5554 8.22311 20.2446 8.15993 17.9863 8.15993C16.0204 8.15993 15.5993 8.22548 13.8396 8.80604C11.8715 9.45531 9.7825 10.9537 8.38178 12.7209C7.52474 13.8021 6.42344 15.83 6.13146 16.8644C6.0393 17.1908 5.91208 17.63 5.84873 17.8402C5.69909 18.3375 5.69909 22.7768 5.84873 23.2741C5.91208 23.4843 6.04008 23.9235 6.13328 24.2499C6.42735 25.2802 7.3785 27.067 8.28728 28.2966C8.94124 29.1814 9.46263 29.7089 10.3371 30.3706C11.5524 31.2901 13.3183 32.2525 14.3366 32.55C14.6592 32.6443 15.0933 32.7738 15.301 32.8379C15.9876 33.0495 19.7823 32.9781 20.7727 32.735C21.3783 32.5863 21.7375 32.5562 21.8806 32.6421C21.997 32.712 22.7962 33.8422 23.6565 35.1537C25.1135 37.375 25.872 38.5501 30.239 45.3516C35.5696 53.6539 38.644 58.4254 40.9061 61.9065C41.8499 63.3589 42.6221 64.6724 42.6221 64.8252C42.6221 64.988 42.4324 65.2494 42.1643 65.4563C41.5284 65.9472 40.0656 67.4324 39.3634 68.3C39.0408 68.6988 38.668 69.1437 38.535 69.2888C38.1605 69.6972 36.8276 71.7263 36.0449 73.0793C35.1414 74.6409 34.9595 74.8939 34.74 74.8939C34.6412 74.8939 33.5148 74.202 32.2368 73.3562C30.9588 72.5106 28.916 71.1655 27.6973 70.3672C25.4271 68.8803 20.0486 65.3368 18.7729 64.4876C17.8105 63.847 17.6193 63.4857 17.8269 62.7002C18.2202 61.2125 17.8918 58.9205 17.0325 57.1553C15.5444 54.0989 12.2214 51.9458 8.99233 51.9458C7.63763 51.9458 5.19491 52.6564 4.18562 53.3441C2.96517 54.1758 1.46695 55.8382 0.88808 57.0031C0.143532 58.5015 -0.0019359 59.1919 1.93187e-05 61.2173C0.00158349 62.7926 0.0375596 63.0621 0.377377 64.0499C0.885082 65.5258 1.45131 66.4361 2.5581 67.5561C3.66501 68.6759 4.56467 69.2488 6.0234 69.7625C6.9997 70.1063 7.266 70.1427 8.82301 70.1443C9.88313 70.1454 10.8128 70.0751 11.2445 69.9614C11.958 69.7733 13.6 68.9944 14.2263 68.5468C14.4166 68.4109 14.6956 68.2996 14.8461 68.2996C14.9967 68.2996 16.2193 69.0319 17.5632 69.9268C18.9071 70.8218 21.2092 72.3449 22.6789 73.3117C24.1485 74.2784 26.6708 75.9403 28.2838 77.0046C29.8969 78.069 31.5522 79.1566 31.9624 79.4215C32.7372 79.9219 33.1903 80.4534 33.0449 80.6914C32.9524 80.8428 32.7903 81.6799 32.5588 83.2027C32.3648 84.4794 32.3638 90.3578 32.5575 91.6433C33.1831 95.7947 34.5773 99.579 36.8757 103.364C37.2559 103.99 37.5169 104.561 37.4786 104.683C37.3996 104.935 37.199 105.073 35.7137 105.894C35.1043 106.231 34.1658 106.762 33.6281 107.074C33.0904 107.386 32.1519 107.92 31.5425 108.261C30.9331 108.602 29.9946 109.136 29.457 109.448C28.9193 109.76 27.9662 110.303 27.3388 110.655C24.6263 112.175 23.8761 112.598 23.2003 112.987C22.806 113.214 22.3436 113.401 22.1729 113.402C21.9947 113.403 21.3289 113.018 20.6087 112.496C19.3901 111.614 17.8032 110.723 17.0087 110.476C15.4745 110 15.1135 109.952 13.0331 109.952C10.5503 109.952 10.2965 110.002 7.7449 110.997C6.87483 111.336 5.3263 112.404 4.42299 113.289C2.47194 115.199 1.34573 117.298 0.662838 120.297C0.399275 121.455 0.483089 123.907 0.834116 125.307C1.00696 125.997 1.24158 126.743 1.35551 126.966C1.4693 127.189 1.5625 127.457 1.5625 127.561C1.5625 127.931 3.15731 130.201 4.08017 131.145C5.29671 132.388 6.05273 132.952 7.41981 133.635C8.4158 134.133 9.10964 134.386 10.8824 134.9C11.4768 135.073 14.4114 135.01 15.4446 134.803C18.4154 134.207 21.6545 132.027 23.2304 129.564C24.4319 127.687 25.0653 125.976 25.3082 123.955C25.5215 122.181 25.4544 121.023 25.0233 119.041C24.8236 118.122 24.9124 117.983 26.1242 117.309C26.5592 117.067 27.4577 116.565 28.1209 116.192C28.7841 115.819 29.8399 115.227 30.4672 114.875C31.0945 114.523 32.0476 113.98 32.5853 113.668C33.123 113.356 34.0762 112.813 34.7035 112.461C35.3308 112.11 36.3573 111.534 36.9846 111.182C37.6119 110.831 38.565 110.287 39.1027 109.975C41.3122 108.69 41.2641 108.694 42.3614 109.709C44.1386 111.353 47.9163 113.716 50.0803 114.538C54.6062 116.256 57.0742 116.742 61.2619 116.742C65.4495 116.742 67.9175 116.256 72.4434 114.538C74.1321 113.897 76.7205 112.371 78.7247 110.836C80.8019 109.244 84.1885 105.684 85.0828 104.152C85.4427 103.536 85.7856 103.539 87.1204 104.169C89.8212 105.444 95.9358 108.368 100.073 110.362C101.417 111.011 102.712 111.613 102.951 111.701C103.592 111.939 103.809 112.352 103.692 113.11C103.522 114.21 103.638 115.799 103.962 116.801C104.278 117.779 105.058 119.216 105.737 120.073C106.722 121.317 108.598 122.612 110.012 123.024C110.335 123.118 110.769 123.247 110.976 123.311C111.466 123.462 114.032 123.462 114.522 123.311C114.73 123.247 115.164 123.118 115.487 123.023C116.597 122.699 118.14 121.828 119.015 121.029C119.596 120.5 120.653 119.04 121.052 118.218C122.325 115.591 122.312 112.763 121.013 110.098C120.05 108.123 118.478 106.603 116.445 105.682C115.192 105.114 114.417 104.964 112.733 104.964C111.406 104.964 111.017 105.014 110.192 105.294C109.065 105.677 107.997 106.224 107.098 106.877C106.749 107.13 106.324 107.338 106.154 107.338C105.983 107.338 105.124 106.989 104.245 106.562C102.743 105.834 101.08 105.038 95.9344 102.588C90.6711 100.081 88.305 98.8762 88.2273 98.6623C88.1821 98.5375 88.2318 98.2277 88.3377 97.9738C88.6012 97.3428 88.7585 96.83 89.4298 94.4129C89.552 93.9727 89.6725 93.2869 89.9622 91.3796C90.1404 90.2064 90.2417 84.8351 90.0938 84.4057C89.9351 83.9452 90.1166 83.4882 90.4868 83.4159C92.3079 83.0604 93.5471 82.8028 94.6961 82.5411C95.2696 82.4104 96.0908 82.234 96.521 82.1489C96.9511 82.0638 97.5377 81.9446 97.8244 81.8838C98.1112 81.823 98.6978 81.7038 99.1279 81.6187C99.5581 81.5337 100.379 81.3561 100.953 81.2244C101.526 81.0926 102.348 80.9146 102.778 80.8287C103.208 80.7429 104.029 80.5648 104.603 80.4331C105.176 80.3013 105.997 80.1229 106.427 80.0368C108.109 79.6999 108.55 79.6043 109.58 79.3523C110.167 79.2088 110.771 79.1308 110.921 79.1791C111.072 79.2275 111.332 79.4848 111.5 79.7511C113.262 82.5438 117.449 84.4084 120.405 83.7169C121.695 83.4153 122.1 83.271 123.196 82.7227C124.082 82.2795 124.541 81.9358 125.347 81.1127C127.279 79.1381 128 77.3723 128 74.614C128 73.4118 127.943 72.9893 127.673 72.1748C126.574 68.8607 124.955 67.2042 121.55 65.9091C120.727 65.5962 117.835 65.5593 116.764 65.8479C115.011 66.32 113.098 67.5637 112.023 68.9302C111.365 69.7667 110.671 71.0843 110.411 71.9924C109.784 74.1791 110.042 73.9685 107.34 74.4982C106.91 74.5825 106.323 74.7012 106.036 74.762C105.75 74.8228 105.163 74.942 104.733 75.0271C104.303 75.1122 103.482 75.2897 102.908 75.4214C102.334 75.5532 101.513 75.7316 101.083 75.8177C99.5434 76.1261 98.9827 76.2445 97.9548 76.4786C97.3813 76.6093 96.5601 76.7867 96.1299 76.8728C94.5901 77.1812 94.0295 77.2996 93.0016 77.5337C92.428 77.6644 91.6068 77.8409 91.1767 77.9259C90.7466 78.011 90.1429 78.1435 89.8352 78.2204C89.0944 78.4056 88.7464 78.2353 88.531 77.5824C88.1453 76.4127 87.1692 74.307 86.3212 72.8159C85.678 71.6846 84.3012 69.6635 83.7839 69.0909C83.62 68.9096 83.2221 68.4356 82.8995 68.0377C82.1562 67.1207 81.4578 66.4141 80.5515 65.662C80.1583 65.3356 79.6898 64.9342 79.5106 64.7698C78.4596 63.8062 75.1607 61.6812 73.703 61.0288C72.16 60.3382 71.886 60.2319 70.1398 59.6458C69.1641 59.3184 68.2883 58.9504 68.1934 58.8283C67.9934 58.5706 67.9928 58.5844 68.562 51.748C68.6405 50.805 68.7575 49.3213 68.822 48.4509C68.8866 47.5804 69.0036 46.0967 69.0821 45.1538C69.1605 44.2108 69.2661 42.7864 69.3167 41.9885C69.3673 41.1906 69.4527 40.4692 69.5065 40.3853C69.6509 40.1603 70.7496 39.8124 71.3155 39.8124C71.8293 39.8124 72.6501 39.6164 73.9708 39.1783C74.7132 38.9321 75.0574 38.7929 76.3531 38.2147C77.1084 37.8778 77.4204 37.9019 77.8812 38.3333C78.0963 38.5347 78.8882 39.1993 79.6409 39.8102C80.3937 40.4211 81.0389 40.9543 81.0747 40.9949C81.1106 41.0356 81.4625 41.3344 81.8568 41.6588C82.2511 41.9832 82.6031 42.282 82.6389 42.3227C82.6748 42.3633 83.32 42.8955 84.0727 43.5052C84.8255 44.1149 85.4707 44.6471 85.5066 44.6877C85.5424 44.7284 85.8944 45.0271 86.2887 45.3516C86.683 45.676 87.0349 45.9747 87.0707 46.0155C87.1066 46.0561 87.7518 46.5883 88.5046 47.198C89.2573 47.8077 89.9025 48.3418 89.9384 48.3849C89.9742 48.4281 90.6017 48.9506 91.333 49.5462C92.0641 50.1417 92.7533 50.7605 92.8646 50.9211C92.9973 51.1129 93.0667 51.5098 93.0667 52.076C93.0667 53.4728 93.898 55.3316 94.9221 56.225C97.1302 58.1511 100.037 58.1149 102.262 56.1339C102.957 55.5145 103.274 55.0066 103.692 53.8404C104.395 51.8786 103.921 49.9003 102.372 48.3334C101.217 47.1638 100.094 46.6754 98.5565 46.6724C98.0271 46.6714 97.3668 46.7393 97.089 46.8236C96.6093 46.9689 96.5498 46.9527 95.9008 46.4981C95.525 46.2348 95.0708 45.8826 94.8916 45.7151C94.7124 45.5476 93.9499 44.9104 93.1971 44.2993C92.4443 43.688 91.7991 43.1527 91.7633 43.1095C91.7274 43.0664 91.0822 42.5323 90.3294 41.9226C89.5767 41.3129 88.9315 40.7787 88.8956 40.7356C88.8598 40.6925 88.2145 40.1583 87.4618 39.5486C86.709 38.9389 86.0638 38.4068 86.028 38.3661C85.9921 38.3254 85.6402 38.0267 85.2459 37.7022C84.8516 37.3778 84.4996 37.0797 84.4638 37.0399C84.4279 36.9999 83.9294 36.5887 83.3558 36.1259C81.8575 34.9171 81.4658 34.5206 81.4662 34.2144C81.4664 34.0654 81.7045 33.5874 81.9953 33.1522C82.6207 32.2159 83.7419 30.0165 83.9965 29.2264C84.0956 28.9193 84.2462 28.3417 84.3315 27.9427C84.4167 27.5438 84.5399 27.0028 84.6055 26.7405C84.6709 26.4781 84.7254 25.5582 84.7264 24.6962C84.7276 23.8342 84.7791 23.0481 84.841 22.9493C84.9543 22.7682 85.44 22.6374 86.8752 22.4013C87.3054 22.3306 87.9506 22.212 88.3091 22.1378C88.6675 22.0635 89.3714 21.9447 89.8732 21.8738C91.047 21.7077 92.1804 21.5177 93.0016 21.3491C93.6534 21.2154 94.8152 21.0127 95.6737 20.8828C95.9246 20.8448 96.4232 20.7581 96.7817 20.6902C97.1401 20.6223 97.7687 20.5346 98.1783 20.4954L98.9233 20.4241L99.4331 21.1221C101.654 24.1643 104.6 25.5149 108.122 25.1048C109.901 24.8978 112.058 23.8365 113.395 22.5109C114.445 21.4697 115.422 19.74 115.824 18.2097C116.065 17.2935 116.066 14.5967 115.825 13.6625C115.725 13.2726 115.424 12.5129 115.157 11.9745C114.049 9.74572 113.137 8.82292 110.934 7.70256C109.533 6.98998 108.824 6.84082 106.845 6.84279C105.288 6.84438 105.021 6.88078 104.045 7.2246C102.243 7.85937 100.834 8.89823 99.6622 10.4574C98.7811 11.6296 98.0253 13.3698 98.0219 14.2344C98.0184 15.083 97.7425 15.248 95.8041 15.5615C95.3381 15.6368 94.6635 15.7483 94.3051 15.8093C93.9466 15.8702 93.2427 15.9889 92.7409 16.0731C92.239 16.1572 91.5352 16.2759 91.1767 16.3368C90.8182 16.3978 90.1144 16.5164 89.6125 16.6006C89.1107 16.6847 88.4068 16.8038 88.0484 16.8653C85.051 17.3794 83.8062 17.5498 83.6086 17.473C83.519 17.4382 83.2626 17.0646 83.0388 16.6425C82.6044 15.8231 81.2637 13.8876 80.6185 13.1481C79.8963 12.3204 77.4018 10.4051 76.3001 9.83237C76.0758 9.71578 75.6504 9.52917 75.3551 9.41772C75.0597 9.30615 74.5687 9.11993 74.2641 9.00374C72.5897 8.36541 71.3246 8.15993 69.0679 8.15993C66.7409 8.15993 66.3879 8.21176 64.325 8.85708C61.3324 9.79307 58.6531 11.633 56.6499 14.1277C56.3733 14.4722 56.0642 14.7542 55.9633 14.7542C55.7015 14.7542 54.2839 14.0131 53.441 13.4356C53.0467 13.1654 52.4303 12.794 52.071 12.6101C50.7157 11.9167 50.7726 12.0531 50.8099 9.59274C50.8414 7.50169 50.8306 7.40067 50.461 6.34295C49.82 4.50908 48.7959 3.09053 47.259 1.90778C46.5024 1.32551 45.1425 0.625854 44.3166 0.393736C43.994 0.303131 43.5499 0.173619 43.3298 0.105962C42.8468 -0.0422769 40.4718 -0.0325174 40.0151 0.11981ZM42.962 5.46604C44.3186 5.86513 45.1782 6.85124 45.6265 8.52262C45.8343 9.29744 45.8343 9.39688 45.6268 10.1792C45.1996 11.7892 44.164 12.8049 42.5243 13.2225C41.7838 13.4109 41.6355 13.4111 40.895 13.2229C39.9335 12.9785 39.7156 12.8503 38.9747 12.0937C38.1869 11.2889 37.8021 10.4013 37.8005 9.38488C37.7961 6.55726 40.2745 4.67566 42.962 5.46604ZM19.9528 13.6218C22.2461 14.3261 24.1448 16.2471 24.8408 18.5675C25.0784 19.3596 25.0784 21.7547 24.8408 22.5468C23.9391 25.5527 20.9778 27.8391 17.9863 27.8391C17.5467 27.8391 16.0604 27.5942 15.5673 27.4405C13.6068 26.8294 11.5796 24.659 11.1089 22.6673C10.592 20.4795 10.5912 20.709 11.1227 18.3839C11.5432 16.5439 13.8091 14.3182 15.9631 13.6291C16.6892 13.3968 19.2052 13.3922 19.9528 13.6218ZM71.9625 13.7521C75.5897 14.9169 78.0342 17.3895 79.201 21.074C79.6599 22.5237 79.6841 25.1283 79.254 26.8217C78.9072 28.1876 78.6709 28.7057 77.8103 29.9869C77.0359 31.1398 76.5445 31.6713 75.4698 32.518C74.3981 33.3623 73.0349 34.0568 71.9483 34.3121C69.9326 34.7857 69.6123 34.83 68.7449 34.7561C66.5528 34.5692 65.8994 34.3938 64.1785 33.5295C63.0936 32.9847 62.7423 32.7163 61.5957 31.5563C60.4113 30.3578 60.198 30.0666 59.611 28.8473C58.9802 27.5372 58.8691 27.2022 58.5202 25.5607C58.171 23.9177 58.6685 21.0388 59.6381 19.0909C60.0405 18.2825 61.0873 16.8785 61.7748 16.2249C62.4805 15.554 64.0961 14.4817 64.8373 14.1922C66.4428 13.5653 67.0111 13.4644 69.0191 13.4497C70.7483 13.4371 71.0906 13.4721 71.9625 13.7521ZM65.3678 63.7887C66.4023 63.9708 68.6511 64.6091 69.8357 65.0567C70.5826 65.3389 72.8704 66.5011 73.8404 67.091C74.5772 67.539 75.9006 68.5013 76.2771 68.8628C76.3707 68.9526 76.7697 69.293 77.1639 69.619C78.0561 70.3574 78.2577 70.5613 78.9892 71.4653C79.3118 71.8641 79.6847 72.3089 79.8178 72.454C80.3715 73.0575 81.8809 75.4744 82.5614 76.8472C83.5514 78.8445 84.3492 81.3432 84.7592 83.7302C84.9248 84.6952 84.9655 89.9748 84.8135 90.7861C84.4998 92.4601 84.4154 92.8659 84.1725 93.8732C84.0253 94.4831 83.7899 95.2843 83.6492 95.6537C83.5087 96.0231 83.3111 96.5506 83.2104 96.8261C82.6887 98.251 81.3143 100.558 79.8555 102.458C77.8061 105.127 73.5932 108.467 71.0116 109.471C69.3718 110.108 68.1956 110.502 67.2073 110.746C66.2457 110.983 65.8008 111.077 64.1947 111.384C63.4151 111.533 58.9926 111.493 57.8728 111.327C56.7147 111.155 53.9843 110.468 53.2455 110.163C52.9587 110.044 52.4455 109.835 52.1049 109.698C50.5234 109.06 49.9916 108.771 48.2045 107.577C46.6058 106.509 45.9964 105.999 44.4896 104.468C42.3843 102.329 41.252 100.791 40.0804 98.4784C39.2643 96.8676 38.2859 94.1948 38.061 92.9622C38.0014 92.6358 37.8755 92.0126 37.781 91.5774C37.5643 90.5784 37.5522 84.6976 37.7644 83.4664C37.9697 82.2751 38.4772 80.4435 38.9703 79.1142C39.199 78.4977 39.4729 77.7584 39.579 77.4713C39.685 77.1843 39.9656 76.6205 40.2026 76.2184C40.4396 75.8164 40.7863 75.212 40.9731 74.8756C41.4619 73.995 43.4652 71.42 44.3898 70.4842C46.6444 68.2016 50.446 65.759 53.2326 64.8024C54.2149 64.4652 56.8427 63.8157 57.2625 63.8063C57.4906 63.8011 57.7946 63.7444 57.938 63.6803C58.2852 63.525 64.374 63.6137 65.3678 63.7887ZM114.514 110.551C115.781 111.148 116.79 112.764 116.79 114.196C116.79 115.627 115.781 117.243 114.514 117.84C113.718 118.215 112.331 118.262 111.411 117.945C110.223 117.535 109.172 116.293 108.831 114.896C108.692 114.33 108.694 114.08 108.842 113.459C109.09 112.412 109.827 111.308 110.611 110.809C111.467 110.264 111.479 110.261 112.749 110.251C113.651 110.243 113.98 110.299 114.514 110.551ZM13.8001 115.11C14.0593 115.177 14.6228 115.309 15.0525 115.402C17.0211 115.83 19.5019 118.345 19.9254 120.342C20.016 120.77 20.1448 121.334 20.2114 121.597C20.3948 122.318 20.3541 122.857 20.0235 124.087C19.2802 126.854 17.6722 128.625 15.177 129.426C13.3881 130.001 11.3342 129.828 9.62895 128.958C8.66894 128.469 7.00779 126.788 6.52406 125.817C5.66494 124.092 5.49366 122.013 6.06146 120.203C6.8442 117.708 8.59425 116.064 11.2734 115.309C12.4381 114.981 13.1026 114.928 13.8001 115.11Z" fill="black"/>
</svg>
