<svg width="130" height="130" viewBox="0 0 130 130" fill="none" xmlns="http://www.w3.org/2000/svg">
<path fill-rule="evenodd" clip-rule="evenodd" d="M28.4962 0.241575C27.9693 0.570359 27.3039 1.21482 26.5868 2.09097C26.2623 2.48737 25.887 2.92963 25.7529 3.07378C25.4344 3.4158 24.158 5.30031 23.4008 6.54638C22.8507 7.45162 22.4704 8.20904 21.5347 10.2617C20.9044 11.6446 20.2386 13.8136 19.8795 15.6538C19.7952 16.0862 19.6957 16.558 19.6585 16.7021C19.3782 17.7886 19.1573 22.0223 19.3371 22.8611C19.4145 23.2214 19.5014 23.9486 19.5305 24.4768C19.596 25.6676 19.4707 25.7486 18.5273 25.1253C17.2708 24.2949 15.8764 23.4837 15.1115 23.1377C14.6954 22.9495 14.024 22.646 13.6193 22.4634C12.8067 22.0964 9.7596 21.0752 8.83023 20.8584C8.28156 20.7303 7.45821 20.566 6.33087 20.3598C6.07765 20.3134 4.85362 20.249 3.61091 20.2168C1.0788 20.151 0.750991 20.2278 0.269931 21.0002C0.0289399 21.3869 0.0127599 21.5986 0.0630101 23.7128C0.0928709 24.9741 0.155618 26.2125 0.202185 26.4647C0.413315 27.6067 0.574852 28.4098 0.702977 28.9545C0.874775 29.6849 1.89899 32.7988 2.1947 33.4899C3.10104 35.6075 4.09395 37.3675 5.41453 39.1974C6.35153 40.4956 6.3927 40.8327 5.60737 40.7755C5.31797 40.7544 4.26272 40.7057 3.26245 40.6672C1.535 40.6006 1.42227 40.6117 1.01434 40.8902C0.778221 41.0514 0.453173 41.3749 0.29203 41.6091C0.0106553 42.0182 0.00157866 42.1218 0.0623525 44.2418C0.0970804 45.4555 0.185084 46.8614 0.25796 47.3659C0.494873 49.0063 1.13431 51.2716 2.04355 53.6922C2.67786 55.3808 4.44359 58.4903 5.6813 60.0983C6.11093 60.6565 6.46242 61.2239 6.46242 61.3593C6.46242 61.5846 6.38139 61.5988 5.50872 61.5287C2.96621 61.3244 1.69654 61.3024 1.32374 61.4563C1.11287 61.5433 0.72876 61.8478 0.470142 62.133L0 62.6515L0.062484 64.9023C0.0969488 66.1402 0.184821 67.5659 0.257829 68.0705C0.495268 69.7118 1.1351 71.9788 2.04303 74.3951C2.71207 76.1759 4.84126 79.8747 6.05857 81.3712C6.57489 82.006 6.47241 82.0548 4.78522 81.978C3.93504 81.9394 2.96069 81.8697 2.61985 81.8231C1.81401 81.7133 0.937128 82.0395 0.400292 82.6487L0.000789339 83.102L0.0589322 85.4799C0.0908977 86.7877 0.155223 88.0641 0.202053 88.3164C0.41713 89.4774 0.575247 90.263 0.702977 90.8062C0.922394 91.7389 1.9712 94.8425 2.25297 95.3928C2.39373 95.6676 2.5921 96.1328 2.69365 96.4266C3.07053 97.5162 5.84981 101.797 6.88099 102.876C6.97702 102.976 7.32167 103.382 7.64685 103.778C8.39087 104.683 8.84246 105.133 9.75236 105.876C10.1496 106.2 10.6225 106.599 10.8034 106.762C12.152 107.98 15.9568 110.298 17.6046 110.906C17.8794 111.007 18.4297 111.221 18.8277 111.38C20.2361 111.943 20.6196 112.068 22.1163 112.45C23.7322 112.863 24.8002 113.056 26.233 113.196C26.8028 113.252 27.1716 113.354 27.2504 113.478C27.3235 113.593 27.377 116.646 27.3815 120.946C27.3889 128.175 27.3907 128.222 27.6795 128.807C28.4339 130.335 30.3013 130.409 31.2884 128.95L31.5875 128.507L31.5895 121.09C31.5907 116.691 31.6419 113.594 31.7153 113.478C31.7941 113.354 32.1628 113.252 32.7326 113.196C34.644 113.009 37.5186 112.383 38.9541 111.84C39.2796 111.717 39.9475 111.474 40.4383 111.301C42.668 110.511 46.7126 108.108 48.3085 106.624C48.5569 106.393 49.0837 105.938 49.4793 105.614C50.4569 104.812 50.8561 104.405 51.7904 103.255C53.2407 101.47 54.4559 99.7903 55.0155 98.7966C55.3191 98.2577 55.7428 97.5036 55.9571 97.1207C56.7259 95.7471 58.0635 91.9217 58.4398 90.0199C58.7957 88.2223 58.8475 87.7154 58.9045 85.4799L58.9648 83.102L58.5653 82.6487C58.0064 82.0145 57.1686 81.7192 56.2165 81.8208C55.802 81.8651 54.8267 81.9345 54.0489 81.9754C52.5016 82.0565 52.3953 82.0003 52.9071 81.3712C54.1244 79.8747 56.2536 76.1759 56.9226 74.3951C57.5559 72.7097 57.8317 71.8557 58.1824 70.4947C58.6982 68.4933 58.8129 67.7468 58.9271 65.6462C58.9798 64.6732 59.0646 63.8108 59.1152 63.7297C59.4226 63.2371 58.2478 61.5785 57.4501 61.3791C57.1264 61.2982 54.8502 61.3801 53.3254 61.5277C52.5794 61.5998 52.5032 61.5843 52.5032 61.3602C52.5032 61.2243 52.8547 60.6565 53.2843 60.0983C54.522 58.4903 56.2878 55.3808 56.9221 53.6922C57.8313 51.2716 58.4708 49.0063 58.7077 47.3659C58.7805 46.8614 58.8686 45.4555 58.9033 44.2418C58.9641 42.1218 58.955 42.0182 58.6736 41.6091C58.5125 41.3749 58.1874 41.0514 57.9513 40.8902C57.5434 40.6117 57.4306 40.6006 55.7032 40.6672C54.7029 40.7057 53.6477 40.7544 53.3583 40.7755C52.5729 40.8327 52.6141 40.4956 53.5511 39.1974C54.8744 37.3639 55.8525 35.6294 56.7779 33.4755C57.5173 31.7545 58.6858 27.6964 58.6858 26.8496C58.6858 26.5752 58.7406 26.2072 58.8075 26.0319C58.8745 25.8566 58.9471 24.7765 58.9688 23.6319C59.0134 21.2954 58.9131 20.9171 58.1203 20.427C57.7321 20.1869 57.5196 20.1708 55.3972 20.2208C54.1311 20.2506 52.888 20.3131 52.6348 20.3595C51.4883 20.5698 50.6822 20.7307 50.1354 20.8584C49.1991 21.0769 46.0835 22.1217 45.5312 22.4024C45.2553 22.5426 44.7957 22.7376 44.5097 22.8358C43.9411 23.031 42.5155 23.822 40.981 24.7939C40.4405 25.1364 39.8765 25.4164 39.7277 25.4164C39.4655 25.4164 39.4596 25.3703 39.5419 23.9422C39.8148 19.2104 39.3426 15.486 37.9929 11.7225C37.3692 9.98335 37.2408 9.6809 36.5331 8.2798C35.5557 6.34537 34.0583 4.00024 33.2091 3.07378C33.0769 2.92963 32.7033 2.48737 32.3788 2.09097C31.6617 1.21482 30.9964 0.570359 30.4694 0.241575C29.9532 -0.0805251 29.0124 -0.0805251 28.4962 0.241575ZM99.5306 0.241575C98.1027 1.13266 94.9931 5.24344 93.4929 8.22332C92.7208 9.75704 92.6204 9.99802 91.8718 12.1157C91.3659 13.5468 91.2427 13.9783 91.0308 15.0641C90.9533 15.4605 90.8338 16.0502 90.765 16.3745C90.3847 18.1683 90.2158 22.4147 90.4496 24.3078C90.5301 24.9596 90.5096 25.1306 90.3337 25.2759C90.1501 25.4278 90.024 25.392 89.432 25.0197C88.7765 24.6073 87.7372 24.0072 86.2034 23.1551C84.8245 22.3892 80.9844 21.0568 79.0753 20.6819C77.285 20.3301 76.7714 20.2765 74.6453 20.2191C72.756 20.168 72.3198 20.192 71.9828 20.3656C71.5308 20.5985 71.2291 20.9981 71.059 21.5887C70.9494 21.9695 71.084 25.4889 71.2455 26.4647C71.3686 27.2085 71.5884 28.3217 71.7373 28.9545C71.9091 29.6849 72.9334 32.7988 73.2291 33.4899C74.1354 35.6075 75.1283 37.3675 76.4489 39.1974C77.3859 40.4956 77.4271 40.8325 76.6417 40.7758C76.3523 40.7549 75.3252 40.7059 74.3593 40.6672C72.371 40.5871 72.0592 40.6619 71.4369 41.368L71.0348 41.8242L71.0969 44.1364C71.1992 47.9414 71.5458 49.6132 73.0779 53.6922C73.7122 55.3808 75.478 58.4903 76.7157 60.0983C77.1453 60.6565 77.4968 61.2239 77.4968 61.3593C77.4968 61.5844 77.4156 61.599 76.5431 61.5293C74.4431 61.3614 72.8597 61.3016 72.5524 61.3786C71.7525 61.5785 70.5767 63.2362 70.8848 63.7297C70.9354 63.8108 71.0202 64.6732 71.0729 65.6462C71.2435 68.7863 71.6711 70.652 73.0774 74.3951C73.7464 76.1759 75.8756 79.8747 77.0929 81.3712C77.6047 82.0003 77.4984 82.0565 75.9511 81.9754C75.1733 81.9345 74.198 81.8651 73.7835 81.8208C72.8314 81.7192 71.9936 82.0145 71.4347 82.6487L71.0352 83.102L71.0955 85.4799C71.1525 87.7154 71.2043 88.2223 71.5602 90.0199C71.7813 91.1376 71.8964 91.5332 72.5319 93.3615C73.3463 95.7049 73.5916 96.3147 74.044 97.1207C74.2589 97.5036 74.6821 98.2592 74.9844 98.7997C75.5369 99.7875 76.8842 101.732 77.4968 102.427C77.6777 102.631 78.092 103.122 78.4176 103.517C79.1611 104.419 79.613 104.87 80.5207 105.614C80.9163 105.938 81.4431 106.393 81.6915 106.624C83.2874 108.108 87.332 110.511 89.5617 111.301C90.0525 111.474 90.7204 111.717 91.0459 111.84C92.4814 112.383 95.356 113.009 97.2674 113.196C97.8372 113.252 98.2059 113.354 98.2847 113.478C98.3581 113.594 98.4093 116.691 98.4105 121.09L98.4125 128.507L98.7116 128.95C99.6987 130.409 101.566 130.335 102.321 128.807C102.609 128.222 102.611 128.175 102.618 120.946C102.623 116.646 102.676 113.593 102.75 113.478C102.828 113.354 103.197 113.252 103.767 113.196C105.2 113.056 106.268 112.863 107.884 112.45C109.38 112.068 109.764 111.943 111.172 111.38C111.57 111.221 112.121 111.007 112.395 110.906C114.144 110.261 117.964 107.906 119.343 106.624C119.591 106.393 120.118 105.938 120.515 105.614C121.415 104.876 121.619 104.673 122.353 103.779C122.678 103.383 123.023 102.976 123.119 102.876C123.584 102.389 125.254 100.069 125.746 99.2256C126.051 98.7032 126.537 97.8739 126.826 97.3832C127.116 96.8923 127.352 96.4186 127.352 96.3305C127.352 96.2423 127.499 95.8817 127.678 95.5292C128.017 94.8632 129.055 91.8346 129.297 90.8062C129.425 90.263 129.583 89.4774 129.798 88.3164C129.845 88.0641 129.909 86.7877 129.941 85.4799L129.999 83.102L129.6 82.6487C129.041 82.0145 128.203 81.7192 127.251 81.8208C126.836 81.8651 125.861 81.9345 125.083 81.9754C123.536 82.0565 123.43 82.0003 123.941 81.3712C125.159 79.8747 127.288 76.1759 127.957 74.3951C128.865 71.9788 129.505 69.7118 129.742 68.0705C129.815 67.5659 129.903 66.1402 129.938 64.9023L130 62.6515L129.53 62.133C129.271 61.8478 128.887 61.5433 128.676 61.4563C128.303 61.3024 127.034 61.3244 124.491 61.5287C123.619 61.5988 123.538 61.5846 123.538 61.3593C123.538 61.2239 123.889 60.6565 124.319 60.0983C125.556 58.4903 127.322 55.3808 127.956 53.6922C128.866 51.2716 129.505 49.0063 129.742 47.3659C129.815 46.8614 129.903 45.4555 129.938 44.2418C129.998 42.1218 129.989 42.0182 129.708 41.6091C129.547 41.3749 129.222 41.0514 128.986 40.8902C128.578 40.6117 128.465 40.6006 126.738 40.6672C125.737 40.7057 124.682 40.7544 124.393 40.7755C123.607 40.8327 123.648 40.4956 124.585 39.1974C125.906 37.3675 126.899 35.6075 127.805 33.4899C128.101 32.7988 129.125 29.6849 129.297 28.9545C129.425 28.4098 129.587 27.6067 129.798 26.4647C129.844 26.2125 129.907 24.9741 129.937 23.7128C129.987 21.5986 129.971 21.3869 129.73 21.0002C129.249 20.2278 128.921 20.151 126.389 20.2168C125.146 20.249 123.922 20.3134 123.669 20.3598C122.542 20.566 121.718 20.7303 121.17 20.8584C120.24 21.0752 117.193 22.0964 116.381 22.4634C115.976 22.646 115.305 22.9495 114.888 23.1377C114.118 23.4863 112.6 24.3678 111.609 25.0421C111.307 25.248 110.932 25.4164 110.776 25.4164C110.497 25.4164 110.494 25.3921 110.574 23.8111C110.686 21.5849 110.681 21.0177 110.53 18.9953C110.295 15.8451 109.81 13.7651 108.487 10.2432C107.844 8.52983 105.261 4.16247 104.247 3.07378C104.113 2.92963 103.738 2.48737 103.413 2.09097C102.696 1.21482 102.031 0.570359 101.504 0.241575C100.988 -0.0805251 100.047 -0.0805251 99.5306 0.241575ZM30.0975 5.79289C31.064 6.81345 33.1011 10.3005 33.7707 12.08C35.0765 15.5508 35.4481 17.6053 35.4481 21.3541C35.4481 23.6049 35.3488 24.8896 35.0685 26.2682C34.4347 29.3841 33.6058 31.4613 32.1148 33.6703C31.6997 34.2854 31.1669 35.1713 30.9306 35.639C30.3746 36.7402 29.7901 37.4722 29.4666 37.4722C29.2004 37.4722 29.1515 37.4024 27.8257 35.1376C27.4328 34.4661 26.8071 33.4677 26.4354 32.9189C26.0637 32.3702 25.6439 31.6223 25.5028 31.2569C24.4644 28.5699 24.0276 26.9932 23.6673 24.6301C23.469 23.3288 23.4698 18.7652 23.6685 17.6849C23.7547 17.2165 23.8739 16.5678 23.9331 16.2435C24.0829 15.4239 24.6881 13.4273 25.195 12.08C26.1442 9.5572 28.8206 5.36701 29.4828 5.36701C29.5991 5.36701 29.8757 5.55859 30.0975 5.79289ZM101.135 5.79289C101.807 6.49672 103.301 8.88967 104.023 10.4185C105.049 12.592 105.227 13.0523 105.59 14.4744C105.917 15.7547 106.013 16.2063 106.332 17.947C106.527 19.0141 106.526 23.2775 106.331 24.7612C106.155 26.0919 105.977 27.0211 105.778 27.6441C105.697 27.8964 105.546 28.4271 105.442 28.8235C105.337 29.2199 105.139 29.8096 105.001 30.1339C104.863 30.4582 104.672 30.9293 104.578 31.1808C104.483 31.4321 104.018 32.2282 103.543 32.9498C102.738 34.175 102.1 35.2254 101.255 36.7164C101.062 37.0573 100.786 37.3988 100.643 37.4751C100.289 37.6641 99.9112 37.2439 99.1907 35.8592C98.8834 35.2689 98.1584 34.0801 97.5797 33.2176C97.0007 32.3549 96.4186 31.3673 96.2859 31.0226C96.1532 30.678 95.9348 30.1104 95.8005 29.7615C95.6662 29.4125 95.4348 28.6311 95.2863 28.0252C95.0411 27.0244 94.9587 26.6339 94.6392 24.9577C94.5844 24.6694 94.5394 23.1068 94.5394 21.4851C94.5394 19.8635 94.5844 18.3008 94.6392 18.0125C94.9587 16.3364 95.0411 15.9459 95.2863 14.9451C95.4348 14.3392 95.6724 13.5431 95.8143 13.176C95.9561 12.809 96.155 12.2864 96.256 12.0145C96.6237 11.0262 97.9336 8.56259 98.707 7.40471C99.6203 6.03742 100.216 5.36701 100.517 5.36701C100.633 5.36701 100.912 5.55859 101.135 5.79289ZM6.36192 24.4973C8.89863 25.0816 9.57517 25.2836 11.8964 26.1506C13.3376 26.6888 16.7874 28.7144 17.7095 29.564C17.8542 29.6973 18.2982 30.0712 18.6961 30.3951C19.9232 31.3935 21.7648 33.3495 22.2339 34.1527C22.4794 34.5729 22.8862 35.2707 23.1381 35.7032C23.3899 36.1356 23.9996 37.1086 24.4929 37.8653C25.1646 38.8956 25.51 39.6011 25.8681 40.6734C26.5174 42.6182 26.9829 44.4287 27.1171 45.5313C27.1787 46.0358 27.2671 46.5724 27.3136 46.7239C27.4273 47.0925 27.0407 47.4799 26.6679 47.371C26.5158 47.3266 26.1843 47.2608 25.9311 47.2247C23.115 46.8248 20.7394 46.0931 18.2931 44.8719C14.976 43.216 12.1821 41.093 10.2772 38.7805C9.95165 38.3853 9.5753 37.944 9.44099 37.7998C8.88035 37.1982 7.35785 34.7966 6.66618 33.4226C5.8923 31.8854 5.04423 29.5164 4.68143 27.8779C4.56527 27.3529 4.41518 26.7102 4.34809 26.4495C4.20721 25.9023 4.18458 24.5841 4.31389 24.4555C4.44557 24.3243 5.72405 24.3504 6.36192 24.4973ZM54.5816 24.5253C54.7692 24.7122 54.7892 25.7828 54.6175 26.4495C54.5504 26.7102 54.4004 27.3529 54.2842 27.8779C53.2999 32.3231 50.7331 36.9207 47.4281 40.1586C46.3433 41.2213 44.1076 42.973 42.9662 43.6542C39.922 45.4715 36.2369 46.8401 33.4949 47.1714C32.9885 47.2327 32.4557 47.317 32.311 47.3588C31.772 47.5146 31.6965 47.3024 31.8423 46.0439C32.0159 44.5476 32.1409 43.8832 32.4321 42.9105C33.1408 40.5421 33.568 39.4403 34.1081 38.5865C35.2308 36.8112 35.8531 35.7803 36.129 35.2382C36.5944 34.3234 37.935 32.5874 38.933 31.6067C41.1086 29.469 44.7848 27.004 47.0707 26.1501C48.8993 25.4671 49.9539 25.1261 50.9904 24.8832C51.6416 24.7306 52.3519 24.5583 52.569 24.5003C53.1863 24.3353 54.4061 24.3505 54.5816 24.5253ZM77.3963 24.4973C79.9326 25.0814 80.6119 25.2844 82.9293 26.1501C84.4846 26.731 86.8828 28.1642 88.792 29.6534C91.1606 31.501 92.703 33.1773 93.5144 34.7859C94.0153 35.7789 95.1644 37.6477 95.6486 38.2568C96.1584 38.898 96.9631 40.7016 97.2863 41.9276C97.3908 42.324 97.563 42.9727 97.669 43.3691C97.9781 44.5252 98.1266 45.3356 98.2134 46.3393C98.287 47.1894 98.2708 47.2859 98.042 47.3581C97.9031 47.4022 97.6298 47.3775 97.4347 47.3036C97.2396 47.2297 96.8982 47.1693 96.6762 47.1693C96.4542 47.1693 96.0585 47.1147 95.7968 47.0478C95.5352 46.981 94.8946 46.8327 94.3731 46.7181C92.1962 46.2404 89.4345 45.0874 87.0338 43.6542C85.8924 42.973 83.6566 41.2213 82.5719 40.1586C79.2669 36.9207 76.7001 32.3231 75.7158 27.8779C75.5996 27.3529 75.4496 26.7102 75.3825 26.4495C75.2416 25.9023 75.2189 24.5841 75.3483 24.4555C75.4799 24.3243 76.7584 24.3504 77.3963 24.4973ZM125.752 25.0888C125.854 26.6207 124.624 30.8608 123.334 33.4226C122.642 34.7966 121.12 37.1982 120.559 37.7998C120.425 37.944 120.048 38.3853 119.723 38.7805C116.796 42.3337 111.438 45.6179 106.828 46.6841C105.833 46.9142 104.72 47.1322 104.069 47.2247C103.816 47.2608 103.484 47.3266 103.332 47.371C102.959 47.4799 102.573 47.0925 102.686 46.7239C102.733 46.5724 102.821 46.0358 102.882 45.5313C102.981 44.7121 103.415 42.9424 103.975 41.0759C104.337 39.8675 104.701 39.0497 105.098 38.5499C105.616 37.8981 106.749 36.0551 107.296 34.9729C107.868 33.8426 108.482 33.0568 109.792 31.7757C112.168 29.4525 115.746 27.0311 118.105 26.1501C119.934 25.4671 120.988 25.1261 122.025 24.8832C122.676 24.7306 123.386 24.557 123.603 24.4975C123.82 24.438 124.383 24.3994 124.853 24.4114L125.708 24.4336L125.752 25.0888ZM5.83574 44.9416C10.2826 45.9808 11.0793 46.2447 13.5352 47.4925C19.214 50.3773 23.1544 54.7184 25.7909 60.9942C26.1178 61.7725 26.9528 64.9902 27.1171 66.1048C27.1808 66.5373 27.2702 67.0149 27.3157 67.1664C27.4527 67.6216 27.0392 67.9181 26.4006 67.8225C24.6192 67.5561 24.16 67.4673 22.9713 67.1597C22.2478 66.9725 21.3303 66.697 20.9324 66.5474C20.5345 66.3978 19.985 66.1925 19.7114 66.0911C18.7462 65.7333 16.7853 64.6893 15.6099 63.9075C13.8512 62.7376 12.8773 61.95 11.5415 60.6169C9.22079 58.301 7.95598 56.5356 6.64171 53.7775C5.28969 50.94 5.29548 50.9572 4.35664 46.9382C4.1784 46.1748 4.19248 45.1586 4.38401 44.9678C4.57632 44.7762 5.08817 44.7669 5.83574 44.9416ZM54.5816 44.9678C54.7732 45.1586 54.7872 46.1748 54.609 46.9382C53.6502 51.0429 53.6769 50.9648 52.174 54.0555C49.3467 59.8704 43.837 64.6532 37.5953 66.711C36.7148 67.0013 35.6687 67.2988 35.2708 67.372C34.8729 67.4451 34.2809 67.5587 33.9553 67.6245C32.7562 67.8666 32.385 67.9043 32.0436 67.819C31.7005 67.7332 31.6959 67.7178 31.7793 66.9183C31.9178 65.5902 32.5143 63.0137 32.9357 61.9236C33.0775 61.5565 33.2795 61.0251 33.3843 60.7426C33.8045 59.6099 35.5797 56.3408 36.3546 55.2724C38.8707 51.8037 41.6739 49.4008 45.4304 47.4925C47.4837 46.4492 48.8115 45.9625 51.0562 45.4299C51.8159 45.2495 52.6742 45.0439 52.9636 44.9729C53.7176 44.7878 54.3988 44.7857 54.5816 44.9678ZM77.3652 45.057C77.6908 45.1244 78.2828 45.2393 78.6807 45.3124C81.0471 45.7478 85.4038 47.6842 87.6548 49.301C91.1 51.7757 93.5474 54.6079 95.447 58.3183C95.9849 59.369 96.5108 60.4599 96.6157 60.7426C96.7205 61.0251 96.9224 61.5565 97.0643 61.9236C97.4857 63.0137 98.0822 65.5902 98.2207 66.9183C98.3041 67.7178 98.2995 67.7332 97.9564 67.819C97.615 67.9043 97.2438 67.8666 96.0446 67.6245C95.7191 67.5587 95.1271 67.4451 94.7292 67.372C93.4627 67.139 90.8543 66.2082 89.3206 65.442C84.2528 62.9102 80.16 58.856 77.826 54.0555C76.3231 50.9648 76.3498 51.0429 75.391 46.9382C75.2104 46.165 75.2276 45.1587 75.4249 44.9567C75.5949 44.7825 76.1845 44.813 77.3652 45.057ZM125.616 44.9678C125.808 45.1586 125.822 46.1748 125.643 46.9382C124.685 51.0429 124.711 50.9648 123.208 54.0555C120.901 58.8 116.763 62.9286 111.868 65.3677C111.274 65.6637 110.534 66.0009 110.224 66.1169C108.551 66.7418 106.946 67.2566 106.305 67.3732C105.907 67.4458 105.315 67.5606 104.99 67.6286C103.673 67.9032 103.077 67.9153 102.833 67.6721C102.685 67.5245 102.631 67.3428 102.684 67.1664C102.73 67.0149 102.819 66.5373 102.883 66.1048C103.047 64.9902 103.882 61.7725 104.209 60.9942C106.846 54.7184 110.786 50.3773 116.465 47.4925C118.518 46.4492 119.846 45.9625 122.091 45.4299C122.85 45.2495 123.709 45.0439 123.998 44.9729C124.752 44.7878 125.433 44.7857 125.616 44.9678ZM27.1763 51.5735C27.3448 51.7414 27.3802 52.0148 27.3501 52.9152C27.2989 54.4492 27.1301 54.4601 26.0822 52.9966C24.9954 51.4787 25.0042 51.3626 26.2067 51.3626C26.7279 51.3626 27.0308 51.4286 27.1763 51.5735ZM33.8238 51.6146C33.8238 51.7533 33.6857 52.0334 33.517 52.2371C33.3483 52.4409 32.9638 52.9725 32.6625 53.4184C32.3614 53.8644 32.0489 54.2701 31.9681 54.3197C31.7033 54.4827 31.5916 54.0671 31.5895 52.9117C31.587 51.463 31.6728 51.3626 32.9123 51.3626C33.724 51.3626 33.8238 51.3903 33.8238 51.6146ZM98.2058 51.5685C98.3622 51.7245 98.4119 52.0506 98.4105 52.9117C98.4084 54.0671 98.2967 54.4827 98.0319 54.3197C97.9511 54.2701 97.6386 53.8644 97.3375 53.4184C97.0362 52.9725 96.6517 52.4409 96.483 52.2371C96.3143 52.0334 96.1762 51.7533 96.1762 51.6146C96.1762 51.3903 96.276 51.3626 97.0877 51.3626C97.7408 51.3626 98.0576 51.421 98.2058 51.5685ZM104.698 51.639C104.759 51.9544 103.155 54.135 102.898 54.0861C102.579 54.0254 102.52 51.8755 102.83 51.5676C103.131 51.2671 104.638 51.3248 104.698 51.639ZM6.13355 65.7708C7.19328 65.9038 9.35246 66.4446 10.4088 66.8417C10.8067 66.9912 11.3562 67.1965 11.6298 67.298C13.2249 67.8892 15.8451 69.4398 17.7753 70.9346C19.1068 71.9661 21.8272 74.781 22.8076 76.1421C23.6512 77.3132 25.168 80.0705 25.5804 81.1822C25.6858 81.4663 25.8881 81.999 26.0299 82.3661C26.3983 83.3193 26.9612 85.673 27.1706 87.137C27.2068 87.3893 27.2729 87.7195 27.3174 87.871C27.4996 88.4896 26.522 88.772 25.2886 88.457C25.027 88.3902 24.3818 88.2407 23.8548 88.1249C20.96 87.4889 17.043 85.7489 14.6264 84.0256C13.0215 82.8812 9.93008 79.8024 8.83023 78.2529C7.56595 76.4718 6.70801 74.9575 6.06844 73.3776C5.90795 72.9812 5.67328 72.421 5.54673 72.1328C5.35205 71.6889 4.929 70.093 4.35664 67.6427C4.17603 66.8695 4.19326 65.8627 4.39058 65.6643C4.48582 65.5685 4.6934 65.5318 4.88388 65.577C5.06475 65.6201 5.62711 65.7073 6.13355 65.7708ZM54.7191 65.6872C55.0826 66.1236 53.8489 71.4918 52.9935 73.1965C52.8168 73.5484 52.6369 73.9837 52.5935 74.1639C52.4908 74.5898 51.0074 77.0468 50.0388 78.3952C49.0085 79.8296 45.8581 82.9424 44.3393 84.0266C43.2719 84.7886 40.2507 86.3935 38.2963 87.2366C37.7948 87.4531 36.2386 87.8653 33.7233 88.4485C33.0399 88.6068 32.111 88.6143 31.8718 88.4633C31.5252 88.2443 32.0678 85.2276 32.9226 82.6218C33.3639 81.2766 35.0021 77.9538 35.8199 76.7452C37.1244 74.817 39.5088 72.2398 41.2049 70.9243C43.1143 69.4435 45.7442 67.8879 47.3359 67.298C47.6095 67.1965 48.1589 66.9917 48.5569 66.8427C49.5381 66.4754 52.2913 65.7793 52.8081 65.7681C53.0383 65.7629 53.3451 65.7082 53.4898 65.6462C53.8938 65.4732 54.5593 65.4955 54.7191 65.6872ZM77.2995 65.7678C78.3205 65.9245 80.5192 66.4943 81.4431 66.8417C81.8411 66.9912 82.3905 67.1965 82.6641 67.298C84.2558 67.8879 86.8857 69.4435 88.7951 70.9243C90.4912 72.2398 92.8756 74.817 94.1801 76.7452C94.9979 77.9538 96.6361 81.2766 97.0774 82.6218C97.9322 85.2276 98.4748 88.2443 98.1282 88.4633C97.889 88.6143 96.9601 88.6068 96.2767 88.4485C93.7614 87.8653 92.2052 87.4531 91.7037 87.2366C89.7434 86.391 86.7284 84.7884 85.6652 84.0271C84.3031 83.0517 81.4801 80.3454 80.4343 79.0124C78.303 76.2959 76.2607 72.1119 75.7649 69.4464C75.6912 69.05 75.5769 68.4603 75.5108 68.136C75.4449 67.8116 75.336 67.1642 75.2689 66.6971C75.1162 65.6341 75.2291 65.4546 75.9789 65.5669C76.271 65.6107 76.8654 65.7011 77.2995 65.7678ZM125.616 65.6724C125.808 65.8632 125.822 66.8794 125.643 67.6427C125.071 70.093 124.648 71.6889 124.453 72.1328C124.327 72.421 124.086 72.9812 123.917 73.3776C123.34 74.738 122.079 76.9823 121.197 78.2181C120.065 79.8043 116.984 82.8774 115.374 84.0256C114.187 84.8718 110.943 86.6207 109.715 87.0766C108.719 87.4462 106.697 88.0065 104.758 88.4502C104.075 88.6063 103.145 88.6139 102.909 88.4651C102.541 88.2325 103.227 84.288 103.97 82.3661C104.112 81.999 104.314 81.4663 104.42 81.1822C104.832 80.0705 106.349 77.3132 107.192 76.1421C108.173 74.781 110.893 71.9661 112.225 70.9346C114.155 69.4398 116.775 67.8892 118.37 67.298C118.644 67.1965 119.193 66.9917 119.591 66.8427C120.572 66.4754 123.326 65.7793 123.842 65.7681C124.073 65.7629 124.379 65.7082 124.524 65.6462C124.912 65.4803 125.436 65.4929 125.616 65.6724ZM26.5355 72.011C27.3673 72.2519 27.4089 72.3416 27.3517 73.7709C27.2967 75.1413 27.107 75.128 26.0349 73.6786C24.9535 72.2167 24.957 72.2234 25.1466 71.9959C25.3498 71.7521 25.653 71.7553 26.5355 72.011ZM34.0103 72.1328C33.999 72.4053 32.0423 75.0812 31.8542 75.0812C31.7954 75.0812 31.7113 74.9879 31.6674 74.8739C31.5503 74.5699 31.5739 72.5536 31.6967 72.3608C31.8517 72.1177 32.89 71.8215 33.4949 71.8477C33.9298 71.8667 34.0193 71.9161 34.0103 72.1328ZM97.5506 72.0047C97.9086 72.1128 98.248 72.2744 98.305 72.3636C98.4267 72.5544 98.4488 74.5722 98.3326 74.8739C98.2887 74.9879 98.2021 75.0812 98.1403 75.0812C97.9663 75.0812 96.0446 72.4327 96.0446 72.1926C96.0446 71.743 96.4977 71.6866 97.5506 72.0047ZM104.853 71.9959C105.043 72.2234 105.047 72.2167 103.965 73.6786C102.893 75.128 102.703 75.1413 102.648 73.7709C102.592 72.3707 102.644 72.2469 103.379 72.0228C104.204 71.7713 104.659 71.7629 104.853 71.9959ZM54.7171 86.8749C54.7945 88.1599 54.177 90.6011 52.9506 93.8592C52.3281 95.5128 50.2826 98.8459 49.1791 100.005C49.0895 100.099 48.75 100.499 48.4248 100.895C47.5604 101.946 47.1818 102.305 45.6564 103.518C43.3277 105.369 41.4956 106.438 38.4937 107.698C37.5047 108.113 33.898 108.976 32.73 109.076L31.702 109.164L31.7849 108.208C31.9234 106.612 32.5791 104.199 33.6395 101.382C34.4735 99.1659 36.9664 95.4292 38.9209 93.4652C41.3156 91.0587 44.2617 89.1568 48.0965 87.5415C48.9658 87.1754 52.2137 86.3513 53.2925 86.223C54.6854 86.0575 54.6674 86.0492 54.7171 86.8749ZM79.2069 86.7603C80.3283 87.0386 81.5418 87.3906 81.9035 87.5425C85.7173 89.1435 88.6846 91.0588 91.0791 93.4652C93.0336 95.4292 95.5265 99.1659 96.3605 101.382C97.4225 104.203 98.0766 106.612 98.2159 108.216L98.2996 109.18L97.4681 109.094C96.0277 108.944 92.3828 108.087 91.4406 107.676C88.2046 106.265 86.6644 105.362 84.3436 103.518C82.8182 102.305 82.4396 101.946 81.5752 100.895C81.25 100.499 80.9105 100.099 80.8209 100.005C79.9692 99.1103 78.4826 96.8221 77.5416 94.9571C76.909 93.7034 76.0531 91.2525 75.7158 89.7296C75.5996 89.2046 75.4496 88.5618 75.3825 88.3012C75.2453 87.7681 75.2172 86.3066 75.3418 86.1824C75.5111 86.0137 77.2421 86.2725 79.2069 86.7603ZM125.642 86.285C125.753 86.418 125.78 86.7236 125.727 87.235C125.493 89.4917 125.173 90.7087 123.985 93.8592C123.361 95.516 121.317 98.8462 120.213 100.005C120.124 100.099 119.784 100.5 119.459 100.896C118.722 101.794 118.519 101.996 117.618 102.73C117.22 103.054 116.817 103.393 116.723 103.482C115.492 104.645 111.852 106.821 109.96 107.525C108.32 108.136 104.981 108.973 103.783 109.075C102.865 109.153 102.767 109.139 102.695 108.912C102.651 108.775 102.676 108.503 102.75 108.309C102.824 108.115 102.885 107.728 102.885 107.449C102.885 106.493 104.004 102.59 104.644 101.315C104.813 100.977 104.988 100.552 105.032 100.372C105.203 99.6773 106.944 96.9435 108.204 95.3929C111.201 91.7037 115.544 88.709 119.986 87.2699C121.651 86.7305 122.2 86.5832 123.011 86.4585C124.805 86.1828 125.186 86.125 125.33 86.1072C125.412 86.0969 125.552 86.177 125.642 86.285ZM6.69078 86.3644C7.03543 86.4439 7.64303 86.5948 8.04096 86.6996C8.43888 86.8044 9.09003 86.9754 9.48796 87.0795C11.7173 87.6628 15.5756 89.7178 18.0246 91.6264C19.5925 92.8482 21.8193 95.2393 22.9974 96.9661C23.7272 98.0356 24.8857 100.038 24.9675 100.372C25.0117 100.552 25.1867 100.977 25.3564 101.315C25.9959 102.59 27.115 106.493 27.115 107.449C27.115 107.728 27.1756 108.115 27.2498 108.309C27.324 108.503 27.3481 108.778 27.3031 108.919C27.2297 109.149 27.14 109.166 26.4119 109.091C24.9 108.935 21.7448 108.16 20.0402 107.525C18.1482 106.821 14.5078 104.645 13.2772 103.482C13.1828 103.393 12.7801 103.054 12.3823 102.73C11.4813 101.996 11.2779 101.794 10.5408 100.896C10.2157 100.5 9.87614 100.099 9.78656 100.005C8.68303 98.8459 6.6375 95.5128 6.01503 93.8592C5.14605 91.5506 4.94228 90.8739 4.35585 88.3473C4.20839 87.7119 4.18221 86.4383 4.31389 86.3071C4.45307 86.1684 6.00319 86.2057 6.69078 86.3644ZM26.6378 92.7706C26.9178 92.8272 27.1993 92.9538 27.2634 93.052C27.3273 93.1501 27.3644 93.7016 27.346 94.2774C27.3 95.7095 27.1162 95.7155 26.1046 94.3175C25.108 92.9401 25.1029 92.9308 25.198 92.684C25.259 92.5256 25.3761 92.4998 25.7029 92.5728C25.9369 92.6249 26.3576 92.714 26.6378 92.7706ZM33.7499 92.9029C33.7386 93.3512 32.1406 95.5479 31.8639 95.4953C31.6938 95.4629 31.6461 95.2378 31.6156 94.3244C31.5735 93.0669 31.7093 92.7794 32.3533 92.7626C32.5472 92.7575 32.8241 92.7016 32.9688 92.6383C33.4377 92.4332 33.7588 92.542 33.7499 92.9029ZM97.6721 92.7706C97.9522 92.8272 98.2337 92.9538 98.2976 93.052C98.3616 93.1501 98.3987 93.731 98.3802 94.3429C98.3345 95.8616 98.1629 95.867 97.1 94.383C96.1642 93.0765 96.1167 92.984 96.2299 92.6903C96.2935 92.5252 96.4067 92.499 96.7372 92.5728C96.9713 92.6249 97.3919 92.714 97.6721 92.7706ZM104.828 92.7773C104.85 92.8884 104.472 93.5252 103.99 94.1923C102.878 95.7298 102.702 95.7385 102.65 94.259C102.607 93.072 102.752 92.7793 103.388 92.7626C103.582 92.7575 103.858 92.7016 104.003 92.6383C104.38 92.4737 104.783 92.5416 104.828 92.7773Z" fill="black"/>
</svg>
