<svg width="23" height="20" viewBox="0 0 23 20" fill="none" xmlns="http://www.w3.org/2000/svg">
<path fill-rule="evenodd" clip-rule="evenodd" d="M17.1076 16.2042C17.1076 16.1775 17.6513 15.5901 18.3159 14.8987C20.5652 12.5587 21.6003 11.4554 21.7136 11.277C22.1031 10.6641 22.2116 10.2 22.0927 9.65544C21.9804 9.14071 21.8309 8.93921 20.5786 7.61401C18.5404 5.45715 17.0422 3.89153 15.7034 2.51924C14.3671 1.14963 14.3307 1.1155 14.0688 0.988663C13.3816 0.65587 12.761 0.665593 12.0264 1.02067C11.9062 1.07871 11.7164 1.23332 11.499 1.45016C11.2156 1.73273 11.1353 1.84006 11.0152 2.09676C10.8329 2.48623 10.7902 2.69859 10.7933 3.19946C10.796 3.6294 10.9158 4.08137 11.1022 4.36517C11.1656 4.46164 11.4446 4.79311 11.7221 5.10178C11.9997 5.41042 12.4806 5.94688 12.7908 6.29388C14.151 7.81519 14.1173 7.7744 14.0701 7.8439C14.0409 7.88682 12.0329 7.90879 8.11155 7.90911C3.91385 7.9095 2.09182 7.93094 1.83463 7.98297C1.37404 8.07615 0.910117 8.29158 0.684842 8.51685C0.508078 8.69362 0.242301 9.17746 0.127419 9.53174C0.0925364 9.63929 0.0625333 9.93762 0.060757 10.1947C0.0559773 10.8953 0.281317 11.485 0.721371 11.9232C0.96328 12.164 1.50652 12.4405 1.86964 12.5077C2.16362 12.562 2.94253 12.5724 3.39153 12.528C3.56894 12.5105 4.07782 12.4958 4.5224 12.4953C4.96697 12.4948 5.47566 12.4803 5.65281 12.463C5.82996 12.4457 6.33865 12.4312 6.78322 12.4307C7.2278 12.4302 7.73648 12.4157 7.91363 12.3984C8.09079 12.3811 8.59947 12.3666 9.04405 12.3661C9.48862 12.3656 9.99731 12.3511 10.1745 12.3338C10.3516 12.3165 10.8603 12.302 11.3049 12.3015C11.7494 12.301 12.2582 12.2864 12.4354 12.2691C13.0013 12.2137 14.0244 12.2349 14.0707 12.303C14.1172 12.3714 14.1475 12.3347 12.7908 13.8521C12.4806 14.1991 11.9997 14.7355 11.7221 15.0442C11.1209 15.7127 11.017 15.8637 10.8914 16.2506C10.7919 16.5571 10.7617 17.2049 10.831 17.5446C10.9123 17.9428 11.1323 18.3301 11.4667 18.6635C11.6554 18.8516 11.8466 19.005 11.9618 19.0607C12.5511 19.3455 13.2151 19.414 13.7335 19.2434C14.3139 19.0524 14.2716 19.0867 15.748 17.6113C16.4958 16.864 17.1076 16.2308 17.1076 16.2042Z" fill="#769B54"/>
</svg>
