<svg width="127" height="126" viewBox="0 0 127 126" fill="none" xmlns="http://www.w3.org/2000/svg">
<path fill-rule="evenodd" clip-rule="evenodd" d="M34.916 0.305827C34.6705 0.46988 34.3342 0.803498 34.1688 1.04708L33.868 1.4899L33.866 26.7674C33.8647 42.4349 33.8164 52.1198 33.7388 52.2418C33.6354 52.4043 33.029 52.4543 30.2682 52.5281C27.2286 52.6094 26.2059 52.6852 24.3112 52.9692C23.2857 53.1228 23.285 53.1207 23.285 50.2108C23.285 47.8032 23.2711 47.6668 22.9841 47.2444C22.8188 47.0008 22.4825 46.6672 22.237 46.5031L21.7906 46.2047H14.8185H7.8464L7.40006 46.5031C7.15454 46.6672 6.81826 47.0008 6.6529 47.2444L6.35208 47.6872V55.6983V63.7096L5.17789 65.4238C3.94867 67.2181 2.39627 70.1309 1.97982 71.4242C1.84542 71.8414 1.66934 72.3055 1.58852 72.4554C1.41747 72.7725 0.968746 74.327 0.774679 75.2748C0.700862 75.6358 0.583788 76.1968 0.514601 76.5217C0.122631 78.3613 0.097893 79.7104 0.0494756 101.863L0 124.514L0.301881 124.959C0.468035 125.203 0.804709 125.537 1.05024 125.702L1.49658 126H42.3344H83.1723L83.6186 125.702C83.8642 125.537 84.2004 125.204 84.3658 124.96L84.6666 124.517V116.088C84.6666 108.922 84.6951 107.635 84.8566 107.502C85.0813 107.317 85.1769 107.36 86.7171 108.348C87.2992 108.721 88.1999 109.298 88.7189 109.629C91.1755 111.199 93.0382 111.826 95.2497 111.826C96.3602 111.826 96.9223 111.744 98.2262 111.395C98.9254 111.207 100.621 110.37 101.714 109.673C103.904 108.276 106.516 106.609 108.247 105.505C109.284 104.843 110.638 103.977 111.257 103.579C113.085 102.403 113.657 102.098 113.953 102.14L114.233 102.18L114.299 113.424C114.365 124.576 114.368 124.671 114.642 125.039C114.794 125.243 115.116 125.542 115.356 125.705C115.79 125.998 115.831 126 120.649 126C125.48 126 125.507 125.999 125.951 125.702C126.196 125.537 126.533 125.203 126.699 124.959L127 124.516L126.952 82.965C126.904 41.9094 126.89 40.625 126.487 38.7239C126.418 38.399 126.298 37.8084 126.22 37.4114C125.976 36.1649 125.599 34.9723 124.697 32.5864C124.416 31.8428 122.906 28.8697 122.348 27.962C119.948 24.0529 115.935 20.0113 112.183 17.7244C110.959 16.9788 108.028 15.4886 107.124 15.1533C105.1 14.4014 103.529 13.9115 102.344 13.6624C102.062 13.6032 101.78 13.4743 101.718 13.376C101.655 13.2777 101.603 12.327 101.601 11.2632C101.599 8.77647 101.38 7.74753 100.462 5.90489C99.3239 3.62101 97.9571 2.26501 95.655 1.13607C94.5528 0.595348 94.1411 0.451769 92.8336 0.15188C91.9503 -0.0506267 66.7999 -0.0506267 65.9166 0.15188C64.6091 0.451769 64.1974 0.595348 63.0952 1.13607C60.7931 2.26501 59.4263 3.62101 58.2884 5.90489C57.7434 6.9984 57.5986 7.40682 57.2964 8.70402C57.1936 9.14565 57.1507 15.6104 57.1507 30.7106C57.1507 49.973 57.1301 52.1123 56.9429 52.2981C56.6627 52.576 55.5221 52.576 55.2419 52.2981C55.0545 52.112 55.0341 49.6167 55.0341 26.7908V1.4899L54.7333 1.04708C54.5679 0.803498 54.2316 0.46988 53.9861 0.305827L53.5398 0.00738215H44.451H35.3623L34.916 0.305827ZM50.593 4.41332C50.7805 4.59929 50.8009 6.95246 50.8009 28.3557C50.8009 49.759 50.7805 52.1121 50.593 52.2981C50.4102 52.4794 49.6693 52.5043 44.451 52.5043C39.2328 52.5043 38.4919 52.4794 38.309 52.2981C38.1216 52.1121 38.1012 49.759 38.1012 28.3557C38.1012 6.95246 38.1216 4.59929 38.309 4.41332C38.4919 4.23207 39.2328 4.20714 44.451 4.20714C49.6693 4.20714 50.4102 4.23207 50.593 4.41332ZM92.7474 4.48025C93.9096 4.85442 94.5464 5.24408 95.4337 6.12445C96.8508 7.53032 97.3663 8.84248 97.3663 11.0441C97.3663 12.9198 97.4251 12.8691 95.2497 12.8691C93.0931 12.8691 93.1331 12.9012 93.1331 11.173C93.1331 9.73021 92.9407 9.27742 92.0851 8.70534L91.6387 8.40689H79.3751H67.1115L66.6651 8.70534C66.4196 8.86939 66.0833 9.20301 65.918 9.44659L65.6171 9.8894V21.5547C65.6171 31.9549 65.5943 33.273 65.4056 33.708C65.0724 34.4766 64.5026 36.3569 64.2835 37.4114C63.7109 40.1678 63.6139 41.3839 63.5217 46.9642C63.4239 52.8835 63.5005 52.4988 62.4185 52.5023C61.2781 52.506 61.3839 54.7189 61.3839 30.8617C61.3839 9.71196 61.385 9.62823 61.6592 8.78946C62.0275 7.66327 62.414 7.02937 63.2394 6.19743C64.1359 5.29395 64.7286 4.91427 65.8363 4.53354L66.7416 4.22249L79.3202 4.21488C91.7135 4.20727 91.9113 4.2112 92.7474 4.48025ZM88.692 12.8128C89.159 13.2761 88.8579 13.5041 87.23 13.9199C85.9261 14.2529 85.0114 14.5456 83.375 15.1533C82.4717 15.4886 79.5401 16.9788 78.3168 17.7244C76.0335 19.116 72.6674 22.039 70.8352 24.2211C70.4474 24.683 70.2368 24.8363 70.0746 24.7745C69.8685 24.696 69.8504 24.2186 69.8504 18.8542C69.8504 13.7246 69.8755 12.9942 70.0582 12.8128C70.2433 12.6293 71.2706 12.6066 79.3751 12.6066C87.4796 12.6066 88.507 12.6293 88.692 12.8128ZM98.623 17.3147C99.839 17.4681 99.9874 17.4971 101.864 17.9469C104.108 18.4847 105.45 18.9706 107.534 19.9999C110.691 21.5588 112.021 22.533 114.828 25.3428C117.182 27.6982 118.208 29.0953 119.652 31.9133C121.356 35.2357 122.015 37.3372 122.531 41.0862C122.673 42.1175 122.837 90.4984 122.7 91.0571C122.659 91.2267 122.333 91.5393 121.936 91.7899C121.556 92.0303 120.396 92.7684 119.359 93.43C118.322 94.0917 116.641 95.1646 115.622 95.8143C114.603 96.4639 112.937 97.527 111.918 98.1766C110.899 98.8263 109.233 99.8893 108.214 100.539C103.441 103.583 102.629 104.1 101.269 104.959C100.468 105.465 99.4153 106.129 98.9283 106.435C97.8215 107.13 96.3708 107.626 95.4461 107.626C93.8487 107.626 92.3519 107.01 89.5807 105.211C88.6605 104.613 87.0445 103.574 85.9895 102.901C84.9345 102.228 83.0891 101.047 81.8886 100.276C80.6881 99.5055 79.0212 98.4427 78.1845 97.9141C77.3478 97.3856 75.681 96.3226 74.4804 95.5518C73.2799 94.781 71.6131 93.7178 70.7764 93.189C69.9397 92.6604 68.9437 92.031 68.5632 91.7904C68.1667 91.5396 67.8404 91.2266 67.7991 91.0571C67.6962 90.6358 67.8098 41.9304 67.9154 41.2175C68.1509 39.6273 68.8066 36.876 69.3268 35.2955C70.0046 33.2361 72.0127 29.5432 73.4575 27.6995C74.3902 26.5091 77.5458 23.4231 78.7241 22.549C79.9844 21.6141 81.9952 20.4324 83.6745 19.6398C85.5983 18.7317 86.607 18.42 90.7207 17.4626C91.031 17.3904 91.5965 17.3272 91.9774 17.3222C92.3584 17.3171 92.7891 17.2602 92.9346 17.1958C93.2614 17.051 97.1835 17.1331 98.623 17.3147ZM93.268 40.248C92.7964 40.4232 92.191 40.7106 91.9226 40.8867C90.9934 41.4969 90.0332 42.6098 89.5754 43.6071C88.8752 45.1328 88.844 45.1891 88.6353 45.2973C88.5261 45.3537 87.6927 45.763 86.7832 46.2066C83.2937 47.9089 80.8898 50.1394 78.7686 53.6434C78.2992 54.4187 77.8564 55.2693 77.7847 55.5334C77.5756 56.3044 77.1937 56.6555 75.8978 57.2681C74.0485 58.1425 72.9583 59.3045 72.3023 61.1002C71.2252 64.0488 72.7198 67.2365 75.8799 68.7308C76.5406 69.0432 77.1736 69.4032 77.2867 69.5308C77.5434 69.8204 78.0522 70.8139 78.0522 71.0256C78.0522 71.2829 79.4604 73.5469 80.255 74.5671C82.018 76.8309 83.966 78.3846 86.8348 79.8152C88.235 80.5134 88.8791 80.9064 88.985 81.1276C89.0682 81.3012 89.3339 81.8738 89.5754 82.4003C90.0328 83.3968 90.994 84.5112 91.92 85.1185C93.4449 86.1185 95.4918 86.3724 97.1684 85.7696C98.3185 85.3561 98.8693 84.9987 99.7747 84.0787C100.46 83.3819 101.222 82.0351 101.397 81.2082C101.461 80.9095 101.627 80.7771 102.298 80.4913C106.524 78.6913 109.436 76.1901 111.714 72.4027C112.117 71.7322 112.447 71.1132 112.447 71.0272C112.447 70.9411 112.628 70.5159 112.848 70.0822C113.121 69.546 113.364 69.249 113.609 69.1538C115.509 68.414 116.722 67.5352 117.541 66.3071C118.549 64.7942 118.805 62.7635 118.197 61.1002C117.439 59.026 116.17 57.8507 113.609 56.8535C113.364 56.7584 113.121 56.4614 112.848 55.9251C112.628 55.4915 112.447 55.0663 112.447 54.9802C112.447 54.8942 112.117 54.2752 111.714 53.6046C109.436 49.8172 106.524 47.316 102.298 45.516C101.627 45.2303 101.461 45.0979 101.397 44.7992C101.12 43.4953 99.8361 41.713 98.5794 40.8888C97.0604 39.8927 94.92 39.6346 93.268 40.248ZM96.4089 44.4555C96.599 44.5963 96.8773 44.8747 97.0274 45.0739C97.291 45.424 97.3013 45.6167 97.3374 50.8597C97.3706 55.6923 97.3516 56.3063 97.1626 56.4937C96.8542 56.7996 93.6487 56.8031 93.3409 56.4979C93.1589 56.3173 93.1331 55.641 93.1331 51.0598C93.1331 47.6726 93.1828 45.6978 93.2742 45.4586C93.4605 44.9709 93.8998 44.5078 94.3898 44.2828C94.917 44.0406 95.9705 44.1308 96.4089 44.4555ZM88.7411 50.1682C88.8553 50.2815 88.8998 51.1635 88.8998 53.3087C88.8998 55.8455 88.8688 56.3224 88.692 56.4979C88.5152 56.6732 88.0335 56.7041 85.4671 56.7041C81.8579 56.7041 81.857 56.7037 82.4869 55.5663C83.4934 53.7494 85.6155 51.6078 87.5614 50.4454C88.3598 49.9683 88.5052 49.9342 88.7411 50.1682ZM102.975 50.5082C105.007 51.7243 106.983 53.7086 108.012 55.5663C108.642 56.7037 108.641 56.7041 105.032 56.7041C102.466 56.7041 101.984 56.6732 101.807 56.4979C101.631 56.3224 101.6 55.8455 101.6 53.3087C101.6 50.3914 101.649 50.0107 102.03 50.0107C102.092 50.0107 102.517 50.2346 102.975 50.5082ZM18.8439 50.6106C19.0113 50.7768 19.0513 51.1412 19.0497 52.4808C19.0486 53.3961 19.0024 54.2156 18.947 54.3021C18.8914 54.3887 17.9846 54.8816 16.9316 55.3975C14.6516 56.5147 13.8006 57.0158 12.3106 58.1183C10.5524 59.4192 10.6579 59.6231 10.6165 54.8451C10.5858 51.3156 10.6073 50.795 10.7913 50.6126C10.9732 50.4321 11.5099 50.4044 14.8185 50.4044C18.1125 50.4044 18.6645 50.4326 18.8439 50.6106ZM62.4175 56.9202C62.8876 56.9896 63.3059 57.1271 63.3746 57.2347C63.4464 57.3473 63.4974 61.938 63.4985 68.4081C63.5003 78.2186 63.4783 79.4123 63.2927 79.5965C63.1049 79.7828 60.2539 79.8027 33.8851 79.8027C12.2538 79.8027 4.64622 79.764 4.53484 79.6535C4.21999 79.3411 4.88077 75.6791 5.5774 73.8761C5.71246 73.5266 5.93365 72.954 6.06898 72.6035C6.20444 72.2533 6.69444 71.2139 7.15811 70.2942C9.54988 65.5498 14.1944 61.1907 19.184 59.0074C19.8025 58.7367 20.5466 58.4116 20.8376 58.285C21.2857 58.09 22.8911 57.6691 25.3703 57.0967C25.6807 57.0252 26.1867 56.9623 26.4948 56.9574C26.803 56.9522 27.1742 56.897 27.3197 56.8345C27.678 56.6808 61.3515 56.763 62.4175 56.9202ZM25.6 61.0351C25.4545 61.0971 25.1448 61.152 24.912 61.1571C24.3942 61.1684 23.2709 61.4529 22.5574 61.7536C17.886 63.7218 15.5841 66.0048 13.5554 70.6814C13.1841 71.5375 12.9306 72.718 12.7505 74.4311C12.6334 75.5436 12.738 75.603 14.8185 75.603C16.6768 75.603 16.9351 75.5116 16.9351 74.8542C16.9351 74.6692 16.9895 74.3043 17.0559 74.0433C17.1224 73.7822 17.2496 73.2439 17.3387 72.8469C17.6474 71.4714 18.8927 69.3212 20.0395 68.1834C21.1863 67.0457 23.3537 65.8102 24.7401 65.504C25.1403 65.4155 25.6829 65.2894 25.9461 65.2234C26.2092 65.1575 26.5769 65.1036 26.7635 65.1036C27.4261 65.1036 27.5182 64.8473 27.5182 63.0037C27.5182 61.0259 27.4552 60.8986 26.4835 60.913C26.143 60.9181 25.7455 60.973 25.6 61.0351ZM88.692 61.11C88.8594 61.2761 88.8998 61.6447 88.8998 63.0037C88.8998 64.3627 88.8594 64.7312 88.692 64.8974C88.5099 65.078 87.8271 65.1036 83.1977 65.1036C77.4076 65.1036 77.345 65.0961 76.6953 64.3302C76.0548 63.5749 76.0545 62.4328 76.6949 61.6777C77.3397 60.9176 77.3654 60.9146 83.169 60.9089C87.8291 60.9045 88.5097 60.9293 88.692 61.11ZM97.1585 61.11C97.3258 61.2761 97.3663 61.6447 97.3663 63.0037C97.3663 64.3627 97.3258 64.7312 97.1585 64.8974C96.991 65.0634 96.6195 65.1036 95.2497 65.1036C93.8798 65.1036 93.5084 65.0634 93.3409 64.8974C93.0364 64.5953 93.0364 61.4121 93.3409 61.11C93.5084 60.944 93.8798 60.9038 95.2497 60.9038C96.6195 60.9038 96.991 60.944 97.1585 61.11ZM113.322 61.2401C114.016 61.7544 114.233 62.1737 114.233 63.0037C114.233 63.8337 114.016 64.253 113.322 64.7673C112.969 65.0289 112.775 65.0391 107.49 65.075C102.619 65.1079 102 65.089 101.812 64.9015C101.639 64.7303 101.6 64.3767 101.6 63.0037C101.6 61.6306 101.639 61.2771 101.812 61.1059C102 60.9184 102.619 60.8995 107.49 60.9324C112.775 60.9683 112.969 60.9785 113.322 61.2401ZM50.9358 63.3466C49.8827 63.7377 49.3196 64.1002 48.4963 64.9171C47.2148 66.1884 46.5677 67.6603 46.5677 69.3033C46.5677 70.9463 47.2148 72.4182 48.4963 73.6896C49.7778 74.9609 51.2614 75.603 52.9175 75.603C54.5736 75.603 56.0572 74.9609 57.3387 73.6896C58.1795 72.8554 58.5282 72.3121 58.932 71.2069C59.5372 69.5501 59.2834 67.5126 58.2853 66.0145C57.8858 65.4149 56.8369 64.3742 56.2325 63.9779C54.7282 62.9915 52.5812 62.7357 50.9358 63.3466ZM53.7547 67.3825C55.1139 67.9459 55.4452 69.7137 54.3883 70.7625C52.902 72.237 50.4664 70.9163 50.8575 68.8478C51.0912 67.6123 52.5406 66.8792 53.7547 67.3825ZM88.692 69.5095C88.8688 69.685 88.8998 70.1628 88.8998 72.7089C88.8998 76.2896 88.8994 76.2905 87.753 75.6656C86.4982 74.9814 84.7691 73.5091 83.8009 72.3005C83.2948 71.6688 82.7035 70.832 82.4869 70.4411C81.857 69.3037 81.8579 69.3033 85.4671 69.3033C88.0335 69.3033 88.5152 69.3342 88.692 69.5095ZM97.1626 69.5137C97.3516 69.7011 97.3706 70.3151 97.3374 75.1477C97.3013 80.3907 97.291 80.5833 97.0274 80.9335C96.5089 81.6221 96.0863 81.837 95.2497 81.837C94.4131 81.837 93.9904 81.6221 93.472 80.9335C93.2083 80.5833 93.198 80.3907 93.1619 75.1477C93.1287 70.3151 93.1477 69.7011 93.3368 69.5137C93.5093 69.3426 93.8657 69.3033 95.2497 69.3033C96.6337 69.3033 96.9901 69.3426 97.1626 69.5137ZM108.214 69.5001C108.409 69.7331 108.274 70.1286 107.714 70.963C106.416 72.8974 103.826 75.2767 102.364 75.8775C101.634 76.1774 101.6 76.0346 101.6 72.7089C101.6 70.1628 101.631 69.685 101.807 69.5095C102.111 69.2084 107.963 69.1998 108.214 69.5001ZM63.2927 84.2086C63.5972 84.5108 63.5972 87.6939 63.2927 87.996C63.1049 88.1823 60.2523 88.2022 33.868 88.2022C7.48367 88.2022 4.63114 88.1823 4.44329 87.996C4.13876 87.6939 4.13876 84.5108 4.44329 84.2086C4.63114 84.0224 7.48367 84.0025 33.868 84.0025C60.2523 84.0025 63.1049 84.0224 63.2927 84.2086ZM63.2927 92.6081C63.4791 92.7932 63.5005 94.2882 63.5005 107.101C63.5005 119.914 63.4791 121.409 63.2927 121.594C63.1049 121.78 60.2523 121.8 33.868 121.8C7.48367 121.8 4.63114 121.78 4.44329 121.594C4.2569 121.409 4.23547 119.914 4.23547 107.101C4.23547 94.2882 4.2569 92.7932 4.44329 92.6081C4.63114 92.4219 7.48367 92.402 33.868 92.402C60.2523 92.402 63.1049 92.4219 63.2927 92.6081ZM12.9097 96.8079C12.7244 96.9919 12.7019 98.1062 12.7019 107.101C12.7019 116.096 12.7244 117.21 12.9097 117.394C13.2143 117.696 16.4228 117.696 16.7273 117.394C16.9126 117.21 16.9351 116.096 16.9351 107.101C16.9351 98.1062 16.9126 96.9919 16.7273 96.8079C16.4228 96.5058 13.2143 96.5058 12.9097 96.8079ZM68.9082 97.0189C70.1337 97.7065 71.5386 98.6784 71.7597 98.9914C71.9439 99.2523 71.967 100.515 71.967 110.336C71.967 120.208 71.9447 121.41 71.7591 121.594C71.5917 121.76 71.2202 121.8 69.8504 121.8C68.4805 121.8 68.109 121.76 67.9416 121.594C67.7556 121.409 67.7337 120.1 67.7337 109.152C67.7337 97.1968 67.7515 96.6017 68.1079 96.6017C68.1391 96.6017 68.4992 96.7895 68.9082 97.0189ZM122.607 96.7592C122.728 96.8794 122.766 99.8107 122.766 109.152C122.766 120.1 122.744 121.409 122.558 121.594C122.39 121.76 122.019 121.8 120.649 121.8C119.279 121.8 118.908 121.76 118.74 121.594C118.555 121.41 118.532 120.207 118.532 110.325C118.532 99.4961 118.538 99.2549 118.794 98.9314C118.939 98.7496 119.34 98.426 119.687 98.2121C120.034 97.9983 120.76 97.5485 121.301 97.2125C122.39 96.5352 122.383 96.5375 122.607 96.7592ZM78.5524 103.145C79.4358 103.732 80.2206 104.327 80.2961 104.467C80.3868 104.635 80.4334 107.545 80.4334 113.055C80.4334 120.455 80.4101 121.411 80.2256 121.594C79.9211 121.896 76.7125 121.896 76.408 121.594C76.2229 121.41 76.2002 120.345 76.2002 111.843C76.2002 101.904 76.2012 101.884 76.7385 102.023C76.8526 102.053 77.6689 102.557 78.5524 103.145Z" fill="black"/>
</svg>
