<svg width="133" height="132" viewBox="0 0 133 132" fill="none" xmlns="http://www.w3.org/2000/svg">
<path fill-rule="evenodd" clip-rule="evenodd" d="M24.8195 0.262784C24.253 0.609459 23.9878 1.16936 23.9885 2.01736C23.989 2.84363 24.1926 3.22674 25.1526 4.20859C26.0074 5.08296 27.7504 7.27459 28.6212 8.56998C29.6214 10.0581 31.4394 13.8096 32.0229 15.5897C32.4696 16.9523 33.0192 19.0172 33.2888 20.345C33.3601 20.696 33.5162 21.7682 33.7037 23.1942C33.8018 23.9403 33.6466 24.0443 32.2762 24.151C30.4707 24.2914 29.0526 24.5446 26.6147 25.1616C25.7724 25.3747 24.9648 25.6128 24.82 25.6906C24.6752 25.7684 24.1466 25.9782 23.6453 26.1568C21.9209 26.7716 21.6025 26.9074 19.9924 27.7162C16.2261 29.608 13.5674 31.5325 10.5881 34.5234C7.65841 37.4645 5.68533 40.2016 3.86828 43.8451C3.24455 45.0959 2.63958 46.3728 2.52394 46.6829C1.81798 48.5763 1.63396 49.1515 1.00799 51.4211C0.576864 52.9847 0.143359 56.259 0.0254785 58.8422C-0.0316797 60.0954 -0.00831473 60.2929 0.259524 60.8289C0.654747 61.6196 1.27134 62.0227 2.08515 62.0227C2.81567 62.0227 3.19796 62.3002 3.07097 62.7382C2.54004 64.5702 2.1699 67.9231 2.1699 70.9016C2.1699 75.1179 2.66822 78.204 4.0049 82.2666C4.59444 84.0582 6.60686 88.3217 7.13791 88.9039C7.54832 89.3539 8.06221 89.5871 8.64356 89.5871C9.51981 89.5871 9.65221 89.7857 9.76231 91.2658C9.92428 93.4435 10.1598 94.9064 10.6442 96.7432C11.3326 99.3528 11.4703 99.789 12.1075 101.381C12.2679 101.782 12.4823 102.336 12.5839 102.611C13.4289 104.9 16.6065 110.099 18.0942 111.627C18.2501 111.787 18.6444 112.245 18.9703 112.646C19.7119 113.558 20.6329 114.461 21.1499 114.783C21.7892 115.182 22.7701 115.118 23.4034 114.637C23.6886 114.421 24.0244 114.242 24.1495 114.24C24.4278 114.235 24.6885 114.728 24.9189 115.694C25.0146 116.095 25.1689 116.58 25.2618 116.771C25.3547 116.963 25.5757 117.53 25.7527 118.03C26.3567 119.737 26.4975 120.074 27.1729 121.429C29.1228 125.339 32.5386 129.979 34.7312 131.696C35.2199 132.078 36.2803 132.105 36.8585 131.749C37.5083 131.349 39.1751 129.635 40.3283 128.18C42.1375 125.897 43.1089 124.349 44.5649 121.427C45.6099 119.329 45.6405 119.254 46.6287 116.356C47.1036 114.963 47.3974 114.288 47.5408 114.259C47.6574 114.235 48.0011 114.399 48.3048 114.623C48.9727 115.117 49.9396 115.185 50.587 114.786C51.0895 114.475 52.5207 113.064 53.2935 112.117C53.6201 111.717 54.0356 111.22 54.2171 111.012C54.8245 110.319 56.0523 108.528 56.8072 107.234C57.2183 106.53 57.7839 105.562 58.064 105.084C58.3441 104.606 58.5733 104.142 58.5733 104.054C58.5733 103.965 58.7803 103.48 59.0333 102.976C59.5542 101.937 60.7827 98.3039 61.1854 96.6106C61.6637 94.5995 61.8341 93.6105 61.9959 91.9062C62.1209 90.5902 62.3088 89.8604 62.5641 89.6978C62.6561 89.6391 62.9948 89.5902 63.3168 89.589C63.8424 89.5873 63.9646 89.5218 64.5167 88.947C65.1107 88.3281 66.5677 85.6879 67.0928 84.2785C67.9682 81.9288 68.6308 79.8077 68.8909 78.5216C68.9646 78.1571 69.081 77.5906 69.1495 77.2626C69.4642 75.7569 69.5724 74.1642 69.5724 71.0341C69.5724 67.4666 69.4328 65.9171 68.8586 63.1064C68.6551 62.1098 68.7204 62.0279 69.7195 62.0247C70.4652 62.0225 71.0315 61.7023 71.4975 61.0197C71.78 60.6057 71.789 60.5021 71.7268 58.3572C71.6664 56.269 71.6183 55.7672 71.2654 53.5414C70.9852 51.7729 70.2124 49.0904 69.2128 46.416C68.8999 45.5792 67.4731 42.7541 66.7877 41.6146C65.5865 39.6175 63.8498 37.2072 63.064 36.4462C62.9511 36.3369 62.5925 35.9197 62.2671 35.519C61.5327 34.6148 61.3285 34.4095 60.4223 33.6633C60.0239 33.3353 59.5051 32.8759 59.2694 32.6425C58.0055 31.3906 53.2076 28.1974 51.5745 27.5212C51.0131 27.2887 49.8999 26.8128 48.7389 26.3089C47.8203 25.9102 45.3802 25.1545 44.2507 24.9191C41.7434 24.3963 40.9323 24.2657 39.4762 24.151C38.8107 24.0985 38.2185 24.0077 38.1604 23.9494C38.1025 23.891 38.0123 23.5033 37.9602 23.088C37.8435 22.1576 37.6255 20.6078 37.4625 19.5499C37.3951 19.1125 37.189 18.1732 37.0045 17.4624C36.8199 16.7517 36.7032 16.0802 36.7452 15.9705C36.8589 15.6731 37.4295 15.5794 38.0736 15.7523C38.3875 15.8366 38.7853 15.9055 38.9576 15.9055C39.3842 15.9055 43.2851 16.9069 44.1847 17.2473C44.5841 17.3984 45.138 17.6068 45.4156 17.7103C45.693 17.814 46.198 18.0381 46.5376 18.2083C46.8771 18.3786 47.3034 18.5544 47.4849 18.5987C48.1483 18.7611 52.7117 21.6527 53.6231 22.4882C53.7683 22.6214 54.2134 22.9987 54.6123 23.3267C55.0113 23.6547 55.7838 24.3703 56.3292 24.9169C56.8747 25.4636 57.6471 26.1789 58.0461 26.5067C58.445 26.8342 58.8489 27.1763 58.9437 27.2665C60.3918 28.6458 65.2642 31.6518 67.2475 32.3894C67.5226 32.4917 68.0744 32.7069 68.4737 32.8677C68.873 33.0284 69.7568 33.3604 70.4377 33.6053C71.5408 34.002 71.8351 34.1623 72.3711 34.6572C72.6489 34.9138 74.6798 37.5236 75.1843 38.2725C76.3667 40.0274 77.9325 42.9024 78.4279 44.2283C79.5108 47.1258 80.128 49.4106 80.5145 51.9512C80.6832 53.0602 80.7247 59.8499 80.5692 60.8963C80.3877 62.1166 80.371 62.1553 80.0261 62.1553C79.6892 62.1553 79.2819 62.0003 77.846 61.3263C75.7777 60.3554 75.1282 60.2435 74.4036 60.7338C73.6885 61.2175 73.3579 61.8197 73.3579 62.6383C73.3579 63.2584 73.4141 63.4096 73.806 63.8445C74.2398 64.3258 75.3906 64.9444 77.45 65.8036C77.9219 66.0005 78.4104 66.259 78.5354 66.3782C78.9471 66.7704 79.9398 69.9988 80.2322 71.8955C80.2995 72.3328 80.4245 73.1379 80.5098 73.6846C80.7018 74.9156 80.7136 80.2789 80.5272 81.6671C80.3537 82.9594 80.2118 83.1463 79.4804 83.0457C78.9161 82.968 78.4901 82.7991 76.557 81.886C74.4556 80.8936 73.0958 81.3367 72.7621 83.1226C72.5623 84.1921 73.2645 85.1064 74.812 85.7917C75.2828 86.0001 75.9854 86.3152 76.3734 86.492C77.0916 86.8192 80.0456 87.8254 81.1738 88.1271C81.9686 88.3395 82.2731 88.2561 83.0915 87.6019C83.8628 86.9854 84.0014 86.9617 84.4476 87.3697C85.3253 88.1723 86.9099 89.3811 88.3538 90.3496C89.8289 91.3391 93.7241 93.4123 95.0392 93.9078C96.7794 94.5635 98.4151 95.0946 99.7589 95.4402C101.182 95.8063 101.681 95.9034 103.851 96.2367C104.323 96.3092 105.868 96.3965 107.286 96.4307C109.815 96.4919 109.87 96.4874 110.319 96.1842C110.926 95.7734 111.375 95.0798 111.375 94.5533C111.375 94.3178 111.469 94.047 111.584 93.9516C111.761 93.8039 112.12 93.9374 113.993 94.8494C116.768 96.2004 116.864 96.2409 118.951 96.9328C122.531 98.1198 125.587 98.6786 129.245 98.8155C130.252 98.8533 131.206 98.8514 131.364 98.8115C131.716 98.7229 132.582 97.8754 132.85 97.3567C133.004 97.0596 133.03 96.6829 132.97 95.634C132.783 92.3835 132.566 90.423 132.236 88.9907C132.102 88.4076 131.915 87.5727 131.82 87.1354C131.646 86.3374 130.931 84.1897 130.385 82.8285C130.224 82.4276 130.006 81.8645 129.9 81.5772C129.794 81.2901 129.321 80.2911 128.848 79.3576C128.375 78.4242 128.008 77.556 128.033 77.4284C128.065 77.2597 128.247 77.1768 128.701 77.1243C129.406 77.0426 129.913 76.7168 130.359 76.0599C130.656 75.6208 130.662 75.553 130.6 73.1566C130.539 70.7899 130.4 69.2413 130.137 67.9862C130.069 67.6582 129.949 67.0618 129.871 66.661C129.794 66.2601 129.673 65.7234 129.603 65.4683C128.953 63.1029 128.881 62.8833 128.272 61.3601C128.112 60.9593 127.897 60.4064 127.796 60.1314C127.482 59.2823 126.178 56.7246 125.323 55.2843C124.539 53.9618 122.387 50.9689 121.639 50.1599C121.181 49.6648 121.184 49.521 121.668 48.9082C122.52 47.8278 122.507 47.3563 121.549 44.5963C120.623 41.9289 120.546 41.7349 119.877 40.3845C118.165 36.9276 116.016 33.9425 113.223 31.143C111.033 28.9482 109.916 28.0055 107.91 26.6588C107.103 26.1169 106.491 25.6156 106.491 25.4963C106.491 25.3808 106.67 25.0595 106.889 24.7823C107.107 24.5051 107.375 24.0257 107.484 23.717C107.671 23.1833 107.665 23.1223 107.361 22.4792C106.998 21.7127 106.609 21.2633 105.568 20.4096C105.168 20.0826 104.711 19.6867 104.552 19.5302C103.01 18.0169 97.8897 14.8703 95.5053 13.971C90.0275 11.905 86.6112 11.2283 81.6742 11.2315C78.3754 11.2338 75.2886 11.5765 73.0939 12.1843C70.7409 12.836 69.4819 13.2352 68.6717 13.5869C68.3813 13.713 67.7278 13.9948 67.2196 14.2134C64.4524 15.4033 61.3542 17.2985 58.8373 19.3409C58.2928 19.7828 57.7582 20.1443 57.6493 20.1443C57.5404 20.1443 57.0057 19.7827 56.4612 19.3407C53.8673 17.2355 48.9594 14.3796 46.6778 13.6479C46.2548 13.5122 45.7853 13.3349 45.6346 13.2539C45.3704 13.112 44.5691 12.8746 42.4687 12.3162C40.5199 11.7982 39.0558 11.5701 36.7728 11.4287C35.5054 11.3503 35.1836 11.2869 34.9428 11.0685C34.7822 10.9228 34.3373 10.1773 33.9543 9.41201C33.5714 8.64671 32.9593 7.53208 32.5939 6.93507C32.0012 5.96648 30.2305 3.52028 29.7722 3.03697C29.6758 2.93533 29.3309 2.52425 29.0056 2.12338C28.2872 1.238 27.6194 0.586002 27.0901 0.25311C26.547 -0.0883955 25.385 -0.0834922 24.8195 0.262784ZM84.9083 15.6315C85.6343 15.7044 86.466 15.7994 86.7564 15.8427C87.679 15.9804 91.6255 16.9919 92.0143 17.1903C92.2197 17.2953 92.729 17.4905 93.1457 17.6242C95.5473 18.3944 101.766 22.2223 102.08 23.1234C102.196 23.4555 101.574 24.023 99.6637 25.3283C97.5764 26.7546 95.9928 27.6306 93.4886 28.7441C92.3013 29.2722 88.8437 30.3474 87.6804 30.5503C87.39 30.6009 86.8257 30.6986 86.4264 30.7671C85.4589 30.9332 82.6127 31.1653 81.5422 31.1653C80.4716 31.1653 77.6255 30.9332 76.658 30.7671C76.2587 30.6986 75.6944 30.6009 75.4039 30.5503C74.2398 30.3472 70.7823 29.272 69.5957 28.7439C67.4521 27.7901 66.8874 27.5059 65.5908 26.7289C63.96 25.7514 61.554 23.9648 61.2583 23.5117C61.0615 23.2102 61.064 23.1678 61.295 22.9081C62.1084 21.9938 66.6202 19.0202 67.8282 18.6023C68.1241 18.5 68.5928 18.3002 68.8697 18.1584C69.1466 18.0166 69.6014 17.8154 69.8805 17.7113C70.1595 17.6072 70.7145 17.398 71.1138 17.2464C72.0006 16.9098 75.2432 16.0663 76.328 15.8902C76.7636 15.8194 77.7845 15.7181 78.5968 15.6653C79.4089 15.6123 80.1211 15.521 80.1796 15.4622C80.3012 15.3403 82.9542 15.4352 84.9083 15.6315ZM33.5607 28.5826C33.7146 28.7371 33.7563 28.925 33.7008 29.2121C33.6571 29.4372 33.5647 30.0389 33.4955 30.5491C33.1751 32.9085 31.9741 37.2705 31.2554 38.6849C31.1102 38.9708 30.9078 39.4481 30.8056 39.7457C30.7035 40.0435 30.3663 40.7199 30.0565 41.2489C29.7467 41.7781 29.309 42.5296 29.0836 42.9192C28.2453 44.3695 26.1158 47.0401 24.5529 48.6013C22.0398 51.1118 19.8493 52.7008 16.7611 54.2534C14.71 55.2847 14.579 55.3416 12.6503 56.0388C11.1596 56.5777 7.97812 57.3627 6.6293 57.5243C6.19368 57.5765 5.62487 57.662 5.36522 57.7142C5.00049 57.7876 4.83984 57.7558 4.65886 57.5742C4.26825 57.1819 4.50032 55.1531 5.28773 52.0763C5.81403 50.0202 6.32106 48.4469 6.69411 47.7128C6.83602 47.4335 7.03297 46.9694 7.13184 46.6814C7.65405 45.1599 10.637 40.6021 12.1033 39.0853C12.3792 38.7998 12.8013 38.3094 13.0414 37.9954C13.2816 37.6815 13.726 37.2333 14.0292 36.9996C14.3325 36.766 14.7518 36.4117 14.9611 36.2123C15.5291 35.6714 17.2393 34.2977 17.9157 33.839C19.5154 32.7546 22.451 31.156 23.6874 30.696C23.9616 30.594 24.5127 30.3784 24.912 30.2168C25.7871 29.8629 26.4108 29.6719 28.1461 29.2261C30.1148 28.7205 30.5498 28.6284 31.0191 28.6182C31.2541 28.6131 31.5651 28.5577 31.7103 28.495C32.1876 28.2891 33.3219 28.3429 33.5607 28.5826ZM40.9506 28.6147C42.9398 28.8768 46.8287 30.0183 48.3803 30.7954C48.8679 31.0398 49.4154 31.2761 49.597 31.3206C50.0025 31.42 53.0243 33.226 54.2835 34.1213C56.4258 35.6448 58.5181 37.5508 59.8933 39.2318C60.2201 39.6312 60.5959 40.0773 60.7285 40.2231C61.0677 40.5959 62.3774 42.468 62.9073 43.3373C63.4379 44.208 64.965 47.2367 65.2281 47.9406C65.9241 49.8027 66.2705 50.8889 66.6127 52.2825C67.1215 54.3542 67.1457 54.4793 67.2814 55.728C67.3446 56.3111 67.4356 56.9134 67.4832 57.0666C67.6332 57.5471 67.2141 57.8271 66.5027 57.7218C63.4298 57.266 60.1141 56.446 58.1773 55.6627C57.778 55.5011 57.2262 55.2853 56.9511 55.1829C56.6759 55.0805 55.963 54.7515 55.367 54.4516C51.7254 52.6193 48.0249 49.7758 45.9009 47.178C45.5742 46.7785 45.1712 46.3025 45.0053 46.1203C43.7994 44.7961 41.2183 40.4867 40.5436 38.6711C39.519 35.9138 39.0247 34.2488 38.6433 32.2718C38.5589 31.8345 38.4347 31.2611 38.3673 30.9975C38.1868 30.2929 38.2136 28.7123 38.4095 28.5102C38.5788 28.3357 38.9499 28.3509 40.9506 28.6147ZM103.653 28.9954C104.341 29.3456 106.387 30.7612 107.415 31.5984C108.959 32.8547 111.911 35.8963 113.046 37.4008C114.612 39.4753 115.936 41.8139 117.103 44.5676C117.364 45.1841 117.374 45.6412 117.131 45.8437C116.716 46.1898 115.351 46.3133 112.035 46.3046C109.051 46.2966 107.305 46.1841 106.029 45.9176C103.649 45.4204 101.029 44.637 100.668 44.3148C100.465 44.133 100.321 43.829 99.7325 42.3434C98.8556 40.1283 97.2051 37.1481 95.8105 35.2616C94.2988 33.2166 94.3406 33.3119 94.7831 32.9261C94.9868 32.7485 95.2401 32.6031 95.346 32.6031C95.7899 32.6031 99.9826 30.3564 101.567 29.2692C102.558 28.5898 102.796 28.5585 103.653 28.9954ZM90.1971 35.0879C91.4538 36.2518 93.8531 39.7974 94.9876 42.1665C96.1451 44.5841 96.3268 45.0287 96.3268 45.4449C96.3268 45.9562 96.143 46.0715 95.1387 46.1906C93.7365 46.3571 87.1263 46.3258 86.1624 46.1483C85.6904 46.0614 84.9807 45.9318 84.5852 45.8604C83.6725 45.6954 83.3633 45.3816 82.9487 44.1987C82.34 42.462 82.2027 42.1424 81.2168 40.1661C80.6745 39.079 79.8725 37.6418 79.4345 36.9722C78.9965 36.3026 78.6381 35.7088 78.6381 35.6528C78.6381 35.3268 79.1789 35.263 82.406 35.208C84.2905 35.1759 86.2482 35.0826 86.7564 35.0008C88.402 34.7361 89.1272 34.6286 89.3965 34.6096C89.5418 34.5993 89.9021 34.8146 90.1971 35.0879ZM36.5415 40.1237C36.7651 40.6156 37.245 41.6167 37.608 42.3481L38.2679 43.6779L38.2011 45.2635C38.1392 46.733 38.0439 47.495 37.7293 49.0357C37.6624 49.3637 37.5671 49.8706 37.5177 50.1621C37.3576 51.1077 36.6422 53.4713 36.134 54.7341C35.9727 55.135 35.7574 55.6889 35.6555 55.9651C35.208 57.1775 33.8539 59.6449 32.6786 61.3892C31.1496 63.6586 28.6315 66.4346 26.6277 68.0601C24.4476 69.8285 24.4502 69.8278 23.9184 68.7744C22.7556 66.4707 21.6678 62.2175 21.3443 58.7097C21.1666 56.7831 21.1644 56.8143 21.5049 56.565C23.4203 55.1635 25.0531 53.919 25.3154 53.6609C25.4934 53.4859 25.9646 53.0743 26.3627 52.7463C27.2759 51.9938 27.984 51.2837 28.7401 50.3621C29.0669 49.9639 29.5125 49.4461 29.7304 49.2116C30.252 48.6503 31.7475 46.5851 32.5785 45.2787C32.9424 44.7067 33.8021 43.1114 34.489 41.7338C35.2795 40.1482 35.8106 39.2292 35.9363 39.2292C36.0534 39.2292 36.3019 39.5967 36.5415 40.1237ZM103.141 49.6392C106 50.3811 107.097 50.5055 111.428 50.5785C113.728 50.6172 115.119 50.5892 115.377 50.4989C115.873 50.3251 116.053 50.4341 117.274 51.6494C119.28 53.6461 121.361 56.6334 122.915 59.7484C123.938 61.7987 123.993 61.9265 124.693 63.878C125.259 65.4565 126.05 68.7441 126.225 70.239C126.397 71.7136 126.427 72.4379 126.322 72.5925C126.107 72.9098 122.953 72.4913 120.189 71.7786C118.273 71.2847 117.565 71.0644 116.715 70.6982C116.428 70.5744 115.778 70.2947 115.269 70.0764C113.197 69.1865 111.239 68.1354 109.699 67.0857C108.783 66.4614 108.471 66.0887 108.471 65.6199C108.471 65.444 108.417 65.0846 108.351 64.8211C108.284 64.5575 108.159 64.0139 108.072 63.613C107.906 62.8502 106.906 59.7344 106.579 58.9602C106.474 58.7132 106.257 58.183 106.096 57.7821C105.554 56.4341 105.286 55.8648 104.784 54.9991C103.253 52.3593 102.744 51.5327 102.141 50.7081C101.481 49.8045 101.307 49.3008 101.656 49.3008C101.756 49.3008 102.424 49.453 103.141 49.6392ZM44.5558 51.7855C45.9349 53.1563 47.1919 54.2593 48.2182 54.9991C49.0776 55.6187 49.9841 56.3205 50.2326 56.5588C50.734 57.0396 50.7239 56.8528 50.3958 59.5711C50.034 62.5689 49.2387 65.5863 48.1227 68.1948C47.6652 69.2641 47.3712 69.533 46.9208 69.2942C46.5581 69.1017 45.1974 68.0607 44.8038 67.6745C44.6444 67.518 44.1875 67.1215 43.7887 66.7935C42.885 66.0503 42.6809 65.8454 41.9407 64.9382C41.6139 64.5378 41.219 64.0792 41.0631 63.9191C40.2291 63.0628 38.5085 60.538 38.5085 60.1704C38.5085 60.0488 38.7811 59.3873 39.1143 58.7001C39.4473 58.0129 39.8576 57.0632 40.0258 56.5894C40.969 53.9324 41.1597 53.3237 41.5417 51.7524C42.0688 49.5837 42.0288 49.6983 42.2602 49.6983C42.368 49.6983 43.4009 50.6375 44.5558 51.7855ZM90.7825 50.5368C93.0695 50.5385 95.2403 50.4932 95.6067 50.4361C96.2107 50.3421 96.3108 50.3646 96.6822 50.6783C97.2485 51.1567 99.0579 53.6274 99.8951 55.0654C100.277 55.7214 100.818 56.6493 101.098 57.1274C101.378 57.6056 101.607 58.0666 101.607 58.1519C101.607 58.2373 101.779 58.681 101.99 59.1379C102.797 60.8892 102.905 61.195 103.693 63.9443C103.839 64.4545 103.999 65.1105 104.048 65.402C104.098 65.6936 104.193 66.2005 104.26 66.5285C104.438 67.402 104.637 68.6203 104.726 69.3869C104.838 70.3499 104.603 70.5588 103.531 70.4526C101.476 70.2492 100.334 70.0393 98.3068 69.4919C97.9075 69.3841 97.2541 69.2097 96.8548 69.1045C96.4555 68.9992 95.8317 68.787 95.4687 68.6329C95.1057 68.4788 94.5117 68.2348 94.1487 68.0905C92.9912 67.6307 91.0124 66.6502 89.9905 66.03C87.6119 64.5864 85.4039 62.9562 84.9739 62.3262C84.7124 61.9431 84.6897 61.8021 84.7813 61.1292C84.9161 60.1382 84.9162 52.5109 84.7813 51.5207C84.6359 50.4522 84.7805 50.3018 85.8271 50.4334C86.2656 50.4885 88.4956 50.535 90.7825 50.5368ZM17.0611 59.6042C17.1022 59.8046 17.1923 60.1843 17.2616 60.4479C17.3309 60.7114 17.3877 61.1429 17.3877 61.4068C17.3877 61.8893 17.4144 62.0271 17.9297 64.2093C18.211 65.4011 19.1834 68.4772 19.5468 69.326C19.6527 69.573 19.8994 70.1541 20.0951 70.6172L20.4509 71.4593L19.7206 72.9607C18.8674 74.7148 16.9733 77.6175 16.032 78.6135C15.9421 78.7087 15.6014 79.1146 15.2751 79.5155C13.9016 81.2027 10.3411 84.2862 9.76666 84.2862C9.43137 84.2862 9.1395 83.9524 8.89741 83.2923C8.79048 83.0008 8.57135 82.4342 8.41044 82.0334C7.77523 80.4507 7.20431 78.2796 6.8075 75.9374C6.63405 74.9144 6.41004 72.0854 6.40872 70.9016C6.40515 67.9545 7.24998 62.47 7.79054 61.9304C7.8778 61.8432 8.21666 61.7095 8.54337 61.6333C11.3229 60.9848 12.723 60.6178 13.6256 60.301C15.0436 59.8034 16.0856 59.3986 16.1723 59.3114C16.2115 59.272 16.4109 59.2398 16.6152 59.2398C16.9143 59.2398 17.0012 59.3107 17.0611 59.6042ZM56.3157 59.5641C56.9268 59.8813 60.1188 60.9093 61.4774 61.2263C63.7182 61.7492 63.8378 61.7857 64.0324 62.005C64.2166 62.2129 64.4409 63.038 64.7756 64.7394C64.8616 65.1767 64.9621 65.6538 64.9988 65.7996C65.1883 66.5507 65.3424 68.8392 65.3424 70.9016C65.3424 74.9035 64.9192 77.5217 63.6634 81.2898C62.8978 83.587 62.4146 84.3924 61.9005 84.2286C61.38 84.0628 59.2278 82.2901 57.7834 80.8375C55.876 78.9195 53.6705 75.9704 52.5803 73.8803C52.3151 73.3718 51.9511 72.6929 51.7715 72.3717C51.3485 71.615 51.3597 71.3171 51.8542 70.1834C52.0792 69.6673 52.353 69.0364 52.4624 68.7813C53.3282 66.7635 54.3412 62.7887 54.5564 60.565C54.6905 59.1792 54.6807 59.1949 55.3483 59.2867C55.6725 59.3314 56.1078 59.4562 56.3157 59.5641ZM37.2137 65.899C38.6019 67.6223 41.5984 70.6281 42.9832 71.6864C44.2063 72.6211 44.3739 72.8537 44.1847 73.3533C44.1121 73.5449 44.0527 74.0637 44.0527 74.5061C44.0527 74.9484 43.9976 75.5259 43.93 75.7895C43.8625 76.0531 43.7387 76.6265 43.6547 77.0638C43.3337 78.7363 42.6632 81.1581 42.2056 82.2984C42.0447 82.6993 41.8302 83.2518 41.7288 83.5261C41.4216 84.3583 39.9017 87.3297 39.1709 88.5269C37.7301 90.8875 36.3269 92.635 35.8724 92.635C35.4754 92.635 33.8194 90.5723 32.5473 88.4936C31.8403 87.3383 30.3201 84.3671 30.0057 83.5261C29.3067 81.6562 28.9636 80.5776 28.6245 79.1842C27.9988 76.613 27.8267 75.6386 27.7277 74.1105C27.6387 72.7356 27.75 72.5507 29.5004 71.1667C30.8963 70.0628 32.5863 68.4357 33.4918 67.3236C33.8181 66.9227 34.1588 66.5168 34.2487 66.4216C34.3387 66.3263 34.6801 65.8991 35.0074 65.4723C35.5473 64.7678 35.7529 64.5821 36.027 64.5511C36.0778 64.5454 36.6119 65.152 37.2137 65.899ZM85.4956 68.1921C87.1529 69.3347 88.483 70.1168 90.1885 70.952C92.2956 71.9837 92.8812 72.2233 95.0515 72.9419C97.4872 73.7484 97.6601 73.7934 100.258 74.2961C100.471 74.3374 100.859 74.8167 101.578 75.9301C102.772 77.7763 103.719 79.4145 103.719 79.6329C103.719 79.7177 103.929 80.2051 104.185 80.7161C104.951 82.2435 106.009 85.6178 106.489 88.0631C106.574 88.5004 106.696 89.0967 106.76 89.3883C106.972 90.3653 106.997 91.9586 106.803 92.1203C106.581 92.3049 104.59 92.1529 102.927 91.8244C100.816 91.4072 97.4291 90.3685 95.922 89.6761C95.5275 89.4948 94.9385 89.2365 94.6132 89.1023C93.628 88.6958 90.1435 86.5347 88.6913 85.4296C87.3664 84.4213 85.327 82.4947 84.9128 81.86C84.7523 81.6142 84.7384 81.4618 84.8479 81.1467C85.025 80.6366 84.9289 74.2524 84.7246 72.9557C84.3089 70.3176 84.1411 69.4175 83.909 68.5825C83.6265 67.5659 83.6065 67.191 83.8344 67.191C83.9494 67.191 84.697 67.6415 85.4956 68.1921ZM110.176 72.3477C110.952 72.8425 112.689 73.6532 115.269 74.725C116.361 75.1782 118.389 75.7784 120.678 76.3249C121.329 76.4805 121.997 76.6964 122.161 76.8046C122.846 77.2551 125.473 81.7385 126.214 83.7212C127.121 86.1464 127.677 88.0923 128.138 90.4484C128.224 90.8857 128.351 91.4821 128.422 91.7736C128.492 92.0652 128.532 92.7808 128.51 93.3639L128.47 94.4241L127.348 94.3867C126.731 94.3661 125.988 94.2964 125.698 94.2318C125.407 94.1672 124.813 94.0444 124.378 93.9589C122.389 93.5688 120.739 93.0745 118.007 92.0507C117.12 91.7184 114.192 90.2151 112.959 89.4589C111.575 88.6093 110.875 87.9458 110.723 87.3367C110.659 87.0802 110.477 86.3038 110.317 85.6114C110.051 84.4535 109.127 81.5741 108.509 79.9793C108.367 79.6149 107.818 78.4414 107.288 77.3717C106.757 76.302 106.356 75.3423 106.395 75.2392C106.435 75.1359 106.818 74.9528 107.246 74.8321C108.369 74.5156 108.999 73.7826 108.999 72.7922C108.999 72.2977 109.179 71.9618 109.443 71.9618C109.513 71.9618 109.843 72.1355 110.176 72.3477ZM48.9101 76.0895C49.45 77.0911 51.2248 79.6934 52.2344 80.9637C53.2617 82.2564 55.3814 84.4479 57.253 86.1521L58.0649 86.8914L57.9978 88.8688C57.8955 91.8713 57.7968 92.5469 56.9688 95.9135C56.4672 97.9532 56.314 98.44 55.6553 100.089C55.5026 100.472 55.2943 101.011 55.1925 101.286C54.5935 102.909 53.0297 105.597 51.5192 107.599C50.394 109.091 49.9011 109.598 49.5765 109.598C48.8443 109.598 44.9632 103.627 44.0017 101.022C43.8997 100.746 43.6913 100.207 43.5386 99.8243C42.7947 97.9618 42.6151 97.3426 41.8076 93.859C41.5716 92.8404 41.6369 92.6067 42.5677 91.1378C43.8002 89.1928 44.5921 87.7889 44.8027 87.1752C44.9006 86.8896 45.157 86.3056 45.3724 85.8774C46.2838 84.0648 47.7641 78.9447 48.0675 76.5551C48.1329 76.0406 48.3396 75.6724 48.5632 75.6724C48.6303 75.6724 48.7864 75.86 48.9101 76.0895ZM23.6438 76.0145C23.6879 76.1298 23.724 76.3973 23.724 76.6089C23.724 77.0103 23.7766 77.2646 24.3126 79.4492C24.7933 81.4092 25.1431 82.6518 25.2938 82.9344C25.3673 83.0723 25.5731 83.5968 25.751 84.1002C26.3564 85.8117 26.497 86.1481 27.1729 87.5034C27.8511 88.8635 28.4974 89.9842 29.5136 91.5623C29.9918 92.3049 30.0595 92.5038 30.055 93.1525C30.0488 94.0556 29.2531 97.144 28.4212 99.4938C27.9184 100.914 25.9287 104.83 25.0094 106.21C23.3872 108.643 22.5248 109.631 22.0793 109.568C21.7489 109.521 20.5145 108.053 19.3645 106.34C18.5348 105.104 16.7105 101.647 16.2766 100.488C14.6303 96.0913 13.9119 92.7302 13.7409 88.6236L13.6704 86.9313L14.1173 86.5033C14.3631 86.2678 15.0618 85.628 15.6701 85.0813C17.5332 83.4069 18.9066 81.9122 20.2826 80.0619C21.143 78.9049 21.564 78.2746 22.6612 76.5006C23.0959 75.7976 23.487 75.6043 23.6438 76.0145ZM34.6049 97.6745C35.0377 98.0033 35.2465 98.0684 35.8684 98.0684C36.4903 98.0684 36.6991 98.0033 37.132 97.6745C37.4171 97.4579 37.7529 97.279 37.8781 97.277C38.1563 97.2725 38.417 97.7652 38.6474 98.731C38.7431 99.1319 38.8974 99.6169 38.9903 99.8088C39.0833 100.001 39.3042 100.567 39.4813 101.068C40.0877 102.782 40.2264 103.112 40.9361 104.532C41.6015 105.863 42.4441 107.314 43.3245 108.645C43.9103 109.531 43.9108 110.245 43.3274 112.586C42.7942 114.725 42.492 115.733 42.1381 116.555C42.0126 116.847 41.7318 117.503 41.5141 118.013C40.9273 119.388 40.5514 120.154 39.9206 121.259C38.5501 123.661 36.4242 126.459 35.9133 126.534C35.566 126.585 34.8682 125.803 33.6437 123.991C32.0887 121.691 30.7803 119.359 30.2731 117.985C30.1712 117.709 29.9628 117.17 29.81 116.787C29.0662 114.924 28.8865 114.305 28.0791 110.822C27.8697 109.918 27.9217 109.559 28.3625 108.862C29.7009 106.745 31.4671 103.407 31.9871 102.012C32.1498 101.576 33.2267 98.4466 33.5611 97.4389C33.6517 97.1658 34.0549 97.2568 34.6049 97.6745Z" fill="black"/>
</svg>
