<svg width="205" height="354" viewBox="0 0 205 354" fill="none" xmlns="http://www.w3.org/2000/svg">
<path d="M83.7074 187.076C77.4622 190.243 71.6875 193.175 65.2684 196.454C68.1122 197.821 70.3282 198.683 72.3183 199.894C74.1897 201.01 75.9786 202.367 77.5662 203.87C79.7916 205.97 82.0816 208.095 83.8055 210.575C86.8266 214.883 89.6634 219.35 92.1457 223.98C95.4464 230.165 98.3347 236.548 101.583 243.25C100.355 243.94 99.3553 244.729 98.2278 245.052C96.1364 245.634 93.9982 245.926 91.2195 246.458C95.5327 252.115 97.6634 258.084 99.1366 264.28C99.8984 267.467 100.285 270.773 100.56 274.044C100.76 276.332 98.9861 277.701 96.6801 277.298C94.7517 276.948 92.8511 276.425 91.1645 276.017C89.4596 277.022 89.9244 278.46 89.8862 279.688C89.7727 284.102 89.0606 288.425 87.828 292.664C85.7452 299.801 84.2981 302.049 78.3132 306.769C79.1707 310.845 80.0787 315.102 81.0602 319.754C79.9973 320.101 78.9362 320.897 78.1066 320.677C75.094 319.901 72.1936 319.16 69.2985 320.913C61.7948 321.891 54.3857 322.023 47.3321 318.692C46.9243 318.503 46.5439 318.281 46.1291 318.17C45.9523 318.112 45.7002 318.217 45.2712 318.263C44.0419 319.511 42.6863 320.881 41.0539 322.56C39.6982 321.916 38.1545 321.54 37.0651 320.634C32.4531 316.807 27.2798 313.955 22.0074 311.191C20.0677 310.16 18.152 309.065 16.3457 307.834C14.7567 306.75 13.3114 305.418 11.4787 303.941C10.6133 305.259 9.88408 306.546 9.00216 307.71C6.70524 310.701 4.49637 310.768 2.05553 307.963C1.18772 306.956 0.336877 305.963 -0.472969 304.919C-6.4162 297.221 -13.1688 290.355 -20.9013 284.462C-26.5597 280.128 -31.645 275.36 -34.4795 268.18C-35.7272 268.826 -36.9537 269.237 -37.9125 269.976C-39.813 271.467 -41.5575 273.111 -44.0916 273.756C-44.6007 273.346 -45.3007 273.034 -45.5576 272.519C-45.9328 271.77 -46.1238 270.86 -46.1549 269.996C-46.428 261.13 -48.6455 252.628 -50.7744 244.086C-51.7451 240.254 -52.5352 236.372 -53.2027 232.477C-55.1012 221.182 -53.8151 210.102 -50.2974 199.309C-49.2247 196.032 -47.4104 192.877 -45.3727 190.069C-41.6528 184.895 -37.6476 179.923 -32.523 175.993C-31.6495 175.325 -30.8807 174.406 -29.8993 174.021C-24.8392 172.081 -21.9229 168.079 -19.3441 163.245C-19.8669 161.844 -20.4024 160.182 -21.1015 158.584C-30.0755 138.288 -39.0494 117.992 -48.0677 97.7167C-51.4622 90.0857 -54.901 82.475 -58.3092 74.861C-58.576 74.2544 -58.9621 73.6916 -59.1064 73.0717C-59.4858 71.5629 -59.6985 70.0205 -58.4249 68.7521C-56.5912 66.9273 -54.3263 66.3734 -52.4305 67.285C-50.5855 68.1556 -49.2015 69.4943 -48.2582 71.3453C-42.1688 83.1337 -32.8538 92.0642 -22.5626 100.13C-19.7862 102.311 -16.8113 104.175 -13.374 105.153C-11.7285 105.611 -10.2875 105.177 -9.36366 103.683C-8.57319 102.389 -8.06462 100.924 -7.47119 99.5273C-5.09465 94.1107 -2.86753 88.6017 -0.280282 83.2709C3.72574 74.9978 10.3564 69.5104 18.7336 65.8495C24.8444 63.1612 31.2574 61.6955 37.8076 60.928C42.4138 60.3854 47.0304 60.8024 51.5179 62.1787C56.342 63.6583 61.183 65.1515 65.9967 66.6786C66.6052 66.861 67.5334 67.133 67.6578 67.569C68.3277 69.7594 70.1557 69.609 71.8187 69.9413C78.5457 71.2469 84.922 73.613 91.1677 76.3497C94.3721 77.7557 94.9793 79.364 93.7397 82.6745C93.0803 84.4657 92.2101 86.1712 91.3084 88.159C93.9378 89.5495 96.3027 90.643 98.4828 92.0354C100.514 93.3354 102.486 94.8121 104.199 96.4718C107.676 99.8321 110.968 103.352 114.319 106.834C114.614 107.128 114.987 107.568 114.996 107.939C114.932 111.665 118.12 112.918 120.192 115.035C122.336 117.237 124.37 119.575 126.169 122.031C129.675 126.814 132.993 131.726 136.356 136.617C137.829 138.783 137.28 140.299 134.779 141.111C132.936 141.697 130.86 141.704 129.47 143.326C132.464 148.536 136.402 159.347 136.877 163.899C130.847 167.043 125.082 171.074 118.397 173.328C117.365 173.671 116.02 173.847 115.419 174.594C111.479 179.451 105.346 180.638 100.343 183.688C95.4907 186.55 90.4692 187.122 83.7074 187.076ZM7.23349 152.308C7.89531 152.841 8.55807 153.095 9.14303 152.195C9.95523 153.549 11.4094 153.237 12.6265 153.602C17.0291 154.91 21.4148 156.204 25.7487 157.737C26.9724 158.163 27.9278 159.408 29.2006 160.433C28.3318 160.713 27.868 161.011 27.5178 160.925C25.8416 160.47 24.1243 160.066 22.5306 159.37C18.283 157.487 13.8045 156.482 9.22229 155.953C5.95992 155.591 2.65277 155.389 -0.489367 156.72C-0.963092 156.926 -1.30531 157.489 -2.10427 158.273C-0.846175 158.587 -0.0881839 158.862 0.700897 158.994C11.0207 160.563 20.4265 164.726 29.6438 169.297C32.7559 170.852 35.669 172.863 38.5755 174.812C39.3938 175.36 40.1938 176.312 39.1078 177.452C36.9564 177.621 35.3372 176.401 33.6935 175.385C27.7028 171.706 21.2836 168.942 14.6895 166.568C13.7548 166.235 12.6654 166.337 11.6482 166.245C11.1485 166.066 10.6489 165.888 10.1492 165.709C10.244 165.869 10.3383 166.169 10.4472 166.173C10.8351 166.178 11.2438 166.087 11.6421 166.044C12.7069 167.154 13.8128 168.212 14.806 169.376C21.223 176.868 28.9361 182.437 38.2152 185.854C38.6026 185.999 38.7804 186.785 39.2268 187.621C34.1798 188.676 30.792 185.135 26.3408 184.096C26.907 187.77 28.9255 190.683 29.8127 194.028C32.104 194.726 34.236 195.24 36.2583 196.03C41.3699 198.021 46.5531 197.943 51.814 197.004C58.9751 195.722 65.9005 193.689 72.2257 189.971C73.5079 189.213 75.2439 189.072 75.801 187.338C75.9373 187.308 76.0735 187.278 76.2097 187.248C76.0801 187.339 75.9505 187.431 75.8039 187.509C75.1557 186.958 74.583 186.245 73.8425 185.845C67.1772 182.378 61.4419 177.619 56.1982 172.387C51.3515 167.532 45.8377 163.678 39.8932 160.429C34.9202 157.71 29.7553 155.368 24.5767 153.043C22.4089 152.053 20.0803 151.296 17.7267 150.883C14.7745 150.38 11.662 149.971 9.15245 152.427C8.52599 152.51 7.89954 152.593 7.24244 152.679L6.95351 152.586L7.23349 152.308ZM127.873 164.899C126.656 164.256 125.868 164.991 125.1 165.772C122.011 166.306 119.038 167.044 117.109 169.856C115.216 169.114 113.892 170.063 112.67 171.372L112.285 171.259L112.622 171.222C114.303 171.289 115.967 171.342 117.062 169.706C120.395 170.153 122.926 168.609 125.166 166.384C126.557 166.637 127.254 165.772 127.788 164.692C129.327 165.456 129.666 163.854 130.536 163.295C131.742 162.98 132.934 162.681 134.456 162.284C132.177 155.804 130.473 149.478 125.109 144.71C123.536 145.065 121.901 145.427 120.161 145.816C120.532 146.535 120.667 146.924 120.918 147.238C124.209 151.316 127.571 155.339 130.821 159.468C131.844 160.768 132.067 162.263 130.562 163.54C129.679 163.977 128.783 164.43 127.873 164.899ZM83.1141 176.245C82.9237 176.204 82.7267 176.101 82.5428 176.121C82.4509 176.13 82.3755 176.294 82.2765 176.382C82.5424 176.26 82.8252 176.152 83.091 176.03C84.4359 177.869 86.698 177.145 88.4002 177.985C89.0219 178.29 89.5239 178.778 90.3625 179.37C87.309 180.659 84.7588 180.004 82.2111 179.659C80.1054 179.39 77.9828 179.107 75.8909 178.821C75.642 178.956 74.8722 178.14 75.1136 179.23C75.3526 179.003 75.5949 178.806 75.8338 178.579C76.4136 179.214 76.9043 180.029 77.6142 180.433C83.2015 183.674 89.113 184.603 95.1889 182.166C98.8147 180.722 102.285 178.845 105.783 177.073C106.635 176.64 107.956 176.39 107.663 174.67C105.311 173.839 102.894 172.983 100.752 172.237C97.4014 174.938 97.3877 174.955 94.6651 175.001C90.7716 175.11 86.8257 174.59 83.1141 176.245ZM48.035 303.925C46.225 306.832 46.6394 310.103 46.1667 313.052C53.5669 318.593 62.4504 320.209 68.0997 317.121C66.1279 314.497 63.9242 312.023 62.2593 309.227C59.6841 304.886 56.1888 301.93 50.9084 300.531C51.2625 301.516 51.3888 302.401 51.8734 303.015C52.7949 304.233 53.9451 305.272 54.952 306.418C55.569 307.111 55.8047 307.861 54.6989 308.817C52.5126 307.224 50.2585 305.576 48.0044 303.928C48.0935 303.748 48.1995 303.581 48.2886 303.401C48.0605 303.441 47.8323 303.481 47.6042 303.521C47.7569 303.645 47.896 303.785 48.035 303.925ZM-15.179 125.804C-15.5075 126.351 -16.0708 126.877 -16.117 127.455C-16.8181 137.635 -14.2395 147.043 -9.09949 155.772C-8.60547 156.618 -7.53166 157.091 -6.27591 158.102C-2.25382 152.137 4.06959 149.983 10.2521 147.241C9.87494 146.041 9.83814 144.837 9.22486 144.035C5.87048 139.654 1.73413 136.07 -3.35442 132.279C-3.08192 134.233 -2.99422 135.479 -2.70902 136.688C-1.83643 140.329 -0.830924 143.909 -0.00594517 147.54C0.235426 148.63 -0.0813194 149.717 -1.98945 149.412C-3.68603 143.876 -5.39581 138.218 -7.15321 132.549C-7.81318 130.45 -8.42884 128.331 -9.2797 126.331C-9.65117 125.472 -10.5986 124.877 -11.2803 124.16C-11.2533 127.287 -10.4934 130.026 -9.73681 132.734C-9.20553 134.645 -8.57197 136.498 -8.16325 138.423C-7.98223 139.24 -8.17262 140.206 -9.65603 140.102C-11.5529 137.455 -12.0319 134.159 -13.1515 131.103C-13.8261 129.3 -13.6861 127.147 -15.383 125.78C-15.2251 125.375 -14.4064 124.776 -15.6998 124.853C-15.507 125.204 -15.3345 125.511 -15.179 125.804ZM29.863 143.563C29.7168 143.501 29.5537 143.426 29.3972 143.412C29.319 143.405 29.2063 143.51 29.1177 143.55C29.3595 143.493 29.615 143.419 29.8398 143.349C31.1578 144.074 32.431 144.96 33.8107 145.54C36.2303 146.566 38.7767 147.33 41.2099 148.338C43.4325 149.261 45.6239 150.327 47.7164 151.481C48.6233 151.987 49.4473 152.875 48.1086 154.259C39.9373 151.342 32.0021 147.021 21.4599 146.839C25.2997 148.533 27.9337 149.536 30.4104 150.803C39.0088 155.239 47.6722 159.56 55.0696 165.938C56.7086 167.342 58.4663 167.835 60.5479 167.161C62.5545 166.511 64.6828 166.127 66.4584 164.339C63.1422 159.737 59.9683 155.306 56.7639 150.878C55.8696 149.626 54.9174 148.412 53.9822 147.21C49.7534 141.762 43.7325 139.961 37.2794 139.184C36.3848 139.079 35.0362 139.364 35.378 140.954C37.3766 142.676 40.5744 142.006 42.2172 144.309C41.4805 145.814 40.3246 145.443 39.3248 145.225C36.186 144.571 33.2135 143.016 29.863 143.563ZM18.4955 281.753C16.9739 282.877 17.0946 284.43 17.6104 285.908C18.2746 287.759 19.2385 289.514 19.9777 291.341C20.376 292.305 20.5665 293.354 21.1482 295.446C18.8912 293.628 17.5167 292.52 15.9215 291.235C15.4233 292.653 15.0218 293.672 14.7154 294.713C13.3928 299.411 14.6609 302.839 18.6987 305.364C19.6292 305.946 20.6898 306.297 21.6477 306.844C26.0258 309.364 30.4143 311.835 34.7378 314.423C36.7756 315.644 38.68 317.067 41.0057 318.66C43.5529 311.087 44.7034 303.927 42.2818 296.408C41.1674 295.846 40.0022 295.243 38.8402 294.671C37.4643 293.983 36.0643 293.358 34.7397 292.571C33.5985 291.904 32.5497 291.087 31.5178 290.284C30.3163 289.344 29.2585 288.156 27.9782 287.349C27.0477 286.767 26.8261 284.854 24.8836 285.667C26.8626 292.242 31.6269 297.339 34.3369 304.083C31.199 303.15 29.7726 301.273 28.5884 299.2C25.8888 294.424 23.2914 289.589 20.5918 284.812C19.9625 283.718 19.0876 282.789 18.3117 281.773C18.6671 281.331 19.1587 280.86 18.0321 280.904C18.1877 281.197 18.3432 281.49 18.4955 281.753ZM70.5169 250.935L70.0239 250.818L70.4971 250.751C72.1941 252.118 73.8501 253.536 75.588 254.852C78.8839 257.395 82.2482 259.853 85.5167 262.43C86.2125 262.991 86.5971 263.972 87.9821 266.039C78.8529 260.56 72.0235 254.275 62.0694 250.202C64.9901 253.003 66.8662 254.738 68.6433 256.561C69.3556 257.275 70.0876 258.172 68.7763 259.522C66.9436 258.046 65.1278 256.583 63.1933 255.025C62.9633 255.623 62.7719 255.861 62.836 256.024C63.7553 258.947 64.7188 261.85 65.6347 264.742C67.0357 269.117 70.0389 271.676 74.697 271.902C78.2017 272.067 81.712 271.565 85.2063 271.778C88.8571 272.004 92.4857 272.745 96.4825 273.306C96.6535 268.995 95.2775 265.284 94.0919 261.615C92.9535 258.096 91.2018 254.782 89.6 251.421C89.2417 250.685 88.4644 250.087 87.7993 249.523C85.8888 247.9 84.0438 248.037 81.7883 249.83C83.1898 251.042 84.347 252.003 85.4496 253.031C86.1043 253.642 86.5714 254.382 85.7584 255.322C83.4449 255.137 82.0354 253.274 80.2253 252.152C77.1449 250.314 74.0564 248.834 70.5169 250.935ZM69.5144 102.501C68.8592 102.03 68.3289 101.854 68.4373 103.005C68.812 102.887 69.1561 102.772 69.5309 102.655C70.928 103.109 72.2974 103.736 73.7327 103.969C76.5082 104.414 79.3256 104.529 82.0977 104.943C82.7746 105.04 83.3747 105.72 84.3764 106.387C83.1975 106.808 82.604 107.197 81.9847 107.202C80.4871 107.255 78.9594 107.172 77.4623 107.085C72.7636 106.77 68.0584 106.393 63.3565 106.047C63.2372 106.091 63.1316 106.118 63.0124 106.162C63.125 106.057 63.2207 105.938 63.3334 105.833C67.2407 110.743 72.3226 113.465 78.6013 113.487C83.175 113.505 87.7968 113.395 92.3286 112.736C97.7319 111.968 103.052 110.574 108.396 109.394C109.38 109.179 110.29 108.709 111.452 108.274C104.86 100.166 97.9544 93.3166 87.2849 91.5214C85.6417 93.3875 82.6966 93.8133 81.3603 96.5142C84.4681 98.3181 88.5907 96.8822 90.9142 100.181C89.0249 101.345 87.3223 100.645 85.6112 100.442C82.5803 100.071 79.5357 99.7173 76.4765 99.6594C73.8189 99.5892 71.2678 100.22 69.5144 102.501ZM66.3274 142.549C66.1916 142.439 66.0832 142.296 65.9371 142.234C65.8555 142.197 65.6952 142.291 65.576 142.335C65.8244 142.34 66.0728 142.344 66.3212 142.348C72.1248 145.008 78.1895 146.928 84.5936 147.106C87.6255 147.198 90.7474 146.83 93.7373 146.245C98.0791 145.405 106.365 141.475 111.811 138.083C110.433 135.21 109.091 132.255 107.573 129.381C102.866 120.497 95.4468 116.507 85.4428 117.151C83.9179 117.238 82.3832 117.232 80.0961 117.293C82.4963 120.01 85.2515 120.41 87.3807 121.762C89.6085 123.165 92.6705 123.393 93.9574 126.276C92.0715 127.471 90.7893 126.214 89.3714 125.856C88.7832 125.718 88.1261 125.804 87.3978 125.805C86.6371 127.374 85.931 128.876 85.0981 130.64C87.8462 131.118 90.2408 131.48 92.5873 131.972C94.8386 132.442 97.3472 132.28 99.1653 134.053C99.0041 134.426 98.9622 134.756 98.8566 134.783C93.1422 135.972 87.711 132.884 81.8891 133.651C80.0988 134.727 78.2166 135.813 76.3783 137.018C75.7712 137.425 75.3639 138.104 74.4896 139.051C77.5238 139.452 79.9292 139.627 82.2861 140.07C84.5001 140.483 87.112 139.985 88.874 142.243C86.8707 143.931 84.8994 143.183 82.9908 143.017C78.3912 142.613 73.8259 142.098 69.2263 141.694C68.2124 141.633 66.9953 141.268 66.3274 142.549ZM18.8193 258.286C17.7512 260.168 18.6874 262.097 18.6163 264.026C18.5079 266.905 19.726 269.005 21.9796 270.793C24.6066 272.881 27.3307 274.432 30.694 275.154C36.4547 276.409 42.1545 277.531 48.3017 277.194C48.3535 275.949 48.4346 275.118 48.4034 274.254C48.1601 267.678 47.7909 261.085 47.6564 254.513C47.3936 241.57 44.6885 229.262 38.881 217.645C36.7512 213.411 34.8397 209.046 32.0246 205.211C31.5165 205.529 31.2337 205.637 31.2162 205.763C30.5366 210.532 29.9046 215.311 29.3569 219.291C32.1292 225.749 34.679 231.58 37.0925 237.442C37.8454 239.251 38.3493 241.196 38.758 243.12C38.9522 244.06 39.2851 245.28 37.2874 246.301C34.5604 239.543 32.8114 232.371 28.4072 225.437C26.9583 230.258 26.3188 234.248 26.2081 237.824C28.3166 241.285 30.1852 244.245 31.9105 247.314C32.215 247.839 31.9058 248.709 31.8422 250.421C29.4928 247.745 27.835 245.878 25.8382 243.598C24.3384 248.378 26.1863 253.448 22.4616 256.995C24.5894 261.787 28.9516 265.021 31.722 270.022C30.4563 269.926 29.6866 270.118 29.3269 269.8C27.9693 268.706 26.6801 267.528 25.5172 266.227C23.1777 263.643 20.9372 260.971 18.6388 258.336C18.6223 258.183 18.6058 258.03 18.5586 257.88C18.6501 258.01 18.7278 258.156 18.8193 258.286ZM-15.0583 169.943C-16.8141 171.914 -15.9029 174.187 -15.4842 176.203C-13.963 183.277 -12.3941 190.36 -10.4231 197.292C-8.27067 204.902 -5.14723 212.175 -1.65561 219.269C-0.922127 220.755 0.100799 222.194 -0.325273 224.425C-2.94188 223.297 -3.85405 221.303 -4.82088 219.377C-11.9469 205.159 -17.4241 190.422 -19.2322 174.499C-19.3943 173.138 -19.2431 171.665 -20.0689 170.328C-22.1462 171.76 -21.9926 173.619 -21.7804 175.301C-21.3429 178.787 -20.8135 182.263 -20.0422 185.683C-19.1772 189.541 -17.951 193.299 -17.011 197.134C-16.7357 198.251 -15.9848 199.612 -17.5606 200.665C-17.998 200.2 -18.5514 199.811 -18.7947 199.279C-19.5074 197.697 -20.1792 196.065 -20.7147 194.403C-21.8932 190.655 -22.9661 186.881 -24.0866 183.096C-24.1489 182.375 -23.8868 183.369 -23.8585 183.056C-24.3779 183.701 -25.1967 184.301 -25.3489 185.046C-25.7849 187.185 -26.0917 189.372 -26.1977 191.553C-26.8885 205.714 -20.8287 217.227 -11.3601 227.009C-1.96257 236.705 9.61921 243.516 21.6978 250.336C21.941 248.853 22.1385 247.809 22.261 246.788C23.2224 239.168 24.1363 231.538 25.159 223.912C25.6826 219.997 26.5668 216.12 27.1074 212.218C28.2734 203.476 26.8925 195.117 22.8692 187.259C21.6723 184.924 20.3426 182.65 18.9821 180.379C15.7027 174.967 11.1901 170.912 5.48883 168.195C5.08108 168.006 4.46075 168.29 3.41902 168.402C8.22575 175.044 11.8616 181.75 14.8121 188.856C20.2605 202.03 21.2966 205.607 20.7278 210.829C20.1678 210.378 19.4711 210.097 19.2788 209.606C18.624 207.987 18.1022 206.308 17.5803 204.628C14.914 195.989 11.3889 187.721 7.06298 179.788C4.418 174.943 1.21022 170.484 -2.72441 166.615C-5.58381 163.808 -8.94612 162.807 -13.2412 163.936C-12.2343 167.097 -11.4037 170.061 -10.3652 172.94C-6.12025 184.725 -1.35395 196.315 4.34283 207.48C5.81357 210.343 7.57372 213.16 7.727 217.173C4.91053 215.772 4.07427 213.475 3.00562 211.467C-2.90846 200.156 -8.00802 188.493 -12.368 176.503C-13.1807 174.281 -14.2795 172.137 -15.2421 169.963C-15.1837 169.786 -15.1116 169.592 -15.1007 169.405C-15.1106 169.313 -15.2463 169.204 -15.3175 169.119C-15.2572 169.391 -15.1662 169.66 -15.0583 169.943ZM-25.9289 131.751C-26.4923 130.262 -26.8189 129.243 -27.2649 128.268C-30.8861 120.259 -34.3745 112.189 -38.173 104.26C-40.6332 99.1165 -43.5058 94.1724 -46.1739 89.1132C-46.9517 87.6472 -48.5026 86.342 -47.5806 84.3985C-47.1144 83.403 -45.434 84.6167 -43.5112 87.6486C-40.5423 92.3344 -36.9763 96.522 -32.4643 99.7089C-28.3392 102.612 -24.0228 105.277 -19.6343 107.749C-16.6792 109.43 -14.1366 111.31 -12.6088 114.416C-11.3818 116.887 -9.33457 118.34 -6.8886 119.611C-1.99333 122.183 3.21114 123.885 8.44294 125.553C10.673 126.258 13.1736 126.454 15.5338 128.943C7.51533 129.171 1.16446 125.314 -6.61323 123.75C-1.56093 129.219 3.37724 133.197 8.88624 136.431C13.288 139.026 18.0715 140.416 23.3504 140.22C29.3679 139.975 34.3083 137.211 39.0663 134.048C44.7213 130.293 50.241 126.289 55.7842 122.36C56.0435 122.177 56.0962 121.66 56.2815 121.222C51.9184 117.26 47.6373 113.195 43.1582 109.308C40.0127 106.578 36.8469 103.804 33.3389 101.594C23.7591 95.528 13.576 94.7962 3.08661 99.134C1.27704 99.8868 -0.482104 100.82 -2.22757 101.737C-2.52077 101.892 -2.63154 102.446 -3.00485 103.153C-1.35741 103.053 0.0859469 102.929 1.53589 102.865C9.94941 102.564 18.1881 103.66 26.259 106.076C28.054 106.626 29.89 107.126 31.0482 109.822C28.4976 109.306 26.5518 109.082 24.7228 108.504C17.2982 106.189 9.64025 105.448 1.93143 105.674C-1.32905 105.762 -4.82144 105.999 -7.75902 107.214C-11.2009 108.639 -14.106 108.285 -17.2529 106.981C-20.3183 105.715 -23.1513 104.161 -25.7919 102.09C-34.1552 95.5207 -41.3339 87.8635 -47.2734 79.0499C-48.0116 77.9516 -48.7328 76.867 -49.5836 75.8738C-50.5226 74.7817 -51.142 74.7864 -54.204 75.5656C-54.0598 76.1855 -54.0178 76.8629 -53.7713 77.4252C-46.5731 93.4644 -39.3169 109.466 -32.1493 125.509C-30.9199 128.29 -29.041 130.195 -25.9289 131.751ZM-15.2727 235.861C-20.7823 248.015 -20.3341 245.27 -17.0545 255.719C-15.8897 259.483 -14.2752 263.106 -12.9298 266.82C-12.6668 267.535 -12.4183 268.547 -13.9644 268.868C-18.0494 264.179 -18.8995 257.87 -21.6877 252.126C-24.1209 254.14 -25.6939 256.37 -26.4834 258.393C-26.6087 261.258 -24.5045 262.953 -25.0498 265.227C-27.5353 265.604 -27.2662 262.491 -29.2842 262.46C-30.7285 262.864 -31.5316 263.895 -31.0159 265.374C-30.2843 267.418 -29.3552 269.426 -28.3271 271.345C-26.4094 274.905 -23.3554 277.505 -20.1882 279.86C-10.7851 286.875 -2.5769 295.026 4.37464 304.459C4.95728 305.264 5.47061 306.433 7.37117 305.949C8.2427 303.825 9.36687 301.457 10.1851 298.982C13.5071 288.675 15.3735 278.091 14.8859 267.233C14.6963 262.883 13.7341 258.555 13.0374 254.244C12.2807 249.521 9.38828 246.408 5.22649 244.315C4.29221 243.842 3.36548 243.151 2.11638 244.216C2.86827 247.312 3.67442 250.479 4.39191 253.688C5.89385 260.438 5.87685 260.424 4.20781 263.92C3.61147 262.125 3.06139 260.758 2.70877 259.355C1.43879 254.471 0.410613 249.529 -1.00927 244.692C-2.7926 238.639 -4.804 236.655 -11.9529 233.302C-11.6577 236.618 -10.6499 239.5 -9.8702 242.423C-9.08389 245.407 -8.05904 248.303 -7.32033 251.276C-6.6085 254.144 -4.59238 256.747 -5.45821 260.219C-6.17801 259.723 -6.88837 259.459 -7.17263 258.978C-11.3251 252.08 -12.326 244.082 -15.2727 235.861ZM39.2134 201.74C44.6456 205.556 49.6069 208.741 54.2297 212.381C58.7813 215.936 64.7447 217.633 68.5823 223.047C67.4246 223.234 66.6883 223.592 66.2636 223.39C63.7224 222.098 61.1642 220.793 58.7805 219.237C53.2625 215.631 47.8506 211.859 42.3463 208.237C41.1612 207.45 40.077 206.017 38.0695 206.946C40.071 211.86 42.2777 216.52 46.513 220.016C50.9181 223.648 55.1421 227.47 59.4242 231.255C60.3132 232.027 61.5906 232.664 61.0533 234.582C59.9673 234.715 59.0292 234.351 58.1091 233.721C57.2196 233.089 56.2994 232.46 55.4236 231.81C54.3781 231.024 53.3156 230.224 52.2668 229.407C51.4047 228.741 50.6076 227.959 49.677 227.377C48.896 226.888 48.3421 225.63 46.6819 226.475C47.8147 230.661 48.9475 234.848 49.9662 238.55C62.4309 247.947 80.6792 249.748 96.264 242.071C94.2469 237.732 92.0799 233.441 90.2094 229.024C87.9642 223.718 84.8459 218.939 81.6118 214.236C77.6427 208.464 72.2557 204.349 65.8841 201.595C62.0476 199.931 58.0447 199.169 52.9633 200.337C55.958 202.385 58.2498 203.951 60.545 205.548C65.3356 208.876 65.3356 208.876 66.887 212.056C63.8353 210.773 61.4855 209.244 59.0946 207.766C56.1061 205.918 53.0662 204.169 50.0229 202.389C46.8407 200.469 43.4746 200.584 39.2134 201.74ZM-27.5706 226.43C-28.5091 224.191 -29.2473 223.093 -29.4203 221.918C-31.4772 208.146 -30.4306 194.411 -28.1363 180.03C-29.4212 181.625 -30.4554 182.527 -31.0003 183.655C-35.9075 193.776 -39.8663 204.214 -41.6531 215.394C-41.9938 217.554 -42.5556 219.676 -43.0699 221.808C-43.2527 222.556 -43.331 223.556 -44.8478 223.286C-45.4376 220.544 -45.2274 217.747 -44.8197 214.914C-43.5194 205.692 -40.5193 197.001 -36.8631 188.502C-36.2079 186.959 -35.2468 185.523 -35.8625 183.404C-40.3569 188.15 -43.8586 193.192 -45.825 199.107C-49.5585 210.341 -50.8051 221.789 -48.6087 233.547C-46.4962 244.958 -43.1851 256.131 -41.9522 268.009C-37.6458 266.553 -35.3875 262.916 -32.828 259.773C-24.5311 249.612 -20.8254 237.544 -18.6909 225.133C-21.2929 220.686 -23.7088 216.53 -26.1417 212.36C-26.2534 212.186 -26.4433 212.005 -26.6371 211.933C-26.8308 211.86 -27.0557 211.931 -27.3347 211.93C-28.1968 216.3 -25.8705 220.777 -27.5706 226.43ZM1.76862 96.3934C5.52261 95.2762 7.93365 94.784 9.82663 92.5035C16.4144 84.6031 24.8961 79.1798 34.0586 74.7525C35.1187 74.2354 36.3782 74.1307 37.7202 73.7847C37.369 75.9921 35.8904 76.5078 34.5809 77.2998C30.1067 80.0753 25.5783 82.7792 21.2837 85.7834C18.4866 87.7274 15.6179 89.7255 13.3982 93.0021C16.6507 93.2717 19.6156 93.0298 22.2605 93.8452C26.9418 95.2936 30.89 94.109 34.6081 91.5079C37.4768 89.5097 40.3898 87.4912 42.889 85.0834C48.4369 79.7591 53.7068 74.1548 60.4614 70.2503C60.7377 70.0811 60.855 69.588 61.0195 69.2449C56.3024 66.3126 47.0781 63.8347 41.0912 64.0767C33.7906 64.3517 26.7446 65.839 19.946 68.6169C8.14483 73.437 1.17576 82.4012 -2.43422 94.3511C-0.679802 92.7983 0.816767 91.0099 2.31333 89.2215C7.14147 83.4013 12.8983 78.721 19.6478 75.3439C20.7352 74.7928 22.0423 74.6985 24.1541 74.1611C20.7608 79.3463 15.2783 80.3863 11.9038 84.0197C8.56326 87.6804 4.20455 90.521 1.76862 96.3934ZM61.3956 87.9871C61.3938 88.5452 61.4913 88.8756 61.3923 88.9638C55.7449 93.5084 48.1596 92.4348 41.4817 95.7576C44.3788 97.4757 47.2504 97.6623 49.9434 98.3486C65.7444 102.319 78.2752 96.0717 89.3333 85.5047C90.7535 84.1584 91.9367 82.4813 91.4784 80.0975C85.227 77.0206 78.5811 74.8849 71.7221 73.3611C66.7845 72.2657 62.1415 72.6109 57.9855 75.8946C56.8014 76.8435 55.3156 77.4374 54.0604 78.301C53.2963 78.8327 52.2023 79.3225 52.5393 80.2935C56.6105 79.9635 60.5559 79.616 64.4942 79.3468C65.3861 79.2817 66.219 79.5329 66.2171 81.0983C64.3613 81.4222 62.441 81.7221 60.5169 82.1308C57.2885 82.804 53.9723 83.2386 50.899 84.3445C47.2704 85.6187 43.9525 87.6189 41.656 91.4771C48.721 91.46 54.7564 87.9274 61.3956 87.9871ZM42.3301 136.006C54.8946 141.006 77.676 137.7 83.1607 126.897C82.9509 126.532 82.8095 126.082 82.504 125.836C75.8986 120.767 69.4812 115.43 62.592 110.748C57.543 107.324 51.9949 104.59 46.5114 101.88C44.089 100.684 41.3908 99.5178 37.9918 100.333C42.6943 104.569 47.1361 108.399 51.3663 112.422C54.4025 115.287 57.4184 118.108 61.1757 120.044C63.7541 121.393 63.6283 123.39 61.0061 124.944C58.7488 126.287 56.3561 127.382 54.0784 128.681C50.3278 130.836 46.3876 132.671 42.3301 136.006ZM60.9077 279.989C56.5964 275.789 55.8826 269.45 51.4525 264.147C51.5022 272.665 51.1507 280.048 55.7435 286.574C56.3666 287.468 56.444 288.761 56.9724 290.502C55.7327 289.783 55.0289 289.58 54.6834 289.106C53.5078 287.543 52.4005 285.896 51.3545 284.242C48.66 279.945 45.8558 278.945 40.4977 280.421C41.3378 283.616 45.7908 284.097 46.5418 288.48C43.0381 287.028 40.8023 284.975 38.6175 282.964C35.6251 280.218 32.2689 278.409 28.2246 277.838C27.2007 277.685 26.1613 277.099 25.5778 278.588C35.2435 289.48 47.1836 296.02 61.6943 298.083C62.0243 297.118 62.3495 296.54 62.3924 295.931C62.849 290.675 63.4621 285.433 63.6397 280.175C64.0444 268.106 60.4566 257.241 53.1312 247.647C52.6603 247.016 51.8722 246.605 50.9049 245.826C50.929 247.776 51.0157 249.301 50.9154 250.815C50.6642 254.67 51.7659 257.992 53.7556 261.357C56.4425 265.872 58.5157 270.732 60.7355 275.514C61.354 276.795 62.2817 278.214 60.9077 279.989ZM61.6444 171.01C63.1764 171.853 63.8519 172.369 64.6268 172.657C68.889 174.244 73.2402 173.636 77.6216 173.164C83.0584 172.563 88.5117 172.115 93.9382 171.561C94.7042 171.479 95.4201 171.076 96.1526 170.827C90.9701 156.523 83.6472 150.261 70.0702 148.81C71.9995 149.888 73.3415 150.549 74.6048 151.343C75.3044 151.795 76.051 152.396 75.2431 153.816C69.7252 153.232 65.2052 149.395 59.3498 147.981C61.3588 152.677 63.6196 156.401 68.5455 157.962C71.4487 158.874 74.2312 160.248 76.9935 161.577C78.2846 162.198 79.3565 163.229 80.616 164.132C80.1178 164.542 79.9708 164.759 79.7733 164.796C76.5345 165.517 74.1516 162.674 71.0684 162.681C68.9845 167.074 68.9845 167.074 61.6444 171.01ZM92.6758 150.202C93.6846 151.798 95.2802 151.937 96.65 152.424C98.9206 153.218 101.202 153.964 103.486 154.741C104.275 155.012 105.193 155.193 104.636 156.787C103.279 156.7 101.757 156.818 100.359 156.504C98.2339 156.051 96.1674 155.281 94.0698 154.655C93.2062 154.407 92.4068 154.323 92.0325 155.308C93.4764 158.066 95.1046 160.665 96.259 163.47C97.6431 166.823 100.089 168.233 103.455 167.979C106.699 167.738 110.072 167.545 113.142 166.548C118.099 164.945 122.83 162.684 127.907 160.618C124.811 155.326 121.276 150.996 116.67 147.509C114.644 145.961 112.352 145.402 109.95 145.258C107.891 145.139 105.748 144.951 103.244 146.739C105.779 147.97 107.829 148.586 109.803 149.365C111.958 150.233 114.228 151.027 115.367 153.399C113.789 154.282 112.631 153.461 111.428 153.08C107.688 151.886 103.969 150.598 100.206 149.469C97.595 148.681 95.0737 148.58 92.6758 150.202ZM107.173 121.923C107.617 124.464 108.703 126.206 110.878 127.258C112.658 128.105 114.425 128.968 116.127 129.947C116.952 130.416 117.314 131.183 116.361 131.983C115.069 132.649 113.571 130.827 111.974 132.254C113.037 133.922 114.346 135.284 114.732 136.854C115.074 138.305 114.419 139.988 114.15 141.814C120.838 142.752 126.715 140.771 132.387 138.037C132.304 137.271 132.388 136.75 132.185 136.447C128.808 131.572 125.503 126.644 121.956 121.912C120.398 119.817 118.502 117.898 116.479 116.241C111.225 111.925 107.823 111.842 101.154 115.536C104.806 117.219 108.484 118.698 111.925 120.575C115.593 122.551 119.064 124.842 122.548 127.117C123.431 127.688 123.965 128.762 122.892 130.025C117.83 127.346 113.115 123.716 107.173 121.923ZM72.3388 274.899C73.4702 277.489 74.2744 279.2 74.9593 280.955C75.6678 282.785 76.3627 284.632 76.8463 286.533C77.0278 287.21 77.1226 288.378 75.5402 288.362C73.7838 286.444 73.2653 283.788 72.0274 281.504C70.7287 279.086 69.9485 276.303 67.1787 274.184C67.1071 278.268 67.0342 281.763 66.9678 285.319C72.7931 289.619 75.9745 295.847 79.5128 302.223C82.6124 299.348 83.3524 295.859 84.2994 292.564C85.9316 286.856 86.4208 281.038 85.6113 274.818C83.2525 274.932 81.1728 275.048 79.0012 275.173C79.4952 277.026 79.8615 278.413 80.3725 280.279C79.2266 280 78.454 280.021 78.1217 279.669C77.1148 278.523 76.3606 277.132 75.3127 276.036C74.8857 275.524 73.95 275.47 72.3388 274.899ZM-20.3129 134.54C-19.5363 128.226 -18.7233 122.25 -18.1007 116.232C-17.8227 113.49 -19.5969 111.837 -21.7601 110.458C-25.4685 108.114 -29.0981 105.638 -32.7927 103.278C-33.5738 102.788 -34.0938 101.558 -35.3787 102.146C-33.9272 106.701 -23.0244 130.229 -20.3129 134.54ZM62.8507 303.351C68.0148 311.009 70.8275 313.526 76.2214 315.549C76.3349 309.121 74.9701 302.062 72.3417 297.37C70.9176 294.796 69.7193 291.872 66.5149 290.466C65.4704 293.43 65.6991 296.272 65.7203 299.06C65.7439 301.149 64.59 302.234 62.8507 303.351ZM-52.4869 71.9403C-52.3158 71.6584 -52.1584 71.3935 -51.9873 71.1116C-52.6321 70.5921 -53.2223 70.0048 -53.9185 69.5839C-54.7642 69.0706 -56.0383 69.4713 -55.9214 70.1251C-55.8177 70.6563 -55.4014 71.3554 -54.9461 71.5543C-54.1815 71.8904 -53.3033 71.8422 -52.4869 71.9403ZM-5.34529 99.8407C-4.2225 98.8984 -3.75866 98.6005 -3.39996 98.1899C-3.27693 98.0372 -3.47635 97.6248 -3.50934 97.3184C-3.68988 97.3688 -3.95196 97.3815 -4.04765 97.5003C-4.36581 97.9995 -4.63307 98.5397 -5.34529 99.8407ZM67.7321 147.822C67.4338 147.497 67.2777 147.344 67.1354 147.173C67.1147 147.268 67.0666 147.397 67.1175 147.438C67.2396 147.565 67.3857 147.626 67.7321 147.822Z" fill="#262626"/>
<path d="M-3.84571 171.168C1.28487 178.659 5.20313 186.404 8.73953 194.345C9.59747 196.267 10.7651 198.187 10.3173 200.792C9.63809 200.385 8.9989 200.206 8.72125 199.787C7.77329 198.323 6.92759 196.803 6.11256 195.279C2.53469 188.536 -1.02619 181.806 -4.57341 175.059C-5.15841 173.944 -6.162 172.828 -3.84571 171.168Z" fill="#262626"/>
<path d="M11.1408 226.135C12.25 226.217 13.081 226.019 13.3318 226.333C14.0266 227.172 14.2543 228.279 13.387 229.147C13.1207 229.408 11.9946 229.313 11.9102 229.105C11.5284 228.294 11.4124 227.361 11.1408 226.135Z" fill="#262626"/>
<path d="M29.0332 118.02C23.0025 119.15 8.21265 118.093 -2.09773 115.748C-4.52908 115.188 -7.35401 115.291 -9.15329 112.974C-9.24474 112.845 -9.16554 112.573 -9.15801 112.355C-8.81014 112.131 -8.4274 111.656 -8.14175 111.718C3.65818 114.368 15.6782 115.321 27.6492 116.681C27.9825 116.754 28.27 117.265 29.0332 118.02Z" fill="#262626"/>
<path d="M40.4212 118.715C37.963 120.064 35.9611 119.319 33.9318 118.608C33.8512 117.284 34.4158 116.34 35.705 116.511C37.3039 116.68 39.2347 116.332 40.4212 118.715Z" fill="#262626"/>
<path d="M78.9897 224.855C75.7995 225.307 74.1987 223.682 72.9363 221.602C72.8213 221.397 73.4331 220.603 73.863 220.277C74.1359 220.078 74.7279 220.107 75.0848 220.254C76.9302 220.985 78.4546 222.046 78.9897 224.855Z" fill="#262626"/>
<path d="M36.6601 255.729C37.502 257.358 38.3614 258.862 39.0129 260.45C39.2019 260.91 39.0251 261.859 38.6565 262.178C37.8444 262.838 37.0256 262.431 36.5146 261.572C35.7396 260.276 34.9034 258.987 34.275 257.613C34.0893 257.184 34.3782 256.269 34.7435 255.92C35.1291 255.615 35.8909 255.781 36.6601 255.729Z" fill="#262626"/>
<path d="M49.1324 69.2391C49.3073 69.8556 49.4596 70.1182 49.3912 70.203C48.9882 70.6338 48.6017 71.2179 48.094 71.3966C47.5864 71.5752 46.9373 71.3042 46.3523 71.1967C46.3353 71.183 46.3099 70.6589 46.4258 70.5844C47.2748 70.121 48.1746 69.6987 49.1324 69.2391Z" fill="#262626"/>
<path d="M77.6103 85.2951C77.8789 83.329 78.9461 82.7337 80.3419 82.5988C80.6789 82.5625 81.3044 82.7586 81.3751 82.9834C81.4864 83.2969 81.3308 84.011 81.1093 84.1123C80.0426 84.5682 78.8981 84.8774 77.6103 85.2951Z" fill="#262626"/>
<path d="M105.794 136.175C105.783 136.501 105.904 136.907 105.75 137.063C105.556 137.27 105.151 137.251 104.837 137.362C104.801 137.165 104.706 136.865 104.792 136.794C105.075 136.546 105.429 136.384 105.794 136.175Z" fill="#262626"/>
<path d="M97.49 106.989C97.7563 105.72 97.7237 105.274 97.9424 105.003C98.5439 104.256 99.5644 104.379 99.7454 105.196C99.8058 105.469 99.5762 105.927 99.3306 106.093C98.8531 106.408 98.3012 106.607 97.49 106.989Z" fill="#262626"/>
<path d="M25.467 299.428C25.6334 300.541 25.8955 301.536 25.8786 302.53C25.8847 302.731 24.7398 303.179 24.2604 303.045C22.999 302.7 22.8429 301.539 22.8636 300.437C22.8717 300.08 23.1629 299.475 23.4184 299.401C23.9464 299.266 24.5653 299.401 25.467 299.428Z" fill="#262626"/>
<path d="M85.8695 165.425C86.7066 165.428 87.5032 165.342 88.2787 165.491C88.5473 165.54 88.8995 166.075 88.9188 166.399C88.9381 166.722 88.5549 167.337 88.3847 167.34C87.6056 167.3 86.8132 167.137 86.0722 166.876C85.8954 166.817 85.9487 166.161 85.8695 165.425Z" fill="#262626"/>
<path d="M108.834 157.202C110.755 155.756 112.474 156.609 114.18 157.339C114.421 158.429 113.95 159.084 112.956 159.067C111.387 159.035 109.487 159.519 108.834 157.202Z" fill="#262626"/>
<path d="M120.974 133.656C121.512 133.614 122.07 133.476 122.594 133.59C122.832 133.642 123.129 134.245 123.081 134.514C122.956 135.225 121.549 135.547 121.082 134.946C120.889 134.735 121.023 134.255 120.974 133.656Z" fill="#262626"/>
</svg>
