<svg width="242" height="420" viewBox="0 0 242 420" fill="none" xmlns="http://www.w3.org/2000/svg">
<path d="M122.744 42.1738C113.78 37.1881 104.666 36.648 95.2825 38.1172C92.6394 38.5394 90.3023 39.7614 88.1735 41.3442C86.7644 42.3841 85.3966 43.4711 84.3316 44.2982C79.9563 44.2204 75.9517 44.0984 71.9492 44.1025C66.8325 44.1131 61.8598 45.0595 57.0135 46.7396C53.5331 47.9423 50.045 49.1071 46.5259 50.1199C44.6205 50.6681 43.4357 51.8758 42.9189 53.6034C42.2643 55.7786 41.8608 58.0211 41.512 60.2603C40.8177 64.7934 39.6135 69.1539 37.3802 73.2029C34.1231 79.1307 29.444 82.8653 22.4823 83.3326C18.6436 83.5959 14.8237 83.9899 10.9838 84.3247C10.6343 84.3567 10.2738 84.2959 9.93657 84.3491C3.33512 85.1462 -3.26514 85.8718 -9.84776 86.7995C-20.83 88.3427 -28.7934 94.6244 -34.8741 103.456C-38.8645 109.241 -41.6634 115.669 -44.383 122.135C-47.0455 128.456 -48.8799 135.034 -50.731 141.608C-54.4423 154.789 -57.5586 168.093 -60.1348 181.524C-62.7276 194.951 -64.4565 208.502 -64.771 222.198C-64.852 225.514 -64.7064 228.854 -64.5183 232.17C-63.9747 241.593 -60.2566 249.749 -54.6006 257.168C-51.4125 261.341 -48.3228 265.614 -45.4833 270.018C-43.2133 273.533 -40.9959 277.177 -39.4252 281.025C-35.9577 289.581 -34.7683 298.602 -35.4615 307.818C-35.6339 310.069 -36.2852 312.299 -36.8896 314.488C-37.919 318.195 -39.07 321.888 -40.25 325.555C-40.9818 327.818 -40.9341 329.984 -40.0637 332.227C-37.9099 337.648 -35.1817 342.668 -31.2312 347.01C-25.6875 353.107 -19.9259 358.993 -13.4532 364.101C-7.37866 368.887 -0.674452 372.728 6.33414 375.97C14.2901 379.627 22.246 383.284 30.3901 386.507C42.46 391.284 54.793 395.414 67.5938 397.732C75.1595 399.095 82.8565 399.901 90.5871 399.712C104.273 399.396 117.882 398.431 131.103 394.491C137.872 392.465 144.267 389.692 149.805 385.165C153.232 382.351 156.121 379.07 158.325 375.264C159.265 373.632 159.893 371.755 160.32 369.896C162.088 362.026 163.667 354.123 165.414 346.265C167.758 335.84 170.292 325.448 172.586 315.01C174.584 305.945 176.31 296.826 178.308 287.761C179.551 282.119 181.049 276.528 182.43 270.905C185.462 258.654 188.472 246.416 191.503 234.165C192.012 232.13 192.627 230.106 193.136 228.071C193.573 226.304 194.27 224.912 196.071 224.013C198.247 222.927 199.133 220.689 199.73 218.462C201.621 211.54 203.533 204.606 205.239 197.634C206.408 192.869 207.288 188.045 208.268 183.248C210.335 173.125 212.339 162.968 214.489 152.868C216.023 145.671 217.807 138.541 219.375 131.353C221.53 121.433 223.979 111.557 224.819 101.392C224.881 100.691 224.964 99.9779 224.913 99.3002C224.377 92.9301 222.729 86.8904 219.459 81.3488C216.929 77.0642 213.406 74.0031 208.448 73.0872C204.739 72.3984 202.159 70.3076 199.774 67.623C197.802 65.4078 195.745 63.2416 193.61 61.1625C185.403 53.2213 175.592 50.8617 164.54 53.068C163.856 53.2078 163.179 53.4571 162.488 53.559C160.474 53.8446 158.677 53.4528 157.206 51.9104C156.239 50.8977 155.247 49.914 154.238 48.9259C148.293 43.188 141.061 40.4429 132.959 39.7432C129.373 39.4643 125.999 40.3366 122.744 42.1738ZM210.369 158.6C211.335 160.151 210.57 161.668 210.225 163.155C206.655 178.689 203.064 194.234 199.443 209.754C198.687 212.979 197.78 216.163 195.936 219.563C195.907 218.532 195.789 218.034 195.882 217.556C196.867 212.94 197.824 208.298 198.91 203.708C200.046 198.934 201.416 194.223 202.564 189.471C204.885 179.937 207.106 170.376 209.406 160.854C209.605 160.046 210.126 159.307 210.496 158.527C209.693 156.571 210.673 154.788 211.107 152.966C211.863 149.742 212.787 146.562 213.644 143.364C214.101 141.657 214.559 139.949 215.017 138.241C214.756 141.958 213.798 145.469 212.868 149.006C212.049 152.196 211.209 155.398 210.369 158.6ZM132.707 224.906C133.57 225.568 133.244 226.45 133.197 227.298C132.989 230.616 132.66 233.919 132.706 237.233C132.742 239.575 133.955 240.672 136.144 241.276C138.366 241.89 140.386 241.516 141.912 239.772C143.177 238.334 144.413 236.799 145.341 235.146C148.328 229.756 150.737 224.049 151.634 217.955C152.575 211.497 154.482 205.315 156.093 199.036C156.813 196.214 157.326 193.229 158.966 190.726C161.265 190.517 163.411 189.872 165.831 190.484C165.266 192.863 164.828 194.899 164.285 196.924C161.142 208.786 157.653 220.537 154.23 232.306C148.202 252.995 142.873 273.888 137.276 294.71C136.823 296.401 136.382 298.113 136.117 299.837C135.99 300.646 136.215 301.55 136.445 302.365C136.683 303.218 138.091 303.452 138.628 302.788C138.95 302.39 139.327 301.989 139.507 301.517C140.452 299.061 141.532 296.64 142.221 294.133C144.631 285.341 146.919 276.534 149.228 267.714C151.354 259.581 153.312 251.403 155.571 243.306C159.731 228.451 164.171 213.689 168.297 198.825C171.166 188.522 173.9 178.184 176.295 167.772C178.645 157.528 180.501 147.188 182.562 136.884C182.658 136.39 182.777 135.811 182.629 135.359C182.489 134.945 182.035 134.428 181.634 134.321C181.211 134.225 180.459 134.419 180.248 134.739C179.707 135.617 179.249 136.589 179.002 137.581C176.277 148.819 173.603 160.071 170.934 171.306C169.758 176.231 168.515 181.137 166.711 186.396C164.549 185.96 162.473 187.682 160.154 186.29C161.431 180.854 162.604 175.606 163.933 170.381C164.621 167.677 165.75 165.072 166.388 162.355C167.625 157.07 168.938 151.769 169.709 146.413C170.35 142.01 171.731 137.93 173.263 133.818C174.998 129.151 177.741 125.544 182.445 123.593C186.297 122.005 188.493 118.969 189.551 115.018C190 113.344 190.532 111.692 191.076 109.864C199.715 108.626 208.312 109.153 216.865 107.838C216.939 108.701 217.123 109.217 217.002 109.669C215.357 116.478 213.675 123.294 211.98 130.089C211.826 130.73 211.404 131.298 210.916 132.316C210.177 130.521 209.672 129.058 208.997 127.693C207.623 124.92 204.973 123.959 202.241 123.173C199.789 122.48 197.777 123.359 196.005 125.019C195.449 125.552 195.234 126.086 195.833 126.731C196.018 126.709 196.195 126.721 196.355 126.656C196.838 126.462 197.325 126.252 197.795 126.037C200.652 124.685 202.735 125.082 204.709 127.423C206.094 129.086 206.859 131.05 206.966 133.196C207.044 134.58 206.957 135.974 206.933 137.403C207.781 137.72 208.534 137.994 209.545 138.372C209.392 139.211 209.327 140.055 209.107 140.875C208.128 144.596 207.132 148.313 206.099 152.037C200.586 171.607 196.036 191.4 191.816 211.299C189.034 224.496 185.59 237.551 182.501 250.683C179.396 263.811 176.258 276.931 173.291 290.078C170.012 304.594 166.933 319.165 163.704 333.695C162.002 341.385 160.195 349.066 158.405 356.75C158.174 357.747 157.737 358.707 157.392 359.727C151.32 362.298 145.342 364.788 139.014 366.304C132.539 367.835 126.044 369.306 119.516 370.5C113.14 371.662 106.679 372.067 100.183 372.138C93.4882 372.21 86.8931 371.376 80.3409 370.249C73.9985 369.141 67.7327 367.48 60.7969 365.909C61.5583 366.885 61.8321 367.604 62.3286 367.827C63.9445 368.493 65.6072 369.118 67.2993 369.5C73.4482 370.86 79.6555 372.003 85.7987 373.452C93.7255 375.342 101.717 375.653 109.794 375.108C112.589 374.924 115.371 374.718 118.166 374.534C129.795 373.792 141.07 371.556 151.814 366.953C153.232 366.346 154.646 365.756 156.285 365.064C156.401 365.903 156.678 366.479 156.5 366.808C155.976 367.691 155.426 368.674 154.609 369.245C149.274 372.947 143.764 376.369 137.821 378.993C128.604 383.055 118.878 385.204 108.862 386.019C107.119 386.162 105.366 386.141 103.631 386.322C102.982 386.4 102.353 386.805 101.751 387.111C101.628 387.167 101.523 387.426 101.559 387.561C101.642 387.853 101.756 388.296 101.97 388.371C102.605 388.613 103.323 388.877 103.98 388.838C107.638 388.58 111.35 388.588 114.923 387.841C121.437 386.5 127.861 384.758 134.288 383.071C141.294 381.234 147.765 378.177 153.721 374.031L153.952 374.039L153.605 373.928C153.889 375.547 152.838 376.522 151.879 377.557C146.186 383.603 139.074 387.242 131.308 389.773C119.358 393.658 106.976 394.934 94.5347 395.225C78.4594 395.619 62.7584 393.009 47.4442 388.152C34.246 383.969 21.4488 378.692 8.91355 372.839C3.19045 370.157 -2.35144 367.201 -7.59345 363.661C-16.963 357.311 -24.8815 349.429 -31.9996 340.703C-32.5559 340.034 -33.1625 339.351 -33.5278 338.571C-33.8407 337.931 -34.6167 337.077 -33.5946 336.544C-30.1959 339.195 -27.0397 342.014 -23.5423 344.297C-16.784 348.674 -9.8446 352.776 -2.92189 356.874C-1.49831 357.722 0.0143286 358.774 2.29815 358.219C1.62016 357.535 1.23908 356.949 0.693496 356.641C-8.35266 351.561 -16.5332 345.26 -24.3314 338.47C-28.0275 335.254 -31.6117 331.889 -35.0339 328.389C-37.1459 326.226 -36.2548 324.239 -32.9892 323.302C-30.5968 325.289 -28.0982 327.215 -25.7539 329.314C-17.4742 336.718 -8.19797 342.613 1.62966 347.723C11.9114 353.079 22.5616 357.53 33.5095 361.271C35.0061 361.78 36.5116 362.255 38.0587 362.508C38.541 362.583 39.1491 361.921 39.701 361.602C39.3444 361.058 39.113 360.314 38.6054 359.999C37.8814 359.554 36.9761 359.383 36.1391 359.158C31.8822 358.036 27.8013 356.458 23.8737 354.508C18.8537 352.015 13.864 349.476 8.87421 346.936C-5.13214 339.81 -17.5069 330.411 -28.789 319.547C-29.902 318.477 -30.9333 317.304 -32.1354 316.031C-31.6652 314.075 -31.3559 312.184 -30.7453 310.374C-29.274 305.888 -27.6398 301.463 -26.135 296.985C-22.3713 285.685 -18.6244 274.38 -14.9276 263.061C-11.7799 253.389 -8.69919 243.7 -5.62293 234.027C-2.06701 222.832 1.53464 211.668 4.99011 200.446C8.85915 187.881 12.5608 175.272 16.3964 162.699C18.1853 156.826 20.0869 151.001 21.9885 145.177C22.2899 144.253 22.8592 143.401 23.3852 142.375C28.5174 146.191 33.4132 149.817 38.338 153.469C38.163 154.122 38.0338 154.806 37.8042 155.462C35.8302 161.087 33.6934 166.652 31.8869 172.322C27.7212 185.525 23.7229 198.772 19.641 211.997C19.3832 212.826 19.0372 213.648 18.7459 214.467C16.7598 220.072 14.6564 225.645 12.8164 231.306C9.45575 241.638 6.40877 252.072 2.95218 262.361C0.725836 268.996 -1.88111 275.51 -4.57951 281.965C-5.78428 284.854 -7.56926 287.498 -9.29959 290.138C-10.2402 291.573 -11.4075 292.983 -13.2632 293.078C-14.6318 292.962 -15.3728 290.772 -17.2202 292.376C-16.377 293.984 -15.5259 295.629 -14.7562 297.11C-11.6202 298.129 -9.33486 297.234 -7.38636 295.119C-4.28971 291.732 -1.61697 288.052 0.227994 283.845C1.91955 280.01 3.3734 276.057 5.00248 272.187C9.14964 262.335 12.5949 252.223 15.6762 241.995C19.5232 229.245 23.2362 216.46 27.0206 203.675C28.117 199.986 29.2512 196.288 30.3643 192.603C33.0937 183.555 35.8443 174.495 38.557 165.443C39.3674 162.753 40.0941 160.041 40.9335 157.377C42.293 153.04 43.7072 148.7 45.1169 144.376C45.7511 142.411 45.8472 140.445 45.5526 138.464C44.195 138.441 43.6584 139.105 43.3247 139.948C42.3794 142.405 41.4844 144.874 40.5224 147.326C40.1753 148.22 39.7276 149.087 39.2217 150.171C36.4152 148.056 33.882 146.193 31.4047 144.255C28.9563 142.343 26.0664 140.94 24.1224 138.284C24.3234 137.333 24.4596 136.491 24.6838 135.653C29.5599 118.46 34.1558 101.174 39.7807 84.1995C40.6973 81.4486 42.2413 79.6373 44.7781 78.5406C46.2224 77.9049 47.7559 77.4724 49.1957 76.8534C49.6995 76.6474 50.6005 76.5659 50.2936 75.5685C47.6834 74.5282 45.412 76.8444 42.551 76.4725C43.4351 71.9006 44.5142 67.7397 46.609 63.6716C47.3184 64.2385 47.8963 64.6265 48.3802 65.0972C54.2304 70.7199 60.774 75.3622 67.907 79.2114C80.4311 85.9765 93.4938 91.4683 107.017 95.8454C112.018 97.4725 117.005 99.1498 121.997 100.81C122.821 101.085 123.797 101.257 124.38 101.826C126.73 104.106 128.939 106.51 131.195 108.873L131.03 108.685C132.712 109.172 134.407 109.608 136.071 110.162C140.737 111.699 145.347 113.311 149.645 115.755C152.931 117.622 154.816 120.227 155.726 123.862C156.223 125.825 156.154 127.691 155.904 129.562C154.676 139.299 152.745 148.92 150.591 158.498C148.872 166.184 146.152 173.656 145.142 181.513C144.971 182.885 144.465 184.239 143.939 185.533C143.71 186.118 143.076 186.612 142.207 185.769C142.288 185.199 142.413 184.532 142.504 183.857C142.607 183.005 142.832 182.097 142.673 181.283C142.557 180.713 141.909 179.983 141.369 179.856C140.862 179.739 140.064 180.171 139.645 180.597C139.179 181.064 138.91 181.799 138.714 182.465C136.26 190.886 133.727 199.269 131.457 207.74C129.416 215.358 127.76 223.078 125.752 230.705C118.628 257.828 111.432 284.951 104.27 312.082C103.817 313.773 103.515 315.504 103.305 317.224C103.194 318.11 103.6 318.936 104.685 319.173C104.796 319.095 105.007 319.044 105.038 318.927C105.744 316.963 106.387 314.964 107.155 313.034C111.747 301.256 115.05 289.06 118.513 276.943C123.119 260.754 127.107 244.4 131.412 228.13C131.722 226.975 132.345 225.922 132.822 224.811C132.722 224.515 132.584 224.227 132.522 223.924C132.506 223.848 132.685 223.716 132.783 223.617C132.784 224.084 132.748 224.486 132.707 224.906ZM55.357 55.734C55.2322 54.6598 56.3014 53.0802 57.2129 52.6246C60.9486 50.7367 64.3917 47.9988 68.6505 47.5071C73.3012 46.9589 78.0428 46.0044 82.6436 47.9191C84.2427 48.5808 85.7505 48.1774 87.1482 47.3138C88.032 46.7611 88.9659 46.2218 89.7717 45.5585C94.852 41.4649 100.807 40.3333 107.063 40.6277C110.532 40.8038 114.095 40.9688 117.34 42.5201C118.42 43.0428 119.624 43.4372 119.83 44.9458C120.029 46.345 121.149 46.5193 122.193 46.1711C123.512 45.7351 124.763 45.0835 126.039 44.4743C129.315 42.894 132.71 42.5474 136.261 43.3555C140.42 44.3084 144.344 45.7366 147.64 48.5037C150.189 50.6403 152.564 52.9632 154.989 55.228C156.641 56.7652 158.262 58.348 159.764 59.7733C163.236 58.604 166.385 57.5639 169.523 56.5026C174.905 54.697 179.813 55.8685 184.606 58.6062C190.486 61.976 194.61 67.2082 199.882 72.2452C197.497 72.306 195.818 72.4123 194.141 72.3757C192.035 72.3318 189.936 72.1284 187.843 72.1058C187.183 72.0905 186.51 72.3944 185.866 72.6527C185.743 72.7095 185.693 73.4318 185.818 73.5012C186.393 73.8346 187.017 74.2529 187.634 74.2927C191.821 74.5355 196.029 74.8375 200.229 74.8325C203.462 74.8196 206.462 75.6773 209.493 76.4892C211.083 76.9154 212.367 77.8157 213.38 79.0562C217.783 84.5242 222.009 94.1978 216.047 103.456C213.185 104.896 210.002 104.923 206.889 105.022C202.527 105.163 198.141 104.992 193.77 105.167C188.313 105.373 187.213 105.061 186.661 111.606C186.264 116.505 183.756 120.104 179.169 122.158C174.598 124.217 171.736 127.596 170.467 132.603C167.576 143.994 164.321 155.269 161.347 166.638C157.047 183.088 152.914 199.583 148.614 216.034C147.606 219.927 146.411 223.787 145.052 227.586C143.755 231.222 141.973 234.656 139.256 237.499C138.563 238.21 137.796 239.063 136.359 238.266C136.316 237.554 136.104 236.672 136.248 235.867C136.814 232.413 137.335 228.928 138.17 225.545C139.943 218.394 141.945 211.322 143.801 204.194C146.396 194.177 149.124 184.195 151.413 174.114C153.982 162.852 156.672 151.605 158.567 140.18C159.396 135.145 159.746 130.089 159.31 125.02C158.927 120.557 156.953 116.941 152.851 114.838C149.271 112.999 145.717 111.06 141.961 109.677C131.092 105.706 132.306 105.798 126.416 98.7826C126.309 98.6463 126.181 98.5221 126.078 98.3691C125.079 96.8093 123.573 96.065 121.825 95.5605C111.549 92.5919 101.476 89.0675 91.4748 85.2752C80.7884 81.2275 70.6191 76.1879 60.9634 70.1017C57.727 68.0502 54.8061 65.4912 51.8627 63.0158C49.2138 60.7808 47.9145 57.795 47.6284 54.3091C50.4126 54.4988 50.4975 54.4498 51.0771 55.2332C54.8612 60.4638 60.1983 63.8497 65.3419 67.4888C66.1563 68.0659 66.9535 68.9076 68.4514 68.34C67.7182 66.1877 65.5765 65.542 64.1009 64.2854C62.5094 62.9258 60.8194 61.6656 59.1809 60.3473C57.5502 59.067 55.6092 57.7395 55.357 55.734ZM-33.1196 159.856C-32.9811 159.875 -32.8472 159.911 -32.7255 159.926C-32.5682 159.071 -32.4566 158.186 -32.2658 157.339C-29.5813 145.714 -26.629 134.16 -19.917 124.044C-13.2654 114.019 -4.79852 106.796 8.01924 106.103C16.2503 105.653 22.6174 111.289 22.5405 119.612C22.5103 122.403 22.3708 125.201 22.1977 127.989C22.1385 129.014 21.9105 130.066 21.5912 131.057C17.2506 144.912 12.872 158.776 8.54808 172.636C7.4464 176.145 6.59134 179.737 5.5064 183.251C1.75967 195.292 -2.04951 207.298 -5.81299 219.335C-7.28338 224.019 -8.60313 228.743 -10.1025 233.401C-10.6964 235.216 -11.2515 237.22 -12.4477 238.604C-14.2489 240.706 -16.5184 242.412 -18.7088 244.158C-21.5339 246.398 -24.5536 246.216 -27.5258 244.451C-29.1825 243.469 -30.8214 242.42 -32.2847 241.184C-36.1237 237.967 -39.1883 234.203 -39.8196 228.991C-40.2044 225.874 -40.7443 222.733 -40.7673 219.604C-40.846 209.786 -40.1433 199.998 -38.6099 190.324C-37.0135 180.148 -34.9806 170.016 -33.1196 159.856ZM-30.7143 293.785C-31.2812 291.749 -31.7188 290.77 -31.8024 289.743C-32.3513 282.885 -35.2191 276.913 -38.8196 271.265C-42.2073 265.961 -45.6027 260.619 -49.5011 255.681C-55.61 247.943 -58.8027 239.3 -59.1304 229.541C-59.196 227.442 -59.2951 225.334 -59.2178 223.237C-58.7693 211.317 -57.422 199.459 -55.2867 187.74C-51.932 169.26 -47.5135 151.029 -41.9232 133.112C-38.8837 123.376 -34.4873 114.2 -28.7698 105.72C-22.6687 96.6782 -14.3924 91.0366 -3.32143 89.9658C-1.75484 89.8114 -0.190327 89.5308 1.38281 89.4858C10.3427 89.195 19.1389 87.6403 27.956 86.3424C30.291 85.9991 32.5694 85.2638 35.2921 84.6117C34.9018 86.0682 34.6661 87.0817 34.3635 88.0772C32.1311 95.0691 29.8821 102.057 27.5995 109.035C27.4706 109.449 27.0281 109.761 26.6636 110.184C25.5112 109.462 24.4446 108.89 23.4775 108.146C17.2189 103.311 10.2085 102.419 2.57952 103.569C-3.90265 104.524 -9.28663 107.675 -14.546 111.164C-17.7941 113.308 -20.5884 115.969 -22.6332 119.314C-27.2074 126.809 -31.1144 134.627 -33.6321 143.085C-36.2427 151.824 -37.9282 160.793 -39.9317 169.676C-42.7657 182.195 -44.5716 194.828 -45.4131 207.611C-45.8783 214.772 -46.1292 221.936 -44.9085 229.099C-44.0393 234.159 -41.9589 238.449 -38.1692 241.85C-36.1027 243.714 -33.9625 245.705 -31.5022 246.903C-26.519 249.332 -21.2891 250.841 -16.1376 247.018C-15.9119 246.845 -15.4889 246.941 -15.0255 246.885C-15.0294 247.369 -14.9329 247.879 -15.0663 248.31C-17.7738 256.807 -20.5148 265.296 -23.2726 273.78C-23.3566 274.027 -23.7252 274.197 -23.9767 274.399C-24.2768 274.247 -24.7635 274.188 -24.8604 273.947C-27.8611 267.132 -32.4305 261.35 -36.8257 255.453C-37.4878 254.576 -37.7014 253.029 -39.3607 253.194C-40.2997 253.284 -40.0825 254.616 -38.7487 256.804C-38.2862 257.555 -37.7087 258.213 -37.2887 258.989C-34.8367 263.432 -32.3043 267.843 -30.0221 272.384C-28.1019 276.2 -27.4024 280.353 -27.5627 284.635C-27.6756 287.601 -28.3746 290.41 -30.7143 293.785ZM134.817 216.428C134.667 216.388 134.504 216.326 134.353 216.286C136.706 207.37 139.042 198.45 141.412 189.539C141.452 189.389 141.619 189.236 141.763 189.167C141.848 189.118 142.002 189.213 142.42 189.325C142.416 190.078 142.511 190.929 142.367 191.733C142.114 193.28 141.828 194.819 141.374 196.312C139.688 201.799 137.957 207.257 136.204 212.726C135.796 213.981 135.292 215.192 134.817 216.428ZM133.886 219.57L133.708 219.899L133.718 219.525L133.886 219.57Z" fill="#262626"/>
<path d="M131.207 108.894C128.624 108.489 126.051 107.98 123.449 107.713C121.984 107.554 121.224 108.516 121.165 110.277C121.756 110.615 122.468 111.039 123.193 111.413C126.016 112.797 129.055 113.844 131.615 115.607C137.056 119.344 139.344 124.532 137.362 131.125C135.963 135.81 134.526 140.503 133.044 145.166C130.913 151.844 128.624 158.444 127.159 165.319C126.218 169.768 124.821 174.112 123.591 178.502C123.51 178.803 123.166 179.016 122.956 179.265C114.37 178.561 96.092 174.184 89.6972 171.197C89.7618 170.353 89.7117 169.334 89.9172 168.367C91.881 159.096 94.9574 150.159 98.0674 141.231C99.684 136.604 101.43 132.03 103.31 127.491C106.407 120.085 110.857 113.723 117.779 109.388C117.51 108.113 116.483 108.197 115.766 108.328C112.38 108.91 109.507 110.526 107.181 113.043C103.464 117.072 100.587 121.648 98.3049 126.617C92.8098 138.62 89.4095 151.31 86.411 164.108C84.6537 171.604 82.9633 179.118 81.2852 186.653C80.2659 191.26 79.4978 195.935 78.3111 200.498C75.3579 211.854 72.254 223.17 69.1836 234.495C68.7305 236.186 68.0765 237.823 67.5442 239.475C67.3313 240.136 67.1351 240.801 67.0774 241.485C66.9858 242.43 68.0261 243.57 69.0824 243.512C69.663 243.488 70.4684 243.094 70.7581 242.615C71.2984 241.737 71.5933 240.704 71.9171 239.696C76.5966 224.442 80.6857 209.047 83.9544 193.433C85.203 187.434 86.7575 181.498 88.2071 175.552C88.2878 175.251 88.5908 174.991 88.9821 174.468C89.4811 174.548 90.1454 174.547 90.7558 174.746C98.9397 177.352 107.116 179.919 115.618 181.336C117.815 181.709 120.079 182.101 122.238 183.415C121.972 185.012 121.707 186.538 121.458 188.069C121.374 188.584 121.145 189.169 121.293 189.621C121.481 190.192 121.935 190.709 122.399 191.12C122.486 191.197 123.356 190.695 123.488 190.335C124.215 188.359 124.875 186.365 125.468 184.352C127.571 177.308 129.574 170.236 131.727 163.205C134.948 152.656 138.287 142.139 141.307 131.536C143.689 123.184 140.286 114.988 133.856 110.86C132.862 110.217 131.968 109.403 131.013 108.681L131.207 108.894Z" fill="#262626"/>
<path d="M18.837 261.539C21.3519 261.998 21.9896 261.828 22.5693 260.601C22.7876 260.122 22.9557 259.628 23.107 259.131C26.8652 246.913 30.8911 234.768 34.3144 222.461C38.5753 207.094 42.3173 191.589 46.3438 176.16C47.6696 171.078 49.1125 166.028 50.5219 160.969C50.6969 160.316 51.0682 159.734 51.4489 158.849C53.6393 159.848 55.6243 160.811 57.6787 161.648C59.9418 162.578 62.2395 163.445 64.5507 164.261C66.6655 165.007 68.8027 165.67 71.0984 166.41C69.7768 171.744 68.3551 176.782 66.6701 181.732C65.4231 185.381 64.2096 189.04 63.0463 192.711C61.1007 198.901 59.1931 205.083 57.3312 211.295C56.476 214.152 55.7379 217.04 55.0165 219.933C53.4841 226.054 51.9685 232.179 50.5075 238.301C50.0194 240.324 49.2545 242.308 49.4842 244.397C50.5921 245.017 51.3698 244.525 51.699 243.699C52.9074 240.595 54.1492 237.501 55.073 234.321C57.6897 225.225 60.0385 216.057 62.7389 206.984C66.3843 194.718 70.3601 182.559 74.001 170.31C75.3383 165.788 76.1444 161.106 77.1849 156.486C77.2534 156.163 77.2684 155.772 77.156 155.455C77.0681 155.18 76.8218 154.827 76.5752 154.743C76.3118 154.655 75.7892 154.73 75.6472 154.925C75.1395 155.615 74.6229 156.338 74.3406 157.123C73.6181 159.083 73.0296 161.078 72.4177 162.96C66.9641 162.755 57.6909 158.924 52.5132 154.809C52.611 154.243 52.6565 153.538 52.8482 152.89C54.621 146.474 56.1974 139.988 58.2671 133.671C61.4841 123.874 64.2169 113.876 68.9595 104.614C70.8855 100.842 73.1639 97.3612 76.8198 94.9674C76.2889 93.5332 75.1463 93.9807 74.2596 94.2096C72.1399 94.7541 70.6186 96.2126 69.2334 97.8332C65.896 101.784 63.8418 106.437 61.9839 111.161C57.9725 121.444 54.8349 132.015 51.7597 142.621C44.2509 168.368 37.5623 194.334 30.7521 220.286C28.1288 230.277 24.7353 240.062 21.7314 249.934C20.8594 252.786 20.0041 255.644 19.237 258.506C18.9344 259.502 18.9588 260.549 18.837 261.539Z" fill="#262626"/>
<path d="M119.594 204.131C118.123 203.127 116.957 203.191 116.212 204.499C115.532 205.698 114.997 207.026 114.604 208.356C112.703 214.917 110.802 221.477 109.051 228.078C106.227 238.751 103.131 249.369 100.901 260.166C98.0919 273.732 94.2108 287.011 90.8487 300.429C89.0639 307.559 86.961 314.603 84.2097 321.456C82.6733 325.315 80.1207 328.346 77.3596 331.284C76.1053 332.617 74.4936 333.208 72.6236 333.155C67.0181 332.981 62.0411 330.93 57.4416 327.939C54.4763 326.014 52.8475 323.119 52.5871 319.604C52.3399 316.308 52.3707 312.979 52.3088 309.661C52.2879 308.399 52.1732 307.22 50.4937 306.591C48.9554 308.314 48.5932 310.603 48.4354 312.732C48.2334 315.495 48.3115 318.351 48.7827 321.079C49.5354 325.569 52.8088 328.42 56.4123 330.642C61.6636 333.879 67.2922 336.177 73.6299 336.565C77.4435 336.797 80.5718 335.769 82.8185 332.675C84.26 330.711 85.7027 328.675 86.7403 326.477C90.1508 319.172 92.9142 311.605 94.8829 303.789C97.0311 295.303 98.8946 286.741 100.993 278.242C103.718 267.201 105.874 256.008 109.005 245.058C111.511 236.309 113.502 227.404 115.79 218.597C116.752 214.871 117.949 211.209 118.966 207.48C119.284 206.363 119.405 205.175 119.594 204.131Z" fill="#262626"/>
<path d="M148.509 308.235C148.983 307.806 149.687 307.456 149.902 306.922C150.534 305.297 151.038 303.619 151.474 301.924C155.283 287.172 159.142 272.434 162.818 257.647C165.772 245.752 168.525 233.804 171.344 221.873C173.314 213.519 175.229 205.168 177.231 196.823C177.76 194.649 178 192.345 179.181 190.419C182.582 189.913 185.86 189.463 189.103 188.879C190.086 188.693 191.103 188.248 191.919 187.677C192.383 187.353 192.84 186.453 192.705 185.95C192.615 185.549 191.61 185.082 191.075 185.136C189.521 185.312 187.987 185.745 186.435 186.046C184.558 186.423 182.687 186.908 180.406 186.315C180.362 185.406 180.131 184.393 180.323 183.476C181.163 179.538 182.036 175.609 183.048 171.699C185.784 161.02 188.591 150.342 191.377 139.677C191.894 137.68 192.449 135.676 193.104 133.231C192.193 133.687 191.404 133.817 191.102 134.274C190.248 135.588 189.413 136.962 188.909 138.441C187.461 142.575 185.995 146.704 184.865 150.923C182.644 159.21 180.591 167.542 178.588 175.887C174.51 192.917 170.498 209.965 166.453 227.004C164.589 234.831 162.721 242.674 160.756 250.473C159.346 256.071 157.786 261.628 156.22 267.47C155.232 267.475 154.08 267.489 152.852 267.519C151.112 269.457 151.023 271.999 150.521 274.341C148.936 281.865 147.463 289.437 145.911 296.97C145.53 298.86 144.965 300.7 144.551 302.581C144.428 303.176 144.543 303.817 144.584 305.605C147.35 300.173 147.819 295.275 149.137 290.622C150.42 286.103 151.59 281.535 153.043 276.111C153.54 277.339 153.878 277.752 153.809 278.075C151.838 286.77 149.796 295.463 147.825 304.158C147.547 305.465 147.001 306.898 148.509 308.235Z" fill="#262626"/>
<path d="M48.8033 252.63C47.615 252.043 46.9378 252.561 46.5828 253.417C45.6983 255.512 44.8808 257.626 44.1425 259.779C40.311 270.864 36.8979 282.061 33.7103 293.355C32.4848 297.728 30.7447 301.945 29.1387 306.198C28.0523 309.047 26.2488 311.291 23.3912 312.714C18.1083 315.354 12.4886 313.023 11.0598 307.239C10.5553 305.238 10.4407 303.054 10.6307 301.005C10.8593 298.411 11.4787 295.831 12.1225 293.295C13.9522 285.997 15.8824 278.727 17.712 271.43C18.0856 269.969 18.8768 268.422 17.5387 266.987C15.832 266.727 14.8618 267.669 14.313 269.048C13.2772 271.641 12.1365 274.224 11.4477 276.929C9.78524 283.535 8.20193 290.18 6.91223 296.869C6.41573 299.391 6.67712 302.099 6.86046 304.696C6.96915 306.233 7.44733 307.796 8.02839 309.244C10.1679 314.518 13.3304 316.711 18.9791 316.323C24.8845 315.914 29.7106 313.439 32.446 307.784C34.746 303.017 36.1554 297.958 37.4264 292.879C39.9493 282.861 42.5515 272.882 46.0409 263.14C47.2798 259.722 48.5489 256.258 48.8033 252.63Z" fill="#262626"/>
<path d="M63.0374 225.222C61.4968 229.834 59.8724 234.423 58.4489 239.065C55.3051 249.258 52.14 259.463 49.2138 269.715C47.3055 276.434 45.8113 283.283 44.0872 290.053C43.3536 292.924 42.62 295.796 41.719 298.623C39.1795 306.627 36.5273 314.583 33.9544 322.578C32.6679 326.576 31.0143 330.404 28.7894 333.952C29.256 334.957 29.9912 334.49 30.5587 334.247C32.0622 333.591 33.1487 332.483 33.7713 330.963C35.4901 326.758 37.556 322.664 38.8272 318.322C42.4179 306.059 45.657 293.703 49.0424 281.404C52.9749 267.062 56.9075 252.72 60.8401 238.378C61.8078 234.834 62.7923 231.293 63.7099 227.735C63.9252 226.932 63.8681 226.073 63.9495 225.234C63.6592 225.246 63.3567 225.236 63.0374 225.222Z" fill="#262626"/>
<path d="M135.747 311.132C134.737 310.143 133.864 310.053 133.229 310.816C132.68 311.458 132.397 312.315 132.06 313.104C130.077 317.759 128.452 322.617 126.015 327.024C124.099 330.494 121.315 333.516 118.65 336.498C117.544 337.745 115.82 338.557 114.24 339.228C110.869 340.694 107.58 339.776 105.375 336.889C104.869 336.233 104.568 335.345 104.397 334.51C104.144 333.311 104.174 332.063 103.916 330.882C103.831 330.464 103.098 329.783 102.975 329.84C102.415 330.121 101.634 330.557 101.538 331.052C100.426 336.675 101.138 338.302 105.553 341.315C109.165 343.772 113.194 344.403 117.507 342.436C123.897 339.483 128.061 334.39 131.055 328.374C132.912 324.655 133.786 320.457 135.102 316.485C135.7 314.654 135.719 312.775 135.747 311.132Z" fill="#262626"/>
<path d="M78.3632 141.173C78.7959 143.442 76.6636 145.239 77.7961 147.642C78.4015 147.391 79.2601 147.334 79.5577 146.894C80.4245 145.601 81.2088 144.214 81.7419 142.76C84.6856 134.72 87.5958 126.672 90.4223 118.601C91.2793 116.139 91.949 113.573 92.4712 111.022C93.4773 106.195 92.718 101.596 89.9407 97.4962C88.9889 96.0928 87.6428 94.8888 86.273 93.8399C85.6919 93.3971 84.6434 93.493 83.8027 93.4831C83.1384 93.4845 82.5823 94.5556 82.9311 95.0618C83.231 95.4831 83.5475 95.9088 83.9155 96.2766C87.0179 99.2969 88.1141 103.108 87.9942 107.238C87.9069 110.176 87.6164 113.202 86.7913 116.013C84.6367 123.385 82.1516 130.65 79.6594 138.344C78.3856 137.339 77.5035 136.546 76.5173 135.941C76.1804 135.725 75.3597 135.774 75.145 136.04C74.8879 136.33 74.8445 137.162 75.0708 137.455C76.0339 138.682 77.1334 139.802 78.3632 141.173Z" fill="#262626"/>
<path d="M91.2935 329.976C93.9631 327.981 94.4868 326.094 95.0885 324.317C96.2906 320.836 97.4927 317.354 98.4269 313.8C102.856 296.666 107.236 279.52 111.564 262.359C115.082 248.427 118.529 234.493 121.996 220.547C122.389 218.948 123.173 217.363 122.625 215.655C121.089 215.495 120.963 216.502 120.757 217.272C118.811 224.735 116.731 232.163 115.04 239.677C110.581 259.332 105.519 278.826 100.235 298.279C98.4062 305.038 96.5225 311.8 94.5595 318.523C93.7703 321.201 92.6798 323.798 91.8069 326.453C91.5503 327.209 91.5571 328.054 91.2935 329.976Z" fill="#262626"/>
<path d="M-15.5653 276.222C-14.0256 276.168 -13.697 274.874 -13.3049 273.813C-11.4982 268.878 -9.66245 263.969 -8.05211 258.964C-4.95911 249.296 -1.96657 239.601 0.975754 229.892C2.84988 223.701 4.54433 217.444 6.35149 211.236C7.47592 207.374 8.71757 203.544 9.87548 199.691C10.112 198.876 10.2526 198.016 10.6085 196.353C9.46073 197.355 8.60506 197.736 8.38886 198.342C7.37065 201.138 6.56556 204.008 5.63106 206.826C2.29768 216.789 -1.18185 226.694 -4.39804 236.688C-7.24551 245.507 -9.81289 254.419 -12.5477 263.286C-13.5261 266.469 -14.6508 269.595 -15.6583 272.752C-16.0303 273.872 -16.5799 275.053 -15.5653 276.222Z" fill="#262626"/>
<path d="M-15.4934 286.2C-15.0982 286.198 -14.4788 286.364 -14.244 286.158C-12.744 284.712 -11.1191 283.335 -9.93027 281.644C-6.76986 277.215 -4.33467 272.413 -2.50757 267.268C2.08442 254.215 5.75559 240.916 9.18464 227.516C11.0645 220.232 13.1911 213.033 15.1547 205.771C15.4598 204.633 15.5304 203.432 15.8229 201.536C14.729 202.338 13.9594 202.598 13.7959 203.074C12.9502 205.36 12.196 207.706 11.5467 210.062C8.65488 220.52 5.93491 231.006 2.92586 241.432C0.49757 249.825 -2.05237 258.203 -4.9282 266.458C-7.11056 272.728 -9.94465 278.751 -14.411 283.834C-14.8738 284.356 -15.2329 284.96 -15.6255 285.554C-15.6647 285.634 -15.5589 285.841 -15.4934 286.2Z" fill="#262626"/>
<path d="M47.1189 127.328C48.3616 128.181 49.342 128.139 49.9785 127.036C50.68 125.824 51.2732 124.548 51.7493 123.24C54.7749 114.827 57.997 106.486 59.8764 97.7305C60.4647 94.9992 60.8521 92.2141 61.0084 89.4209C61.1395 87.1234 60.7583 84.7963 58.6175 83.3434C58.1769 83.0459 57.4387 83.1891 56.7376 83.1268C57.7947 90.7669 57.8916 91.0081 55.6648 98.9167C54.1938 104.139 52.3254 109.237 50.6535 114.405C49.5183 117.905 48.3999 121.409 47.3317 124.927C47.1209 125.714 47.1901 126.594 47.1189 127.328Z" fill="#262626"/>
<path d="M161.318 289.094C163.75 280.954 166.581 271.592 168.425 261.966C168.679 260.617 168.644 259.208 168.654 257.829C168.658 257.615 168.252 257.255 168.009 257.225C167.732 257.187 167.304 257.377 167.153 257.606C166.865 258.013 166.659 258.514 166.528 259C164.653 266.267 162.811 273.543 160.936 280.81C160.544 282.338 160.169 283.87 159.598 285.332C155.644 295.469 153.426 306.09 150.757 316.589C150.622 317.091 150.521 317.602 150.432 318.135C150.254 319.2 150.741 320.263 151.397 320.224C152.399 320.169 153.003 319.523 153.24 318.636C153.979 315.945 154.689 313.229 155.345 310.515C156.985 303.724 158.291 296.842 161.318 289.094Z" fill="#262626"/>
<path d="M53.0389 299.503C54.0075 299.906 54.6096 299.601 54.8572 298.878C55.8982 295.729 56.8889 292.568 57.8462 289.397C60.6889 279.859 63.5194 270.3 66.3164 260.732C66.7537 259.234 67.1116 257.697 67.2765 256.145C67.3216 255.708 66.5632 255.056 66.0299 254.77C65.7298 254.618 64.9223 254.886 64.7064 255.223C64.1494 256.096 63.6626 257.042 63.3979 258.03C60.1753 269.655 56.9861 281.289 53.8015 292.907C53.2138 295.1 52.7479 297.308 53.0389 299.503Z" fill="#262626"/>
<path d="M150.427 352.908C140.86 355.333 131.45 355.628 122.048 355.962C116.996 356.134 111.937 356.196 106.885 356.367C105.526 356.416 104.026 356.319 103.163 357.936C103.588 358.157 104.014 358.577 104.442 358.584C117.505 358.585 130.594 359.293 143.607 357.468C145.676 357.179 147.719 356.722 149.724 356.201C150.696 355.923 150.904 354.812 150.427 352.908Z" fill="#262626"/>
<path d="M184.806 197.148C183.347 196.433 182.435 196.889 181.926 197.919C181.321 199.174 180.823 200.494 180.464 201.834C179.154 206.722 177.895 211.624 176.702 216.544C174.764 224.512 172.894 232.498 171.023 240.484C170.805 241.431 170.805 242.435 170.674 243.728C171.48 243.334 172.099 243.231 172.299 242.889C172.732 242.144 173.011 241.304 173.235 240.467C175.743 230.839 178.2 221.198 180.725 211.575C181.61 208.206 182.662 204.881 183.635 201.517C184.064 200.053 184.425 198.571 184.806 197.148Z" fill="#262626"/>
<path d="M-12.9337 319.973C-12.2967 321.346 -12.0702 322.376 -11.4469 323.063C-10.6419 323.943 -9.55973 324.592 -8.56246 325.29C-2.25414 329.671 4.36187 333.508 11.3157 336.753C13.5017 337.769 15.9014 338.322 18.2228 339.034C18.4069 339.083 18.8417 338.733 18.9469 338.474C19.0567 338.199 19.0271 337.706 18.8453 337.514C18.3614 337.044 17.8137 336.61 17.2134 336.305C7.75946 331.475 -1.46519 326.258 -10.4336 320.554C-10.9869 320.208 -11.7316 320.242 -12.9337 319.973Z" fill="#262626"/>
<path d="M164.195 319.472C164.253 319.254 164.36 318.924 164.437 318.568C164.59 317.73 164.89 316.877 164.032 316.198C163.376 315.7 162.197 316.281 161.708 317.639C160.117 321.968 157.898 325.895 154.602 329.157C153.867 329.893 153.122 330.662 152.28 331.262C150.67 332.446 148.937 332.017 147.891 330.23C147.445 329.482 147.233 328.6 146.719 327.906C146.481 327.591 145.723 327.406 145.317 327.513C144.895 327.615 144.361 328.135 144.287 328.546C143.782 331.3 145.085 333.605 147.608 334.299C151.014 335.247 154.214 334.957 156.727 332.077C159.954 328.402 162.688 324.361 164.195 319.472Z" fill="#262626"/>
<path d="M49.5954 83.3304C48.6891 82.2263 47.7428 82.7443 47.2175 83.2316C46.0775 84.2719 44.9897 85.4517 44.1899 86.7626C40.6808 92.4256 38.5576 98.6752 36.6264 105.012C36.4796 105.493 36.394 106.08 36.5419 106.533C36.6732 106.98 37.0421 107.546 37.4438 107.653C37.8244 107.773 38.5682 107.542 38.7796 107.222C39.2539 106.524 39.5161 105.679 39.8531 104.89C41.9828 99.7544 43.3357 94.3033 46.0457 89.4131C47.1735 87.3468 48.4141 85.3286 49.5954 83.3304Z" fill="#262626"/>
<path d="M149.101 123.612C148.447 125.446 147.797 126.869 147.436 128.351C144.579 140.218 141.077 151.948 139.31 164.035C140.8 164.434 141.158 163.633 141.375 162.758C142.204 159.194 142.937 155.586 143.817 152.036C145.837 143.893 147.925 135.767 149.945 127.624C150.199 126.544 150.951 125.346 149.101 123.612Z" fill="#262626"/>
<path d="M17.38 189.698C19.1244 190.219 19.3669 189.046 19.6773 188.089C21.3941 182.753 23.1109 177.417 24.7608 172.063C26.3041 167.04 27.814 162.008 29.2737 156.962C29.5955 155.828 29.7041 154.619 29.9593 153.198C29.1362 153.39 28.5523 153.359 28.245 153.636C27.8907 153.954 27.7504 154.544 27.6036 155.025C24.472 165.239 21.3404 175.453 18.2423 185.676C17.8544 186.99 17.6629 188.374 17.38 189.698Z" fill="#262626"/>
<path d="M72.5213 276.014C73.393 276.175 74.1015 276.545 74.6176 276.36C75.9289 275.886 77.2046 275.277 78.39 274.536C84.4826 270.749 90.5384 266.899 96.5897 263.066C97.1506 262.714 97.5845 262.166 97.9902 261.79C97.7933 260.248 97.0615 259.765 95.7726 260.155C95.6163 260.203 95.4342 260.28 95.3023 260.37C88.1636 265.115 81.0126 269.838 73.8861 274.603C73.4694 274.886 73.1674 275.343 72.5213 276.014Z" fill="#262626"/>
<path d="M125.845 349.425C127.376 349.136 128.131 349.195 128.6 348.854C129.847 347.95 131.191 347.018 132.107 345.81C136.489 339.968 138.766 333.347 139.261 325.136C138.189 326.392 137.457 326.914 137.218 327.603C136.485 329.739 135.792 331.922 135.36 334.139C134.265 339.695 131.412 344.117 127.097 347.697C126.853 347.937 126.692 348.271 125.845 349.425Z" fill="#262626"/>
<path d="M71.3815 201.315C71.8037 200.208 72.2762 199.114 72.6315 197.989C73.9652 193.681 75.2822 189.369 76.5322 185.038C76.9649 183.557 77.218 182.01 77.4163 180.466C77.4636 180.156 76.8905 179.482 76.6047 179.477C76.2095 179.479 75.5302 179.871 75.436 180.223C73.6363 186.739 71.8991 193.289 70.1998 199.832C70.0966 200.217 70.412 200.714 70.5265 201.157C70.82 201.2 71.1091 201.26 71.3815 201.315Z" fill="#262626"/>
<path d="M95.0943 99.2899C95.204 100.019 95.1442 100.577 95.3905 100.93C96.9664 103.219 98.3859 105.555 99.3038 108.223C99.9246 110.058 101.368 110.23 102.991 108.996C104.498 107.857 106.076 106.79 107.583 105.651C108.371 105.054 109.089 104.385 109.763 103.812C109.265 102.656 108.522 102.816 107.941 103.109C106.097 104.032 104.314 105.062 102.341 106.13C100.035 103.754 99.5175 99.5241 95.0943 99.2899Z" fill="#262626"/>
<path d="M28.2787 133.889C28.9634 133.678 29.7204 133.666 30.0759 133.276C30.6371 132.655 31.0712 131.838 31.3033 131.039C32.4812 127.246 33.6134 123.422 34.6909 119.602C34.8075 119.167 34.5893 118.642 34.5173 118.174C34.0886 118.167 33.6031 118.036 33.47 118.198C31.4486 120.653 28.3897 129.792 28.2787 133.889Z" fill="#262626"/>
<path d="M163.208 296.706C164.787 297.04 165.537 296.182 165.86 295.246C167.064 291.621 168.152 287.965 169.143 284.265C169.26 283.83 168.662 282.844 168.244 282.732C167.742 282.598 167.006 283.064 166.45 283.4C166.195 283.547 166.095 283.987 165.993 284.3C165.013 287.824 164.038 291.33 163.125 294.872C162.98 295.479 163.179 296.143 163.208 296.706Z" fill="#262626"/>
<path d="M2.72931 318.841C0.538605 314.36 0.2215 313.468 0.58872 308.883C0.846111 305.579 1.5277 302.298 2.02845 299.023C2.1792 298.059 2.34673 297.099 2.493 296.151C1.28641 295.9 0.841173 296.624 0.717651 297.219C-0.324359 302.179 -1.97473 307.066 -1.53989 312.206C-1.37264 314.261 -0.577888 316.25 -0.0399297 318.261C0.112504 318.696 0.205189 318.685 2.72931 318.841Z" fill="#262626"/>
<path d="M67.6111 352.465C68.333 352.784 69.0057 353.287 69.7602 353.418C74.954 354.325 80.0554 355.979 85.9948 356.045C85.4164 355.19 85.2329 354.603 84.9271 354.539C80.0406 353.355 75.1664 352.193 70.2486 351.126C69.4863 350.958 68.5972 351.33 67.7753 351.45C67.7191 351.794 67.6673 352.121 67.6111 352.465Z" fill="#262626"/>
<path d="M187.909 122.419C188.509 122.723 188.941 123.054 189.056 122.96C189.75 122.446 190.465 121.92 190.968 121.247C193.617 117.722 197.232 117.022 201.292 117.607C202.638 117.807 203.958 118.304 205.248 118.649C205.678 117.58 205.252 117.161 204.584 116.839C201.949 115.558 199.142 115.452 196.352 115.889C192.52 116.459 189.311 118.058 187.909 122.419Z" fill="#262626"/>
<path d="M37.9003 344.683C38.334 345.141 38.7005 345.849 39.2362 345.992C42.8936 347.008 46.5735 347.941 50.25 348.818C50.6061 348.895 51.3356 348.517 51.4588 348.191C51.5775 347.882 51.209 347.047 50.9076 346.967C46.7814 345.825 42.6936 344.407 37.9003 344.683Z" fill="#262626"/>
<path d="M81.2021 345.538C81.5124 345.585 81.9085 345.781 82.1041 345.654C85.7689 343.227 88.7301 340.144 90.6597 336.158C90.8209 335.824 90.5773 335.059 90.2783 334.835C89.9916 334.633 89.1497 334.694 88.9306 334.977C86.2875 338.144 83.7191 341.368 81.1463 344.608C80.9965 344.765 81.1824 345.21 81.2021 345.538Z" fill="#262626"/>
<path d="M38.3571 379.006C40.1766 379.314 40.6854 379.558 41.1075 379.456C45.3167 378.413 49.409 377.069 53.302 375.331C53.3579 374.251 52.7412 373.673 52.0958 373.805C47.6501 374.66 43.4493 376.208 38.3571 379.006Z" fill="#262626"/>
<path d="M128.414 306.888C127.865 305.323 126.9 305.442 126.158 305.799C123.03 307.294 119.959 308.911 116.876 310.507C116.77 310.569 116.774 310.821 116.729 310.988C119.23 312.035 121.45 311.248 128.414 306.888Z" fill="#262626"/>
<path d="M137.387 172.886C134.646 178.091 133.836 181.05 134.008 184.559C135.769 183.344 135.769 183.344 136.502 181.28C138.162 176.557 138.253 175.881 137.387 172.886Z" fill="#262626"/>
<path d="M62.4307 140.833C62.2851 141.243 62.152 141.405 62.1876 141.54C62.6956 144.331 65.0965 144.813 67.2169 145.471C68.9613 145.992 70.7034 145.652 72.0393 144.215C72.8699 143.325 73.1456 142.43 71.9531 141.59C70.3148 142.013 68.6358 142.855 67.036 142.731C65.462 142.579 63.9583 141.494 62.4307 140.833Z" fill="#262626"/>
<path d="M65.2046 93.6495C68.9468 92.8758 70.5623 90.0609 73.1861 89.0414C72.895 87.8509 72.3058 87.6392 71.6065 87.9722C70.2201 88.6594 68.866 89.427 67.4997 90.1734C65.7577 89.5092 66.2067 86.5612 63.7762 86.5918C63.6207 86.8372 63.2921 87.126 63.3477 87.3203C63.8946 89.2971 64.4963 91.2706 65.2046 93.6495Z" fill="#262626"/>
<path d="M92.5239 258.083C91.6929 257.501 91.3383 257.083 91.1607 257.143C86.5076 258.839 82.6946 261.819 78.9131 264.681C79.2834 265.911 79.9387 265.943 80.5678 265.538C84.4291 263.181 88.2748 260.748 92.5239 258.083Z" fill="#262626"/>
<path d="M114.916 141.098C115.249 144.274 117.313 145.078 119.159 145.555C121.675 146.211 123.888 145.315 125.442 142.663C124.746 142.315 124.215 141.885 123.633 141.783C123.184 141.716 122.616 141.959 122.216 142.247C120.23 143.634 118.381 143.57 116.61 141.875C116.37 141.631 115.993 141.566 114.916 141.098Z" fill="#262626"/>
<path d="M44.915 204.863C47.2958 206.291 47.317 206.279 55.5187 203.326C54.5949 202.756 53.9059 201.979 53.2081 201.972C50.1614 201.891 47.4895 203.023 44.915 204.863Z" fill="#262626"/>
<path d="M120.966 300.532C124.552 300.075 127.499 298.586 131.289 295.69C130.849 295.393 130.387 294.838 130.062 294.913C126.46 295.832 123.459 297.791 120.966 300.532Z" fill="#262626"/>
<path d="M73.8587 111.041C73.3832 111.811 72.8714 112.248 72.9201 112.602C73.4436 116.474 76.7526 118.455 80.4329 117.109C80.7714 116.984 80.992 116.361 81.0752 115.917C81.1078 115.729 80.6986 115.314 80.4352 115.225C79.9709 115.083 79.4127 115.023 78.9449 115.095C76.6512 115.485 75.3427 114.543 74.8464 112.31C74.7752 112.04 74.464 111.795 73.8587 111.041Z" fill="#262626"/>
<path d="M49.08 380.641C49.6494 381.529 50.508 381.472 51.3813 381.294C54.7103 380.589 57.4516 379.332 59.2365 377.693C58.7914 377.412 58.3331 376.912 57.9334 376.931C55.4245 377.12 51.4054 378.86 49.08 380.641Z" fill="#262626"/>
<path d="M82.7963 254.274C82.8821 254.423 82.9634 254.588 83.0749 254.708C83.1864 254.827 83.3571 254.927 83.4955 254.946C83.8271 254.981 84.2333 255.072 84.5048 254.929C87.0554 253.513 89.5647 252.05 92.6169 250.302C91.4397 249.807 90.8263 249.284 90.3159 249.381C87.8581 249.781 84.9619 251.75 82.7963 254.274Z" fill="#262626"/>
<path d="M146.338 347.811C145.094 345.019 143.903 342.368 142.733 339.703C141.515 339.359 141.192 340.098 141.184 341.065C141.195 343.903 142.729 345.947 144.734 347.704C145.024 347.961 145.699 347.783 146.338 347.811Z" fill="#262626"/>
<path d="M33.6273 375.765C33.6263 376.572 34.0822 377.215 34.8191 377.143C37.615 376.887 40.2764 376.129 42.5505 374.406C42.7338 374.257 42.4812 373.526 42.3895 372.73C39.2811 373.817 36.3503 374.844 33.424 375.854L33.6273 375.765Z" fill="#262626"/>
<path d="M29.7583 289.353C29.0096 287.125 27.91 287.01 26.8939 287.186C24.9587 287.511 22.7783 287.411 21.225 289.525C24.2809 291.313 26.7651 289.341 29.7583 289.353Z" fill="#262626"/>
<path d="M107.123 168.24C106.137 168.371 104.95 168.716 103.803 168.642C102.657 168.568 101.547 168.092 100.559 167.827C99.7773 168.802 100.193 169.326 100.758 169.764C102.757 171.341 104.922 171.365 107.111 170.228C107.824 169.845 107.881 169.161 107.123 168.24Z" fill="#262626"/>
<path d="M201.264 136.53C200.546 135.459 200.057 134.807 199.674 134.095C199.286 133.398 199.009 132.624 198.644 131.845C196.666 133.199 196.198 134.007 196.742 135.193C197.544 136.951 198.991 137.177 201.264 136.53Z" fill="#262626"/>
<path d="M39.8139 112.469C41.2672 115.55 43.0002 116.248 45.2527 114.806C45.4907 114.654 45.691 114.242 45.6958 113.956C45.6794 113.682 45.4453 113.35 45.2134 113.145C44.9647 112.934 44.6098 112.785 44.2905 112.772C42.8337 112.651 41.3801 112.584 39.8139 112.469Z" fill="#262626"/>
<path d="M198.578 157.002C198.247 156.698 198.029 156.37 197.728 156.29C196.264 155.861 194.769 155.479 193.329 155.093C192.395 156.906 193.475 157.698 194.57 158.099C196.045 158.62 197.651 158.853 198.578 157.002Z" fill="#262626"/>
<path d="M109.981 159.047C109.262 161.061 110.702 161.447 111.696 161.821C113.426 162.464 115.252 162.882 117.042 160.688C115.524 160.46 114.386 160.353 113.272 160.09C112.158 159.828 111.102 159.419 109.981 159.047Z" fill="#262626"/>
<path d="M4.90324 286.085C2.1577 288.094 2.4044 290.924 2.56739 293.731C4.40441 291.496 4.71017 288.814 4.90324 286.085Z" fill="#262626"/>
<path d="M97.6498 238.283C96.5449 237.987 95.8208 237.542 95.3428 237.719C94.0605 238.218 92.8583 238.955 91.6651 239.658C91.4316 239.793 91.3741 240.208 91.2309 240.475C91.6817 240.667 92.1624 241.083 92.5756 241.014C94.3344 240.678 95.7635 239.697 97.6498 238.283Z" fill="#262626"/>
<path d="M33.4195 375.871C34.0463 373.598 33.4168 372.533 31.6756 373.071C30.5811 373.406 29.5577 374.011 27.9011 374.769C29.0269 375.322 29.5366 375.763 30.0658 375.798C31.2458 375.88 32.4416 375.77 33.6318 375.748C33.6273 375.765 33.4195 375.871 33.4195 375.871Z" fill="#262626"/>
<path d="M47.9364 197.204C50.3292 197.917 52.4187 197.418 54.4853 195.531C51.65 194.126 49.8161 195.68 47.9364 197.204Z" fill="#262626"/>
<path d="M182.235 130.803C183.049 131.183 183.506 131.485 183.6 131.402C184.706 130.353 185.743 129.231 186.705 128.251C186.083 126.756 185.246 126.801 184.569 127.517C183.755 128.412 183.14 129.503 182.235 130.803Z" fill="#262626"/>
<path d="M27.4347 284.029C26.5621 283.67 25.8192 283.094 25.1705 283.172C24.2437 283.282 23.3509 283.868 22.465 284.295C22.3801 284.344 22.3161 284.65 22.3942 284.76C22.5747 285.024 22.8198 285.449 23.0342 285.452C24.4934 285.43 26.094 285.752 27.4347 284.029Z" fill="#262626"/>
<path d="M52.542 187.582C55.0723 189.121 56.5478 187.633 58.2555 187.085C57.815 185.783 56.9175 185.65 56.1145 185.902C55.011 186.27 54.0043 186.879 52.542 187.582Z" fill="#262626"/>
<path d="M114.281 136.37C112.719 135.503 111.282 134.705 109.753 133.847C108.91 135.254 109.864 135.779 110.611 136.338C111.77 137.169 112.978 137.618 114.281 136.37Z" fill="#262626"/>
<path d="M125.082 290.061C127.721 291.127 129.63 290.832 130.58 289.363C130.671 289.226 130.432 288.642 130.248 288.593C128.318 288.094 126.751 288.786 125.082 290.061Z" fill="#262626"/>
<path d="M97.6459 166.041C97.0405 165.287 96.6125 164.742 96.1799 164.213C95.7184 163.659 95.2209 163.238 94.4134 163.507C93.7623 163.727 93.5989 164.939 94.1818 165.777C94.9865 166.926 95.9629 167.367 97.6459 166.041Z" fill="#262626"/>
<path d="M115.814 168.218C117.732 168.894 118.452 169.355 119.2 169.376C120.179 169.406 121.294 169.328 121.652 168.06C121.688 167.926 121.67 167.724 121.592 167.613C120.866 166.504 119.874 166.794 118.893 167.105C118.28 167.318 117.679 167.551 115.814 168.218Z" fill="#262626"/>
<path d="M71.8146 124.83C72.4666 125.812 72.677 126.299 73.025 126.608C73.9451 127.393 74.9737 127.973 76.2527 127.419C76.3544 127.374 76.4797 127.175 76.4608 127.044C76.3701 125.441 74.9064 125.479 73.9268 124.983C73.5519 124.775 72.9823 124.892 71.8146 124.83Z" fill="#262626"/>
<path d="M70.7283 135.179C68.9304 133.585 67.3695 133.651 65.7372 133.716C65.9105 135.414 67.0366 135.697 67.99 135.756C68.8764 135.796 69.8125 135.383 70.7283 135.179Z" fill="#262626"/>
<path d="M131.25 127.818C129.626 127.383 128.304 127.029 126.981 126.675C126.421 127.224 126.176 127.805 126.902 128.376C128.072 129.3 129.391 129.599 130.808 129.135C130.985 129.075 131.019 128.546 131.25 127.818Z" fill="#262626"/>
<path d="M193.399 164.945C191.842 164.528 190.419 164.146 188.963 163.756C188.231 165.282 189.462 165.576 190.263 165.935C191.414 166.458 192.538 166.419 193.399 164.945Z" fill="#262626"/>
<path d="M37.2294 130.151C38.0203 131.619 39.284 131.724 40.679 131.273C40.9158 131.193 41.0859 130.825 41.2292 130.559C41.2728 130.463 41.185 130.188 41.0812 130.106C39.8687 129.207 38.7712 129.218 37.2294 130.151Z" fill="#262626"/>
<path d="M120.82 129.51C118.527 128.895 117.288 128.563 115.882 128.186C116.997 130.585 117.486 130.77 120.82 129.51Z" fill="#262626"/>
<path d="M62.7896 156.235C64.2959 157.913 65.5587 157.821 66.9514 156.507C65.5398 154.945 64.2836 155.146 62.7896 156.235Z" fill="#262626"/>
<path d="M189.056 173.919C190.162 175.687 191.179 175.439 192.166 175.039C192.407 174.943 192.688 174.497 192.667 174.241C192.658 174.005 192.24 173.624 192.009 173.616C191.159 173.639 190.312 173.789 189.056 173.919Z" fill="#262626"/>
<path d="M41.6603 136.919C40.0879 135.421 39.4401 134.691 38.6503 134.156C38.4094 133.984 37.7938 134.34 37.3504 134.454C37.4894 134.94 37.4851 135.692 37.773 135.823C38.6199 136.212 39.5844 136.362 41.6603 136.919Z" fill="#262626"/>
<path d="M193.724 146.855C195.706 149.037 196.916 148.805 198.486 147.97C197.267 146.692 195.969 147.116 193.724 146.855Z" fill="#262626"/>
<path d="M50.6282 98.1593C48.3179 97.5403 47.1963 97.2397 46.0076 96.9212C46.2974 99.188 46.4268 99.2406 50.6282 98.1593Z" fill="#262626"/>
<path d="M76.7236 104.434C77.3147 104.036 78.0185 103.686 77.9784 103.568C77.8072 103.002 77.5489 102.358 77.105 102.006C76.6488 101.633 75.536 102.303 75.6872 102.81C75.8842 103.348 76.3179 103.805 76.7236 104.434Z" fill="#262626"/>
<path d="M104.912 142.742C104.68 142.536 104.476 142.159 104.216 142.125C103.624 142.056 103.021 142.164 102.424 142.183C102.536 142.5 102.559 142.883 102.753 143.097C103.332 143.682 103.994 143.555 104.611 143.128C104.738 143.054 104.817 142.896 104.912 142.742Z" fill="#262626"/>
<path d="M100.693 151.121C99.5903 153.428 99.569 153.44 102.536 154.289C101.833 153.096 101.306 152.183 100.693 151.121Z" fill="#262626"/>
<path d="M67.6871 115.524C67.0817 115.774 66.675 115.952 66.2729 116.114C66.6218 116.62 66.8854 117.444 67.3541 117.57C67.8062 117.691 68.4421 117.126 69.0018 116.845C68.5758 116.426 68.1543 115.99 67.6871 115.524Z" fill="#262626"/>
<path d="M131.492 279.398C131.289 280.223 131.701 280.692 132.454 280.696C132.866 280.699 133.284 280.345 133.936 280.053C133.278 279.697 132.887 279.413 132.452 279.296C132.167 279.22 131.825 279.361 131.492 279.398Z" fill="#262626"/>
<path d="M137.403 267.65C137.243 267.643 137.071 267.615 136.92 267.646C136.064 267.758 135.405 268.478 135.827 268.843C136.163 269.13 136.704 269.185 137.156 269.306C137.29 269.342 137.503 269.22 137.601 269.12C137.79 268.884 138.09 268.569 138.06 268.346C138.005 268.08 137.63 267.872 137.403 267.65Z" fill="#262626"/>
<path d="M186.201 180.69C186.511 182.55 187.562 182.042 189.155 181.787C188.413 181.211 188.141 180.887 187.806 180.797C187.358 180.659 186.857 180.723 186.201 180.69Z" fill="#262626"/>
<path d="M43.0788 121.58C43.3197 121.752 43.6999 122.141 43.7681 122.088C44.0955 121.871 44.3326 121.521 44.5942 121.215C44.3186 121.105 43.9907 120.856 43.7539 120.936C43.5048 120.995 43.3057 121.336 43.0788 121.58Z" fill="#262626"/>
<path d="M125.15 155.539C124.413 155.342 123.947 155.074 123.551 155.147C123.209 155.217 122.969 155.709 122.674 156.007C123.088 156.135 123.521 156.395 123.925 156.36C124.275 156.328 124.593 155.946 125.15 155.539Z" fill="#262626"/>
<path d="M33.8019 139.46C32.1445 139.016 31.2739 138.783 29.7504 138.375C30.7978 140.091 31.675 140.434 33.8019 139.46Z" fill="#262626"/>
<path d="M121.001 117.249C120.215 117.038 119.411 116.823 118.507 116.581C119.3 118.175 119.3 118.175 121.001 117.249Z" fill="#262626"/>
<path d="M130.149 119.808C129.627 119.614 129.113 119.387 128.573 119.26C128.406 119.215 128.182 119.514 127.965 119.653C128.077 119.773 128.149 119.972 128.266 120.003C128.84 120.139 129.41 120.22 129.993 120.322C130.055 120.159 130.104 119.975 130.149 119.808Z" fill="#262626"/>
<path d="M199.157 129.057C199.709 129.277 200.234 129.525 200.808 129.661C200.975 129.706 201.241 129.383 201.433 129.201C201.455 129.189 201.275 128.853 201.141 128.818C200.534 128.673 199.926 128.6 199.326 128.493C199.256 128.689 199.207 128.873 199.157 129.057Z" fill="#262626"/>
<path d="M199.703 141.082C199.109 141.156 198.641 141.228 198.173 141.301C198.37 141.64 198.5 142.159 198.796 142.257C199.206 142.403 199.73 142.256 200.205 142.222C200.052 141.858 199.894 141.51 199.703 141.082Z" fill="#262626"/>
<path d="M26.9197 279.657C27.1304 279.875 27.3265 280.214 27.5776 280.282C27.8287 280.349 28.1439 280.11 28.4399 280.01C28.2124 279.788 28.0163 279.448 27.7651 279.381C27.5308 279.318 27.2201 279.54 26.9197 279.657Z" fill="#262626"/>
<path d="M186.552 168.87C186.52 168.987 186.489 169.104 186.457 169.221C186.877 169.262 187.297 169.303 187.721 169.327C187.635 169.178 187.555 168.941 187.438 168.91C187.149 168.85 186.837 168.875 186.552 168.87Z" fill="#262626"/>
<path d="M165.962 114.995C166.029 117.22 167.632 117.668 168.963 118.258C170.419 118.917 171.957 119.006 173.474 118.3C173.783 118.149 174.08 117.978 174.365 117.785C175.951 116.757 176.744 115.067 175.913 114.486C174.637 113.623 173.643 114.452 172.714 115.243C171.221 116.53 169.692 116.676 168 115.559C167.475 115.239 166.748 115.206 165.962 114.995Z" fill="#262626"/>
<path d="M164.928 88.718C164.4 88.6124 164.042 88.4088 163.75 88.4922C163.108 88.679 162.415 88.9238 161.883 89.3016C160.41 90.3784 159.074 90.3433 157.638 89.205C157.431 89.0418 156.798 89.3927 156.372 89.5116C156.558 89.9562 156.615 90.5458 156.926 90.7906C159.882 93.0182 163.134 92.6692 165.034 89.9306C165.21 89.6729 164.951 89.101 164.928 88.718Z" fill="#262626"/>
<path d="M104.443 76.6559C105.721 80.1207 108.301 81.4758 110.837 80.1816C111.46 79.8641 111.839 78.8531 112.112 78.1009C112.219 77.7705 111.859 77.1717 111.541 76.8174C111.388 76.6508 110.821 76.6245 110.583 76.776C109.84 77.205 109.171 77.7613 108.528 78.2172C107.196 77.6987 105.959 77.2238 104.443 76.6559Z" fill="#262626"/>
<path d="M135.909 96.571C135.717 96.9504 135.216 97.4801 135.321 97.7593C136.52 100.718 139.214 102.248 142.254 101.752C142.722 101.68 143.178 101.318 143.553 100.988C143.762 100.811 143.9 100.363 143.825 100.11C143.753 99.8393 143.332 99.4034 143.176 99.4513C140.223 100.293 138.365 98.521 136.507 96.7492C136.408 96.6509 136.21 96.6517 135.909 96.571Z" fill="#262626"/>
<path d="M136.746 85.0067C135.38 84.7482 134.033 84.6205 132.769 84.246C131.623 83.903 130.562 83.242 129.438 82.8152C129.242 82.7447 128.766 83.0478 128.648 83.2855C128.531 83.5231 128.586 83.9865 128.747 84.191C130.784 86.567 133.308 87.1897 136.215 86.1202C136.43 86.0524 136.484 85.5824 136.746 85.0067Z" fill="#262626"/>
<path d="M208.612 88.6162C206.568 88.8761 205.212 89.2485 203.885 89.18C202.755 89.1105 201.655 88.5286 200.066 88.031C201.408 90.9924 203.437 91.5898 205.821 91.529C206.802 91.4867 207.35 90.9157 208.612 88.6162Z" fill="#262626"/>
<path d="M72.5572 62.191C71.9248 60.8013 71.3347 59.3872 70.6006 58.0421C70.4335 57.7281 69.7247 57.6279 69.2747 57.633C69.0604 57.6294 68.7037 58.09 68.6654 58.3669C68.3765 60.0479 68.8391 61.5356 70.1966 62.5632C70.9562 63.1436 71.8495 63.0241 72.5572 62.191Z" fill="#262626"/>
<path d="M150.387 88.608C148.69 88.0455 147.169 87.4944 145.595 87.0727C145.394 87.0189 144.688 87.7805 144.754 88.0676C144.946 89.1597 145.764 89.7915 146.81 90.1076C148.202 90.5346 148.583 90.3855 150.387 88.608Z" fill="#262626"/>
<path d="M121.622 76.3607C120.774 75.3079 120.108 74.376 119.311 73.5344C118.824 73.009 118.083 72.8284 117.572 73.463C117.327 73.7742 117.328 74.4385 117.49 74.8407C117.954 75.9878 118.853 76.7849 120.107 76.9237C120.518 76.9979 120.979 76.6189 121.622 76.3607Z" fill="#262626"/>
<path d="M159.244 79.7304C156.878 78.648 155.088 77.8275 153.152 76.9499C154.573 80.2195 155.457 80.6715 159.244 79.7304Z" fill="#262626"/>
<path d="M100.899 76.3525C98.1727 74.7427 96.2267 74.7058 94.3738 74.3887C95.7109 76.631 97.6131 76.7639 100.899 76.3525Z" fill="#262626"/>
<path d="M163.197 104.421C164.391 107.397 165.373 107.75 168.593 106.513C168.463 106.263 168.399 105.833 168.215 105.784C166.6 105.315 164.971 104.897 163.197 104.421Z" fill="#262626"/>
<path d="M152.08 107.669C152.973 109.828 154.006 110.661 155.379 110.76C156.244 110.812 157.139 110.352 158.761 109.926C156.278 109.081 154.58 108.518 152.08 107.669Z" fill="#262626"/>
<path d="M58.4631 54.7898C59.7042 55.9836 60.1813 56.6139 60.8061 56.9608C61.1185 57.1342 61.9449 56.9968 62.1428 56.7268C62.6942 55.9415 61.9689 55.5677 61.3629 55.3515C60.7524 55.152 60.1016 55.1032 58.4631 54.7898Z" fill="#262626"/>
<path d="M84.5639 69.4813C84.9966 71.7504 86.3951 72.0893 88.5264 72.1041C87.3836 70.811 86.6368 69.7138 84.5639 69.4813Z" fill="#262626"/>
<path d="M148.048 78.9914C147.597 79.5345 147.222 79.8646 147.004 80.2729C146.661 80.9524 147.408 81.7806 148.463 81.7942C148.803 81.7957 149.457 81.1635 149.413 81.0618C149.204 80.5033 148.787 80.0507 148.048 78.9914Z" fill="#262626"/>
<path d="M177.18 100.183C177.773 100.378 178.377 100.737 178.987 100.739C179.377 100.754 179.776 100.269 180.167 100.015C179.879 99.6862 179.647 99.2114 179.271 99.0747C178.373 98.7443 177.604 98.9332 177.18 100.183Z" fill="#262626"/>
<path d="M126.183 67.6421C125.248 66.2431 123.968 66.3309 122.588 66.6608C123.902 67.7844 123.902 67.7845 126.183 67.6421Z" fill="#262626"/>
<path d="M95.6331 60.5148C95.6429 60.679 95.6149 60.8509 95.6459 61.0027C95.8447 61.9352 96.4626 62.4417 97.3592 62.3769C97.6539 62.3483 98.2098 61.5462 98.133 61.3641C97.7465 60.5967 97.0347 60.1727 96.1067 60.3546C95.9381 60.3812 95.7939 60.4503 95.6331 60.5148Z" fill="#262626"/>
<path d="M178.75 87.5589C179.27 89.3671 180.409 89.6721 181.996 89.3078C181.316 87.9594 180.46 87.1378 178.75 87.5589Z" fill="#262626"/>
<path d="M176.573 85.7734C176.466 85.637 176.406 85.4595 176.268 85.3689C175.35 84.7102 173.968 84.9139 173.655 85.7453C173.607 85.858 173.613 86.0389 173.678 86.1283C174.165 86.9227 175.552 86.9712 176.313 86.2062C176.445 86.116 176.494 85.9318 176.573 85.7734Z" fill="#262626"/>
<path d="M118.63 84.2437C118.671 84.3621 118.68 84.5262 118.767 84.6033C119.427 85.1568 120.128 85.4166 120.907 84.8537C120.997 84.788 121.043 84.5491 121.007 84.414C120.845 83.8142 119.64 83.4912 118.902 83.832C118.792 83.91 118.721 84.1065 118.63 84.2437Z" fill="#262626"/>
<path d="M72.3024 54.102C72.6369 54.4608 73.0315 54.9971 73.5379 55.384C73.7163 55.5216 74.2434 55.4295 74.4692 55.2567C74.6312 55.1207 74.6609 54.6083 74.5338 54.4128C74.272 53.9838 73.9297 53.587 73.518 53.3152C73.3016 53.1854 72.8827 53.3424 72.57 53.438C72.4773 53.4491 72.4525 53.6757 72.3024 54.102Z" fill="#262626"/>
<path d="M189.511 92.9364C189.831 92.8787 190.152 92.821 190.472 92.7634C190.187 92.4895 189.94 92.1364 189.602 91.992C189.41 91.9047 189.048 92.1845 188.764 92.3058C188.996 92.5115 189.245 92.7217 189.511 92.9364Z" fill="#262626"/>
<path d="M141.337 73.7661C141.084 73.5726 140.87 73.3 140.593 73.2617C140.421 73.2336 140.185 73.5113 139.981 73.6718C140.222 73.844 140.436 74.1167 140.708 74.1717C140.885 74.1831 141.12 73.9054 141.337 73.7661Z" fill="#262626"/>
<path d="M-1.2475 93.1412C2.48914 94.1962 6.05351 92.7469 9.60903 93.0716C13.2148 93.4097 16.8262 93.6597 20.6341 93.9802C20.4293 93.405 20.3376 92.6088 20.1155 92.5673C13.2876 91.3299 6.44388 90.2856 -0.449152 92.1708C-0.702679 92.2464 -0.843854 92.6393 -1.2475 93.1412Z" fill="#262626"/>
</svg>
