<svg width="16" height="16" viewBox="0 0 16 16" fill="none" xmlns="http://www.w3.org/2000/svg">
<path fill-rule="evenodd" clip-rule="evenodd" d="M6.38498 0.0187793C6.38498 0.029108 6.34272 0.0375587 6.29108 0.0375587C6.23944 0.0375587 6.19718 0.0460094 6.19718 0.056338C6.19718 0.0666667 6.17183 0.0751174 6.14085 0.0751174C6.10986 0.0751174 6.08451 0.0835681 6.08451 0.0938967C6.08451 0.104225 6.06761 0.112676 6.04695 0.112676C6.02629 0.112676 6.00939 0.121127 6.00939 0.131455C6.00939 0.141784 5.98404 0.150235 5.95305 0.150235C5.92207 0.150235 5.89671 0.158685 5.89671 0.169014C5.89671 0.179343 5.88167 0.187793 5.86331 0.187793C5.84492 0.187793 5.81771 0.204695 5.80282 0.225352C5.78792 0.246009 5.76071 0.262911 5.74233 0.262911C5.72396 0.262911 5.70892 0.271361 5.70892 0.28169C5.70892 0.292019 5.69542 0.300469 5.67889 0.300469C5.66238 0.300469 5.62518 0.325822 5.59624 0.356808C5.56731 0.387793 5.5342 0.413146 5.52269 0.413146C5.49536 0.413146 5.22066 0.68785 5.22066 0.715174C5.22066 0.726685 5.19531 0.759793 5.16432 0.788732C5.13333 0.817671 5.10798 0.854873 5.10798 0.87138C5.10798 0.887906 5.09953 0.901408 5.0892 0.901408C5.07887 0.901408 5.07042 0.916451 5.07042 0.934817C5.07042 0.953202 5.05352 0.980413 5.03286 0.995305C5.01221 1.0102 4.99531 1.03741 4.99531 1.05579C4.99531 1.07416 4.98685 1.0892 4.97653 1.0892C4.9662 1.0892 4.95775 1.11455 4.95775 1.14554C4.95775 1.17653 4.9493 1.20188 4.93897 1.20188C4.92864 1.20188 4.92019 1.21878 4.92019 1.23944C4.92019 1.26009 4.91174 1.277 4.90141 1.277C4.89108 1.277 4.88263 1.30235 4.88263 1.33333C4.88263 1.36432 4.87418 1.38967 4.86385 1.38967C4.85352 1.38967 4.84507 1.43192 4.84507 1.48357C4.84507 1.53521 4.83662 1.57746 4.82629 1.57746C4.81407 1.57746 4.80751 1.85915 4.80751 2.38498V3.19249H2.70423C1.31455 3.19249 0.600939 3.19885 0.600939 3.21127C0.600939 3.2216 0.575587 3.23005 0.544601 3.23005C0.513615 3.23005 0.488263 3.2385 0.488263 3.24883C0.488263 3.25915 0.471362 3.26761 0.450704 3.26761C0.430047 3.26761 0.413146 3.27606 0.413146 3.28638C0.413146 3.29671 0.400319 3.30516 0.38462 3.30516C0.347493 3.30516 0.112676 3.53998 0.112676 3.57711C0.112676 3.59281 0.104225 3.60563 0.0938967 3.60563C0.0835681 3.60563 0.0751174 3.62253 0.0751174 3.64319C0.0751174 3.66385 0.0666667 3.68075 0.056338 3.68075C0.0460094 3.68075 0.0375587 3.69765 0.0375587 3.71831C0.0375587 3.73897 0.029108 3.75587 0.0187793 3.75587C0.00730516 3.75587 0 3.84351 0 3.98122C0 4.11893 0.00730516 4.20657 0.0187793 4.20657C0.029108 4.20657 0.0375587 4.23192 0.0375587 4.26291C0.0375587 4.2939 0.0460094 4.31925 0.056338 4.31925C0.0666667 4.31925 0.0751174 4.33429 0.0751174 4.35266C0.0751174 4.37104 0.0920188 4.39825 0.112676 4.41315C0.133333 4.42804 0.150235 4.45125 0.150235 4.46473C0.150235 4.49893 0.311981 4.65728 0.34693 4.65728C0.362685 4.65728 0.375587 4.66573 0.375587 4.67606C0.375587 4.68638 0.392488 4.69484 0.413146 4.69484C0.433803 4.69484 0.450704 4.70329 0.450704 4.71361C0.450704 4.72394 0.467606 4.73239 0.488263 4.73239C0.50892 4.73239 0.525822 4.74084 0.525822 4.75117C0.525822 4.7615 0.559624 4.76995 0.600939 4.76995C0.642254 4.76995 0.676056 4.7784 0.676056 4.78873C0.676056 4.80073 0.838817 4.80751 1.12676 4.80751H1.57746V9.29577C1.57746 12.2754 1.58377 13.784 1.59624 13.784C1.60697 13.784 1.61502 13.8404 1.61502 13.9155C1.61502 13.9906 1.62308 14.0469 1.6338 14.0469C1.64413 14.0469 1.65258 14.0892 1.65258 14.1408C1.65258 14.1925 1.66103 14.2347 1.67136 14.2347C1.68169 14.2347 1.69014 14.2601 1.69014 14.2911C1.69014 14.3221 1.69859 14.3474 1.70892 14.3474C1.71925 14.3474 1.7277 14.3728 1.7277 14.4038C1.7277 14.4347 1.73615 14.4601 1.74648 14.4601C1.75681 14.4601 1.76526 14.4854 1.76526 14.5164C1.76526 14.5474 1.77371 14.5728 1.78404 14.5728C1.79437 14.5728 1.80282 14.5897 1.80282 14.6103C1.80282 14.631 1.81127 14.6479 1.8216 14.6479C1.83192 14.6479 1.84038 14.6648 1.84038 14.6854C1.84038 14.7061 1.84883 14.723 1.85915 14.723C1.86948 14.723 1.87793 14.738 1.87793 14.7564C1.87793 14.7748 1.89484 14.802 1.91549 14.8169C1.93615 14.8318 1.95305 14.8571 1.95305 14.8732C1.95305 14.8893 1.96995 14.9147 1.99061 14.9296C2.01127 14.9445 2.02817 14.9683 2.02817 14.9825C2.02817 14.9968 2.05352 15.0321 2.08451 15.061C2.11549 15.09 2.14085 15.1231 2.14085 15.1346C2.14085 15.1618 2.45318 15.4742 2.48047 15.4742C2.49196 15.4742 2.52505 15.4995 2.55399 15.5305C2.58293 15.5615 2.61827 15.5869 2.63249 15.5869C2.64672 15.5869 2.67055 15.6038 2.68545 15.6244C2.70034 15.6451 2.72755 15.662 2.74593 15.662C2.7643 15.662 2.77934 15.6704 2.77934 15.6808C2.77934 15.6911 2.79624 15.6995 2.8169 15.6995C2.83756 15.6995 2.85446 15.708 2.85446 15.7183C2.85446 15.7286 2.87136 15.7371 2.89202 15.7371C2.91268 15.7371 2.92958 15.7455 2.92958 15.7559C2.92958 15.7662 2.94648 15.7746 2.96714 15.7746C2.98779 15.7746 3.00469 15.7831 3.00469 15.7934C3.00469 15.8038 3.0216 15.8122 3.04225 15.8122C3.06291 15.8122 3.07981 15.8207 3.07981 15.831C3.07981 15.8413 3.10516 15.8498 3.13615 15.8498C3.16714 15.8498 3.19249 15.8582 3.19249 15.8685C3.19249 15.8789 3.21784 15.8873 3.24883 15.8873C3.27981 15.8873 3.30516 15.8958 3.30516 15.9061C3.30516 15.9164 3.33052 15.9249 3.3615 15.9249C3.39249 15.9249 3.41784 15.9333 3.41784 15.9437C3.41784 15.954 3.46009 15.9624 3.51174 15.9624C3.56338 15.9624 3.60563 15.9709 3.60563 15.9812C3.60563 15.9937 5.08295 16 8 16C10.9171 16 12.3944 15.9937 12.3944 15.9812C12.3944 15.9709 12.4366 15.9624 12.4883 15.9624C12.5399 15.9624 12.5822 15.954 12.5822 15.9437C12.5822 15.9333 12.616 15.9249 12.6573 15.9249C12.6986 15.9249 12.7324 15.9164 12.7324 15.9061C12.7324 15.8958 12.7577 15.8873 12.7887 15.8873C12.8197 15.8873 12.8451 15.8789 12.8451 15.8685C12.8451 15.8582 12.862 15.8498 12.8826 15.8498C12.9033 15.8498 12.9202 15.8413 12.9202 15.831C12.9202 15.8207 12.9371 15.8122 12.9577 15.8122C12.9784 15.8122 12.9953 15.8038 12.9953 15.7934C12.9953 15.7831 13.0122 15.7746 13.0329 15.7746C13.0535 15.7746 13.0704 15.7662 13.0704 15.7559C13.0704 15.7455 13.0873 15.7371 13.108 15.7371C13.1286 15.7371 13.1455 15.7286 13.1455 15.7183C13.1455 15.708 13.1624 15.6995 13.1831 15.6995C13.2038 15.6995 13.2207 15.6911 13.2207 15.6808C13.2207 15.6704 13.2357 15.662 13.2541 15.662C13.2725 15.662 13.2997 15.6451 13.3146 15.6244C13.3294 15.6038 13.3533 15.5869 13.3675 15.5869C13.3817 15.5869 13.4171 15.5615 13.446 15.5305C13.4749 15.4995 13.508 15.4742 13.5195 15.4742C13.531 15.4742 13.6122 15.4025 13.6998 15.3148C13.7874 15.2272 13.8592 15.1461 13.8592 15.1346C13.8592 15.1231 13.8845 15.09 13.9155 15.061C13.9465 15.0321 13.9718 14.9968 13.9718 14.9825C13.9718 14.9683 13.9887 14.9445 14.0094 14.9296C14.03 14.9147 14.0469 14.8893 14.0469 14.8732C14.0469 14.8571 14.0639 14.8318 14.0845 14.8169C14.1052 14.802 14.1221 14.7748 14.1221 14.7564C14.1221 14.738 14.1305 14.723 14.1408 14.723C14.1512 14.723 14.1596 14.7061 14.1596 14.6854C14.1596 14.6648 14.1681 14.6479 14.1784 14.6479C14.1887 14.6479 14.1972 14.631 14.1972 14.6103C14.1972 14.5897 14.2056 14.5728 14.216 14.5728C14.2263 14.5728 14.2347 14.5474 14.2347 14.5164C14.2347 14.4854 14.2432 14.4601 14.2535 14.4601C14.2639 14.4601 14.2723 14.4347 14.2723 14.4038C14.2723 14.3728 14.2808 14.3474 14.2911 14.3474C14.3014 14.3474 14.3099 14.3221 14.3099 14.2911C14.3099 14.2601 14.3183 14.2347 14.3286 14.2347C14.339 14.2347 14.3474 14.1925 14.3474 14.1408C14.3474 14.0892 14.3559 14.0469 14.3662 14.0469C14.3769 14.0469 14.385 13.9906 14.385 13.9155C14.385 13.8404 14.393 13.784 14.4038 13.784C14.4162 13.784 14.4225 12.2754 14.4225 9.29577V4.80751H14.8732C15.1612 4.80751 15.3239 4.80073 15.3239 4.78873C15.3239 4.7784 15.3577 4.76995 15.3991 4.76995C15.4404 4.76995 15.4742 4.7615 15.4742 4.75117C15.4742 4.74084 15.4911 4.73239 15.5117 4.73239C15.5324 4.73239 15.5493 4.72394 15.5493 4.71361C15.5493 4.70329 15.5662 4.69484 15.5869 4.69484C15.6075 4.69484 15.6244 4.68638 15.6244 4.67606C15.6244 4.66573 15.6373 4.65728 15.653 4.65728C15.6902 4.65728 15.8873 4.46013 15.8873 4.42295C15.8873 4.40723 15.8958 4.39437 15.9061 4.39437C15.9164 4.39437 15.9249 4.37746 15.9249 4.35681C15.9249 4.33615 15.9333 4.31925 15.9437 4.31925C15.954 4.31925 15.9624 4.2939 15.9624 4.26291C15.9624 4.23192 15.9709 4.20657 15.9812 4.20657C15.9927 4.20657 16 4.11893 16 3.98122C16 3.84351 15.9927 3.75587 15.9812 3.75587C15.9709 3.75587 15.9624 3.73897 15.9624 3.71831C15.9624 3.69765 15.954 3.68075 15.9437 3.68075C15.9333 3.68075 15.9249 3.66385 15.9249 3.64319C15.9249 3.62253 15.9164 3.60563 15.9061 3.60563C15.8958 3.60563 15.8873 3.59281 15.8873 3.57711C15.8873 3.53998 15.6525 3.30516 15.6154 3.30516C15.5997 3.30516 15.5869 3.29671 15.5869 3.28638C15.5869 3.27606 15.57 3.26761 15.5493 3.26761C15.5286 3.26761 15.5117 3.25915 15.5117 3.24883C15.5117 3.2385 15.4864 3.23005 15.4554 3.23005C15.4244 3.23005 15.3991 3.2216 15.3991 3.21127C15.3991 3.19885 14.6854 3.19249 13.2958 3.19249H11.1925V2.38498C11.1925 1.85915 11.1859 1.57746 11.1737 1.57746C11.1634 1.57746 11.1549 1.54366 11.1549 1.50235C11.1549 1.46103 11.1465 1.42723 11.1362 1.42723C11.1258 1.42723 11.1174 1.39343 11.1174 1.35211C11.1174 1.3108 11.1089 1.277 11.0986 1.277C11.0883 1.277 11.0798 1.26009 11.0798 1.23944C11.0798 1.21878 11.0714 1.20188 11.061 1.20188C11.0507 1.20188 11.0423 1.17653 11.0423 1.14554C11.0423 1.11455 11.0338 1.0892 11.0235 1.0892C11.0131 1.0892 11.0047 1.07416 11.0047 1.05579C11.0047 1.03741 10.9878 1.0102 10.9671 0.995305C10.9465 0.980413 10.9296 0.953202 10.9296 0.934817C10.9296 0.916451 10.9211 0.901408 10.9108 0.901408C10.9005 0.901408 10.892 0.887906 10.892 0.87138C10.892 0.854873 10.8667 0.817671 10.8357 0.788732C10.8047 0.759793 10.7793 0.726685 10.7793 0.715174C10.7793 0.68785 10.5046 0.413146 10.4773 0.413146C10.4658 0.413146 10.4327 0.387793 10.4038 0.356808C10.3748 0.325822 10.3376 0.300469 10.3211 0.300469C10.3046 0.300469 10.2911 0.292019 10.2911 0.28169C10.2911 0.271361 10.276 0.262911 10.2577 0.262911C10.2393 0.262911 10.2121 0.246009 10.1972 0.225352C10.1823 0.204695 10.1551 0.187793 10.1367 0.187793C10.1183 0.187793 10.1033 0.179343 10.1033 0.169014C10.1033 0.158685 10.0779 0.150235 10.0469 0.150235C10.016 0.150235 9.99061 0.141784 9.99061 0.131455C9.99061 0.121127 9.97371 0.112676 9.95305 0.112676C9.93239 0.112676 9.91549 0.104225 9.91549 0.0938967C9.91549 0.0835681 9.89014 0.0751174 9.85915 0.0751174C9.82817 0.0751174 9.80282 0.0666667 9.80282 0.056338C9.80282 0.0460094 9.76056 0.0375587 9.70892 0.0375587C9.65728 0.0375587 9.61502 0.029108 9.61502 0.0187793C9.61502 0.00640376 9.06417 0 8 0C6.93583 0 6.38498 0.00640376 6.38498 0.0187793ZM9.277 1.59624C9.277 1.60657 9.3108 1.61502 9.35211 1.61502C9.39343 1.61502 9.42723 1.62347 9.42723 1.6338C9.42723 1.64413 9.44028 1.65258 9.45624 1.65258C9.49382 1.65258 9.57747 1.73623 9.57747 1.7738C9.57747 1.78977 9.58592 1.80282 9.59624 1.80282C9.60843 1.80282 9.61502 2.04695 9.61502 2.49765V3.19249H8H6.38498V2.49765C6.38498 2.04695 6.39157 1.80282 6.40376 1.80282C6.41408 1.80282 6.42254 1.78977 6.42254 1.7738C6.42254 1.73623 6.50618 1.65258 6.54376 1.65258C6.55972 1.65258 6.57277 1.64413 6.57277 1.6338C6.57277 1.62347 6.60657 1.61502 6.64789 1.61502C6.6892 1.61502 6.723 1.60657 6.723 1.59624C6.723 1.58391 7.16118 1.57746 8 1.57746C8.83882 1.57746 9.277 1.58391 9.277 1.59624ZM5.8216 7.23005C5.8216 7.24038 5.84695 7.24883 5.87793 7.24883C5.90892 7.24883 5.93427 7.25728 5.93427 7.26761C5.93427 7.27793 5.94931 7.28638 5.96768 7.28638C5.98607 7.28638 6.01328 7.30329 6.02817 7.32394C6.04306 7.3446 6.06644 7.3615 6.08011 7.3615C6.11061 7.3615 6.19718 7.44558 6.19718 7.47517C6.19718 7.487 6.22254 7.52036 6.25352 7.5493C6.28451 7.57823 6.30986 7.61544 6.30986 7.63194C6.30986 7.64847 6.31831 7.66197 6.32864 7.66197C6.33897 7.66197 6.34742 7.68732 6.34742 7.71831C6.34742 7.7493 6.35587 7.77465 6.3662 7.77465C6.37859 7.77465 6.38498 8.39437 6.38498 9.59624C6.38498 10.7981 6.37859 11.4178 6.3662 11.4178C6.35587 11.4178 6.34742 11.4432 6.34742 11.4742C6.34742 11.5052 6.33897 11.5305 6.32864 11.5305C6.31831 11.5305 6.30986 11.5474 6.30986 11.5681C6.30986 11.5887 6.30141 11.6056 6.29108 11.6056C6.28075 11.6056 6.2723 11.6185 6.2723 11.6342C6.2723 11.6714 6.07516 11.8685 6.03797 11.8685C6.02225 11.8685 6.00939 11.877 6.00939 11.8873C6.00939 11.8977 5.99249 11.9061 5.97183 11.9061C5.95117 11.9061 5.93427 11.9146 5.93427 11.9249C5.93427 11.9352 5.91737 11.9437 5.89671 11.9437C5.87606 11.9437 5.85916 11.9521 5.85916 11.9624C5.85916 11.9728 5.82535 11.9812 5.78404 11.9812C5.74272 11.9812 5.70892 11.9897 5.70892 12C5.70892 12.0104 5.65884 12.0188 5.59624 12.0188C5.53365 12.0188 5.48357 12.0104 5.48357 12C5.48357 11.9897 5.44977 11.9812 5.40845 11.9812C5.36714 11.9812 5.33333 11.9728 5.33333 11.9624C5.33333 11.9521 5.31643 11.9437 5.29577 11.9437C5.27512 11.9437 5.25822 11.9352 5.25822 11.9249C5.25822 11.9146 5.24131 11.9061 5.22066 11.9061C5.2 11.9061 5.1831 11.8977 5.1831 11.8873C5.1831 11.877 5.17024 11.8685 5.15452 11.8685C5.11733 11.8685 4.92019 11.6714 4.92019 11.6342C4.92019 11.6185 4.91174 11.6056 4.90141 11.6056C4.89108 11.6056 4.88263 11.5887 4.88263 11.5681C4.88263 11.5474 4.87418 11.5305 4.86385 11.5305C4.85352 11.5305 4.84507 11.5052 4.84507 11.4742C4.84507 11.4432 4.83662 11.4178 4.82629 11.4178C4.8139 11.4178 4.80751 10.7981 4.80751 9.59624C4.80751 8.39437 4.8139 7.77465 4.82629 7.77465C4.83662 7.77465 4.84507 7.7493 4.84507 7.71831C4.84507 7.68732 4.85352 7.66197 4.86385 7.66197C4.87418 7.66197 4.88263 7.64693 4.88263 7.62856C4.88263 7.61018 4.89953 7.58297 4.92019 7.56808C4.94085 7.55318 4.95775 7.5298 4.95775 7.51613C4.95775 7.48563 5.04182 7.39906 5.07142 7.39906C5.08325 7.39906 5.1166 7.37371 5.14554 7.34272C5.17448 7.31174 5.21168 7.28638 5.22819 7.28638C5.24471 7.28638 5.25822 7.27793 5.25822 7.26761C5.25822 7.25728 5.28357 7.24883 5.31455 7.24883C5.34554 7.24883 5.37089 7.24038 5.37089 7.23005C5.37089 7.21857 5.45854 7.21127 5.59624 7.21127C5.73395 7.21127 5.8216 7.21857 5.8216 7.23005ZM10.6291 7.23005C10.6291 7.24038 10.6545 7.24883 10.6854 7.24883C10.7164 7.24883 10.7418 7.25728 10.7418 7.26761C10.7418 7.27793 10.7568 7.28638 10.7752 7.28638C10.7936 7.28638 10.8208 7.30329 10.8357 7.32394C10.8506 7.3446 10.874 7.3615 10.8876 7.3615C10.9181 7.3615 11.0047 7.44558 11.0047 7.47517C11.0047 7.487 11.03 7.52036 11.061 7.5493C11.092 7.57823 11.1174 7.61544 11.1174 7.63194C11.1174 7.64847 11.1258 7.66197 11.1362 7.66197C11.1465 7.66197 11.1549 7.68732 11.1549 7.71831C11.1549 7.7493 11.1634 7.77465 11.1737 7.77465C11.1861 7.77465 11.1925 8.39437 11.1925 9.59624C11.1925 10.7981 11.1861 11.4178 11.1737 11.4178C11.1634 11.4178 11.1549 11.4432 11.1549 11.4742C11.1549 11.5052 11.1465 11.5305 11.1362 11.5305C11.1258 11.5305 11.1174 11.5474 11.1174 11.5681C11.1174 11.5887 11.1089 11.6056 11.0986 11.6056C11.0883 11.6056 11.0798 11.6185 11.0798 11.6342C11.0798 11.6714 10.8827 11.8685 10.8455 11.8685C10.8298 11.8685 10.8169 11.877 10.8169 11.8873C10.8169 11.8977 10.8 11.9061 10.7793 11.9061C10.7587 11.9061 10.7418 11.9146 10.7418 11.9249C10.7418 11.9352 10.7249 11.9437 10.7042 11.9437C10.6836 11.9437 10.6667 11.9521 10.6667 11.9624C10.6667 11.9728 10.6329 11.9812 10.5915 11.9812C10.5502 11.9812 10.5164 11.9897 10.5164 12C10.5164 12.0104 10.4663 12.0188 10.4038 12.0188C10.3412 12.0188 10.2911 12.0104 10.2911 12C10.2911 11.9897 10.2573 11.9812 10.216 11.9812C10.1746 11.9812 10.1408 11.9728 10.1408 11.9624C10.1408 11.9521 10.1239 11.9437 10.1033 11.9437C10.0826 11.9437 10.0657 11.9352 10.0657 11.9249C10.0657 11.9146 10.0488 11.9061 10.0282 11.9061C10.0075 11.9061 9.99061 11.8977 9.99061 11.8873C9.99061 11.877 9.97775 11.8685 9.96203 11.8685C9.92485 11.8685 9.7277 11.6714 9.7277 11.6342C9.7277 11.6185 9.71925 11.6056 9.70892 11.6056C9.69859 11.6056 9.69014 11.5887 9.69014 11.5681C9.69014 11.5474 9.68169 11.5305 9.67136 11.5305C9.66103 11.5305 9.65258 11.5052 9.65258 11.4742C9.65258 11.4432 9.64413 11.4178 9.6338 11.4178C9.62141 11.4178 9.61502 10.7981 9.61502 9.59624C9.61502 8.39437 9.62141 7.77465 9.6338 7.77465C9.64413 7.77465 9.65258 7.7493 9.65258 7.71831C9.65258 7.68732 9.66103 7.66197 9.67136 7.66197C9.68169 7.66197 9.69014 7.64693 9.69014 7.62856C9.69014 7.61018 9.70704 7.58297 9.7277 7.56808C9.74836 7.55318 9.76526 7.5298 9.76526 7.51613C9.76526 7.48563 9.84933 7.39906 9.87893 7.39906C9.89076 7.39906 9.92411 7.37371 9.95305 7.34272C9.98199 7.31174 10.0192 7.28638 10.0357 7.28638C10.0522 7.28638 10.0657 7.27793 10.0657 7.26761C10.0657 7.25728 10.0911 7.24883 10.1221 7.24883C10.1531 7.24883 10.1784 7.24038 10.1784 7.23005C10.1784 7.21857 10.266 7.21127 10.4038 7.21127C10.5415 7.21127 10.6291 7.21857 10.6291 7.23005Z" fill="#769B54"/>
</svg>
