<svg viewBox="0 0 224 342" fill="none" xmlns="http://www.w3.org/2000/svg">
  <path
    d="M118.644 31.9827C119.602 29.1499 121.685 28.3167 125.018 28.6708C126.351 34.5656 127.726 40.5228 129.08 46.5008C128.205 47.2923 127.455 47.9589 126.351 48.9587C123.706 43.1473 121.185 37.6066 118.644 31.9827Z"
    fill="#262626" />
  <path
    d="M68.6328 115.175C68.6953 115.363 68.4453 115.633 68.1953 116.238C65.7583 112.572 64.1127 108.801 62.6546 104.906C60.0093 97.866 57.1349 90.9089 54.3645 83.9311C54.1979 83.5145 53.823 83.1604 53.7605 82.7646C53.1148 75.9117 47.9283 70.9543 46.0745 64.5597C45.6995 63.2266 43.8665 62.3517 42.8666 61.1228C42.2626 60.3938 41.492 59.3106 41.6378 58.5608C41.7836 57.8317 42.9084 56.9986 43.7624 56.7278C46.012 56.0404 48.3866 55.2281 50.532 57.4985C50.6986 60.3729 51.0735 63.0183 50.9485 65.6428C50.7402 70.1003 53.1981 73.8288 54.0938 77.9738C54.3645 79.1819 55.1978 80.5775 56.2184 81.2649C60.5718 84.2018 61.5716 88.7843 62.6131 93.4085C62.8838 94.5541 62.9671 95.8247 63.5087 96.8245C66.6331 102.573 66.7582 109.114 68.6328 115.175Z"
    fill="#262626" />
  <path
    d="M59.2801 69.4129C57.3221 65.8302 55.4267 62.2059 53.7186 58.4774C53.3437 57.6859 53.8228 56.5194 53.9062 55.5821C59.5301 54.8323 61.2173 56.0403 61.8213 61.2269C62.0088 62.8099 62.113 64.4346 62.113 66.0385C62.113 67.4757 61.9047 68.8921 61.7381 70.9751C60.6549 70.3085 59.6342 70.0378 59.2801 69.4129Z"
    fill="#262626" />
  <path
    d="M78.3807 112.488C76.8185 109.988 75.6311 108.093 74.1523 105.698C75.8394 105.864 77.1517 105.989 78.4223 106.114C80.0053 109.051 80.0054 109.051 78.3807 112.488Z"
    fill="#262626" />
  <path
    d="M68.4038 81.2022C70.7159 85.4305 72.7156 89.8464 74.8193 94.1997C75.1943 94.9912 75.4859 95.8244 75.59 96.0327C74.1528 98.6364 73.153 100.449 72.3198 101.948C71.5074 100.594 70.4035 98.6781 69.2162 96.8451C68.0081 95.0121 66.6126 93.3666 67.6957 90.8045C68.029 89.9922 67.1541 88.5966 66.7375 87.5135C65.5502 84.514 64.3214 81.5354 63.0299 78.3693C66.2585 77.2446 67.4457 79.4733 68.4038 81.2022Z"
    fill="#262626" />
  <path
    d="M78.0473 90.8256C79.6303 88.4093 77.964 86.6388 77.1725 84.66C75.6102 80.8274 74.0898 76.9948 73.1941 72.7456C73.7981 73.4121 74.4438 74.0579 74.9854 74.7869C75.3395 75.2451 75.4019 76.0575 75.8393 76.3074C80.1927 78.8694 80.9842 84.0768 84.1711 87.4928C84.8168 88.201 85.1293 89.305 85.3793 90.284C86.2749 94.0125 87.2123 97.741 87.8788 101.511C88.1288 102.865 87.7121 104.323 87.5246 106.573C86.1916 105.073 85.2335 104.365 84.7544 103.407C82.9839 99.8447 81.7966 95.9913 78.693 93.2001C78.1722 92.721 77.7556 91.2838 78.0473 90.8256Z"
    fill="#262626" />
  <path
    d="M78.8393 63.9764C77.8603 63.539 76.7563 62.685 76.3814 61.7477C75.0275 58.3525 73.9652 54.8532 72.7362 51.2288C74.2568 50.7081 75.4648 50.3123 77.2353 49.7083C79.4224 55.0198 81.4221 59.873 83.63 65.2679C81.6929 64.768 80.1515 64.5805 78.8393 63.9764Z"
    fill="#262626" />
  <path
    d="M64.738 53.6863C67.3625 52.0408 69.5706 52.3116 71.6327 54.0821C71.0078 57.0607 70.4246 59.831 69.7788 62.8305C65.4671 60.9558 64.134 57.9564 64.738 53.6863Z"
    fill="#262626" />
  <path
    d="M88.2745 65.0594C86.379 61.7059 86.3789 61.7059 88.9618 58.998C91.3572 63.3306 91.3156 63.7472 88.2745 65.0594Z"
    fill="#262626" />
  <path
    d="M167.635 106.093C167.469 105.031 167.802 103.886 167.906 102.782C168.219 102.761 168.51 102.74 168.823 102.698C169.114 104.094 169.448 105.489 169.656 106.906C170.427 112.446 171.197 117.987 171.885 123.549C172.01 124.465 171.822 125.423 171.739 126.361C171.239 125.277 170.593 124.194 170.385 123.049C169.385 117.425 168.469 111.759 167.635 106.093Z"
    fill="#262626" />
  <path
    d="M148.597 58.6023C147.889 57.5609 147.18 56.5194 146.16 55.0405C149.243 55.1447 148.347 57.2693 148.597 58.6023Z"
    fill="#262626" />
  <path
    d="M171.718 126.569C171.718 126.506 171.739 126.444 171.739 126.361C171.78 126.444 171.822 126.527 171.843 126.611C171.843 126.652 171.843 126.673 171.843 126.715C171.822 126.673 171.78 126.631 171.718 126.569C171.718 126.569 171.739 126.569 171.718 126.569Z"
    fill="#262626" />
  <path
    d="M79.9851 48.8125C80.5266 48.5209 81.1308 48.146 81.7556 47.8752C82.4222 47.6044 83.1304 47.3961 83.9844 47.1045C86.4215 49.7498 86.9005 53.0617 88.1295 56.6028C82.8388 55.9779 81.4431 54.5823 79.9851 48.8125Z"
    fill="#262626" />
  <path
    d="M146.327 18.5683C147.327 22.5259 148.264 26.5252 149.097 30.5244C150.243 36.0026 151.43 41.5016 152.263 47.0214C152.68 49.7709 153.305 52.2704 155.367 54.1659C158.304 56.8737 159.512 60.5605 161.095 64.039C165.74 74.2038 169.406 84.6394 169.406 96.0123C169.406 96.7205 169.302 97.4495 169.239 98.5118C166.698 95.6373 165.865 92.5963 165.49 89.2427C165.032 85.181 164.22 81.14 163.032 77.1616C161.012 81.4316 163.011 85.4726 163.636 89.5343C164.22 93.3045 165.428 96.9704 166.407 100.803C163.553 101.011 162.262 100.157 162.199 97.7203C162.116 95.3874 161.991 93.0337 161.699 90.7216C161.283 87.0973 161.074 83.5979 159.22 80.1194C157.408 76.7242 157.179 72.4958 156.346 68.6215C156.242 68.1633 156.554 67.4759 156.867 67.0593C158.783 64.6014 159.137 63.4141 156.971 62.0394C151.93 58.8317 151.472 53.3744 150.16 48.5836C148.056 40.8975 146.869 32.9823 145.286 25.1504C145.119 24.2756 145.119 23.1508 144.577 22.6092C142.39 20.4638 144.39 18.6308 145.056 16.5062C145.494 17.1728 146.14 17.8185 146.327 18.5683Z"
    fill="#262626" />
  <path
    d="M84.8796 71.5164C85.6919 75.4323 88.1081 78.411 90.441 81.4312C93.7529 85.6805 94.4194 90.4296 93.3988 95.5536C93.3363 95.9285 92.9198 96.2201 92.0449 97.3658C88.4206 87.8675 83.6922 79.5566 81.276 69.8917C83.0882 69.6417 84.5047 69.6834 84.8796 71.5164Z"
    fill="#262626" />
  <path
    d="M104.855 99.407C105.355 99.7195 105.626 100.719 105.668 101.407C105.98 107.343 108.584 112.509 110.875 117.799C111.563 119.424 112.042 121.153 112.646 122.924C110.063 122.611 108.855 121.257 107.98 118.903C105.564 112.405 102.96 105.927 100.086 99.6154C98.7108 96.5951 98.3776 93.8039 99.7315 90.1379C101.565 93.5956 101.648 97.3449 104.855 99.407Z"
    fill="#262626" />
  <path
    d="M145.639 49.7709C145.16 48.3545 144.681 46.9381 144.202 45.5425C146.16 46.5215 145.702 48.2086 145.639 49.7709Z"
    fill="#262626" />
  <path
    d="M171.031 231.549C168.989 228.196 168.052 224.176 166.719 220.406C165.74 217.656 165.552 214.344 163.844 212.24C162.324 210.345 161.241 208.408 160.408 206.283C159.304 203.45 158.575 200.451 157.596 197.556C157.346 196.827 156.679 196.264 156.242 195.598C155.867 195.014 155.138 194.202 155.304 193.786C156.575 190.307 154.263 187.745 152.784 185.329C151.43 183.1 150.451 180.767 149.41 178.476C147.952 175.226 146.91 171.852 144.661 168.936C143.702 167.686 144.223 165.374 143.369 163.979C139.453 157.501 136.766 149.752 135.912 142.191C135.641 139.879 134.808 137.588 133.975 135.38C130.122 125.257 127.705 114.717 125.06 104.219C124.602 102.365 123.831 100.595 123.04 98.8449C120.269 92.6377 117.416 86.4513 114.666 80.2233C114.437 79.7234 114.77 78.9736 114.937 77.6821C116.895 81.7647 118.52 85.1807 120.123 88.5551C121.311 88.4718 122.165 88.4093 123.081 88.326C123.331 88.6593 123.685 88.9717 123.852 89.3466C125.56 93.5958 127.476 97.7617 128.809 102.136C129.601 104.74 129.268 107.635 129.705 110.364C130.101 112.946 130.83 115.488 131.455 118.029C131.892 119.82 132.267 121.653 132.913 123.382C133.767 125.694 134.746 127.839 136.516 129.86C138.099 131.672 138.099 134.838 138.953 137.359C139.287 138.4 139.766 139.608 140.578 140.233C144.036 142.92 144.077 142.837 145.265 147.607C143.807 146.753 142.578 146.044 140.474 144.795C141.682 148.336 142.348 151.002 143.473 153.481C145.535 158.042 148.202 162.291 149.035 167.395C149.389 169.519 150.472 171.602 151.597 173.498C157.679 183.725 162.116 194.702 166.344 205.762C171.926 220.447 177.3 235.194 182.862 249.879C183.424 251.379 184.632 252.65 185.945 254.649C185.382 255.399 184.403 256.711 183.133 258.399C179.716 253.066 176.321 248.65 174.447 242.985C173.176 239.256 173.239 235.174 171.031 231.549Z"
    fill="#262626" />
  <path
    d="M139.245 80.0777C141.39 78.4947 143.161 77.2033 145.098 75.7869C146.369 77.8698 147.368 79.4945 148.347 81.1192C148.493 81.3692 148.826 81.6816 148.785 81.8691C147.598 86.3474 151.326 90.1592 150.493 94.5959C150.264 95.8248 150.534 97.1579 150.618 99.0742C144.598 93.6586 144.64 85.4517 139.245 80.0777Z"
    fill="#262626" />
  <path
    d="M144.619 101.636C140.369 95.5536 138.828 88.2841 134.579 81.8269C135.974 81.1187 136.745 80.7438 137.62 80.3064C139.557 83.8682 142.098 87.1176 143.098 90.7836C144.015 94.1996 145.993 97.7407 144.619 101.636Z"
    fill="#262626" />
  <path
    d="M106.583 83.1602C110.062 90.1589 113.291 97.2826 116.623 104.365C117.498 106.218 118.186 108.114 117.165 110.738C116.373 109.78 115.686 109.259 115.394 108.551C114.582 106.656 114.04 104.615 113.207 102.719C111.603 99.0947 109.791 95.5537 108.187 91.9294C106.875 88.9716 105.709 85.9513 104.48 82.9519C104.146 82.1395 103.876 81.3064 103.459 80.5357C100.793 75.4533 98.0226 70.4334 95.4189 65.3093C92.961 60.4561 90.6489 55.5403 88.3369 50.6037C87.712 49.2915 87.3787 47.8542 86.7746 46.1046C88.441 45.313 89.9407 44.6048 91.4821 43.855C91.9404 44.584 92.3153 44.9381 92.3569 45.313C93.3776 54.8321 96.6895 63.6846 100.439 72.3497C102.105 76.1615 104.75 79.4734 106.583 83.1602Z"
    fill="#262626" />
  <path
    d="M56.4683 197.681C56.135 198.701 55.8017 199.722 55.4476 200.743C54.5936 200.451 53.9479 200.222 53.323 199.993C54.0312 198.931 53.5105 196.452 56.4683 197.681Z"
    fill="#262626" />
  <path
    d="M53.3235 199.993L53.3026 200.014C53.3026 200.014 53.1777 199.93 53.1985 199.951C53.2402 199.972 53.2818 199.972 53.3235 199.993Z"
    fill="#262626" />
  <path
    d="M59.1763 206.366C60.3844 204.929 61.176 203.992 62.0508 202.95C63.9463 204.533 63.5089 205.887 62.1133 208.012C61.2385 207.512 60.4053 207.054 59.1763 206.366Z"
    fill="#262626" />
  <path
    d="M68.5282 206.241C68.7573 206.616 69.0073 207.012 69.2365 207.387C68.4658 208.47 67.9659 209.97 65.0914 208.928C66.5703 207.783 67.5492 207.033 68.5282 206.241Z"
    fill="#262626" />
  <path
    d="M103.252 62.6223C99.0651 56.3526 96.0656 49.9371 94.2326 42.8551C95.6282 42.1677 96.7738 41.5845 98.3568 40.8138C101.794 45.9171 102.585 51.7493 103.71 57.3941C104.022 59.0604 103.418 60.8934 103.252 62.6223Z"
    fill="#262626" />
  <path d="M112.562 73.4537C109.75 72.7455 109.167 72.2039 103.668 64.7053C107.917 66.7466 110 68.8712 112.562 73.4537Z"
    fill="#262626" />
  <path
    d="M110.563 57.0611C109.813 55.3114 109.355 54.27 108.917 53.2493C108.563 52.4578 108.459 51.2705 107.855 50.9372C103.356 48.4169 103.502 43.6886 101.793 39.2727C103.689 38.3562 105.085 37.6689 106.813 36.8357C109.167 42.7929 111.292 48.3752 112.333 54.2908C112.437 54.9365 111.438 55.7697 110.563 57.0611Z"
    fill="#262626" />
  <path
    d="M138.057 104.906C137.557 105.156 136.995 105.281 135.995 105.614C134.787 102.073 133.787 98.6572 132.475 95.3454C131.183 92.096 129.621 88.9299 127.955 85.2222C129.58 84.5349 130.6 84.0975 132.162 83.4309C134.558 90.4713 136.849 97.22 139.14 103.99C138.703 104.365 138.432 104.719 138.057 104.906Z"
    fill="#262626" />
  <path
    d="M65.1331 213.865C65.2372 214.011 64.3832 214.886 63.9666 215.407C63.2584 214.782 62.4669 214.219 61.8837 213.49C61.7587 213.324 62.3628 212.595 62.821 211.782C63.7583 212.574 64.5707 213.136 65.1331 213.865Z"
    fill="#262626" />
  <path
    d="M114.728 44.9594C113.104 42.3766 112.166 39.3355 110.979 36.6277C113.27 32.8992 113.27 32.8992 116.561 33.4408C117.186 37.0234 117.707 40.1895 118.269 43.3348C118.811 46.2925 119.373 49.2712 119.394 52.4372C116.478 50.7084 116.27 47.3965 114.728 44.9594Z"
    fill="#262626" />
  <path
    d="M53.3022 200.013C53.2605 199.992 53.2397 199.992 53.1981 199.992C53.1981 199.972 53.198 199.951 53.1772 199.93L53.3022 200.013Z"
    fill="#262626" />
  <path
    d="M216.001 224.947C218.875 224.447 220.146 225.842 221.604 227.634C218.667 228.758 217.563 227.071 216.001 224.947Z"
    fill="#262626" />
  <path
    d="M23.7872 113.884C23.0998 110.718 21.9751 107.635 21.1211 104.49C19.2256 97.5743 16.0594 91.2421 12.5392 85.0349C9.33151 79.3902 6.18629 73.6621 3.33266 67.8298C1.8746 64.8304 1.10396 61.4768 0 58.2274C1.81216 55.2696 4.16586 53.1034 7.12364 51.6245C19.7046 45.3131 32.2232 38.8977 44.8875 32.7738C54.2191 28.2747 63.7382 24.1921 73.1739 19.9221C73.5905 19.7346 73.9862 19.4846 74.4236 19.4638C81.3598 18.8806 85.9631 14.0481 91.1705 10.2988C94.1699 8.13255 97.0861 5.79966 101.023 5.5497C101.564 5.50804 102.21 5.19562 102.606 4.82069C107.688 -0.17838 114.041 0.779759 120.165 1.32133C122.29 1.50879 124.227 1.67543 126.164 0.842256C128.122 0.00907782 129.851 0.321524 131.601 1.52963C133.559 2.88355 135.558 3.67505 138.224 2.88353C140.724 2.13367 149.639 8.04924 150.326 10.5279C151.118 13.3816 151.722 16.2769 152.347 19.1513C154.096 27.1082 155.388 35.19 157.741 42.9803C159.345 48.2918 161.97 53.4575 164.948 58.1649C169.864 65.9552 173.239 74.2036 174.53 83.2644C174.905 85.8681 176.113 86.7638 178.3 87.3678C187.319 89.9507 191.444 95.5747 191.006 104.927C190.777 109.655 190.506 114.404 189.715 119.07C188.736 124.798 189.298 130.277 190.902 135.755C192.506 141.254 192.86 146.878 191.777 152.418C190.798 157.313 189.194 162.083 187.923 166.936C187.715 167.749 187.673 168.707 187.882 169.498C189.069 174.248 189.861 179.184 191.777 183.6C193.193 186.87 195.776 189.89 198.505 192.265C206.732 199.43 215.189 206.304 224 212.72V218.01C223.354 217.573 222.709 217.115 222.042 216.698C217.501 213.886 214.835 208.804 209.586 206.971C209.19 206.825 208.919 206.408 208.565 206.117C205.316 203.45 202.046 200.784 198.796 198.118C199.859 200.784 201.4 203.076 203.275 205.033C205.17 207.033 208.315 207.991 208.836 212.449C205.108 209.762 202.108 207.616 198.588 205.096C199.63 210.449 203.525 213.136 206.712 216.948C205.295 216.927 204.524 216.906 203.754 216.885C204.212 222.988 210.253 225.134 213.065 229.946C211.711 229.529 210.773 229.258 209.378 228.842C210.503 234.07 213.044 237.902 216.043 240.735C215.981 242.964 215.897 244.589 215.918 246.192C215.96 248.088 216.085 249.796 215.127 251.712C213.794 254.399 213.231 257.461 212.294 260.419C209.607 261.731 209.669 261.752 208.274 264.877C207.961 265.606 207.17 266.647 206.607 266.647C202.983 266.647 202.525 269.23 202.379 271.896C197.817 271.354 197.026 271.854 195.776 275.937C194.61 276.166 193.443 276.374 191.839 276.687C193.131 278.541 194.131 279.957 194.985 281.228C191.923 282.852 190.715 277.499 187.257 280.353C188.652 282.561 190.006 284.665 191.527 287.039C189.277 285.727 187.278 284.748 185.445 283.498C183.278 281.998 183.341 281.894 181.133 284.54C181.925 285.414 182.716 286.289 183.487 287.164C191.173 295.954 199.005 304.619 206.482 313.576C212.231 320.491 217.835 327.511 223.979 334.072V341.758C223.854 341.633 223.708 341.508 223.583 341.362C219.897 337.113 216.126 332.947 212.606 328.573C201.837 315.201 191.173 301.745 180.466 288.331C179.842 287.539 179.05 286.852 178.425 286.185C174.363 287.56 170.906 288.935 167.365 289.914C151.659 294.184 135.787 296.746 119.561 293.225C112.729 291.747 107.001 288.664 105.668 280.54C104.626 280.894 103.814 280.936 103.335 281.373C97.9193 286.185 91.6912 283.665 86.8796 279.561C80.0059 273.708 75.9858 266.418 76.7148 257.024C76.7981 256.024 76.2358 254.649 75.4859 254.004C69.7162 249.025 65.4252 242.818 61.0927 236.694C60.5095 235.861 60.5303 234.445 60.5928 233.341C60.7595 230.508 60.218 228.196 57.5518 226.529C52.5319 223.405 50.2823 218.593 49.5949 212.845C49.2825 210.199 49.0117 207.471 48.116 205.013C45.5332 198.056 46.9079 191.328 48.9492 184.142C47.9494 183.746 46.9287 183.308 45.8872 182.954C41.9921 181.642 39.3052 179.163 38.0138 175.185C37.4305 173.373 36.8473 171.456 35.785 169.936C30.0152 161.562 30.9526 152.293 38.4304 145.211C38.972 144.711 39.451 144.17 40.305 143.295C39.3468 142.108 38.4928 140.962 37.5346 139.941C30.5151 132.484 25.9326 123.861 23.7872 113.884ZM7.9776 71.5583C10.5604 76.3699 13.2683 81.0982 15.8303 85.9098C20.8294 95.283 25.8909 104.635 28.0364 115.217C28.1613 115.8 28.2655 116.383 28.4738 116.925C29.8902 120.737 31.3483 124.548 32.7856 128.36C33.1813 128.235 33.5979 128.131 33.9937 128.027C33.1397 124.778 32.4106 121.466 31.3692 118.279C29.682 112.967 29.3487 107.218 26.4534 102.282C24.3705 98.7199 22.1 95.2414 20.2879 91.5337C16.9968 84.7641 13.9348 77.8904 10.8729 71.0167C9.99808 69.0587 8.74834 67.8298 6.08217 66.9341C6.87369 68.8921 7.31105 70.2877 7.9776 71.5583ZM140.161 6.02877C138.932 4.4249 137.641 5.11229 136.308 6.00795C135.891 6.27874 135.017 6.36206 134.621 6.11211C130.476 3.50842 125.81 3.57092 121.207 3.32097C120.915 3.30014 120.644 3.11267 120.353 3.09184C115.291 2.98769 110.334 3.32097 105.814 5.92465C103.814 7.07027 101.752 8.13257 99.7106 9.23653C98.2734 10.0072 96.6904 10.5904 95.4198 11.5486C85.4425 19.193 75.2984 26.65 66.7167 35.9191C64.2797 38.5436 61.6343 40.814 58.1141 41.9596C54.948 43.0011 52.1986 44.8341 49.824 47.2503C57.3851 45.0007 64.8004 42.522 72.1949 39.9392C74.9235 38.981 77.8605 38.3353 79.1103 35.0234C79.4644 34.1069 80.9016 33.5653 81.8806 32.9196C82.0473 32.8155 82.3805 32.9613 82.6304 32.9821C83.0054 33.1696 83.3803 33.357 83.776 33.5445C82.8595 34.2111 81.9223 34.8776 81.0058 35.5442C81.3183 35.7524 81.6514 35.9816 81.9639 36.1899C86.2756 34.336 90.5873 32.503 95.024 30.6075C93.7951 27.5873 94.8365 25.6085 97.2943 24.1504C98.1483 23.6297 99.1898 23.0881 99.6689 22.2758C101.669 18.9222 102.439 18.464 108.063 18.6931C105.522 19.8595 103.897 20.6094 102.273 21.3384C102.439 21.6717 102.585 21.9008 102.668 22.1716C102.814 22.5465 102.939 22.9215 103.043 23.2756C97.0444 26.3584 97.0445 26.3583 97.2528 29.5661C107.876 25.5876 118.353 21.5676 128.455 16.5685C129.205 16.2144 129.83 15.5062 130.351 14.8188C132.725 11.6111 134.537 11.6736 136.475 15.0271C137.079 16.0686 137.766 17.0267 138.995 18.9014C139.891 15.6103 140.286 13.3399 141.161 11.257C141.994 9.2157 141.37 7.59098 140.161 6.02877ZM62.3009 34.8984C57.3851 35.2525 31.2025 47.8543 18.0174 56.0195C18.1424 56.3528 18.2466 56.6861 18.3716 57.0193C22.4542 55.6237 26.5575 54.249 30.6609 52.8326C30.7859 52.7909 30.8693 52.6243 30.9942 52.5618C33.1397 51.2912 35.2018 49.854 37.4513 48.7708C44.0543 45.5214 50.7405 42.4179 57.3851 39.2101C59.3015 38.2728 61.0928 37.1272 62.3009 34.8984ZM182.904 94.1999C181.57 93.1168 180.383 91.8878 179.133 90.7214C177.821 91.2629 176.363 91.8462 173.989 92.8252C176.738 101.178 174.426 110.239 177.988 118.55C178.092 127.485 180.237 136.088 182.07 144.774C184.778 139.921 182.549 135.234 181.383 130.277C183.924 131.11 185.091 132.318 185.07 134.817C185.028 139.254 185.424 143.67 185.341 148.107C185.299 150.398 184.695 152.689 184.341 154.98C184.07 156.855 184.403 158.521 185.84 160.542C186.153 159.125 186.34 158.417 186.465 157.709C188.465 147.523 186.736 137.525 185.007 127.506C184.112 122.278 184.82 117.091 186.819 112.301C189.152 106.739 187.486 97.9075 182.904 94.1999ZM132.1 288.122C132.913 290.122 134.225 290.892 136.516 289.455C135.329 286.622 134.142 283.748 132.892 280.707C137.62 280.311 137.62 280.311 139.432 283.477C140.245 284.894 140.89 286.393 141.765 287.768C142.119 288.33 142.869 288.601 143.452 289.018C143.64 288.872 143.827 288.726 144.015 288.56C143.327 286.518 142.64 284.477 141.849 282.186C143.265 281.832 144.348 281.582 145.41 281.311C147.389 283.602 147.16 287.227 150.993 288.664C149.93 285.539 149.076 283.04 148.16 280.332C149.639 279.832 150.993 279.374 152.576 278.832C154.284 281.582 155.971 284.269 157.929 287.435C162.657 285.935 167.094 284.269 171.656 283.165C173.697 282.686 174.197 281.332 174.551 280.353C176.571 280.228 178.446 280.686 179.529 279.978C184.986 276.458 190.235 272.625 195.547 268.876C195.901 268.626 196.193 268.251 196.505 267.938C200.338 264.106 203.816 260.148 206.837 255.482C210.877 249.275 211.357 243.568 208.482 237.153C207.087 234.07 205.628 231.008 204.087 228.008C196.318 212.74 190.59 196.66 186.215 180.184C182.195 165.041 179.612 149.481 176.426 134.109C176.176 132.859 176.342 131.464 174.238 130.506C174.176 131.964 173.884 133.068 174.093 134.067C177.592 150.398 179.987 166.957 184.82 183.038C188.861 196.514 192.589 210.074 198.276 222.988C199.879 226.634 201.192 230.425 202.462 234.216C202.921 235.569 203.108 237.152 202.962 238.569C202.691 241.193 202.108 243.776 201.588 246.672C200.546 246.047 199.505 244.984 198.359 244.88C195.464 244.609 196.755 241.777 195.422 240.631C197.609 236.507 194.339 233.299 193.422 229.758C192.86 227.613 192.36 225.113 189.944 223.78C189.34 223.447 189.069 222.301 188.84 221.468C187.715 217.656 186.736 213.824 185.549 210.033C181.07 195.681 176.509 181.35 171.989 167.02C171.176 164.479 170.302 161.958 169.468 159.438C168.677 157.063 167.49 154.71 167.177 152.272C166.865 149.69 165.49 147.565 164.969 145.17C163.282 137.567 161.657 129.922 160.262 122.257C159.679 118.966 158.387 115.55 159.991 112.217C161.137 109.864 160.699 107.572 159.887 105.323C158.887 102.532 157.741 99.803 156.617 97.0744C155.554 94.5123 154.076 92.1586 154.825 89.0967C155.096 87.9302 154.555 86.4097 154.013 85.2432C151.555 79.8692 149.014 74.5369 146.41 69.2045C143.369 62.9557 140.245 56.7694 137.162 50.5414C137.099 50.4164 137.058 50.2706 137.016 50.1248C135.162 44.6466 133.413 39.1476 131.434 33.7111C130.601 31.4199 129.33 29.2953 128.08 26.7333C129.039 25.7959 130.372 24.5045 132.163 22.7549C133.163 24.3379 134.163 25.421 134.558 26.6916C135.266 28.9204 135.579 31.2741 136.058 33.5862C136.62 36.3357 137.454 39.0643 137.724 41.8555C138.308 48.0418 140.495 53.6658 143.369 59.0189C146.16 64.2055 147.889 70.2252 153.826 73.1622C154.263 73.3704 154.492 74.1203 154.7 74.6619C155.929 77.8488 157.262 80.994 158.262 84.2434C158.866 86.2014 159.658 88.4926 159.179 90.3256C157.7 96.1787 161.532 101.178 161.22 106.76C163.803 110.614 163.407 114.904 163.095 119.195C162.949 121.237 162.386 123.59 163.157 125.277C167.844 135.692 171.593 146.44 174.572 157.438C176.53 164.708 178.592 172.06 179.383 179.497C179.946 184.933 181.487 189.807 183.528 194.681C186.736 202.305 190.006 209.908 193.277 217.51C193.485 218.01 193.797 218.468 194.068 218.948C194.339 218.802 194.63 218.677 194.901 218.531C193.818 215.365 193.027 212.074 191.631 209.054C185.507 195.744 182.799 181.455 179.404 167.374C176.821 156.73 174.655 145.982 172.489 135.234C171.926 132.464 172.093 129.548 171.906 126.694C172.405 127.277 172.926 127.902 173.926 129.068C174.134 126.86 174.509 125.319 174.384 123.819C173.364 112.03 171.947 100.261 171.239 88.451C170.614 78.0779 167.406 68.7879 161.72 60.1854C157.929 54.4364 155.659 48.021 154.138 41.3139C151.93 31.4824 149.618 21.6717 147.306 11.8819C147.077 10.9029 146.431 10.0489 145.765 8.69497C143.765 13.1108 142.078 16.8184 140.266 20.8177C143.369 22.6507 142.203 26.3583 142.869 29.3786C143.536 32.4405 143.119 35.7524 143.203 39.2309C140.036 33.0238 136.516 27.1915 137.224 20.0262C135.079 17.36 132.725 17.5058 129.788 18.8806C122.706 22.2133 115.562 25.4002 108.334 28.3788C96.857 33.1071 85.3591 37.7729 73.7779 42.1887C64.9254 45.5631 55.9271 48.5417 46.9496 51.5828C43.1586 52.8534 39.2843 53.8532 35.3892 54.853C30.3902 56.1445 25.3495 57.3317 20.3296 58.5607C18.1633 59.0814 16.0178 59.9563 13.8515 59.9979C11.7477 60.0396 9.24821 60.7686 7.22777 58.519C8.97743 57.4984 10.4355 56.5611 11.9561 55.7904C23.1623 50.0623 34.2644 44.1259 45.6165 38.7102C51.7403 35.7733 58.2808 33.732 64.6338 31.2324C67.7582 30.0035 70.3619 28.1288 72.8406 24.9419C67.3208 27.0665 62.4884 28.9204 57.6768 30.795C54.6565 31.9823 51.5945 33.1488 48.6576 34.5235C39.3885 38.8352 30.1402 43.1469 20.9544 47.6252C16.7052 49.6873 12.4559 51.8536 8.51918 54.4573C4.51993 57.1234 3.68675 61.2685 5.66556 65.122C8.66499 64.1013 11.6853 63.164 14.6431 62.0392C19.0172 60.3937 18.9965 60.3312 21.371 64.5596C21.8085 65.3303 22.4333 66.0593 22.6208 66.8925C23.9539 73.0788 26.7866 78.6819 30.1402 83.8893C35.5767 92.3044 39.1177 101.574 42.6796 110.78C46.1164 119.674 50.1573 128.173 54.8856 136.359C56.9685 139.962 60.2179 142.795 63.5714 145.42C62.8424 142.962 61.9676 140.629 60.6554 138.608C58.989 136.025 56.8853 133.713 55.0939 131.193C50.6364 124.965 47.2204 118.3 46.5955 110.489C46.5122 109.635 46.3038 108.697 45.8872 107.947C42.5754 101.865 39.1593 95.8454 35.8891 89.7424C33.8687 85.9723 31.9315 82.1396 30.1819 78.2237C28.1614 73.6829 27.3283 68.5797 23.4332 64.8929C21.9334 63.4556 22.5791 61.5185 24.5787 60.6645C25.7452 60.1646 27.1408 60.1854 28.4114 59.9146C30.1194 59.5397 31.9731 59.4355 33.4937 58.6857C37.0972 56.8735 37.0347 56.7277 39.2218 59.0189C39.5551 61.8101 39.7217 63.7264 40.0342 65.6427C40.2841 67.0799 40.7008 68.5172 41.1382 69.9128C41.6173 71.4541 41.9297 73.1205 42.7837 74.4327C46.1372 79.6609 49.824 84.66 53.0734 89.9507C54.8231 92.8043 56.5937 95.9288 57.1769 99.1365C57.8851 103.094 58.3641 106.885 59.968 110.718C62.9258 117.821 65.5086 124.986 71.0284 130.651C72.4448 132.13 74.7153 133.797 74.7361 135.421C74.8403 139.858 77.069 142.899 79.6935 145.961C80.2351 146.607 80.4017 147.565 80.735 148.377C82.3597 152.189 83.8802 156.063 85.6507 159.792C87.8795 164.458 90.4832 168.957 92.6911 173.643C98.2942 185.558 103.897 197.493 109.271 209.533C114.52 221.28 119.561 233.132 124.581 244.984C127.268 251.337 129.851 257.774 132.205 264.252C132.913 266.21 132.996 268.522 132.934 270.646C132.871 272.542 133.454 273.542 135.287 273.583C136.245 273.604 137.224 273.208 138.287 273C136.35 267.314 134.787 261.773 132.6 256.482C130.413 251.192 127.56 246.192 125.164 240.985C123.935 238.298 123.248 235.361 122.04 232.674C118.103 223.884 114.02 215.177 110.021 206.408C108.542 203.18 107.105 199.93 105.71 196.66C101.627 187.141 97.7735 177.539 93.4618 168.144C90.2541 161.146 86.4422 154.439 83.0054 147.565C82.3805 146.315 81.589 144.628 81.9639 143.482C82.9012 140.504 81.5265 138.129 79.7351 136.692C76.8607 134.401 75.5693 131.11 73.3197 128.485C71.4659 126.319 70.1536 123.861 71.0493 120.882C73.4447 120.216 75.0485 121.341 76.1317 122.986C77.5064 125.069 78.902 127.256 79.6518 129.61C81.4015 134.984 83.672 140.066 86.3382 145.065C88.1087 148.419 91.0664 151.106 91.6705 155.189C92.3162 159.584 93.4617 163.854 97.4402 166.811C98.7524 167.79 99.3774 169.748 100.231 171.29C101.981 174.518 103.731 177.747 105.355 181.059C106.313 183.038 107.022 185.141 107.792 187.224C108.105 188.057 108.126 188.995 108.48 189.786C112.271 197.826 116.124 205.825 119.894 213.886C123.206 220.989 126.726 228.029 129.559 235.32C131.684 240.798 134.329 246.088 135.433 251.983C136.141 255.795 137.308 259.628 139.891 262.877C141.057 264.356 141.828 266.418 140.349 268.647C139.786 269.501 140.557 271.209 140.786 272.958C143.057 272.354 144.702 271.938 146.556 271.438C145.785 267.855 145.848 264.293 144.265 261.71C142.203 258.315 140.62 254.878 139.432 251.15C139.349 250.879 139.12 250.65 138.974 250.4C137.266 246.963 135.433 243.589 133.892 240.089C131.226 234.007 128.934 227.758 126.164 221.739C119.415 207.096 112.5 192.536 105.626 177.955C104.918 176.476 104.189 175.185 105.064 173.373C105.793 171.852 104.98 170.332 103.439 169.728C100.731 168.665 100.002 167.103 100.794 164.208C101.502 161.625 100.46 159.25 97.9609 157.834C94.4407 155.855 93.3159 152.689 93.8991 148.961C94.2532 146.69 93.8159 145.378 91.6705 144.316C90.629 143.816 89.8791 142.483 89.2334 141.379C88.546 140.254 88.1711 138.962 87.6087 137.754C84.4426 130.964 82.318 123.799 80.5266 116.55C80.485 116.404 80.9016 116.154 81.2765 115.779C82.8387 119.195 87.0463 120.924 86.7755 125.423C86.7338 126.027 87.3171 126.985 87.8587 127.277C91.483 129.173 91.8996 132.859 93.0869 136.15C93.6076 137.65 94.4616 139.025 95.2531 140.4C95.8988 141.545 96.8779 142.545 97.3986 143.753C99.3774 148.273 100.669 153.043 103.772 157.147C105.772 159.792 106.689 163.27 107.855 166.478C108.542 168.374 108.667 170.477 109.313 172.415C109.98 174.497 110.771 176.58 111.813 178.497C113.979 182.496 116.624 186.266 118.582 190.37C122.602 198.785 126.518 207.241 130.017 215.865C131.455 219.447 134.058 222.864 133.079 227.217C132.913 227.988 133.579 229.425 134.267 229.821C136.808 231.237 137.204 233.653 137.953 236.069C139.078 239.735 140.12 243.547 142.057 246.797C144.327 250.629 145.348 254.858 146.91 258.878C147.66 260.836 148.014 263.293 147.514 265.272C146.931 267.626 147.972 268.855 149.014 270.396C151.909 270.313 154.388 269.938 156.346 267.543C155.096 266.73 153.638 266.272 153.076 265.293C151.513 262.627 150.243 259.794 149.035 256.961C147.598 253.566 146.389 250.067 144.994 246.651C143.244 242.402 140.828 238.34 139.745 233.945C138.287 228.092 135.746 222.718 133.434 217.24C131.142 211.803 128.497 206.512 126.081 201.118C123.727 195.869 121.373 190.619 119.165 185.308C118.124 182.788 116.874 180.434 117.166 177.309C117.416 174.685 116.187 171.977 113.791 169.936C111.125 167.686 108.834 164.999 109.834 160.875C110.042 160.063 109.146 158.375 108.355 158.063C105.46 156.897 104.876 154.647 105.022 151.981C105.147 149.69 104.126 148.148 102.543 146.586C100.231 144.274 98.5233 141.649 99.6272 137.942C100.252 135.838 99.6898 133.588 97.3986 132.714C94.4408 131.61 93.8992 129.277 94.1075 126.736C94.3158 124.444 93.6701 122.736 92.1704 121.112C90.1499 118.966 89.7542 116.321 89.8166 113.446C92.462 113.03 92.7327 115.071 93.4201 116.321C95.8988 120.799 98.2109 125.382 100.565 129.922C101.314 131.36 102.314 132.797 102.606 134.338C103.647 139.983 106.709 144.711 109.23 149.71C111.167 153.564 114.541 156.917 114.083 161.812C114.02 162.521 114.687 163.708 115.333 164.041C117.978 165.374 118.832 167.936 119.936 170.311C121.811 174.331 123.998 178.268 125.372 182.475C127.08 187.62 130.184 192.307 130.288 198.014C130.309 199.16 131.434 200.305 132.142 201.388C133.975 204.2 136.391 206.742 137.62 209.783C141.432 219.239 144.744 228.904 148.347 238.465C149.285 240.964 150.472 243.297 149.68 246.151C149.451 247.005 149.743 248.484 150.347 249.025C153.701 251.962 154.513 256.149 155.763 260.002C156.742 263.002 158.491 264.418 161.657 265.022C161.366 264.127 161.178 263.585 160.991 263.044C159.658 259.273 157.7 255.607 157.242 251.733C156.908 248.838 156.138 246.797 154.117 244.901C153.534 244.36 153.326 243.11 153.43 242.235C153.659 240.319 152.826 238.256 151.722 237.673C148.514 236.028 147.681 233.757 148.243 230.466C148.368 229.8 147.993 229.029 147.743 228.321C145.285 221.218 142.224 214.386 138.808 207.679C137.391 204.888 135.6 201.867 136.35 198.181C136.808 195.931 135.579 193.911 133.309 192.786C130.955 191.598 129.455 189.661 128.559 187.224C127.143 183.392 125.622 179.58 124.31 175.726C123.852 174.435 123.998 172.935 123.665 171.581C123.394 170.498 123.081 169.123 122.29 168.519C120.019 166.77 119.707 164.416 119.394 161.896C119.249 160.792 119.02 159.25 118.27 158.75C115.333 156.772 114.77 153.397 113.146 150.689C112.75 150.044 113.062 148.794 113.375 147.919C114.479 144.691 113.521 141.337 110.354 140.191C108.292 139.441 107.73 138.129 107.105 136.463C106.272 134.276 105.335 132.11 104.439 129.943C102.981 126.402 101.481 122.882 100.086 119.32C99.2524 117.133 98.4817 114.904 97.8985 112.634C97.2736 110.155 96.9195 107.614 96.4404 105.094C97.8985 105.823 99.0232 106.677 99.544 107.802C101.085 111.093 101.939 114.779 105.335 116.883C105.626 117.071 105.668 117.675 105.855 118.091C107.022 120.632 108.23 123.174 109.375 125.736C109.792 126.673 110.396 127.694 110.334 128.631C110.146 131.589 111.333 134.088 112.667 136.546C115.999 142.628 119.478 148.648 122.623 154.834C124.768 159.105 126.414 163.645 128.309 168.082C129.788 167.52 129.622 166.124 129.08 164.874C126.831 159.667 124.623 154.46 122.123 149.377C119.249 143.566 116.083 137.9 113.25 132.609C113.75 131.151 114.125 130.068 114.729 128.319C115.958 130.402 116.999 131.818 117.686 133.38C119.061 136.505 120.144 139.754 121.519 142.858C122.477 145.003 123.644 147.065 124.873 149.065C125.914 150.794 127.435 152.272 128.289 154.105C132.121 162.396 135.787 170.79 139.557 179.122C140.266 180.684 140.765 182.475 143.432 182.954C142.953 180.955 142.848 179.038 142.057 177.476C140.078 173.477 137.766 169.665 135.662 165.728C134.475 163.52 132.913 161.333 132.455 158.959C131.809 155.48 130.497 152.564 127.747 150.085C129.413 147.919 128.643 145.919 127.685 143.795C126.081 140.296 124.664 136.713 123.185 133.151C122.915 132.484 122.352 131.714 122.477 131.11C123.165 127.798 121.394 125.048 120.561 122.091C120.144 120.632 119.394 119.195 121.04 117.112C122.394 120.487 123.748 123.236 124.644 126.131C126.789 133.026 128.309 140.15 130.83 146.898C132.621 151.689 135.829 155.938 138.078 160.583C143.244 171.227 148.452 181.871 153.201 192.702C158.679 205.179 163.678 217.844 168.885 230.425C169.177 231.112 169.489 231.799 169.593 232.528C170.468 238.277 172.447 243.651 175.488 248.984C172.593 250.837 172.968 253.379 173.989 256.045C174.718 257.94 175.301 259.898 176.113 262.273C172.031 264.356 168.365 266.23 164.699 268.105C164.532 268.188 157.804 271.25 157.721 271.271C155.304 271.771 152.472 271.646 150.618 272.958C147.368 275.229 143.286 273.187 140.307 275.687C137.704 274.083 135.287 275.666 133.204 276.27C131.163 273.396 129.268 270.896 127.58 268.23C127.081 267.439 126.851 266.085 127.185 265.272C128.372 262.356 127.081 260.107 125.622 257.815C119.915 248.838 116.02 241.235 114.625 232.799C114.541 232.278 114.125 231.487 113.729 231.383C111.563 230.841 111.229 228.904 110.688 227.321C108.771 221.843 105.522 216.802 105.21 210.762C105.189 210.262 104.793 209.616 104.376 209.304C101.627 207.221 100.231 204.325 99.1482 201.18C98.1067 198.16 97.7318 194.577 95.8155 192.286C93.316 189.286 91.7538 186.037 90.3374 182.558C89.1709 179.684 88.2127 176.726 86.9213 173.914C86.0256 171.956 84.5676 170.29 83.6719 168.332C82.0056 164.624 80.6308 160.771 79.0061 157.042C77.2356 153.001 75.361 148.981 73.4239 145.024C72.4449 143.045 71.216 141.191 70.0703 139.296C66.9876 134.276 64.1131 129.235 62.7175 123.361C61.926 120.008 59.6973 117.008 58.0934 113.863C55.4064 108.635 51.1571 104.302 49.4283 98.5324C48.8034 96.4286 48.4493 94.2415 47.5744 92.2419C44.4292 85.1391 41.1798 78.0571 37.8054 71.0375C36.4931 68.288 34.7643 65.7469 33.0146 62.7474C31.8065 65.4761 32.5773 67.7465 33.3063 69.9128C34.1395 72.4331 35.3476 74.8285 36.2849 77.328C37.6805 81.0773 38.7428 84.9516 40.3675 88.5968C41.5965 91.3879 43.6585 93.7833 44.9916 96.5328C47.8036 102.386 50.2615 108.406 53.0734 114.238C56.0937 120.487 59.3014 126.652 62.5717 132.797C65.342 138.025 68.4247 143.087 71.1742 148.315C73.9029 153.522 74.4445 159.813 78.9229 164.187C85.7758 178.955 92.6495 193.723 99.4815 208.512C107.376 225.571 115.249 242.631 123.102 259.711C123.456 260.481 123.894 261.627 123.581 262.21C122.79 263.668 123.685 264.627 123.956 265.855C124.831 270.042 126.706 273.833 128.184 277.77C129.351 281.29 130.726 284.706 132.1 288.122ZM195.11 221.468C193.839 224.967 196.609 226.217 197.338 228.05C196.672 226.092 196.005 224.134 195.11 221.468ZM168.385 245.026C169.26 241.693 167.677 239.36 166.219 236.84C165.282 235.215 163.886 233.57 163.699 231.82C163.282 227.925 161.407 224.613 160.158 221.072C159.137 218.198 158.137 215.24 155.346 213.324C154.68 212.865 154.575 211.532 154.263 210.574C152.555 205.575 151.972 200.201 148.826 195.702C147.743 194.161 147.223 192.244 146.223 190.64C145.16 188.932 145.244 186.433 142.349 184.996C143.015 187.495 143.286 189.411 144.036 191.119C146.639 197.056 149.639 202.846 152.055 208.866C155.971 218.593 159.512 228.467 163.24 238.256C163.928 240.048 164.719 241.818 165.428 243.589C167.49 248.65 169.51 253.712 171.572 258.753C171.822 259.357 172.218 259.919 172.53 260.523C172.926 260.44 173.343 260.357 173.738 260.273C173.614 259.378 173.697 258.399 173.322 257.607C172.135 255.066 170.697 252.629 169.593 250.067C168.906 248.442 168.01 246.484 168.385 245.026ZM167.74 261.065C165.782 256.274 163.803 251.483 161.824 246.713C158.241 238.152 154.596 229.633 151.097 221.051C149.805 217.906 148.535 214.719 147.785 211.407C147.056 208.075 143.223 206.054 144.14 202.138C144.182 201.972 143.807 201.68 143.598 201.492C140.661 198.743 139.453 195.119 138.537 191.349C137.87 188.62 137.412 185.829 136.516 183.183C135.329 179.726 133.683 176.435 132.455 172.998C131.746 170.998 130.663 170.623 128.726 171.102C129.122 172.748 129.288 174.268 129.851 175.601C133.975 185.704 138.162 195.785 142.328 205.867C143.286 208.179 144.161 210.532 145.119 212.845C148.493 220.885 152.451 228.737 155.096 236.986C157.866 245.63 162.741 253.233 165.969 261.627C166.198 262.19 166.802 262.627 167.261 263.127C167.531 262.981 167.802 262.835 168.052 262.71C167.948 262.169 167.948 261.565 167.74 261.065ZM66.8208 150.898C68.2581 153.647 69.6953 156.418 71.1325 159.167C71.3408 159.063 71.5492 158.959 71.7575 158.855C70.362 156.063 68.9872 153.272 67.5916 150.502C67.3417 150.627 67.0916 150.773 66.8208 150.898ZM73.2989 163.999C74.257 166.187 75.2359 168.374 76.1941 170.54C76.5065 170.352 76.7982 170.165 77.1314 169.957C76.0275 167.895 75.9442 165.249 73.2989 163.999ZM77.4439 172.498C77.8605 173.748 78.2979 174.997 78.7145 176.226C79.0686 176.101 79.4019 175.997 79.756 175.872C79.2352 174.643 78.6936 173.414 78.1729 172.165C77.923 172.269 77.673 172.394 77.4439 172.498ZM83.0054 185.433C84.0052 187.724 84.7759 189.474 85.5258 191.224C85.859 191.057 86.1923 190.89 86.5255 190.724C84.7759 189.495 85.6715 186.87 83.0054 185.433ZM87.6087 196.368C88.921 199.326 90.2332 202.305 91.5662 205.263C91.9412 205.054 92.337 204.846 92.712 204.638C91.3164 201.722 89.8999 198.826 88.5044 195.91C88.2128 196.056 87.9003 196.202 87.6087 196.368ZM82.9845 243.089C82.0264 249.171 87.9211 255.857 95.3989 257.315C95.628 256.649 95.6906 255.857 96.0863 255.316C98.2734 252.4 97.7526 249.296 96.9194 246.151C96.0863 242.985 92.712 240.444 89.4626 240.964C87.1922 241.339 85.0675 242.381 82.9845 243.089ZM87.6296 236.882C87.1088 236.319 86.4006 235.944 85.7549 235.486C85.5257 235.965 84.9842 236.548 85.13 236.882C85.3591 237.444 86.0048 237.861 86.6714 238.548C87.1296 237.757 87.7337 236.986 87.6296 236.882ZM126.726 286.373C125.268 284.04 124.998 281.498 124.581 278.853C124.081 275.541 123.04 272.271 121.811 269.147C120.686 266.314 118.999 263.668 117.457 261.002C117.124 260.398 116.395 260.002 115.833 259.503C118.061 269.876 118.999 280.54 126.914 289.101C126.851 287.956 127.101 286.956 126.726 286.373ZM113.229 285.019C112.167 280.978 109.959 277.166 110.854 271.896C112.625 276.666 114.041 280.686 115.604 284.644C116.562 287.081 118.082 288.393 119.999 288.893C118.228 283.686 116.437 278.395 114.645 273.104C114.27 272 114.25 270.521 113.479 269.876C112.646 269.167 111.167 269.23 109.813 268.917C109.771 268.272 109.709 267.584 109.646 266.835C109.646 266.855 109.667 266.855 109.667 266.855C109.667 266.814 109.688 266.772 109.688 266.71C110.604 266.397 111.521 266.085 112.583 265.731C112.479 263.835 112.625 262.044 110.667 260.169C110.271 262.794 109.98 264.752 109.688 266.71C109.667 266.71 109.646 266.73 109.625 266.73C109.625 266.772 109.625 266.793 109.625 266.835C109.25 266.522 108.896 266.189 108.334 265.71C108.084 279.02 109.188 283.331 113.229 285.019ZM85.1092 274.437C88.9001 279.457 93.795 281.832 100.19 280.436C101.856 280.082 103.377 279.561 103.939 277.77C105.105 274.041 104.606 270.396 103.377 266.668C100.211 268.605 100.169 268.772 101.939 272.167C99.8356 274.458 99.8356 274.458 99.7523 277.687C97.3361 277.478 95.1906 277.291 93.0452 277.103C92.7119 274.083 89.65 275.312 88.2753 274C87.7129 273.458 87.5046 272.458 87.3379 271.625C87.1505 270.625 87.2754 269.584 87.1504 268.584C87.1087 268.23 86.6922 267.918 86.2547 267.314C85.6924 267.834 85.2134 268.272 84.651 268.792C81.0891 266.543 85.4216 261.794 81.9639 259.565C81.7139 259.648 81.5057 259.669 81.464 259.753C81.2765 260.127 81.0474 260.502 80.9641 260.919C80.0685 266.105 82.1097 270.459 85.1092 274.437ZM102.772 262.919C102.064 263.085 101.335 263.273 100.606 263.439C100.71 263.793 100.835 264.148 100.939 264.522C101.585 264.356 102.273 264.231 102.877 263.981C102.981 263.918 102.814 263.273 102.772 262.919ZM88.2336 267.647C90.4832 270.209 93.1702 272.375 96.2113 275.166C97.0653 272.438 97.6693 270.563 98.3358 268.501C96.1487 266.939 94.5866 265.564 92.8161 264.647C91.4622 263.939 89.8166 263.814 87.7961 263.293C87.9003 264.981 87.4837 266.814 88.2336 267.647ZM67.9249 243.985C73.7154 249.879 79.0894 256.274 87.567 258.503C87.8378 258.565 88.1502 258.732 88.3168 258.961C90.5248 261.773 93.92 261.336 96.857 261.919C100.169 262.606 102.627 260.211 104.418 258.086C105.564 256.732 104.314 253.67 106.98 252.608C106.647 251.816 106.459 250.942 105.98 250.296C105.605 249.796 104.835 249.588 104.647 249.484C104.876 247.526 105.751 245.463 105.085 244.651C104.022 243.381 103.21 242.402 103.002 240.694C102.918 239.923 101.564 239.298 100.773 238.611C100.419 238.798 100.086 238.965 99.7315 239.152C99.8981 240.506 100.044 241.86 100.273 243.193C100.461 244.359 101.169 245.588 100.919 246.63C99.919 250.983 100.273 255.982 94.8573 258.836C89.8166 258.024 84.3801 256.649 81.2141 251.025C80.9641 250.588 80.3184 250.025 79.9435 250.067C77.2981 250.463 77.4231 248.63 77.4022 247.005C77.3814 245.672 77.673 244.339 77.548 243.047C77.4647 242.235 76.8815 241.485 76.5274 240.714C76.2358 240.798 75.9234 240.86 75.6318 240.923C75.4235 242.86 75.2152 244.797 75.0069 246.734C70.0703 245.359 73.9029 240.256 71.0076 237.798C70.5077 239.194 70.1536 240.256 69.7579 241.339C66.3627 239.444 68.6956 234.465 64.1756 233.216C64.6755 237.236 64.9879 240.985 67.9249 243.985ZM53.1984 199.993C53.6983 201.492 53.7817 203.7 54.8023 204.284C57.6976 205.908 56.052 207.804 55.6563 209.637C55.448 210.616 54.9273 211.532 54.5524 212.428C55.8855 213.386 57.0727 214.24 58.135 214.99C58.135 216.948 56.2186 218.531 57.8433 220.947C58.614 219.239 59.1973 217.989 59.8847 216.511C61.072 217.344 61.9885 217.989 63.0091 218.698C62.4259 220.926 61.8842 222.988 61.0927 226.009C62.53 224.738 63.1965 224.134 64.363 223.093C65.0295 225.738 65.5712 227.946 66.0086 229.675C68.5081 231.903 70.5077 234.278 73.0281 235.757C75.4651 237.194 78.0271 239.381 82.2347 238.152C80.0684 236.673 78.5063 235.632 76.944 234.59C75.4027 233.549 73.153 233.153 73.2572 229.904C76.2566 231.549 78.9436 233.028 81.8598 234.653C82.1306 232.882 82.5888 231.445 82.4846 230.029C82.2138 226.3 81.3806 222.676 78.4229 220.01C76.7982 218.552 72.6739 218.073 70.8617 219.073C68.8205 220.197 69.5079 222.114 69.5288 223.842C69.5496 224.259 69.3829 224.655 69.1954 225.571C67.9665 223.488 66.8625 221.822 65.9669 220.052C65.3003 218.698 66.321 215.615 67.5291 214.907C69.6745 213.657 69.5287 216.344 70.6118 216.865C72.5698 216.531 74.4236 216.219 76.3608 215.886C76.1108 214.511 75.9233 213.386 75.5692 211.428C76.819 212.49 77.8397 212.969 77.8188 213.386C77.5897 216.948 79.7977 216.49 82.1306 215.761C82.4013 217.156 82.6097 218.198 82.818 219.239C83.7553 219.073 84.401 218.968 85.1717 218.843C84.8176 220.239 84.526 221.322 84.2552 222.364C85.6716 222.926 86.838 223.405 88.4627 224.03C86.8171 225.155 85.859 225.821 84.4843 226.779C85.984 227.696 87.3171 228.113 88.0045 229.008C89.5459 231.07 85.7549 230.3 86.1506 231.904C91.9204 235.465 91.9203 235.465 93.3992 231.924C92.5661 231.612 91.7329 231.32 90.6497 230.904C92.1286 228.737 96.5238 228.571 94.1492 224.78C92.9203 223.905 90.3165 226.217 90.0249 222.801C91.2746 222.28 92.587 221.739 93.8576 221.197C93.1702 218.156 93.1702 218.177 91.2747 217.885C90.3166 217.739 89.3376 217.573 88.4211 217.281C88.192 217.198 88.1503 216.573 88.0253 216.219C89.171 215.552 90.2124 214.969 91.2747 214.365C89.1501 211.053 86.2757 213.719 83.0888 212.907C85.0051 211.532 86.2964 210.595 87.5462 209.699C86.9005 207.845 85.7341 207.908 84.6093 208.512C83.7136 208.991 83.0679 209.949 82.1723 210.345C81.5057 210.637 80.5892 210.366 79.2561 210.324C80.7558 208.554 81.6931 207.429 83.2762 205.554C80.3392 206.346 78.4854 206.846 76.6524 207.366C76.5691 207.137 76.4649 206.908 76.3608 206.679C77.548 205.783 78.7561 204.888 80.2767 203.742C77.1106 202.222 74.7985 205.638 71.7782 204.367C72.7989 203.284 73.5905 202.471 74.6944 201.305C72.1949 201.138 70.2995 201.013 68.3623 200.909C68.5706 195.827 64.4255 198.68 62.3634 197.639C62.9466 197.077 63.3424 196.681 64.3005 195.744C61.801 195.306 59.843 194.952 57.8642 194.598C57.8642 194.431 57.885 194.265 57.885 194.098C59.5514 193.765 61.2178 193.431 62.8842 193.077C62.8425 192.827 62.8216 192.577 62.8008 192.327C60.8011 192.265 58.8016 192.203 56.6145 192.14C56.5311 191.536 56.1978 190.786 56.4269 190.495C58.7807 187.537 62.4675 189.703 65.3003 187.683C62.5925 187.578 59.8847 187.474 57.1352 187.37C57.4893 182.579 62.7799 186.037 64.6338 183.1C61.8843 182.704 59.4681 182.35 56.8644 181.975C56.0729 182.392 55.0106 182.892 54.0316 183.537C53.4484 183.912 52.4903 184.787 52.6152 185.037C53.9067 187.87 51.3029 190.015 51.2196 192.744C52.261 192.952 53.136 193.14 54.4066 193.39C53.3651 194.744 52.5319 195.744 51.7612 196.785C50.199 198.826 51.2821 199.639 53.1984 199.993ZM62.905 177.789C62.6759 177.497 62.4467 177.226 62.2176 176.955C60.7595 177.351 59.9264 178.497 59.7597 180.434C60.8012 179.559 61.8427 178.663 62.905 177.789ZM43.367 173.185C47.387 169.603 46.8662 165.458 47.4703 161.875C47.6786 160.646 45.7414 158.23 44.3042 157.73C42.2837 157.022 41.3464 159.375 40.9507 161C39.93 165.208 41.7631 168.853 43.367 173.185ZM39.4302 158.605C39.7426 157.605 40.0759 156.626 40.3884 155.647C40.0967 155.563 39.7842 155.459 39.4926 155.376C39.201 156.376 38.9094 157.376 38.6178 158.375C38.8886 158.438 39.1594 158.521 39.4302 158.605ZM33.5354 158.209C32.7022 159.521 33.827 160.646 35.5142 160.521C37.0348 157.709 38.4928 155.022 40.055 152.168C42.2629 153.21 44.2417 153.939 46.0122 155.043C49.949 157.48 50.5114 159.188 49.3242 163.541C48.7201 165.812 48.0952 168.103 47.6578 170.415C47.2621 172.456 46.0123 173.477 44.1168 173.873C43.2003 174.06 42.2421 174.06 41.2215 174.143C42.4504 176.935 42.4712 176.83 44.9707 177.33C45.8248 177.497 46.5538 178.393 47.2621 179.038C48.8451 180.455 51.0321 180.788 52.0111 179.684C51.782 179.205 51.5529 178.684 50.9696 177.372C52.4694 177.247 53.615 176.893 54.6565 177.122C57.0935 177.684 58.2599 176.705 58.7598 174.414C57.6559 173.789 56.5937 173.185 55.5938 172.623C56.7395 170.498 57.7185 168.707 58.8641 166.603C60.1763 168.853 61.1552 171.165 62.6758 173.019C67.0916 178.393 69.6328 184.662 71.9449 191.099C72.674 193.182 73.4654 195.264 74.3819 197.285C74.9443 198.535 75.9859 198.764 77.2981 197.993C76.6316 196.035 76.1525 194.16 75.3818 192.432C70.5286 181.6 64.2588 171.561 58.2391 161.375C57.8017 160.625 57.1769 159.959 56.6145 159.292C56.552 159.209 56.3228 159.23 56.177 159.25C56.0729 159.271 56.0104 159.417 55.8021 159.646C56.1978 160.792 56.5937 162.021 57.0311 163.291C55.9688 164.354 55.0106 165.437 53.9067 166.332C53.6775 166.541 52.9276 166.124 52.0111 165.874C52.9068 164.52 53.5733 163.52 54.2399 162.521C52.511 159.771 51.1155 156.855 49.0534 154.501C47.0121 152.168 44.2834 150.419 41.6381 148.232C36.8473 149.544 35.8891 154.522 33.5354 158.209ZM54.0941 156.667C52.9693 152.189 50.574 148.606 47.2829 145.67C47.0121 145.878 46.7204 146.086 46.4288 146.294C48.97 149.752 51.532 153.189 54.0941 156.667ZM42.8878 131.651C45.429 135.463 48.366 139.025 50.9072 142.837C55.0106 148.981 59.3431 155.001 62.8008 161.5C67.529 170.373 71.5284 179.622 75.7776 188.745C76.9649 191.286 78.1521 193.911 78.7354 196.618C79.3394 199.451 80.9432 200.513 84.0051 201.118C80.9849 194.535 78.2146 188.37 75.3401 182.246C72.8406 176.893 69.9453 171.686 67.7373 166.207C64.4879 158.126 60.3013 150.71 54.4274 144.316C45.075 134.151 38.8678 122.445 36.3474 108.781C35.8059 105.885 35.3267 102.511 33.5354 100.49C31.8482 98.5741 30.7651 96.6161 29.7028 94.4499C26.0785 87.1596 22.4333 79.89 18.7048 72.6831C17.7258 70.7876 16.4136 69.0796 14.9764 66.8508C13.8308 71.475 13.8099 71.4749 15.4554 74.1828C17.7467 77.9737 20.0796 81.7439 22.35 85.5557C25.3911 90.6589 27.7032 96.0121 29.557 101.699C31.9941 109.135 35.2851 116.3 38.4095 123.507C39.5968 126.361 41.159 129.089 42.8878 131.651Z"
    fill="#262626" />
  <path
    d="M219.292 286.789C219.125 287.456 218.938 288.122 218.75 288.789C218.376 288.685 218.001 288.58 217.626 288.476C217.834 287.81 218.021 287.122 218.23 286.456C218.584 286.581 218.938 286.685 219.292 286.789Z"
    fill="#262626" />
  <path
    d="M210.982 221.614C209.836 220.926 208.628 220.093 210.815 217.781C211.544 219.302 212.044 220.322 212.544 221.343C212.002 221.447 211.315 221.801 210.982 221.614Z"
    fill="#262626" />
  <path
    d="M218.854 322.512C213.585 317.45 213.501 317.221 215.751 312.764C219.771 315.117 220.604 317.513 218.854 322.512Z"
    fill="#262626" />
  <path
    d="M223.416 302.245C223.958 302.765 223.479 304.369 223.458 305.473C223.062 305.515 222.667 305.577 222.271 305.619C221.625 304.911 220.979 304.203 220.209 303.369C221.146 302.078 222.271 301.161 223.416 302.245Z"
    fill="#262626" />
  <path d="M217.48 308.368C219.251 308.618 219.959 309.556 220.438 311.139C217.73 311.68 216.71 311.055 217.48 308.368Z"
    fill="#262626" />
  <path
    d="M195.984 291.351C197.338 292.85 198.692 294.35 200.42 296.266C195.713 296.433 195.713 296.433 195.984 291.351Z"
    fill="#262626" />
  <path
    d="M223.416 293.601C223.583 293.601 223.77 293.621 223.937 293.621V295.538C223.666 295.288 223.416 295.038 223.145 294.809C223.25 294.392 223.333 293.996 223.416 293.601Z"
    fill="#262626" />
  <path
    d="M209.794 269.334C211.377 269.063 212.377 268.876 213.397 268.709C212.647 270.625 211.689 271.229 209.794 269.334Z"
    fill="#262626" />
  <path
    d="M219.522 220.114C222.021 219.739 222.896 221.447 223.958 222.697V223.197C221.813 223.405 220.667 222.114 219.522 220.114Z"
    fill="#262626" />
  <path
    d="M222.479 318.887C223.063 319.242 223.542 319.554 223.958 319.825V326.282C222.896 325.345 222.063 324.595 221 323.657C221.48 322.137 221.959 320.575 222.479 318.887Z"
    fill="#262626" />
  <path
    d="M203.316 301.474C205.419 301.453 206.586 302.182 206.628 303.89C206.232 304.119 205.836 304.369 205.44 304.619C204.732 303.578 204.024 302.536 203.316 301.474Z"
    fill="#262626" />
  <path
    d="M211.293 293.684C210.148 291.976 209.065 290.372 208.002 288.768C208.127 288.664 208.252 288.581 208.377 288.477C209.981 289.685 211.585 290.914 213.189 292.122C213.814 292.934 214.46 293.746 215.126 294.621C212.189 295.329 213.835 292.913 213.168 292.101C212.627 292.58 212.085 293.017 211.293 293.684Z"
    fill="#262626" />
  <path
    d="M211.898 214.282C214.335 213.782 214.898 215.199 216.147 216.677C213.731 216.969 212.981 215.803 211.898 214.282Z"
    fill="#262626" />
  <path
    d="M207.815 304.64C212.21 308.118 212.21 308.118 210.065 311.992C208.753 310.472 207.544 309.097 206.232 307.577C206.732 306.66 207.19 305.806 207.815 304.64Z"
    fill="#262626" />
  <path
    d="M52.9065 169.311C52.844 170.29 52.7816 171.269 52.6983 172.352C50.6361 171.873 50.0529 171.06 51.1152 169.79C51.4485 169.394 52.3024 169.457 52.9065 169.311Z"
    fill="#262626" />
  <path
    d="M180.404 115.363C178.946 114.425 177.988 113.842 176.905 113.155C177.675 110.239 178.404 107.448 179.321 103.969C183.529 107.927 179.8 111.468 180.404 115.363Z"
    fill="#262626" />
  <path
    d="M60.2179 209.845C60.6136 210.366 60.4053 211.386 60.447 212.178C60.1345 212.261 59.8222 212.365 59.4889 212.469C58.7182 211.595 57.9475 210.741 57.2184 209.928C58.5307 207.991 59.5513 209.012 60.2179 209.845Z"
    fill="#262626" />
  <path
    d="M179.904 97.7199C180.154 97.6574 180.425 97.595 180.695 97.5325C181.008 98.8447 181.32 100.136 181.654 101.448C181.258 101.532 180.862 101.615 180.487 101.719C180.279 100.386 180.091 99.053 179.904 97.7199Z"
    fill="#262626" />
  <path
    d="M183.466 114.321C183.695 115.654 183.945 116.987 184.341 119.216C181.05 117.508 182.07 115.883 183.466 114.321Z"
    fill="#262626" />
  <path
    d="M184.361 105.115C184.631 105.052 184.881 105.01 185.152 104.948C185.319 105.844 185.486 106.76 185.673 107.656C185.402 107.677 185.111 107.718 184.84 107.739C184.673 106.864 184.507 105.989 184.361 105.115Z"
    fill="#262626" />
  <path
    d="M183.194 126.173C182.299 124.778 181.715 123.882 181.007 122.757C181.611 122.653 182.007 122.445 182.34 122.528C184.465 123.028 183.465 124.361 183.194 126.173Z"
    fill="#262626" />
  <path
    d="M57.9674 201.096C57.8841 201.93 57.8008 202.742 57.7175 203.575C57.3425 203.492 56.9676 203.429 56.5927 203.346C56.7594 202.554 56.9259 201.784 57.0718 200.992C57.3634 201.013 57.655 201.055 57.9674 201.096Z"
    fill="#262626" />
  <path
    d="M89.8581 31.6073C89.7539 27.983 90.9204 26.025 93.6074 24.5253C92.9616 28.6287 92.9617 28.6495 89.8581 31.6073Z"
    fill="#262626" />
  <path
    d="M115.061 12.0692C114.499 14.2355 114.124 15.6935 113.686 17.4224C115.478 17.9639 116.832 18.2347 117.082 15.8185C117.228 14.4021 117.936 13.4231 120.373 12.4441C119.623 14.5479 119.227 15.7144 118.811 16.9016C119.623 17.4849 120.269 17.9431 121.789 19.0262C117.852 19.5053 114.77 19.9011 111.333 20.3177C112.083 17.2349 111.624 14.3188 115.061 12.0692Z"
    fill="#262626" />
  <path
    d="M85.442 30.2949C85.4212 28.0662 85.4421 25.7124 88.2332 24.6501C87.8999 27.1913 87.5875 29.5034 87.15 32.7112C86.3169 31.5655 85.4628 30.9407 85.442 30.2949Z"
    fill="#262626" />
  <path
    d="M101.21 17.0889C102.731 14.881 104.855 14.5269 108.313 15.3184C105.564 16.5057 103.647 17.3597 101.71 18.1929C101.543 17.818 101.377 17.443 101.21 17.0889Z"
    fill="#262626" />
</svg>
