<svg viewBox="0 0 285 181" fill="none" xmlns="http://www.w3.org/2000/svg">
  <path d="M237.334 72.0309L235.84 154.765C236.826 154.825 237.823 154.874 238.829 154.914L237.334 72.0309Z"
    fill="#262626" />
  <path
    d="M284.646 49.7928C283.819 46.7384 279.887 41.7755 273.579 37.316C268.492 33.7234 260.454 29.5478 249.517 28.3071V24.3807C249.517 23.0055 248.227 22.1385 246.582 21.7149V21.2316C246.582 17.644 243.662 14.7191 240.075 14.7191H201.045C197.457 14.7191 194.532 17.639 194.532 21.2316V101.14H192.34V34.2067C192.34 30.6191 189.42 27.6942 185.832 27.6942H162.06C158.592 27.6942 155.751 30.4248 155.567 33.8529C154.501 33.7134 153.405 33.5988 152.293 33.5191V30.2105C152.293 29.214 151.506 28.4068 150.221 27.9434V24.2661C150.221 20.6785 147.301 17.7536 143.708 17.7536H105.136C101.549 17.7536 98.624 20.6735 98.624 24.2661V101.145H94.1744V67.7756C94.1744 66.9086 93.7957 66.0815 93.0482 65.3092C89.1119 60.6154 64.9006 49.1999 60.431 47.1171V4.15563C60.431 0.114604 48.4525 0 47.0872 0C45.7219 0 33.7433 0.114604 33.7433 4.15563V47.1171C32.7169 47.5954 30.649 48.5671 28.0231 49.8377L26.9269 47.6702C29.0645 46.2451 29.6624 45.2535 29.1043 44.1473C28.4815 42.9116 26.4286 42.9216 24.0369 43.4697L24.3059 41.4417C24.3657 41.4218 24.4255 41.4018 24.4804 41.3719C25.3025 40.9584 25.6214 39.9369 25.1979 39.0998C24.7743 38.2627 23.7628 37.9139 22.9407 38.3275C22.1185 38.741 21.7996 39.7625 22.2231 40.5996C22.3477 40.8438 22.5221 41.0381 22.7264 41.1926L22.3627 43.9132C22.1135 43.9879 21.8644 44.0676 21.6153 44.1473L20.8629 42.6575C20.5739 42.0895 20.0855 41.6659 19.4776 41.4666C18.8697 41.2673 18.227 41.3171 17.6589 41.6061L9.8559 45.5525C9.28787 45.8415 8.86436 46.3298 8.66504 46.9377C8.46573 47.5406 8.51555 48.1884 8.80455 48.7564L9.55196 50.2413C9.3377 50.3957 9.12842 50.5552 8.92413 50.7097L6.51747 49.3892C6.51249 49.1351 6.45766 48.876 6.33807 48.6318C5.91453 47.7897 4.90305 47.4459 4.08089 47.8595C3.25873 48.2731 2.93983 49.2945 3.36337 50.1317C3.78691 50.9688 4.79839 51.3176 5.62055 50.904C5.67536 50.8741 5.72519 50.8392 5.78 50.8043L7.57877 51.7909C5.33653 53.7242 4.54925 55.1543 5.11728 56.2704C5.42622 56.8833 5.9245 57.1922 6.71676 57.1922C7.34958 57.1922 8.17672 56.9929 9.24303 56.6043L10.414 58.9213C6.04408 61.4027 2.44655 63.7296 1.12611 65.3042C0.378695 66.0715 0 66.9037 0 67.7707V141.451C0 144.46 1.97317 147.316 5.69032 149.817L1.9682 152.453C1.62439 152.627 1.44499 152.876 1.3553 153.096C1.3553 153.101 1.35031 153.106 1.35031 153.106C1.32041 153.175 1.30051 153.245 1.28556 153.305C1.28556 153.31 1.28058 153.32 1.28058 153.325C1.26064 153.419 1.25564 153.499 1.25564 153.549V177.865C1.25564 178.508 1.77385 179.026 2.41663 179.026H8.33118C8.97396 179.026 9.49217 178.508 9.49217 177.865V160.51H44.3616V161.267C44.3616 165.373 47.7 168.712 51.8059 168.712H84.2586V177.865C84.2586 178.508 84.7769 179.026 85.4196 179.026H91.3342C91.977 179.026 92.4952 178.508 92.4952 177.865V168.712H96.2024C100.308 168.712 103.647 165.373 103.647 161.267V106.173H111.191V115.341C111.191 115.924 111.28 116.497 111.44 117.065C111.465 117.195 111.499 117.319 111.534 117.419C112.91 121.39 117.329 127.021 122.297 132.432L114.155 138.641C114.125 138.666 114.1 138.69 114.076 138.715C114.061 138.73 114.046 138.74 114.031 138.755C113.981 138.805 113.941 138.855 113.901 138.915C113.896 138.925 113.891 138.935 113.881 138.95C113.851 138.994 113.826 139.044 113.801 139.094C113.792 139.114 113.782 139.139 113.777 139.159C113.762 139.204 113.747 139.248 113.737 139.293C113.732 139.318 113.727 139.338 113.722 139.363C113.712 139.423 113.707 139.483 113.702 139.542C113.702 139.552 113.697 139.557 113.697 139.567V177.865C113.697 178.508 114.215 179.026 114.858 179.026H119.497C120.14 179.026 120.658 178.508 120.658 177.865V145.367H129.069V157.451C129.069 158.093 129.587 158.612 130.23 158.612H133.229C133.872 158.612 134.39 158.093 134.39 157.451V145.367H135.491C136.373 146.145 137.161 146.817 137.828 147.365V160.495C137.828 163.37 142.173 165.538 147.933 165.538C153.694 165.538 158.039 163.37 158.039 160.495V147.365C158.706 146.812 159.494 146.145 160.375 145.367H161.272V157.451C161.272 158.093 161.791 158.612 162.433 158.612H165.433C166.076 158.612 166.594 158.093 166.594 157.451V145.367H175.214V177.865C175.214 178.508 175.732 179.026 176.375 179.026H181.014C181.657 179.026 182.175 178.508 182.175 177.865V139.567C182.175 139.557 182.175 139.552 182.17 139.542C182.17 139.483 182.165 139.423 182.15 139.363C182.145 139.338 182.14 139.318 182.135 139.293C182.125 139.248 182.11 139.204 182.095 139.159C182.085 139.134 182.08 139.114 182.07 139.094C182.046 139.044 182.021 138.994 181.991 138.95C181.986 138.94 181.981 138.93 181.971 138.915C181.931 138.86 181.891 138.805 181.841 138.755C181.826 138.74 181.811 138.73 181.796 138.715C181.771 138.69 181.747 138.666 181.717 138.641L173.575 132.432C178.543 127.021 182.962 121.39 184.338 117.419C184.372 117.314 184.407 117.195 184.432 117.065C184.592 116.502 184.681 115.924 184.681 115.341V106.173H187.322V118.45C187.322 120.274 188.134 121.973 189.55 123.124C190.636 124.001 191.966 124.47 193.326 124.47C193.745 124.47 194.164 124.425 194.577 124.34L197.572 123.707L201.309 122.92V143.773C201.309 144.46 201.438 145.138 201.673 145.801C201.443 146.469 201.309 147.141 201.309 147.829V166.2C201.309 168.198 202.933 169.828 204.936 169.828C206.934 169.828 208.564 168.203 208.564 166.2V158.631C215.525 162.279 226.761 164.616 239.357 164.994V177.123C239.357 179.121 240.982 180.75 242.985 180.75C244.983 180.75 246.612 179.126 246.612 177.123V164.994C259.209 164.616 270.445 162.279 277.406 158.631V166.2C277.406 168.198 279.03 169.828 281.033 169.828C283.031 169.828 284.661 168.203 284.661 166.2V147.829C284.661 147.141 284.531 146.464 284.297 145.801C284.526 145.133 284.661 144.46 284.661 143.773V49.7928H284.646ZM281.018 167.506C280.301 167.506 279.713 166.923 279.713 166.2V154.531L277.934 155.652C271.466 159.723 259.004 162.428 245.411 162.707L244.275 162.732V177.128C244.275 177.845 243.692 178.433 242.97 178.433C242.247 178.433 241.664 177.85 241.664 177.128V162.727L240.528 162.702C226.935 162.423 214.478 159.718 208.006 155.647L206.227 154.526V166.195C206.227 166.913 205.644 167.501 204.921 167.501C204.199 167.501 203.616 166.918 203.616 166.195V148.875C205.719 151.093 209.212 153.086 213.945 154.715C221.713 157.386 232.023 158.856 242.97 158.856C253.917 158.856 264.221 157.386 271.994 154.715C276.728 153.086 280.221 151.093 282.324 148.875V166.2C282.324 166.918 281.741 167.506 281.018 167.506ZM282.324 50.9538C282.324 51.9105 280.017 54.0182 271.382 55.8369C263.808 57.4264 253.718 58.3034 242.975 58.3034C232.232 58.3034 222.142 57.4264 214.568 55.8369C205.928 54.0232 203.626 51.9155 203.626 50.9538C203.626 49.3444 206.586 44.247 213.711 39.2144C218.858 35.577 227.174 31.3217 238.625 30.4348V31.5559C238.625 31.7054 238.645 31.8499 238.675 31.9894C235.356 32.2535 232.307 32.8016 229.536 33.544C229.252 33.6287 228.968 33.7084 228.689 33.8031C227.284 34.2565 225.889 34.7797 224.603 35.4923C225.984 34.989 227.414 34.695 228.844 34.4658C230.274 34.2366 231.724 34.117 233.169 34.0273C234.614 33.9376 236.064 33.9127 237.514 33.9127C238.62 33.9177 239.731 33.9476 240.827 34.0024C241.789 34.3562 242.945 34.5306 244.066 34.5306C245.84 34.5306 247.708 34.1021 248.73 33.1952C249.104 33.6885 249.168 34.2864 248.775 35.0139C246.453 39.2692 235.531 42.1692 230.05 42.1692C224.568 42.1692 222.67 40.6245 218.609 40.8139C215.6 40.9584 212.799 42.2738 210.412 43.8882C207.089 46.9925 205.455 49.7031 205.205 50.7794C205.828 51.477 208.708 53.1961 216.526 54.661C223.791 56.0213 233.184 56.7687 242.975 56.7687C252.766 56.7687 262.163 56.0213 269.423 54.661C277.251 53.1961 280.131 51.472 280.744 50.7794C280.415 49.3294 277.486 44.7752 271.118 40.3355C266.504 37.1167 259.244 33.3995 249.403 32.2136C249.472 32.0093 249.512 31.7951 249.512 31.5658V30.659C259.836 31.8847 267.42 35.8261 272.239 39.2244C279.369 44.247 282.324 49.3444 282.324 50.9538ZM242.975 156.534C219.436 156.534 203.626 149.937 203.626 143.773V122.432L205.171 122.103V143.773C205.171 145.542 207.801 148.511 215.211 151.058C217.742 151.925 220.567 152.657 223.607 153.25V59.574C224.758 59.7036 225.919 59.8182 227.09 59.9228V153.853C229.003 154.142 230.986 154.381 233.019 154.561V60.3413C236.477 60.5307 239.871 60.6204 242.98 60.6204C245.631 60.6204 248.481 60.5556 251.411 60.4211V154.675C253.234 154.541 255.023 154.361 256.762 154.142V60.0922C259.393 59.8929 262.014 59.6288 264.545 59.3049V152.792C266.758 152.293 268.84 151.715 270.749 151.058C278.158 148.511 280.789 145.542 280.789 143.773V55.3137C281.362 55.0297 281.88 54.7308 282.334 54.4168V143.773C282.324 149.932 266.513 156.534 242.975 156.534ZM244.071 27.3454C244.913 27.3454 245.775 27.2508 246.557 27.0515C244.704 27.9035 242.741 29.7721 242.496 32.0442C241.62 31.8698 241.101 31.5908 240.942 31.4313V26.8521C241.879 27.186 242.99 27.3454 244.071 27.3454ZM268.985 132.89L267.879 58.8216C268.631 58.702 269.374 58.5774 270.096 58.4429L268.985 132.89ZM203.626 54.4168C204.084 54.7308 204.602 55.0297 205.171 55.3137V116.966L203.626 117.294V54.4168ZM207.154 110.777L207.104 100.941L207.159 91.105C207.213 87.8263 207.228 84.5477 207.318 81.269C207.463 74.7117 207.672 68.1543 208.071 61.592C208.469 68.1493 208.678 74.7067 208.823 81.269C208.913 84.5477 208.933 87.8263 208.982 91.105L209.037 100.941L208.987 110.777C208.957 112.576 208.938 114.375 208.913 116.173L207.238 116.527C207.208 114.609 207.189 112.69 207.154 110.777ZM211.389 113.473C211.334 111.33 211.324 109.187 211.294 107.045L211.264 100.617L211.294 94.1893C211.324 92.0467 211.339 89.9041 211.389 87.7615C211.474 83.4764 211.598 79.1912 211.837 74.906C212.077 79.1912 212.201 83.4764 212.291 87.7615C212.346 89.9041 212.356 92.0467 212.386 94.1893L212.415 100.617L212.386 107.045C212.356 109.187 212.341 111.33 212.291 113.473C212.276 114.135 212.261 114.803 212.246 115.466L211.434 115.635C211.424 114.918 211.404 114.195 211.389 113.473ZM214.229 114.703C214.832 112.994 216.656 111.654 218.44 112.222C221.703 113.263 220.911 117.274 219.949 117.514C220.219 115.919 219.142 114.414 217.548 114.145C216.76 114.016 214.339 114.703 214.229 114.703ZM211.842 126.328C211.738 124.465 211.658 122.606 211.588 120.742L212.097 120.633C212.032 122.536 211.952 124.435 211.842 126.328ZM208.071 140.29C207.687 134.076 207.483 127.858 207.343 121.644L208.808 121.335C208.668 127.654 208.459 133.972 208.071 140.29ZM266.185 42.8668C264.64 42.3834 259.822 40.2807 254.963 39.7376C252.641 39.4785 250.818 38.6812 251.58 37.0319C252.158 35.7763 254.096 35.9706 256.319 36.3543C258.541 36.7429 264.431 39.1397 266.952 41.1876C268.138 42.1493 267.734 43.3501 266.185 42.8668ZM252.641 51.9205C252.447 54.3371 247.808 55.2091 245.197 55.1094C242.586 55.0148 240.748 53.2658 241.525 51.2877C242.297 49.3095 242.781 48.1485 245.197 47.4709C248.371 46.5839 252.836 49.5038 252.641 51.9205ZM232.003 53.6146C231.111 52.9669 231.495 50.9189 232.86 49.0404C234.225 47.1669 236.054 46.1703 236.951 46.8231C237.843 47.4709 237.459 49.5188 236.094 51.3973C234.728 53.2708 232.9 54.2674 232.003 53.6146ZM211.07 49.7928C208.514 48.283 215.654 43.2206 219.85 43.2206C216.053 45.0542 215.699 46.9776 214.01 48.6318C213.013 49.6035 211.798 50.2213 211.07 49.7928ZM201.932 119.188C203.566 118.779 205.21 118.416 206.86 118.062C208.509 117.718 210.163 117.389 211.823 117.1C213.482 116.806 215.146 116.542 216.83 116.353C215.216 116.856 213.586 117.289 211.947 117.693C210.313 118.102 208.668 118.465 207.019 118.819C205.37 119.158 203.716 119.492 202.056 119.781C200.397 120.075 198.733 120.339 197.049 120.533C198.663 120.02 200.297 119.591 201.932 119.188ZM243.363 24.3807H242.591L242.98 20.25L243.363 24.3807ZM241.555 21.2366V21.7199C239.91 22.1384 238.62 23.0055 238.62 24.3857V28.1078C226.557 29.0047 217.787 33.4892 212.366 37.3209C206.057 41.7755 202.126 46.7434 201.299 49.7978V101.155H199.56V21.2366C199.56 20.4194 200.223 19.7517 201.045 19.7517H240.075C240.892 19.7567 241.555 20.4194 241.555 21.2366ZM195.967 21.2117C196.027 19.4727 197.034 17.7985 198.534 16.9215C199.276 16.4681 200.143 16.2289 201.01 16.194C201.847 16.1741 202.634 16.194 203.447 16.194L208.29 16.2139C211.519 16.2339 214.742 16.2239 217.971 16.2687L227.653 16.3784C230.882 16.4431 234.105 16.478 237.334 16.5677C234.105 16.6574 230.882 16.6923 227.653 16.7571L217.971 16.8667C214.742 16.9115 211.519 16.9016 208.29 16.9215L203.447 16.9414C202.649 16.9514 201.817 16.9364 201.045 16.9614C200.302 16.9962 199.565 17.2105 198.932 17.5991C197.642 18.3416 196.765 19.7667 196.705 21.2615C196.675 22.836 196.685 24.4804 196.675 26.0848C196.66 29.3136 196.665 32.5375 196.62 35.7663L196.51 45.4478C196.446 48.6767 196.411 51.9005 196.321 55.1294C196.236 51.9005 196.197 48.6767 196.132 45.4478L196.022 35.7663C195.977 32.5375 195.982 29.3136 195.967 26.0848C195.972 24.4505 195.947 22.861 195.967 21.2117ZM195.733 102.58L196.117 70.0926L196.505 102.964C196.505 103.178 196.336 103.353 196.122 103.353C196.112 103.353 196.107 103.348 196.097 103.348H192.345V102.575H195.733V102.58ZM158.422 30.9131C159.135 30.091 160.072 29.498 161.103 29.1691L161.497 29.0695C161.631 29.0396 161.766 29.0246 161.9 29.0047C162.169 28.9748 162.453 28.9698 162.702 28.9748L164.232 28.9997L167.296 29.0496L179.544 29.2439L167.296 29.4382L164.232 29.488L162.702 29.513C162.438 29.513 162.214 29.5279 161.975 29.5628C161.86 29.5877 161.741 29.6026 161.626 29.6325L161.282 29.7322C160.375 30.0511 159.543 30.6191 158.94 31.3616C158.323 32.094 157.964 33.0158 157.969 33.9327H157.196C157.216 32.7916 157.7 31.7203 158.422 30.9131ZM160.58 34.2067C160.58 33.3895 161.242 32.7219 162.065 32.7219H185.837C186.655 32.7219 187.317 33.3846 187.317 34.2067V101.15H184.676V49.9323C184.676 46.5441 175.543 38.0684 160.585 34.7349V34.2067H160.58ZM179.848 176.709H177.526V144.211C177.526 143.569 177.008 143.05 176.365 143.05H119.502C118.859 143.05 118.341 143.569 118.341 144.211V176.709H116.019V140.728H117.678H120.384H175.722H178.189H179.848V176.709ZM141.461 145.367C141.506 145.417 141.561 145.452 141.605 145.507C142.019 146.005 144.191 147.096 147.938 147.096C151.685 147.096 153.858 146.005 154.272 145.507C154.316 145.457 154.371 145.417 154.416 145.367H156.828C156.389 145.731 155.996 146.05 155.642 146.319C155.577 146.369 155.512 146.429 155.462 146.493C154.6 147.525 151.88 148.641 147.943 148.641C144.002 148.641 141.281 147.53 140.424 146.493C140.37 146.429 140.31 146.369 140.245 146.319C139.896 146.05 139.498 145.726 139.059 145.367H141.461ZM140.15 160.495V149.214C142.009 150.305 144.829 150.963 147.933 150.963C149.598 150.963 151.177 150.774 152.572 150.43C151.92 150.769 151.242 151.068 150.529 151.307C149.488 151.646 148.397 151.88 147.281 151.989C147.171 151.999 147.061 152.004 146.952 152.014C147.555 152.378 148.417 153.106 148.417 154.306C148.417 155.687 148.417 159.728 148.417 161.661C151.725 161.576 153.659 160.64 154.172 160.181V149.937C154.74 149.722 155.258 149.478 155.717 149.209V160.49C155.717 161.576 152.612 163.216 147.933 163.216C143.255 163.216 140.15 161.581 140.15 160.495ZM159.633 131.979C159.633 131.127 160.49 130.434 161.546 130.434C162.603 130.434 163.46 131.127 163.46 131.979C163.46 132.831 162.603 133.523 161.546 133.523C160.49 133.518 159.633 132.831 159.633 131.979ZM156.484 133.284C156.389 135.766 151.656 137.599 145.905 137.385C140.155 137.166 135.571 134.983 135.666 132.502C135.711 131.331 136.797 130.309 138.526 129.572C141.521 129.876 144.675 130.04 147.938 130.04C149.772 130.04 151.566 129.986 153.32 129.886C155.303 130.783 156.534 131.994 156.484 133.284ZM182.354 115.346C182.354 121.32 168.522 127.723 147.933 127.723C127.345 127.723 113.512 121.325 113.512 115.346V52.6978C113.946 52.912 114.454 53.1313 115.057 53.3406V115.341C115.057 116.682 116.188 118.156 118.181 119.557V54.2325C118.695 54.3521 119.238 54.4716 119.826 54.5862V120.583C120.962 121.216 122.267 121.824 123.732 122.382C124.33 122.606 124.948 122.82 125.581 123.03L126.318 92.8041L127.066 123.488C128.012 123.767 128.999 124.026 130.01 124.26V55.9864C131.027 56.0811 132.068 56.1658 133.135 56.2405V97.6872C133.678 94.3936 135.362 91.4687 137.774 89.3012C137.774 77.1482 137.774 64.1233 137.774 56.5196C141.027 56.674 144.441 56.7538 147.924 56.7538C150.963 56.7538 153.948 56.694 156.818 56.5744V88.2897C159.533 90.243 161.551 93.0682 162.423 96.3369V56.2605C163.724 56.1708 164.999 56.0661 166.225 55.9465V124.166C166.983 123.981 167.725 123.792 168.448 123.588L169.404 67.2226L170.351 123C170.954 122.8 171.547 122.596 172.115 122.377C177.466 120.339 180.79 117.643 180.79 115.336V53.3455C181.393 53.1313 181.901 52.917 182.335 52.7028V115.346H182.354ZM173.525 42.0347C179.589 45.4728 182.25 48.9806 182.354 49.8825C182.225 50.0818 180.959 51.5866 172.105 52.9071C165.543 53.8887 156.962 54.4268 147.938 54.4268C138.915 54.4268 130.334 53.8887 123.772 52.9071C114.918 51.5866 113.652 50.0818 113.522 49.8825C113.622 48.9757 116.288 45.4728 122.352 42.0347C126.687 39.5781 133.528 36.723 142.741 35.9108V36.2596C142.741 37.8392 144.71 38.9453 147.52 38.9453C147.649 38.9453 147.774 38.9403 147.904 38.9354C147.714 40.7292 144.127 42.6874 139.493 43.4498C134.545 44.2619 130.279 43.3949 129.971 41.5115C129.896 41.0431 130.07 40.5598 130.449 40.0814C127.873 40.9783 125.7 41.9798 123.956 42.9116C119.238 45.4429 116.612 47.9841 115.555 49.3643C116.741 49.8875 119.452 50.7645 125.237 51.5517C129.014 52.065 133.424 52.4387 138.142 52.6529C141.481 52.4785 144.759 52.0052 144.216 51.0385C143.539 49.8277 142.378 47.705 143.783 46.3497C145.183 44.9944 148.347 43.6291 154.61 43.8833C161.666 44.1723 163.794 46.265 163.804 48.587C163.809 50.3359 161.467 51.771 158.019 52.638C162.628 52.4187 166.938 52.05 170.635 51.5468C176.425 50.7595 179.131 49.8825 180.316 49.3593C179.265 47.9741 176.634 45.4329 171.916 42.9066C168.642 41.1527 163.878 39.1696 157.735 38.0684C159.309 38.7709 160.331 39.8522 160.281 40.4003C160.206 41.1876 157.974 39.9867 155.129 39.7226C152.278 39.4586 149.892 40.2309 149.966 39.4436C150.026 38.8257 151.556 37.7893 153.584 37.4904C153.046 37.4356 152.498 37.3857 151.94 37.3459C152.174 37.017 152.298 36.6483 152.298 36.2497V35.8211C161.935 36.5436 169.055 39.5034 173.525 42.0347ZM147.515 32.8913C148.048 32.8913 148.551 32.8514 149.015 32.7767C147.699 33.559 146.459 34.9043 146.209 36.5038C145.626 36.3892 145.223 36.2148 145.053 36.0852V32.5524C145.756 32.7717 146.588 32.8913 147.515 32.8913ZM167.755 46.7683C168.756 45.8664 170.037 45.6571 170.615 46.2999C171.188 46.9427 170.844 48.1934 169.838 49.0903C168.836 49.9921 167.556 50.2014 166.978 49.5586C166.405 48.9159 166.753 47.6652 167.755 46.7683ZM121.445 125.616C124.878 129.716 129.138 134.101 132.95 137.759H130.713C126.383 133.538 121.669 128.546 118.241 124.096C119.223 124.634 120.294 125.142 121.445 125.616ZM127.414 137.764H121.948L125.068 135.377C125.855 136.189 126.637 136.986 127.414 137.764ZM168.448 137.764C169.225 136.986 170.012 136.189 170.794 135.377L173.914 137.764H168.448ZM165.159 137.764H162.922C166.733 134.106 170.994 129.721 174.427 125.621C175.578 125.147 176.649 124.639 177.631 124.101C174.203 128.55 169.484 133.543 165.159 137.764ZM147.515 31.0427H146.743L147.131 23.5785L147.515 31.0427ZM99.8647 30.3152L99.8746 26.9219L99.8796 25.2278C99.8747 24.6498 99.9195 24.0568 100.029 23.4738C100.243 22.3128 100.782 21.1469 101.728 20.3496C102.665 19.5474 103.876 19.1787 105.042 19.084C105.635 19.0292 106.203 19.0541 106.766 19.0441L108.46 19.0292L111.853 19.0192L125.421 18.9893C129.946 19.0093 134.47 19.0043 138.994 19.0441C134.47 19.1787 129.951 19.2684 125.426 19.378L111.858 19.6271L108.465 19.6869L106.771 19.7069C106.203 19.7218 105.635 19.7019 105.102 19.7517C104.025 19.8464 102.969 20.1802 102.182 20.8678C101.389 21.5455 100.921 22.547 100.727 23.6034C100.627 24.1316 100.592 24.6697 100.597 25.2278L100.602 26.9219L100.612 30.3152L100.627 37.1017C100.597 46.1504 100.602 55.1941 100.537 64.2429L100.428 77.8109C100.363 82.3353 100.328 86.8597 100.238 91.379C100.154 86.8547 100.114 82.3303 100.049 77.8109L99.9394 64.2429C99.8747 55.1941 99.8796 46.1504 99.8497 37.1017L99.8647 30.3152ZM103.652 24.2661C103.652 23.4489 104.314 22.7812 105.131 22.7812H143.708C144.525 22.7812 145.188 23.4439 145.188 24.2661V27.8188C143.673 28.2473 142.726 29.1143 142.726 30.2105V33.5938C123.403 35.288 111.186 46.0159 111.186 49.9323V101.15H103.642V24.2661H103.652ZM86.5856 176.709V159.354C86.5856 158.711 86.0674 158.193 85.4246 158.193H58.1838C65.2494 157.59 71.8117 156.404 77.4123 154.71H90.1832V176.704H86.5856V176.709ZM11.56 56.0412L12.4071 55.6127L13.2791 57.3417C13 57.4962 12.721 57.6457 12.442 57.8001L11.56 56.0412ZM16.4083 48.8162C20.6287 46.6836 24.2212 45.6721 26.0798 45.4528C24.1863 46.7882 19.9361 48.9358 17.1756 50.331C14.4102 51.7261 10.1648 53.8787 7.96744 54.6112C9.24802 53.2459 12.1879 50.9488 16.4083 48.8162ZM10.8824 47.715C10.8674 47.6901 10.8824 47.6453 10.9122 47.6303L18.7153 43.6839C18.7203 43.679 18.7302 43.679 18.7402 43.679C18.7651 43.679 18.79 43.6939 18.8 43.7138L19.4228 44.9496C17.8084 45.5824 16.3385 46.2551 15.3619 46.7484C14.0116 47.431 12.7111 48.1734 11.5002 48.9408L10.8824 47.715ZM15.7406 55.2938C15.4516 54.7208 15.601 54.2275 15.905 53.8388L22.4823 50.5103C22.8261 50.5502 23.1649 50.7047 23.3542 51.0784C23.4938 51.3524 23.6333 51.6464 23.7678 51.9155C21.3063 53.1363 18.6455 54.4866 16.0296 55.8668C15.9 55.6127 15.7854 55.3935 15.7406 55.2938ZM34.421 49.3643C34.4459 49.3892 34.4708 49.4091 34.4957 49.4291C34.5306 49.464 34.5655 49.4939 34.6004 49.5238C34.6602 49.5786 34.7249 49.6284 34.7947 49.6832C34.8346 49.7131 34.8744 49.743 34.9143 49.7729C34.989 49.8277 35.0687 49.8775 35.1485 49.9274C35.1883 49.9523 35.2232 49.9772 35.2581 49.9971C35.3727 50.0669 35.4972 50.1317 35.6218 50.1964C35.6268 50.2014 35.6368 50.2014 35.6417 50.2064C35.7763 50.2762 35.9158 50.3409 36.0603 50.4007C36.1052 50.4207 36.155 50.4406 36.1998 50.4605C36.2995 50.5004 36.4041 50.5452 36.5087 50.5851C36.5685 50.605 36.6283 50.6299 36.6832 50.6499C36.7828 50.6847 36.8825 50.7196 36.9821 50.7545C37.0469 50.7744 37.1067 50.7944 37.1715 50.8143C37.2761 50.8492 37.3807 50.8791 37.4854 50.909C37.5501 50.9289 37.6149 50.9438 37.6797 50.9638C37.7943 50.9937 37.9089 51.0236 38.0235 51.0535C38.0833 51.0684 38.1381 51.0834 38.1979 51.0983C38.3623 51.1382 38.5268 51.178 38.6962 51.2129C38.7061 51.2179 38.7211 51.2179 38.7311 51.2229C38.9104 51.2627 39.0898 51.2976 39.2742 51.3325C39.334 51.3425 39.3988 51.3574 39.4586 51.3674C39.5831 51.3923 39.7027 51.4122 39.8273 51.4322C39.897 51.4421 39.9668 51.4571 40.0415 51.467C40.1561 51.487 40.2757 51.5069 40.3903 51.5218C40.4651 51.5318 40.5398 51.5418 40.6096 51.5567C40.7242 51.5717 40.8388 51.5916 40.9534 51.6066C41.0232 51.6165 41.0979 51.6265 41.1676 51.6364C41.2922 51.6514 41.4168 51.6663 41.5414 51.6813C41.6011 51.6863 41.6609 51.6962 41.7207 51.7012C41.8901 51.7212 42.0645 51.7411 42.229 51.756C42.2389 51.756 42.2489 51.756 42.2639 51.761C42.4432 51.7809 42.6176 51.7959 42.792 51.8108C42.8568 51.8158 42.9166 51.8208 42.9814 51.8258C43.096 51.8358 43.2056 51.8457 43.3152 51.8557C43.385 51.8607 43.4498 51.8657 43.5145 51.8706C43.6192 51.8806 43.7188 51.8856 43.8235 51.8906C43.8882 51.8956 43.953 51.9005 44.0178 51.9055C44.1174 51.9105 44.2171 51.9205 44.3168 51.9254C44.3766 51.9304 44.4314 51.9304 44.4911 51.9354C44.5908 51.9404 44.6905 51.9454 44.7901 51.9504C44.84 51.9504 44.8948 51.9553 44.9446 51.9603C45.0741 51.9653 45.1987 51.9703 45.3183 51.9753C45.3382 51.9753 45.3532 51.9753 45.3731 51.9753C45.4977 51.9803 45.6222 51.9852 45.7368 51.9902C45.7767 51.9902 45.8116 51.9902 45.8514 51.9952C45.9312 51.9952 46.0059 52.0002 46.0757 52.0002C46.1205 52.0002 46.1654 52.0002 46.2102 52.0052C46.27 52.0052 46.3298 52.0102 46.3846 52.0102C46.4245 52.0102 46.4594 52.0102 46.4992 52.0102C46.559 52.0102 46.6138 52.0102 46.6636 52.0102C46.6885 52.0102 46.7135 52.0102 46.7384 52.0102C46.7932 52.0102 46.838 52.0102 46.8829 52.0102C46.9028 52.0102 46.9227 52.0102 46.9427 52.0102C46.9975 52.0102 47.0473 52.0102 47.0872 52.0102C47.127 52.0102 47.1769 52.0102 47.2317 52.0102C47.2516 52.0102 47.2715 52.0102 47.2915 52.0102C47.3363 52.0102 47.3812 52.0102 47.436 52.0102C47.4609 52.0102 47.4858 52.0102 47.5107 52.0102C47.5605 52.0102 47.6153 52.0102 47.6751 52.0102C47.71 52.0102 47.7499 52.0102 47.7897 52.0102C47.8445 52.0102 47.9044 52.0102 47.9642 52.0052C48.009 52.0052 48.0538 52.0052 48.0987 52.0002C48.1684 52.0002 48.2482 51.9952 48.3229 51.9952C48.3628 51.9952 48.3976 51.9952 48.4375 51.9902C48.5521 51.9852 48.6767 51.9803 48.8062 51.9753C48.8212 51.9753 48.8411 51.9753 48.8561 51.9753C48.9756 51.9703 49.1052 51.9653 49.2348 51.9603C49.2846 51.9603 49.3344 51.9553 49.3892 51.9504C49.4889 51.9454 49.5835 51.9404 49.6882 51.9354C49.743 51.9304 49.8028 51.9304 49.8576 51.9254C49.9573 51.9205 50.0569 51.9155 50.1566 51.9055C50.2213 51.9005 50.2861 51.8956 50.3509 51.8906C50.4505 51.8856 50.5552 51.8756 50.6548 51.8706C50.7196 51.8657 50.7894 51.8607 50.8542 51.8557C50.9638 51.8457 51.0734 51.8358 51.188 51.8258C51.2528 51.8208 51.3126 51.8158 51.3773 51.8108C51.5517 51.7959 51.7261 51.7809 51.9055 51.761C51.9155 51.761 51.9254 51.761 51.9404 51.756C52.1098 51.7411 52.2792 51.7212 52.4486 51.7012C52.5084 51.6962 52.5682 51.6863 52.628 51.6813C52.7526 51.6663 52.8772 51.6514 53.0017 51.6364C53.0715 51.6265 53.1462 51.6165 53.216 51.6066C53.3306 51.5916 53.4452 51.5767 53.5598 51.5567C53.6345 51.5468 53.7093 51.5368 53.779 51.5218C53.8936 51.5019 54.0132 51.487 54.1278 51.467C54.1976 51.4571 54.2673 51.4421 54.3421 51.4322C54.4667 51.4122 54.5912 51.3873 54.7158 51.3674C54.7756 51.3574 54.8404 51.3474 54.9002 51.3325C55.0845 51.2976 55.2639 51.2627 55.4433 51.2229C55.4532 51.2179 55.4682 51.2179 55.4781 51.2129C55.6476 51.178 55.812 51.1382 55.9764 51.0983C56.0362 51.0834 56.091 51.0684 56.1508 51.0535C56.2654 51.0236 56.385 50.9937 56.4947 50.9638C56.5594 50.9438 56.6242 50.9289 56.689 50.909C56.7936 50.8791 56.8982 50.8492 57.0029 50.8143C57.0676 50.7944 57.1324 50.7744 57.1922 50.7545C57.2919 50.7196 57.3965 50.6847 57.4912 50.6499C57.551 50.6299 57.6108 50.61 57.6656 50.5851C57.7702 50.5452 57.8749 50.5054 57.9745 50.4605C58.0194 50.4406 58.0692 50.4207 58.1141 50.4007C58.2586 50.3359 58.3981 50.2712 58.5326 50.2064C58.5376 50.2014 58.5476 50.2014 58.5525 50.1964C58.6771 50.1317 58.8017 50.0669 58.9163 49.9971C58.9561 49.9722 58.991 49.9473 59.0309 49.9274C59.1106 49.8775 59.1903 49.8227 59.2651 49.7729C59.3049 49.743 59.3448 49.7131 59.3847 49.6832C59.4494 49.6334 59.5142 49.5786 59.579 49.5238C59.6139 49.4939 59.6537 49.459 59.6836 49.4291C59.7085 49.4042 59.7334 49.3842 59.7584 49.3643C68.3686 53.3804 88.2598 63.1317 91.2844 66.8239L91.3591 66.9037C91.5833 67.1279 91.8524 67.4667 91.8524 67.7756C91.8524 68.7871 89.2165 71.0144 79.3406 72.9278C70.7354 74.5921 59.28 75.5139 47.0872 75.5139C34.8894 75.5139 23.4389 74.597 14.8337 72.9278C4.95784 71.0144 2.32196 68.7921 2.32196 67.7756C2.32196 67.4667 2.59102 67.1329 2.81525 66.9037L2.89 66.8239C5.91953 63.1317 25.8058 53.3804 34.421 49.3643ZM36.0703 4.26525C36.6582 3.54275 40.6993 2.32197 47.0922 2.32197C53.4851 2.32197 57.5261 3.54275 58.1141 4.26525V46.0458V47.7499C57.5261 48.4724 53.4851 49.6932 47.0922 49.6932C40.6993 49.6932 36.6582 48.4724 36.0703 47.7499V46.0458V4.26525ZM2.32695 141.451V71.1839C2.78038 71.4928 3.30356 71.7868 3.87159 72.0708V141.451C3.87159 143.369 5.82484 145.552 9.47721 147.585V74.0838C10.5136 74.3629 11.6099 74.627 12.7659 74.8711V149.174C14.3703 149.852 16.1791 150.5 18.1821 151.098V75.8477C26.887 77.1781 37.2761 77.7761 45.9511 77.8259L47.0922 146.668L48.2332 77.8259C49.0305 77.8209 49.8427 77.811 50.6698 77.801V154.74C52.1198 154.7 53.5399 154.64 54.9251 154.561V77.6864C57.7154 77.5867 60.5805 77.4372 63.4356 77.223V153.733C64.771 153.549 66.0665 153.35 67.3172 153.126L68.4632 80.3422L69.6043 152.687C82.7738 149.991 90.3127 145.218 90.3127 141.446V72.0708C90.8857 71.7868 91.4039 71.4928 91.8574 71.1839V141.451C91.8574 148.641 73.8696 156.339 47.0922 156.339C20.3148 156.339 2.32695 148.641 2.32695 141.451ZM84.5078 109.556C84.5327 107.045 84.5327 104.529 84.5726 102.017C84.6373 99.5059 84.6573 96.9896 84.7669 94.4733C84.9363 89.4457 85.1904 84.4181 85.6688 79.3905C86.1471 84.4181 86.4012 89.4457 86.5706 94.4733C86.6753 96.9896 86.7002 99.5009 86.765 102.017C86.8048 104.529 86.8048 107.045 86.8298 109.556C86.8347 114.584 86.745 119.611 86.5756 124.639C86.4062 129.667 86.1521 134.694 85.6688 139.722C85.1854 134.694 84.9313 129.667 84.7619 124.639C84.5925 119.611 84.5028 114.584 84.5078 109.556ZM7.17517 159.354V176.709H3.58261V154.715H16.772C22.3726 156.409 28.93 157.59 36.0005 158.198H8.34115C7.69838 158.193 7.17517 158.711 7.17517 159.354ZM49.3942 161.267V160.51H65.942V163.684H51.8108C50.4804 163.684 49.3942 162.603 49.3942 161.267ZM70.9746 163.684V160.51H84.2686V163.684H70.9746ZM98.624 161.267C98.624 162.598 97.5377 163.684 96.2073 163.684H92.5002V153.549C92.5002 153.499 92.4951 153.419 92.4752 153.325C92.4752 153.32 92.4703 153.31 92.4703 153.305C92.4553 153.245 92.4354 153.175 92.4055 153.106C92.4055 153.101 92.4005 153.096 92.4005 153.096C92.3108 152.871 92.1314 152.627 91.7876 152.453L88.2648 149.961C92.1215 147.425 94.1694 144.52 94.1694 141.456V106.173H98.619V161.267H98.624ZM94.1744 103.353V102.58H111.191V103.353H94.1744ZM184.671 103.353V102.58H187.312V103.353H184.671ZM188.937 106.038L188.827 96.4515C188.767 90.0586 188.767 83.6707 188.737 77.2778C188.767 70.8849 188.762 64.497 188.827 58.1041L188.937 48.5172C189.001 45.3233 189.036 42.1243 189.126 38.9304C189.211 42.1243 189.251 45.3233 189.315 48.5172L189.425 58.1041C189.49 64.497 189.485 70.8849 189.515 77.2778C189.485 83.6707 189.49 90.0586 189.425 96.4515L189.315 106.038C189.251 109.232 189.216 112.431 189.126 115.625C189.041 112.431 189.001 109.237 188.937 106.038ZM193.536 119.422C193.132 119.507 192.848 119.332 192.709 119.223C192.574 119.113 192.345 118.864 192.345 118.455V106.173H201.304V117.778L193.536 119.422Z"
    fill="#262626" />
  <path
    d="M260.086 158.915C256.991 159.359 253.882 159.688 250.763 159.872C247.644 160.072 244.515 160.136 241.39 160.081C239.826 160.081 238.266 160.002 236.707 159.947C235.147 159.847 233.587 159.758 232.033 159.603C228.918 159.329 225.819 158.92 222.75 158.357C219.68 157.779 216.636 157.057 213.676 156.06C210.711 155.094 207.831 153.793 205.32 151.895C206.491 152.941 207.801 153.843 209.187 154.6C209.526 154.81 209.884 154.964 210.238 155.149C210.592 155.323 210.946 155.502 211.299 155.672C212.027 155.976 212.744 156.314 213.482 156.594C216.432 157.73 219.486 158.582 222.57 159.244C225.66 159.917 228.789 160.356 231.928 160.694C233.498 160.874 235.072 160.963 236.647 161.078C238.221 161.143 239.801 161.232 241.375 161.237C247.684 161.322 254.012 160.894 260.23 159.807C263.339 159.264 266.419 158.547 269.428 157.59C270.181 157.361 270.918 157.072 271.666 156.813C272.398 156.524 273.136 156.245 273.858 155.926C275.308 155.303 276.708 154.566 278.039 153.733C275.248 155.183 272.298 156.26 269.269 157.042C266.249 157.864 263.175 158.457 260.086 158.915Z"
    fill="#262626" />
  <path d="M23.1749 152.393L21.6601 83.9198L20.1653 151.661C21.1319 151.915 22.1335 152.159 23.1749 152.393Z"
    fill="#262626" />
  <path
    d="M13.6727 71.1091C14.6693 71.3234 15.7505 71.5326 16.9364 71.7369C17.6191 71.8565 18.3266 71.9661 19.0441 72.0758C24.9537 65.1497 33.8779 56.2106 37.59 52.5433C37.1964 52.4436 36.6732 52.2991 36.0952 52.0948C30.5145 56.375 19.4677 65.643 13.6727 71.1091Z"
    fill="#262626" />
  <path
    d="M4.12573 67.7607C4.80339 68.3088 6.49256 69.2106 9.84099 70.1673C14.749 66.211 25.8556 57.4114 34.7449 51.5069C34.5605 51.4072 34.3762 51.3026 34.1968 51.183C31.5609 52.4237 26.4585 54.8603 21.1718 57.5609C7.93258 64.3176 4.84325 66.9236 4.12573 67.7607Z"
    fill="#262626" />
  <path
    d="M47.7598 73.9592C49.3294 73.9542 50.889 73.9343 52.4337 73.8994C51.5667 69.5893 49.3793 58.6571 48.4226 53.5448C47.9841 53.5548 47.5406 53.5597 47.0922 53.5597C46.8032 53.5597 46.5191 53.5548 46.2301 53.5498L47.7598 73.9592Z"
    fill="#262626" />
  <path
    d="M56.3601 73.7749C57.5959 73.7251 58.8166 73.6653 60.0225 73.5956C59.1106 70.875 58.1988 68.1494 57.267 65.4338L55.5579 60.4959C54.9749 58.8515 54.3969 57.2122 53.7641 55.5878C54.5763 57.1325 55.3337 58.7021 56.0961 60.2716L58.3483 64.9953C59.6737 67.8056 60.9841 70.6258 62.2946 73.4511C67.7707 73.0724 72.8581 72.4944 77.2579 71.732C85.5592 70.292 89.0172 68.6028 90.0636 67.7558C89.3461 66.9187 86.2518 64.3127 73.0026 57.5461C67.7159 54.8454 62.6235 52.4138 59.9926 51.1731C58.697 52.0251 57.1125 52.4138 56.3601 52.5982C54.7258 53.0018 52.7626 53.2808 50.6299 53.4303L56.3601 73.7749ZM66.6545 57.0976C67.5664 57.6258 68.4583 58.1888 69.3602 58.732L72.026 60.4211L74.6618 62.1651C75.5288 62.763 76.4058 63.346 77.2579 63.9639C78.9769 65.1797 80.6761 66.4303 82.3154 67.7757C80.417 66.8339 78.5833 65.7975 76.7696 64.7213C75.8577 64.1931 74.9658 63.63 74.0639 63.0869L71.3981 61.3977L68.7672 59.6538C67.9002 59.0558 67.0233 58.4729 66.1712 57.855C64.4522 56.6392 62.753 55.3885 61.1137 54.0432C63.0071 54.9899 64.8458 56.0263 66.6545 57.0976Z"
    fill="#262626" />
  <path
    d="M28.6161 65.7775L34.9093 57.4314L27.8686 65.1647C25.7011 67.5664 23.5336 69.968 21.396 72.4196C22.0886 72.5142 22.7862 72.599 23.4987 72.6837C25.1829 70.3717 26.902 68.0696 28.6161 65.7775Z"
    fill="#262626" />
  <path
    d="M56.5644 46.8828V5.1322C56.0861 4.93289 55.3287 4.70867 54.3222 4.50437L53.5648 43.8633L52.8024 4.24527C51.2528 4.02104 49.3344 3.86658 47.0872 3.86658V48.1485C51.9304 48.1485 55.2739 47.426 56.5644 46.8828Z"
    fill="#262626" />
  <path
    d="M39.7127 4.5343C38.7809 4.72863 38.0684 4.94289 37.6149 5.13223V46.8829C38.0684 47.0722 38.7809 47.2865 39.7127 47.4808V4.5343Z"
    fill="#262626" />
  <path
    d="M44.1972 36.5436C44.3118 39.2194 44.4812 41.8951 44.8001 44.5709C45.124 41.8951 45.2884 39.2194 45.403 36.5436C45.5176 33.8679 45.5774 31.1921 45.5724 28.5164C45.5724 25.8407 45.5126 23.1649 45.398 20.4892C45.2834 17.8134 45.119 15.1377 44.7951 12.4619C44.4762 15.1377 44.3068 17.8134 44.1922 20.4892C44.0776 23.1649 44.0178 25.8407 44.0178 28.5164C44.0278 31.1971 44.0876 33.8729 44.1972 36.5436Z"
    fill="#262626" />
  <path
    d="M144.162 151.979C144.072 151.969 143.982 151.965 143.897 151.955C143.16 151.86 142.433 151.73 141.7 151.531V160.186C142.009 160.46 142.836 160.914 144.167 161.247V151.979H144.162Z"
    fill="#262626" />
  <path
    d="M137.51 120.872C134.141 117.409 133.478 112.252 133.14 109.496V124.913C136.677 125.556 140.509 125.959 144.495 126.109C142.333 124.923 139.782 123.209 137.51 120.872Z"
    fill="#262626" />
  <path
    d="M162.438 107.453C160.769 113.936 154.914 118.65 147.933 118.65C142.796 118.65 138.252 116.049 135.551 112.092C136.079 118.386 141.351 123.329 147.784 123.329C151.362 123.329 154.585 121.794 156.828 119.352V125.735C158.756 125.541 160.635 125.287 162.433 124.968V107.453H162.438Z"
    fill="#262626" />
  <path d="M140.2 61.8013L139.343 88.0804C139.881 87.7117 140.444 87.3778 141.027 87.0838L140.2 61.8013Z"
    fill="#262626" />
  <path
    d="M134.495 100.014V103.672V103.677C134.505 111.076 140.529 117.095 147.933 117.095C155.134 117.095 161.028 111.405 161.357 104.284C161.362 104.23 161.372 104.18 161.372 104.125V100.014C161.372 92.829 155.343 86.9792 147.933 86.9792C140.524 86.9842 134.495 92.829 134.495 100.014ZM156.833 93.6063C154.461 91.5036 151.342 90.223 147.933 90.223C144.52 90.223 141.406 91.5036 139.034 93.6063C141.062 90.9954 144.301 89.3062 147.933 89.3062C151.566 89.3062 154.805 90.9954 156.833 93.6063ZM136.817 103.662C136.817 97.5328 141.805 92.545 147.933 92.545C154.062 92.545 159.05 97.5328 159.05 103.662C159.05 109.79 154.062 114.778 147.933 114.778C141.805 114.778 136.817 109.79 136.817 103.662Z"
    fill="#262626" />
  <path
    d="M138.925 103.662C138.925 108.634 142.956 112.67 147.933 112.67C152.906 112.67 156.942 108.639 156.942 103.662C156.942 98.6888 152.911 94.6527 147.933 94.6527C142.961 94.6527 138.925 98.6838 138.925 103.662ZM147.943 110.687C146.558 110.692 145.173 110.274 144.022 109.496C144.73 109.681 145.377 109.845 146.025 109.95C146.349 109.99 146.668 110.049 146.987 110.064C147.306 110.094 147.625 110.114 147.943 110.104C148.262 110.114 148.581 110.094 148.9 110.064C149.219 110.049 149.538 109.99 149.862 109.945C150.51 109.835 151.157 109.671 151.865 109.481C150.714 110.264 149.329 110.687 147.943 110.687ZM150.181 99.2817C150.181 99.785 149.772 100.194 149.269 100.194C148.766 100.194 148.357 99.785 148.357 99.2817C148.357 98.7784 148.766 98.3699 149.269 98.3699C149.772 98.3699 150.181 98.7784 150.181 99.2817ZM144.371 97.6125C144.994 97.2537 145.666 96.9597 146.379 96.8152C147.086 96.6707 147.814 96.601 148.536 96.6658C149.259 96.7255 149.966 96.8999 150.639 97.179C149.877 97.1292 149.174 97.1092 148.492 97.2039C148.153 97.2338 147.824 97.3035 147.5 97.3833C147.341 97.4181 147.181 97.458 147.027 97.5078C146.872 97.5577 146.713 97.5876 146.568 97.6573C145.97 97.8815 145.407 98.1556 144.899 98.5144C144.749 98.614 144.615 98.7286 144.47 98.8382C144.595 98.8183 144.72 98.7984 144.844 98.7984C146.19 98.7984 147.276 99.8896 147.276 101.23C147.276 102.575 146.185 103.662 144.844 103.662C143.529 103.662 142.467 102.62 142.423 101.315C142.158 101.833 141.944 102.386 141.8 102.974C141.501 104.225 141.481 105.585 141.785 107.07C141.077 105.804 140.783 104.319 140.948 102.879C141.117 101.444 141.72 100.054 142.697 98.9827C143.18 98.4396 143.743 97.9712 144.371 97.6125Z"
    fill="#262626" />
</svg>
