<svg width="48" height="23" viewBox="0 0 48 23" fill="none" xmlns="http://www.w3.org/2000/svg">
<path fill-rule="evenodd" clip-rule="evenodd" d="M19.5247 0.13476C19.2845 0.272491 19.1279 0.492644 19.0283 0.832337C18.9378 1.14129 18.7946 1.73399 18.744 2.0091C18.7168 2.15743 18.6773 2.36704 18.6563 2.47491C18.5499 3.02117 18.5021 3.28138 18.4675 3.50458C18.4465 3.63942 18.4046 3.90419 18.3745 4.09296C18.3063 4.51876 18.2484 4.95602 18.1925 5.46586C18.1431 5.91724 18.0742 6.17746 17.9891 6.23389C17.9565 6.25561 14.059 6.27449 9.32813 6.27586C2.23242 6.27792 0.706735 6.28984 0.613266 6.34402C0.550922 6.38016 0.387469 6.5272 0.249985 6.67087L0 6.93206V12.489C0 17.6105 0.00618751 18.0564 0.0788438 18.1791C0.220641 18.4185 0.394594 18.589 0.619547 18.709L0.840657 18.8271H3.39169C6.32663 18.8271 6.06441 18.7798 6.25055 19.3419C6.52908 20.1827 6.57521 20.272 7.13776 21.058C7.7153 21.865 8.69701 22.5175 9.84376 22.8565C9.97853 22.8963 10.8441 22.9944 11.1094 22.9999C11.2634 23.0031 12.0334 22.9002 12.1875 22.8558C13.1304 22.5844 13.7764 22.2027 14.4407 21.5245C14.6919 21.2679 14.975 20.9492 15.0697 20.8162C15.3005 20.4921 15.5727 19.9167 15.7465 19.3854C15.825 19.1457 15.9251 18.9221 15.9692 18.8884C16.0325 18.8398 17.9146 18.8271 25.0064 18.8271C34.8881 18.8271 34.1305 18.8018 34.1959 19.1336C34.3304 19.8153 34.9049 20.8653 35.4625 21.4487C36.0118 22.0232 37.0239 22.6279 37.7787 22.8325C38.1728 22.9394 38.3251 22.9539 39.0469 22.9535C39.8726 22.9532 40.0997 22.9201 40.5821 22.7301C40.6916 22.6869 40.8682 22.6177 40.9744 22.5762C41.9108 22.211 42.9999 21.1349 43.5193 20.0617C43.5888 19.9182 43.7086 19.599 43.7857 19.3523C43.8628 19.1057 43.9513 18.8869 43.9824 18.8662C44.0136 18.8455 44.7387 18.8282 45.5938 18.8278C47.3767 18.827 47.3874 18.8249 47.7773 18.4049L48 18.1651V13.5806V8.99616L47.7773 8.756C47.6549 8.62391 47.4814 8.48363 47.3917 8.44421C47.2199 8.36874 45.9687 8.01625 45.6094 7.94207C45.4934 7.91814 45.0715 7.80782 44.6719 7.69701C44.2723 7.58615 43.8926 7.48401 43.8282 7.46999C43.5775 7.41551 42.1482 7.04689 41.8594 6.96226C41.6918 6.91313 41.4387 6.84684 41.2969 6.81497C41.1551 6.7831 40.902 6.71691 40.7344 6.66788C40.5668 6.61884 40.3137 6.55275 40.1719 6.52093C39.4746 6.36442 39.7257 6.58996 36.5309 3.25064C34.9193 1.5662 33.5342 0.145498 33.4528 0.0935731C33.3084 0.00154011 33.1358 -0.000813712 26.5313 0.000117895L19.7578 0.001098L19.5247 0.13476ZM23.9264 2.13517C23.9909 2.20263 24 2.45529 24 4.16651C24 5.87773 23.9909 6.13039 23.9264 6.19785C23.862 6.26517 23.6289 6.27488 22.0781 6.27488C20.0119 6.27488 20.1285 6.30317 20.174 5.81266C20.2032 5.49832 20.2682 5.0077 20.34 4.55877C20.3637 4.41044 20.4059 4.14567 20.4336 3.97038C20.4613 3.79509 20.5032 3.55238 20.5267 3.43103C20.6142 2.97925 20.6816 2.61578 20.7168 2.40548C20.7368 2.28638 20.7916 2.15953 20.8387 2.12354C20.9057 2.07231 21.2418 2.05814 22.3885 2.05814C23.6571 2.05814 23.8625 2.06843 23.9264 2.13517ZM32.6536 2.16846C32.7279 2.22916 33.6073 3.13532 34.6081 4.18215C35.8024 5.43158 36.4223 6.11386 36.4123 6.16794C36.3983 6.24443 36.0298 6.25125 31.277 6.26282L26.1567 6.27533L26.0575 6.17152C25.9693 6.07934 25.9619 6.03414 25.9912 5.76681C26.0094 5.60128 26.0203 5.36657 26.0155 5.24521C25.9995 4.83982 25.9972 2.84387 26.0123 2.43882C26.0277 2.02852 25.7685 2.05814 29.3408 2.05814H32.5186L32.6536 2.16846ZM3.23747 8.41165C3.28983 8.47769 3.23705 8.61959 2.87991 9.37277C2.64947 9.85878 2.41931 10.2873 2.36846 10.325C2.24738 10.4148 2.13352 10.4118 2.04239 10.3165C1.93303 10.2021 1.93303 8.5257 2.04239 8.41126C2.15016 8.29853 3.14799 8.29887 3.23747 8.41165ZM23.9264 8.41126C23.9921 8.48005 24 8.91859 24 12.5019C24 16.0853 23.9921 16.5238 23.9264 16.5926C23.8606 16.6614 23.4342 16.6696 19.9303 16.6689C17.7729 16.6685 15.9823 16.6512 15.9512 16.6305C15.92 16.6098 15.8315 16.391 15.7544 16.1444C15.1884 14.3327 13.8066 13.0658 11.8939 12.6048C11.605 12.5352 10.4263 12.5352 10.1374 12.6048C9.43093 12.7751 8.75082 13.0659 8.22657 13.4219C7.91312 13.6347 7.23418 14.3128 6.96451 14.6823C6.6766 15.0769 6.19013 16.1456 6.18821 16.3877C6.18783 16.4349 6.14532 16.5177 6.09376 16.5716C6.00301 16.6665 5.93752 16.6697 4.05802 16.6697C2.3551 16.6697 2.10699 16.6602 2.04239 16.5926C1.97799 16.5252 1.96875 16.277 1.96875 14.6103C1.96875 12.9437 1.97799 12.6954 2.04239 12.628C2.09972 12.568 2.22202 12.551 2.59388 12.551C3.11982 12.551 3.4815 12.4505 3.69188 12.246C3.75516 12.1845 4.20479 11.3028 4.69107 10.2865C5.17735 9.27029 5.61282 8.41601 5.65871 8.38801C5.71552 8.35345 8.6349 8.33673 14.7975 8.3357C22.9682 8.33437 23.8599 8.34173 23.9264 8.41126ZM39.5391 8.53035C39.9445 8.63822 40.3101 8.72648 40.3516 8.72648C40.3931 8.72648 40.5648 8.76831 40.7331 8.8194C40.9014 8.87049 41.2289 8.95924 41.461 9.0166C41.704 9.07667 41.9077 9.15561 41.9414 9.20273C41.9844 9.2627 42 9.58719 42 10.4159C42 11.4193 42.0105 11.5771 42.0924 11.8115C42.2043 12.1318 42.3285 12.2783 42.6196 12.4332C42.8395 12.5503 42.8486 12.551 44.3623 12.551C45.6832 12.551 45.8937 12.5611 45.9577 12.628C46.0221 12.6954 46.0313 12.9437 46.0313 14.6103C46.0313 16.277 46.0221 16.5252 45.9577 16.5926C45.8956 16.6574 45.7373 16.6697 44.9588 16.6697C44.2913 16.6697 44.0119 16.6526 43.9559 16.6084C43.9132 16.5747 43.8482 16.4251 43.8115 16.2759C43.7749 16.1268 43.6344 15.7669 43.4992 15.4761C42.8033 13.9782 41.5945 13.0071 39.9252 12.6048C39.8023 12.5752 39.3884 12.551 39.0054 12.551C38.4253 12.551 38.2355 12.5705 37.8693 12.668C37.6275 12.7324 37.3559 12.8188 37.2657 12.8601C37.1754 12.9014 37.0297 12.9631 36.9419 12.9974C36.5074 13.1666 35.5863 13.9031 35.2311 14.3652C34.6941 15.0636 34.509 15.4013 34.3099 16.0455C34.2298 16.3045 34.128 16.5347 34.072 16.5839C33.9804 16.6641 33.7185 16.6697 30.0475 16.6697C26.9626 16.6697 26.1108 16.6565 26.0738 16.6084C26.019 16.5371 26.0019 16.3036 26.0062 15.689C26.0099 15.1568 26.0099 14.9089 26.0058 14.2671C26.0041 13.9974 26.0027 13.6885 26.0027 13.5806C26.0027 13.4728 26.0027 13.1639 26.0027 12.8942C26.0027 12.6245 26.0027 12.3156 26.0027 12.2078C26.0027 12.0999 26.0027 11.791 26.0027 11.5213C26.0027 11.2516 26.0027 10.9427 26.0027 10.8349C26.0027 10.727 26.0014 10.4236 25.9999 10.1607C25.9984 9.89771 26.0023 9.61641 26.0085 9.53551C26.0148 9.45461 26.0058 9.19797 25.9887 8.96522C25.9601 8.57581 25.9655 8.53374 26.0569 8.43812L26.1563 8.33423H32.4792H38.802L39.5391 8.53035ZM27.586 9.50408C27.2569 9.71644 27 10.1279 27 10.4426C27 10.7573 27.2569 11.1688 27.586 11.3811C27.7139 11.4637 27.843 11.4719 29.0157 11.4719C30.1883 11.4719 30.3174 11.4637 30.4453 11.3811C30.7744 11.1688 31.0313 10.7573 31.0313 10.4426C31.0313 10.1279 30.7744 9.71644 30.4453 9.50408C30.3174 9.42151 30.1883 9.41327 29.0157 9.41327C27.843 9.41327 27.7139 9.42151 27.586 9.50408ZM45.181 9.98195C45.8537 10.1575 45.9733 10.2159 45.8855 10.3265C45.8443 10.3785 45.65 10.3936 45.0211 10.3936C44.1074 10.3936 44.0625 10.3778 44.0625 10.0567C44.0625 9.70854 44.1186 9.70477 45.181 9.98195ZM11.6484 14.7003C12.7162 14.9199 13.6168 15.8248 13.893 16.9556C13.9884 17.3464 13.994 18.2708 13.9028 18.5852C13.6661 19.4006 13.0545 20.186 12.3802 20.5403C11.9091 20.7878 11.5202 20.8864 11.0156 20.8864C10.1954 20.8864 9.49398 20.5782 8.91123 19.9617C8.38398 19.4039 8.15232 18.9532 8.05093 18.2877C7.9622 17.7054 7.99688 17.3326 8.20154 16.6697C8.44224 15.8899 9.24095 15.067 10.0172 14.7991C10.1619 14.7492 10.3349 14.7068 10.4018 14.7049C10.4687 14.703 10.5656 14.6814 10.6172 14.6569C10.7255 14.6054 11.3059 14.6298 11.6484 14.7003ZM39.7032 14.7267C40.2897 14.8936 40.8148 15.1918 41.1458 15.546C41.4185 15.8377 41.7586 16.4366 41.8813 16.8411C42.0261 17.3183 42.0446 18.0485 41.9242 18.5412C41.5958 19.8858 40.3821 20.8854 39.076 20.8869C38.7879 20.8872 38.5109 20.8514 38.2266 20.7773C37.2723 20.5281 36.3737 19.5984 36.152 18.6309C35.9772 17.8684 35.9732 17.774 36.0881 17.1355C36.1992 16.5175 36.4333 16.0848 36.9539 15.5348C37.3687 15.0967 37.6907 14.9003 38.2735 14.7302C38.7717 14.5848 39.2008 14.5837 39.7032 14.7267ZM10.875 16.7533C10.6098 16.7926 10.5359 16.8274 10.3552 16.9982C10.0963 17.2428 10.0312 17.3955 10.0314 17.7582C10.0316 18.0915 10.0969 18.2486 10.3409 18.5026C10.5012 18.6695 10.8288 18.8271 11.0156 18.8271C11.3165 18.8271 11.7099 18.5583 11.9129 18.2142C12.0403 17.9982 12.0283 17.6073 11.8851 17.3118C11.7608 17.0552 11.5379 16.8294 11.3753 16.7955C11.1639 16.7513 10.9884 16.7365 10.875 16.7533ZM38.6016 16.8247C38.4529 16.9104 38.2012 17.1724 38.1289 17.3169C38.0426 17.4891 38.0425 18.0563 38.1287 18.2289C38.2776 18.5271 38.741 18.8271 39.0527 18.8271C39.2102 18.8271 39.5325 18.6708 39.6961 18.5151C39.8642 18.3551 40.0313 17.9729 40.0313 17.7484C40.0313 17.4439 39.8355 17.0854 39.5749 16.9125C39.3854 16.7868 39.3131 16.7679 39.026 16.7692C38.8441 16.77 38.6532 16.795 38.6016 16.8247Z" fill="black"/>
</svg>
