<svg width="29" height="11" viewBox="0 0 29 11" fill="none" xmlns="http://www.w3.org/2000/svg">
<path fill-rule="evenodd" clip-rule="evenodd" d="M0.0580074 5.26465C0.141795 5.12951 0.921923 4.36439 1.20683 4.13794C1.54265 3.87101 1.98531 3.58685 2.34062 3.41007C2.52342 3.31914 3.28708 3.07363 3.48038 3.04367C3.68586 3.01179 4.45142 3.01179 4.6569 3.04367C4.8502 3.07363 5.61386 3.31914 5.79666 3.41007C6.40225 3.71135 6.9356 4.10187 7.52201 4.67336L7.8764 5.01874L8.39712 5.0077C8.68349 5.00163 8.93571 4.99093 8.95756 4.98393C9.02624 4.96197 9.00115 4.88129 8.8924 4.77431C8.66505 4.55064 8.35671 4.11413 8.17355 3.75664C8.10875 3.63014 7.87936 2.98332 7.81592 2.74824C7.67442 2.22386 7.58281 0.880366 7.66444 0.527225C7.73843 0.207085 7.79891 0.137389 8.0848 0.0425114C8.33486 -0.0404796 9.60751 0.00537931 10.142 0.116618C10.2207 0.132978 10.3424 0.156346 10.4123 0.168514C10.6467 0.209337 11.1905 0.401033 11.486 0.547026C12.2816 0.940145 12.7749 1.42545 13.1745 2.20816C13.3229 2.49886 13.5178 3.03378 13.5592 3.26439C13.5716 3.33321 13.5953 3.45287 13.6118 3.53029C13.6602 3.75718 13.7078 4.17548 13.7302 4.57163C13.7459 4.84854 13.763 4.94789 13.7988 4.97038C13.8261 4.98753 14.1112 4.99703 14.4661 4.99259C15.1664 4.9839 15.1977 4.97116 14.9994 4.77606C14.7703 4.55067 14.4625 4.11526 14.2787 3.75664C14.2139 3.63014 13.9845 2.98332 13.9211 2.74824C13.7796 2.22386 13.688 0.880366 13.7696 0.527224C13.8436 0.207085 13.9041 0.137389 14.19 0.0425111C14.4249 -0.0354434 15.7036 0.00447239 16.1995 0.105231C16.7882 0.224791 17.21 0.358709 17.5908 0.546838C18.3868 0.940146 18.88 1.4253 19.2797 2.20816C19.4281 2.49886 19.6229 3.03378 19.6644 3.26439C19.6768 3.33321 19.7005 3.45286 19.717 3.53029C19.7654 3.75718 19.813 4.17548 19.8354 4.57163C19.8511 4.84854 19.8682 4.94789 19.904 4.97038C19.9313 4.98753 20.2164 4.99703 20.5713 4.99259C21.2716 4.9839 21.3029 4.97116 21.1046 4.77606C20.8529 4.52853 20.502 4.01838 20.3551 3.6867C20.3208 3.60927 20.2682 3.48962 20.238 3.4208C20.2079 3.35198 20.1554 3.19714 20.1213 3.0767C20.0872 2.95626 20.0452 2.80846 20.028 2.74824C19.935 2.42263 19.8702 1.84638 19.8521 1.18474C19.8345 0.540081 19.8703 0.336592 20.0287 0.180714C20.1887 0.0233663 20.3911 -0.0101365 21.0808 0.00666186C21.8574 0.0255248 22.0994 0.0532712 22.6704 0.188722C23.7416 0.442887 24.5861 0.969988 25.0832 1.69466C25.3792 2.12636 25.6946 2.84747 25.7696 3.26439C25.782 3.33321 25.8057 3.45286 25.8222 3.53029C25.8706 3.75718 25.9182 4.17548 25.9406 4.57163C25.9563 4.84879 25.9733 4.9478 26.0092 4.97001C26.037 4.9873 26.5927 4.99979 27.3479 5.00007C28.6378 5.00054 28.6391 5.0006 28.7463 5.07167C29.0846 5.29596 29.0846 5.70613 28.7463 5.93042C28.6391 6.0015 28.6378 6.00156 27.3479 6.00203C26.5927 6.00231 26.037 6.01479 26.0092 6.03209C25.9733 6.0543 25.9563 6.15331 25.9406 6.43047C25.9182 6.82662 25.8706 7.24492 25.8222 7.47181C25.8057 7.54923 25.782 7.66889 25.7696 7.73771C25.7273 7.97273 25.5322 8.50527 25.3765 8.81052C25.2062 9.14426 24.9224 9.54029 24.6887 9.77022C24.3725 10.0813 23.8206 10.4306 23.403 10.5841C23.3324 10.61 23.2137 10.654 23.1394 10.6818C23.0651 10.7096 22.8969 10.7596 22.7658 10.7929C22.5414 10.85 22.4097 10.8741 21.9072 10.9497C21.7936 10.9668 21.4194 10.9874 21.0758 10.9955C20.372 11.0121 20.1713 10.9798 20.023 10.8261C19.8523 10.6491 19.8354 10.5484 19.8516 9.79868C19.8597 9.42217 19.8807 9.02261 19.8982 8.91078C20.0017 8.24813 20.0057 8.23077 20.1528 7.79592C20.3402 7.24217 20.6857 6.65407 21.0302 6.30224C21.3059 6.0208 21.3024 6.01858 20.5713 6.00951C20.2164 6.00506 19.9313 6.01457 19.904 6.03171C19.8682 6.05421 19.8511 6.15356 19.8354 6.43047C19.794 7.16077 19.6771 7.81378 19.5102 8.24604C19.4819 8.31914 19.4372 8.43586 19.4108 8.50533C19.2548 8.91622 18.8998 9.45909 18.5835 9.77022C18.2673 10.0813 17.7155 10.4306 17.2978 10.5841C17.2272 10.61 17.1085 10.654 17.0342 10.6818C16.8887 10.7362 16.5202 10.8331 16.2631 10.8845C15.9621 10.9447 15.5303 10.9798 14.8998 10.9951C14.2089 11.0118 14.0963 10.9927 13.9213 10.8294C13.7518 10.6712 13.73 10.5462 13.747 9.8279C13.7612 9.22741 13.7972 8.75224 13.8461 8.51975C14.033 7.63088 14.437 6.80053 14.9251 6.30224C15.2007 6.0208 15.1972 6.01858 14.4661 6.00951C14.1112 6.00506 13.8261 6.01457 13.7988 6.03171C13.763 6.05421 13.7459 6.15356 13.7302 6.43047C13.6889 7.16077 13.5719 7.81378 13.405 8.24604C13.3767 8.31914 13.332 8.43586 13.3056 8.50533C13.1497 8.91622 12.7946 9.45909 12.4783 9.77022C12.1621 10.0813 11.6103 10.4306 11.1926 10.5841C11.122 10.61 11.0033 10.654 10.929 10.6818C10.4338 10.8669 9.73215 10.9718 8.83383 10.995C8.004 11.0165 7.81637 10.9543 7.67833 10.6118C7.59178 10.3971 7.63315 9.22441 7.75264 8.50411C7.88823 7.68684 8.34033 6.77135 8.86162 6.25854C9.09012 6.03372 9.06837 6.02027 8.44049 5.99821L7.90028 5.97926L7.78854 6.09206C7.72708 6.15412 7.64838 6.24008 7.61365 6.2831C7.57893 6.32611 7.47187 6.42465 7.37571 6.50207C7.27959 6.57949 7.1695 6.67309 7.13109 6.71003C6.89862 6.93367 6.12812 7.44065 5.80067 7.58546C5.39842 7.76336 5.32675 7.79085 5.10207 7.85326C4.72946 7.9568 4.51667 7.98358 4.06864 7.98333C3.52846 7.98302 3.41885 7.9655 2.89768 7.79598C2.33381 7.61258 1.99288 7.43496 1.3843 7.00743C1.11634 6.81921 0.164021 5.90847 0.0604875 5.74142C-0.0191661 5.61291 -0.0203107 5.39103 0.0580074 5.26465Z" fill="#769B54"/>
</svg>
